<svg width="222" height="230" viewBox="0 0 222 230" fill="none" xmlns="http://www.w3.org/2000/svg">
<path fill-rule="evenodd" clip-rule="evenodd" d="M221.875 145.878C221.875 129.105 221.178 112.459 220.735 96.1934C219.912 69.8895 220.735 41.1713 219.025 15.3122C208.369 9.30392 196.559 5.64338 184.382 4.57457H181.722C170.512 3.7486 155.693 2.2873 147.776 1.14365C136.313 0.508289 120.86 0 109.333 0H105.66C88.0535 0 72.917 1.14363 54.9939 1.52485C40.744 3.43093 22.6308 5.46408 10.9777 7.87844C8.08945 9.01839 5.52363 10.8508 3.50446 13.2155C3.12446 16.9641 1.16119 32.2762 0.971192 38.2486C0.527864 49.3674 0.274441 60.6133 0.0844434 71.9227C-0.105554 83.2321 0.0844434 94.9862 0.0844434 106.677C0.0844434 118.367 0.0845517 130.439 0.591212 142.511V143.972C0.907875 159.602 1.47787 175.423 2.17453 191.497C2.17453 192.133 2.17453 192.831 2.17453 193.467C2.99785 197.343 3.94779 201.218 4.89778 204.713C5.53111 207.127 6.22775 209.351 6.86107 211.066C8.43589 214.358 10.6992 217.271 13.497 219.606C16.2948 221.941 19.5613 223.645 23.0742 224.599C36.8807 224.155 50.0538 224.218 62.9736 224.599C75.8935 224.981 88.3068 225.425 101.29 226.124C114.273 226.823 126.623 227.586 139.289 228.285C151.956 228.983 165.509 229.619 179.379 230C191.373 228.352 203.103 225.148 214.275 220.47L221.685 197.914V197.47C222.065 180.061 222.065 162.652 221.875 145.878ZM110.03 129.74C108.573 133.235 107.18 136.729 105.723 140.287C106.926 136.729 108.32 133.171 109.776 129.74H110.03ZM144.229 50.7652C145.496 48.0967 146.763 45.5552 147.903 43.2679C146.509 45.5552 145.243 48.2873 143.976 50.7652H144.229ZM140.493 58.7707L142.836 53.6243C141.823 55.2762 140.999 56.9917 140.239 58.7707H140.493Z" fill="#924000"/>
<path fill-rule="evenodd" clip-rule="evenodd" d="M217.251 142C218.834 160.249 220.354 178.752 222 197.634L214.591 220.129C203.487 224.537 191.87 227.518 180.016 229C152.407 228.24 127.014 226.465 101.685 225.071C76.3554 223.677 51.0257 222.79 23.5432 223.677C20.038 222.692 16.7786 220.981 13.9753 218.657C11.172 216.332 8.88748 213.444 7.26918 210.181C5.42355 204.505 3.90132 198.73 2.70986 192.882C3.81876 175.97 3.24592 158.989 1 142.19H217.251V142Z" fill="url(#paint0_linear_299_7596)"/>
<path fill-rule="evenodd" clip-rule="evenodd" d="M109.128 0C119.336 9.94386 130.173 19.2096 141.572 27.7389C143.249 29.332 145.349 30.3993 147.617 30.8107C149.885 31.222 152.223 30.9598 154.346 30.0559C163.986 22.0603 173.216 13.5753 182 4.63386C170.696 3.79719 155.751 2.31694 147.767 1.15847C136.207 0.514878 120.624 0 109 0H109.128Z" fill="url(#paint1_radial_299_7596)"/>
<path fill-rule="evenodd" clip-rule="evenodd" d="M147.817 43.7146C142.674 53.9159 136.07 68.1091 128.768 84.8369C125.021 93.3275 121.147 102.452 117.147 112.019C113.147 121.587 108.892 131.852 104.447 142.37C100.002 152.888 96.1924 163.09 92.065 173.671C87.9376 184.253 83.8734 195.215 80 205.923C97.3988 205.923 114.671 205.923 132.133 205.923C149.595 205.923 167.248 206.493 185.599 207C197.959 205.489 210.078 202.423 221.667 197.876C222.111 180.324 222.111 163.026 221.667 145.918C221.222 128.811 220.968 112.59 220.524 96.3689C219.698 70.1367 220.524 41.4969 218.809 15.7083C208.125 9.71645 196.284 6.06589 184.075 5C176.265 12.857 168.264 20.4605 160.009 28.2541C154.584 32.2531 150.223 37.5179 147.309 43.5878L147.817 43.7146Z" fill="url(#paint2_radial_299_7596)"/>
<path fill-rule="evenodd" clip-rule="evenodd" d="M100.222 141.975C107.523 123.24 115.076 105.097 122.883 87.5452C130.69 69.9939 138.729 53.2672 147 37.3653C147 33.7493 146.177 33.3687 141.113 30.0064C128.556 20.8936 116.687 10.8642 105.603 0C87.9426 0 72.8143 1.14188 54.9641 1.52251C40.722 3.42567 22.6186 5.4557 10.9717 7.86637C8.08507 9.00457 5.52064 10.8342 3.50256 13.1952C3.12277 16.9381 1.16056 32.2268 0.970667 38.19C0.527579 49.2917 0.274293 60.5204 0.0843978 71.8124C-0.105497 83.1045 0.0843978 94.8407 0.0843978 106.513C0.0843978 118.186 0.084506 130.239 0.590893 142.293C0.970683 159.04 1.5403 175.979 2.29988 193.044C3.99904 196.416 6.37876 199.398 9.28804 201.8C12.1973 204.203 15.5728 205.973 19.2006 207C39.013 206.366 58.1289 205.922 76.9918 205.795C80.7264 194.756 84.4611 183.908 88.3223 173.251C92.1835 162.593 96.1081 152.316 100.096 142.102L100.222 141.975Z" fill="url(#paint3_radial_299_7596)"/>
<path fill-rule="evenodd" clip-rule="evenodd" d="M80.1619 206C86.1064 189.601 92.4303 172.885 98.7542 156.677C105.078 140.469 111.402 124.897 117.346 110.786C123.291 96.6757 128.856 83.5187 133.978 72.0142C139.1 60.5097 143.591 50.8485 147.385 43.2848C150.287 37.1959 154.63 31.9146 160.033 27.9031C168.254 20.0852 176.222 12.4579 184 4.57635H181.344C172.646 13.4068 163.507 21.7865 153.962 29.6828C151.86 30.5755 149.545 30.8345 147.299 30.4282C145.054 30.022 142.974 28.9679 141.314 27.3946C130.027 18.9712 119.296 9.82044 109.189 0H105.521C116.594 10.8851 128.452 20.9338 140.998 30.0642C146.057 33.3693 147.322 33.8143 146.879 37.4372C140.555 50.1493 134.231 62.8615 128.223 75.5736C122.216 88.2857 116.208 102.396 110.453 116.316C104.699 130.236 98.8806 144.855 93.3788 159.664C87.8771 174.474 82.3121 190.11 77 205.936L80.1619 206Z" fill="url(#paint4_linear_299_7596)"/>
<path style="mix-blend-mode:screen" opacity="0.35" fill-rule="evenodd" clip-rule="evenodd" d="M221.875 145.878C221.875 129.105 221.178 112.459 220.735 96.1934C219.912 69.8895 220.735 41.1713 219.025 15.3122C208.369 9.30392 196.559 5.64338 184.382 4.57457H181.722C170.512 3.7486 155.693 2.2873 147.776 1.14365C136.313 0.508289 120.86 0 109.333 0H105.66C88.0535 0 72.917 1.14363 54.9939 1.52485C40.744 3.43093 22.6308 5.46408 10.9777 7.87844C8.08945 9.01839 5.52363 10.8508 3.50446 13.2155C3.12446 16.9641 1.16119 32.2762 0.971192 38.2486C0.527864 49.3674 0.274441 60.6133 0.0844434 71.9227C-0.105554 83.2321 0.0844434 94.9862 0.0844434 106.677C0.0844434 118.367 0.0845517 130.439 0.591212 142.511V143.972C0.907875 159.602 1.47787 175.423 2.17453 191.497C2.17453 192.133 2.17453 192.831 2.17453 193.467C2.99785 197.343 3.94779 201.218 4.89778 204.713C5.53111 207.127 6.22775 209.351 6.86107 211.066C8.43589 214.358 10.6992 217.271 13.497 219.606C16.2948 221.941 19.5613 223.645 23.0742 224.599C36.8807 224.155 50.0538 224.218 62.9736 224.599C75.8935 224.981 88.3068 225.425 101.29 226.124C114.273 226.823 126.623 227.586 139.289 228.285C151.956 228.983 165.509 229.619 179.379 230C191.373 228.352 203.103 225.148 214.275 220.47L221.685 197.914V197.47C222.065 180.061 222.065 162.652 221.875 145.878ZM110.03 129.74C108.573 133.235 107.18 136.729 105.723 140.287C106.926 136.729 108.32 133.171 109.776 129.74H110.03ZM144.229 50.7652C145.496 48.0967 146.763 45.5552 147.903 43.2679C146.509 45.5552 145.243 48.2873 143.976 50.7652H144.229ZM140.493 58.7707L142.836 53.6243C141.823 55.2762 140.999 56.9917 140.239 58.7707H140.493Z" fill="url(#paint5_radial_299_7596)"/>
<defs>
<linearGradient id="paint0_linear_299_7596" x1="111.5" y1="229" x2="111.5" y2="142" gradientUnits="userSpaceOnUse">
<stop stop-color="#57280C"/>
<stop offset="0.57" stop-color="#884329"/>
</linearGradient>
<radialGradient id="paint1_radial_299_7596" cx="0" cy="0" r="1" gradientUnits="userSpaceOnUse" gradientTransform="translate(120.688 -10.4262) scale(195.05 196.554)">
<stop stop-color="#CD9463"/>
<stop offset="1" stop-color="#734324"/>
</radialGradient>
<radialGradient id="paint2_radial_299_7596" cx="0" cy="0" r="1" gradientUnits="userSpaceOnUse" gradientTransform="translate(64.6332 33.5132) scale(263.903 263.335)">
<stop stop-color="#B6753E"/>
<stop offset="1" stop-color="#64381C"/>
</radialGradient>
<radialGradient id="paint3_radial_299_7596" cx="0" cy="0" r="1" gradientUnits="userSpaceOnUse" gradientTransform="translate(2.61633 0.507509) scale(211.923 212.392)">
<stop stop-color="#C28653"/>
<stop offset="1" stop-color="#734324"/>
</radialGradient>
<linearGradient id="paint4_linear_299_7596" x1="155.416" y1="130.363" x2="65.1611" y2="40.565" gradientUnits="userSpaceOnUse">
<stop stop-color="#8F5630"/>
<stop offset="1" stop-color="#AE8361"/>
</linearGradient>
<radialGradient id="paint5_radial_299_7596" cx="0" cy="0" r="1" gradientUnits="userSpaceOnUse" gradientTransform="translate(1.22443 -18.9972) scale(229.517 230.254)">
<stop stop-color="#F39200"/>
<stop offset="0.45" stop-color="#B63000"/>
<stop offset="0.52" stop-color="#9D2900"/>
<stop offset="0.85" stop-color="#2F0C00"/>
<stop offset="1" stop-color="#030000"/>
</radialGradient>
</defs>
</svg>
