<svg width="17" height="17" viewBox="0 0 17 17" fill="none" xmlns="http://www.w3.org/2000/svg">
<path fill-rule="evenodd" clip-rule="evenodd" d="M16.491 10.7183C16.491 9.51332 16.4408 8.31742 16.4088 7.1489C16.3495 5.2592 16.4088 3.19604 16.2856 1.33828C15.5176 0.906642 14.6664 0.643664 13.7888 0.566879H13.5971C12.7892 0.50754 11.7211 0.402558 11.1505 0.320397C10.3243 0.274752 9.21061 0.238235 8.37986 0.238235H8.11513C6.8462 0.238235 5.75528 0.320396 4.46352 0.347783C3.43651 0.484718 2.13105 0.630782 1.29118 0.804234C1.08302 0.886129 0.898099 1.01777 0.752573 1.18765C0.725186 1.45696 0.583689 2.557 0.569996 2.98607C0.538044 3.78486 0.51978 4.59278 0.506086 5.40526C0.492392 6.21774 0.506086 7.06218 0.506086 7.90205C0.506086 8.74192 0.506094 9.60917 0.54261 10.4764V10.5814C0.565432 11.7043 0.606513 12.8408 0.656723 13.9957C0.656723 14.0413 0.656723 14.0915 0.656723 14.1372C0.716061 14.4156 0.784526 14.694 0.852993 14.9451C0.898638 15.1185 0.948847 15.2783 0.994492 15.4015C1.10799 15.638 1.27111 15.8473 1.47276 16.015C1.6744 16.1828 1.90982 16.3052 2.163 16.3738C3.15807 16.3418 4.10748 16.3464 5.03864 16.3738C5.9698 16.4012 6.86445 16.4331 7.80018 16.4833C8.7359 16.5335 9.62598 16.5883 10.5389 16.6385C11.4518 16.6887 12.4286 16.7344 13.4282 16.7618C14.2927 16.6434 15.1381 16.4132 15.9433 16.0771L16.4773 14.4567V14.4247C16.5047 13.1741 16.5047 11.9234 16.491 10.7183ZM8.43008 9.55896C8.3251 9.81001 8.22467 10.0611 8.11968 10.3167C8.20641 10.0611 8.30684 9.80545 8.41182 9.55896H8.43008ZM10.8949 3.88528C10.9862 3.69357 11.0775 3.51099 11.1596 3.34667C11.0592 3.51099 10.9679 3.70726 10.8767 3.88528H10.8949ZM10.6256 4.46041L10.7945 4.09068C10.7215 4.20936 10.6621 4.3326 10.6073 4.46041H10.6256Z" fill="#924000"/>
<path fill-rule="evenodd" clip-rule="evenodd" d="M16.135 10.449C16.2491 11.7636 16.3587 13.0965 16.4773 14.4567L15.9433 16.0771C15.1429 16.3946 14.3055 16.6094 13.4511 16.7161C11.4609 16.6613 9.63058 16.5335 7.80478 16.4331C5.97897 16.3327 4.15316 16.2688 2.17216 16.3327C1.9195 16.2617 1.68455 16.1385 1.48248 15.971C1.28042 15.8035 1.11574 15.5955 0.999091 15.3604C0.866054 14.9516 0.756329 14.5356 0.670446 14.1143C0.750378 12.8961 0.709086 11.6729 0.547195 10.4627H16.135V10.449Z" fill="url(#paint0_linear_304_9647)"/>
<path fill-rule="evenodd" clip-rule="evenodd" d="M8.37984 0.238235C9.10939 0.943475 9.88395 1.60062 10.6986 2.20554C10.8184 2.31852 10.9685 2.39422 11.1306 2.42339C11.2927 2.45257 11.4598 2.43397 11.6115 2.36986C12.3005 1.8028 12.9602 1.20102 13.5879 0.566879C12.78 0.50754 11.7119 0.402558 11.1414 0.320397C10.3152 0.274752 9.20145 0.238235 8.37071 0.238235H8.37984Z" fill="url(#paint1_radial_304_9647)"/>
<path fill-rule="evenodd" clip-rule="evenodd" d="M11.1414 3.34665C10.7717 4.08154 10.297 5.10399 9.77203 6.30902C9.50273 6.92066 9.22428 7.57795 8.93672 8.26719C8.64916 8.95644 8.34333 9.69589 8.02382 10.4536C7.7043 11.2113 7.43044 11.9462 7.13375 12.7085C6.83705 13.4707 6.54491 14.2604 6.26648 15.0318C7.51715 15.0318 8.75871 15.0318 10.014 15.0318C11.2692 15.0318 12.5381 15.0729 13.8573 15.1094C14.7457 15.0006 15.6169 14.7797 16.4499 14.4521C16.4818 13.1877 16.4818 11.9416 16.4499 10.7092C16.4179 9.47679 16.3997 8.30827 16.3677 7.13976C16.3084 5.25005 16.3677 3.1869 16.2445 1.32914C15.4765 0.897502 14.6253 0.634524 13.7477 0.557739C13.1863 1.12374 12.6111 1.67148 12.0178 2.23291C11.6278 2.52099 11.3143 2.90026 11.1049 3.33753L11.1414 3.34665Z" fill="url(#paint2_radial_304_9647)"/>
<path fill-rule="evenodd" clip-rule="evenodd" d="M7.72714 10.4536C8.25358 9.10555 8.79827 7.8001 9.36123 6.53726C9.92419 5.27441 10.5039 4.0709 11.1003 2.92673C11.1003 2.66655 11.041 2.63917 10.6758 2.39725C9.77029 1.74156 8.9144 1.01993 8.11513 0.238235C6.84163 0.238235 5.75071 0.320396 4.46352 0.347783C3.43651 0.484718 2.13105 0.630782 1.29118 0.804234C1.08302 0.886129 0.898099 1.01777 0.752573 1.18765C0.725186 1.45696 0.583689 2.557 0.569996 2.98607C0.538044 3.78486 0.51978 4.59278 0.506086 5.40526C0.492392 6.21774 0.506086 7.06218 0.506086 7.90205C0.506086 8.74192 0.506094 9.60917 0.54261 10.4764C0.569997 11.6815 0.611073 12.9002 0.665847 14.128C0.788375 14.3707 0.959979 14.5852 1.16977 14.7581C1.37956 14.931 1.62297 15.0584 1.88458 15.1322C3.31327 15.0866 4.69174 15.0546 6.05196 15.0455C6.32127 14.2513 6.59058 13.4707 6.86901 12.7039C7.14745 11.9371 7.43045 11.1976 7.71802 10.4627L7.72714 10.4536Z" fill="url(#paint3_radial_304_9647)"/>
<path fill-rule="evenodd" clip-rule="evenodd" d="M6.28932 15.0318C6.71839 13.8542 7.17484 12.6537 7.63129 11.4898C8.08774 10.3258 8.54419 9.2075 8.97325 8.19417C9.40232 7.18085 9.80398 6.236 10.1737 5.40983C10.5434 4.58365 10.8675 3.88984 11.1414 3.34667C11.3509 2.9094 11.6643 2.53013 12.0543 2.24205C12.6477 1.68062 13.2228 1.13288 13.7842 0.566879H13.5925C12.9647 1.20102 12.3051 1.8028 11.6161 2.36986C11.4644 2.43397 11.2973 2.45257 11.1352 2.42339C10.9731 2.39422 10.823 2.31852 10.7032 2.20554C9.88853 1.60062 9.11398 0.943475 8.38443 0.238235H8.11968C8.91896 1.01993 9.77485 1.74156 10.6804 2.39725C11.0455 2.6346 11.1368 2.66655 11.1049 2.92673C10.6484 3.83963 10.192 4.75253 9.75835 5.66544C9.32472 6.57834 8.8911 7.59166 8.47573 8.59128C8.06035 9.59091 7.64041 10.6407 7.2433 11.7043C6.84619 12.7678 6.44451 13.8907 6.0611 15.0272L6.28932 15.0318Z" fill="url(#paint4_linear_304_9647)"/>
<path style="mix-blend-mode:screen" fill-rule="evenodd" clip-rule="evenodd" d="M5.1208 15.7895C4.2079 15.7895 2.62401 15.9584 2.21777 15.9949C1.79375 15.8742 1.41042 15.6407 1.10859 15.3194C1.01694 15.1859 0.933121 15.0472 0.857552 14.904C0.903197 15.0775 0.953405 15.2372 0.99905 15.3605C1.11255 15.5969 1.27567 15.8062 1.47732 15.974C1.67896 16.1417 1.91438 16.2641 2.16756 16.3327C3.16263 16.3007 4.11204 16.3053 5.0432 16.3327C5.97436 16.3601 6.86901 16.392 7.80474 16.4422C8.74046 16.4925 9.63054 16.5472 10.5434 16.5974C11.4563 16.6476 12.4331 16.6933 13.4328 16.7207C14.2938 16.6151 15.1376 16.3988 15.9432 16.0771C16.0528 15.7347 16.1669 15.3878 16.281 15.0455C16.1925 15.1371 16.1088 15.233 16.03 15.3331C15.8291 15.5887 14.7428 15.8991 13.629 16.1319C12.8031 16.329 11.9616 16.4542 11.114 16.5062C10.16 16.4149 9.11474 16.2368 8.08316 16.0817C7.10334 15.9182 6.11367 15.8206 5.1208 15.7895Z" fill="url(#paint5_radial_304_9647)"/>
<path style="mix-blend-mode:screen" opacity="0.35" fill-rule="evenodd" clip-rule="evenodd" d="M16.491 10.7183C16.491 9.51332 16.4408 8.31742 16.4088 7.1489C16.3495 5.2592 16.4088 3.19604 16.2856 1.33828C15.5176 0.906642 14.6664 0.643664 13.7888 0.566879H13.5971C12.7892 0.50754 11.7211 0.402558 11.1505 0.320397C10.3243 0.274752 9.21061 0.238235 8.37986 0.238235H8.11513C6.8462 0.238235 5.75528 0.320396 4.46352 0.347783C3.43651 0.484718 2.13105 0.630782 1.29118 0.804234C1.08302 0.886129 0.898099 1.01777 0.752573 1.18765C0.725186 1.45696 0.583689 2.557 0.569996 2.98607C0.538044 3.78486 0.51978 4.59278 0.506086 5.40526C0.492392 6.21774 0.506086 7.06218 0.506086 7.90205C0.506086 8.74192 0.506094 9.60917 0.54261 10.4764V10.5814C0.565432 11.7043 0.606513 12.8408 0.656723 13.9957C0.656723 14.0413 0.656723 14.0915 0.656723 14.1372C0.716061 14.4156 0.784526 14.694 0.852993 14.9451C0.898638 15.1185 0.948847 15.2783 0.994492 15.4015C1.10799 15.638 1.27111 15.8473 1.47276 16.015C1.6744 16.1828 1.90982 16.3052 2.163 16.3738C3.15807 16.3418 4.10748 16.3464 5.03864 16.3738C5.9698 16.4012 6.86445 16.4331 7.80018 16.4833C8.7359 16.5335 9.62598 16.5883 10.5389 16.6385C11.4518 16.6887 12.4286 16.7344 13.4282 16.7618C14.2927 16.6434 15.1381 16.4132 15.9433 16.0771L16.4773 14.4567V14.4247C16.5047 13.1741 16.5047 11.9234 16.491 10.7183ZM8.43008 9.55896C8.3251 9.81001 8.22467 10.0611 8.11968 10.3167C8.20641 10.0611 8.30684 9.80545 8.41182 9.55896H8.43008ZM10.8949 3.88528C10.9862 3.69357 11.0775 3.51099 11.1596 3.34667C11.0592 3.51099 10.9679 3.70726 10.8767 3.88528H10.8949ZM10.6256 4.46041L10.7945 4.09068C10.7215 4.20936 10.6621 4.3326 10.6073 4.46041H10.6256Z" fill="url(#paint6_radial_304_9647)"/>
<g style="mix-blend-mode:multiply" opacity="0.4">
<path fill-rule="evenodd" clip-rule="evenodd" d="M15.6055 4.95337H15.4046C15.4331 4.91243 15.4591 4.86974 15.4822 4.82556L15.3544 4.65211H15.2768L15.3088 4.59733C15.1764 4.41019 15.0532 4.22304 14.9299 4.03133H14.8615L14.8934 3.98112C14.8158 3.86245 14.7382 3.73464 14.6652 3.6114H14.5419L14.5967 3.51098L14.4872 3.31927H14.3046C14.3046 3.2645 14.3548 3.20972 14.3822 3.15495L14.1631 3.11387L14.2179 2.98606L9.04171 1.98643C8.85456 2.44289 8.65372 2.89933 8.45288 3.3284L8.24292 3.78485C8.10142 4.07698 7.96449 4.37367 7.81842 4.66123C7.7317 4.83469 7.6404 5.00357 7.55367 5.17246C7.41674 5.43264 7.28437 5.69738 7.14287 5.95299C7.04701 6.13101 6.94203 6.30902 6.84618 6.48704L6.75945 6.6331C6.43081 7.20367 6.08847 7.76966 5.73701 8.3311C5.44944 8.78755 5.15731 9.244 4.85149 9.6685C4.63696 9.97432 4.41786 10.2756 4.1942 10.5814L3.87925 11.0105C3.54452 11.4487 3.20218 11.8823 2.85223 12.3114L3.13066 12.3753L2.9709 12.5807L3.16719 12.6217L3.11241 12.7085C3.5004 13.1923 3.87925 13.6761 4.20789 14.1737L4.36309 14.2102L4.30831 14.3289L9.50273 15.6069C10.2696 14.0367 11.082 12.4848 11.9402 10.9511H11.9767L12.4742 10.0839L12.9946 9.20749L12.9672 9.16641C13.7979 7.71489 14.6774 6.31055 15.6055 4.95337Z" fill="#3A1D0D"/>
</g>
<path fill-rule="evenodd" clip-rule="evenodd" d="M11.9173 5.50568L13.4282 6.01234L14.7975 3.65705L13.3323 3.37405L11.9128 5.50568H11.9173Z" fill="#38572E"/>
<path fill-rule="evenodd" clip-rule="evenodd" d="M11.4929 4.87577L13.0037 5.37786L14.3731 3.02258L12.9124 2.74414L11.4929 4.87577Z" fill="#38572E"/>
<path fill-rule="evenodd" clip-rule="evenodd" d="M11.2281 4.44214L12.7389 4.94424L14.1083 2.58895L12.6431 2.30595L11.2235 4.44214H11.2281Z" fill="#38572E"/>
<path fill-rule="evenodd" clip-rule="evenodd" d="M11.4198 9.89673L10.1965 9.59548L11.6343 9.4631L11.4198 9.89673Z" fill="#782F15"/>
<path fill-rule="evenodd" clip-rule="evenodd" d="M3.8336 13.101L3.756 13.2653L8.94586 14.5434C10.711 10.8761 12.7447 7.34416 15.0303 3.97656L14.6287 3.94461L14.5739 3.99026L14.1905 4.62016L14.4872 4.06329L3.8336 13.101Z" fill="#3A560D"/>
<path fill-rule="evenodd" clip-rule="evenodd" d="M2.77461 11.2935L2.55553 11.6449C2.94351 12.1288 3.32235 12.6126 3.65556 13.1101L8.83173 14.3699C10.726 10.7868 12.8302 7.29039 14.9299 3.83049C14.8843 3.77572 14.8432 3.71638 14.8021 3.65704L14.1905 4.62015L14.7519 3.57488C14.6195 3.38774 14.4963 3.20059 14.373 3.00888L13.9805 3.56575L14.3365 2.94498C14.2589 2.8263 14.1859 2.69849 14.1129 2.57525L13.1315 4.1637L14.0444 2.44745L13.9348 2.25574H13.2045L2.77461 11.2935Z" fill="#448833"/>
<path fill-rule="evenodd" clip-rule="evenodd" d="M2.55553 11.6449L7.7545 12.8682C9.93024 9.4418 11.9888 5.91039 13.9303 2.274H13.2045L2.77461 11.2935L2.55553 11.6449Z" fill="url(#paint7_radial_304_9647)"/>
<path fill-rule="evenodd" clip-rule="evenodd" d="M2.41405 11.5171L7.64498 12.7358C9.99365 9.36967 12.0608 5.81557 13.8253 2.10967L8.64004 1.11005C7.08257 4.86571 4.98176 8.37218 2.40492 11.5171H2.41405Z" fill="url(#paint8_radial_304_9647)"/>
<path fill-rule="evenodd" clip-rule="evenodd" d="M2.29538 11.2478L7.52173 12.4666C10.0414 9.25624 12.1072 5.71442 13.661 1.94079L8.48485 0.968552C6.93757 4.68028 4.85203 8.14387 2.29538 11.2478Z" fill="url(#paint9_radial_304_9647)"/>
<path fill-rule="evenodd" clip-rule="evenodd" d="M8.83173 14.37L7.7545 12.8682L2.55553 11.6449C2.94351 12.1288 3.32235 12.6126 3.65556 13.1102L8.83173 14.37Z" fill="url(#paint10_radial_304_9647)"/>
<path fill-rule="evenodd" clip-rule="evenodd" d="M7.75452 12.8682L8.83175 14.3699C10.726 10.7868 12.8303 7.29039 14.9299 3.83049C14.8843 3.77572 14.8432 3.71638 14.8021 3.65704L14.1905 4.62015L14.7519 3.57488C14.6195 3.38774 14.4963 3.20059 14.3731 3.00888L13.9805 3.56575L14.3365 2.94498C14.2589 2.8263 14.1859 2.69849 14.1129 2.57525L13.1315 4.1637L14.0444 2.44745L13.9349 2.25574C11.9904 5.883 9.93179 9.41441 7.75909 12.85L7.75452 12.8682Z" fill="url(#paint11_radial_304_9647)"/>
<path fill-rule="evenodd" clip-rule="evenodd" d="M3.51869 10.3212C4.4955 8.9884 5.43122 7.66013 6.2574 6.28165C7.08357 4.90316 7.76369 3.54294 8.42554 2.12338C8.62123 2.14751 8.81946 2.10764 8.9906 2.00972C9.16174 1.91181 9.29658 1.76112 9.37495 1.5802L10.8904 1.87233L12.4104 2.16446C12.3655 2.23766 12.3386 2.32045 12.3319 2.40606C12.3252 2.49166 12.3389 2.57764 12.3718 2.65692C12.4048 2.73621 12.4561 2.80655 12.5215 2.86218C12.5869 2.91781 12.6646 2.95714 12.7481 2.97694C12.0817 4.40107 11.3788 5.82519 10.5846 7.20824C9.79033 8.59129 8.84547 9.94695 7.88236 11.3163C7.66541 11.291 7.4456 11.3227 7.24467 11.4084C7.04374 11.494 6.86863 11.6306 6.73667 11.8047L5.22126 11.4669L3.68758 11.1109C3.95688 10.764 3.87929 10.4125 3.51869 10.3304V10.3212ZM9.09652 6.27252C9.51646 5.51481 9.91814 4.75406 10.3016 3.99026C10.3109 3.97313 10.3248 3.95893 10.3417 3.94926C10.3586 3.93958 10.3779 3.93482 10.3974 3.93549L10.6256 3.98113C10.6339 3.98338 10.6415 3.98753 10.6479 3.99327C10.6543 3.999 10.6592 4.00615 10.6624 4.01415C10.6655 4.02214 10.6667 4.03075 10.6658 4.03929C10.665 4.04783 10.6622 4.05605 10.6576 4.06329C10.2742 4.83013 9.87706 5.5924 9.45712 6.34555C9.44671 6.36378 9.43127 6.37863 9.41266 6.38834C9.39405 6.39806 9.37304 6.40221 9.35213 6.40032L9.12391 6.35011C9.11536 6.34918 9.10725 6.34585 9.10051 6.34051C9.09377 6.33517 9.08867 6.32804 9.08581 6.31993C9.08295 6.31182 9.08244 6.30307 9.08433 6.29468C9.08623 6.28629 9.09045 6.27861 9.09652 6.27252ZM8.06951 6.02147C8.37989 5.4646 8.68572 4.91229 8.98241 4.35086C9.2791 3.78943 9.53472 3.22799 9.79946 2.66199C9.81053 2.63476 9.83063 2.61217 9.85641 2.59803C9.88218 2.5839 9.91205 2.57908 9.94096 2.58439L10.2742 2.6483C10.2865 2.65104 10.2981 2.6566 10.3079 2.66454C10.3178 2.67248 10.3256 2.68258 10.3309 2.69407C10.3362 2.70556 10.3388 2.71811 10.3385 2.73076C10.3381 2.7434 10.3349 2.7558 10.3289 2.76698C10.0642 3.33297 9.79489 3.89897 9.50733 4.46041C9.21976 5.02184 8.9185 5.57415 8.59442 6.13102C8.57878 6.15753 8.55582 6.17896 8.52829 6.19272C8.50075 6.20649 8.46983 6.21201 8.43923 6.20862L8.10602 6.13558C8.05124 6.13558 8.03755 6.07168 8.06494 6.02147H8.06951ZM5.55446 8.30372C5.85073 7.88648 6.25676 7.55945 6.72754 7.35887C7.18105 7.14474 7.69014 7.07771 8.18362 7.16716C8.38326 7.19632 8.57206 7.27627 8.73191 7.39936C8.89177 7.52245 9.01731 7.68454 9.09652 7.8701C9.16087 8.06895 9.17705 8.28025 9.14372 8.48659C9.11039 8.69292 9.02849 8.88839 8.90481 9.05687C8.60172 9.48932 8.17779 9.82276 7.68609 10.0154C7.21413 10.2223 6.6905 10.2812 6.18436 10.1843C5.98942 10.1544 5.80579 10.0737 5.65194 9.95032C5.49809 9.82692 5.37947 9.66518 5.30799 9.48137C5.25482 9.28148 5.24858 9.072 5.28975 8.8693C5.33093 8.6666 5.41839 8.47616 5.54534 8.31285L5.55446 8.30372Z" fill="url(#paint12_radial_304_9647)"/>
<path fill-rule="evenodd" clip-rule="evenodd" d="M5.16647 7.263L10.4385 8.42239L11.4198 9.89672C11.7454 9.32159 12.0847 8.7419 12.4377 8.15764L11.4518 6.68331L6.18892 5.565C5.86027 6.13557 5.51794 6.70157 5.16647 7.263Z" fill="url(#paint13_radial_304_9647)"/>
<path fill-rule="evenodd" clip-rule="evenodd" d="M11.4518 6.68332C11.1231 7.29192 10.7853 7.87161 10.4384 8.4224V8.45435L11.3513 9.8237L11.3833 9.86935V9.90586C11.7089 9.33074 12.0482 8.75104 12.4012 8.16678L12.3738 8.12114L12.3464 8.08006L11.4335 6.71071V6.67876L11.4518 6.68332Z" fill="url(#paint14_linear_304_9647)"/>
<path fill-rule="evenodd" clip-rule="evenodd" d="M10.1098 6.40033C10.4658 6.50988 10.8493 6.66507 10.8858 7.03936C10.8002 7.41604 10.5914 7.75338 10.2924 7.99791C9.93396 8.1724 9.52753 8.2222 9.13757 8.13941L10.4385 8.42241C10.7854 7.85641 11.1231 7.27671 11.4518 6.68333L10.1098 6.40033Z" fill="#F2F2F2"/>
<path fill-rule="evenodd" clip-rule="evenodd" d="M6.14327 6.07166C6.53326 5.83163 6.99921 5.74692 7.44873 5.83431L6.18892 5.565C5.86027 6.13557 5.51794 6.70157 5.16647 7.263L6.27108 7.50492C5.91505 7.41363 5.47685 7.24018 5.64574 6.79286C5.75866 6.51995 5.92824 6.27413 6.14327 6.07166Z" fill="#F2F2F2"/>
<path style="mix-blend-mode:screen" opacity="0.5" fill-rule="evenodd" clip-rule="evenodd" d="M5.98349 5.96213C6.75033 4.89403 7.45327 3.72095 8.22923 2.73045C8.53671 2.30857 8.98258 2.00808 9.48903 1.88145C10.2422 1.67605 11.7302 1.7217 12.3464 2.24662C12.9626 2.77153 12.602 4.13632 12.1775 5.17246C12.7116 4.11806 13.2091 3.0454 13.661 1.94992L8.48485 0.968552C7.76174 2.6951 6.92616 4.37235 5.98349 5.98951V5.96213Z" fill="url(#paint15_radial_304_9647)"/>
<path style="mix-blend-mode:multiply" opacity="0.5" fill-rule="evenodd" clip-rule="evenodd" d="M11.5203 9.2075C11.398 9.25906 11.2617 9.26678 11.1345 9.22935C11.0072 9.19191 10.8968 9.11163 10.8219 9.0021L11.4199 9.915C11.7455 9.33987 12.0848 8.76018 12.4378 8.17592L11.9539 7.45473C12.044 7.63697 12.0953 7.83591 12.1045 8.03898C12.1237 8.27115 12.0794 8.50416 11.9765 8.71316C11.8736 8.92217 11.7159 9.09932 11.5203 9.22576V9.2075Z" fill="url(#paint16_radial_304_9647)"/>
<path fill-rule="evenodd" clip-rule="evenodd" d="M5.9424 5.98951L11.1962 7.1352L11.4518 6.67875L6.18889 5.56044L5.9424 5.98951ZM10.7032 8.00246L5.44487 6.84307L5.18469 7.26757L10.4658 8.42695L10.7169 8.00702L10.7032 8.00246Z" fill="url(#paint17_radial_304_9647)"/>
<path fill-rule="evenodd" clip-rule="evenodd" d="M11.2144 7.14434L12.1821 8.58672C12.2643 8.44066 12.351 8.29916 12.4377 8.15766L11.4518 6.68332L11.1962 7.13977L11.2144 7.14434ZM11.6709 9.45854L10.7032 8.00703L10.4476 8.4224L11.429 9.89673L11.68 9.44028L11.6709 9.45854Z" fill="#952F0E"/>
<g style="mix-blend-mode:multiply" opacity="0.25">
<path fill-rule="evenodd" clip-rule="evenodd" d="M4.42245 12.2383L7.84584 12.9915L10.4248 8.82408L7.92343 13.1056L4.42245 12.2383Z" fill="#37532E"/>
</g>
<g style="mix-blend-mode:multiply" opacity="0.25">
<path fill-rule="evenodd" clip-rule="evenodd" d="M6.58147 13.0554L8.11058 13.3658L9.57123 11.0242L8.19731 13.4844L6.58147 13.0554Z" fill="#37532E"/>
</g>
<g style="mix-blend-mode:multiply" opacity="0.25">
<path fill-rule="evenodd" clip-rule="evenodd" d="M5.49054 13.2562L8.50767 13.9181L10.5298 10.1295L8.59897 14.0459L5.49054 13.2562Z" fill="#37532E"/>
</g>
<path style="mix-blend-mode:screen" opacity="0.5" fill-rule="evenodd" clip-rule="evenodd" d="M13.871 3.47903C13.9714 3.31471 14.0764 3.15039 14.1814 2.98606L14.2681 2.84913L14.1951 2.73045L14.0581 2.96324L13.7705 3.45621C13.4145 4.06785 13.0494 4.67037 12.6842 5.28201L12.4377 5.68825L12.3966 5.75216L12.4377 5.69282L12.7025 5.28658C13.095 4.68863 13.4875 4.09068 13.871 3.48816V3.47903Z" fill="url(#paint18_radial_304_9647)"/>
<path style="mix-blend-mode:screen" opacity="0.5" fill-rule="evenodd" clip-rule="evenodd" d="M14.4187 3.09105L14.1585 3.5475C13.839 4.09981 13.5104 4.64755 13.1817 5.19529L12.8074 5.82062L12.0223 7.11695L12.8622 5.83432L13.3917 5.02183C13.7021 4.538 14.0124 4.05872 14.3046 3.57489L14.51 3.25993L14.4096 3.10474L14.4187 3.09105Z" fill="url(#paint19_radial_304_9647)"/>
<path style="mix-blend-mode:screen" opacity="0.5" fill-rule="evenodd" clip-rule="evenodd" d="M14.6332 3.41969L14.5283 3.60227L14.0079 4.48779L13.1452 5.91648L12.9581 6.22686L13.1589 5.92104C13.5058 5.39156 13.8527 4.86208 14.1951 4.32803C14.3411 4.09524 14.4918 3.87158 14.6515 3.62509L14.72 3.52011L14.6469 3.41969H14.6332Z" fill="url(#paint20_radial_304_9647)"/>
<path style="mix-blend-mode:screen" fill-rule="evenodd" clip-rule="evenodd" d="M4.67804 12.8363L8.29312 13.6214L10.0824 10.5312L8.38899 13.7492L4.67804 12.8363Z" fill="url(#paint21_radial_304_9647)"/>
<path style="mix-blend-mode:screen" opacity="0.5" fill-rule="evenodd" clip-rule="evenodd" d="M2.91158 12.0968L4.6187 12.4346L5.92415 12.6902L4.66891 12.3798L2.78833 11.9234L2.91158 12.0877V12.0968Z" fill="url(#paint22_radial_304_9647)"/>
<path style="mix-blend-mode:screen" opacity="0.5" fill-rule="evenodd" clip-rule="evenodd" d="M4.01163 12.9458L3.43651 12.7952L3.55062 12.9595L3.91122 13.0325L6.38061 13.5529L4.01163 12.9458Z" fill="url(#paint23_radial_304_9647)"/>
<path style="mix-blend-mode:screen" fill-rule="evenodd" clip-rule="evenodd" d="M6.27108 7.50492C5.93787 7.41819 5.54076 7.263 5.61836 6.88415L5.43121 6.8385L5.16647 7.263L6.27108 7.50492ZM6.17978 6.04428C6.56533 5.82844 7.01421 5.75416 7.44873 5.83431L6.18892 5.565L5.94243 5.99407L6.17978 6.04428Z" fill="url(#paint24_radial_304_9647)"/>
<path style="mix-blend-mode:multiply" fill-rule="evenodd" clip-rule="evenodd" d="M11.5066 9.21206C11.3854 9.2588 11.2521 9.26352 11.128 9.22545C11.0038 9.18737 10.896 9.10872 10.8219 9.00209L11.4199 9.91499L11.6709 9.45854L11.5066 9.21206ZM12.1045 8.02072C12.1122 8.15417 12.0999 8.28802 12.068 8.41783L12.1821 8.58672C12.2643 8.44066 12.351 8.29916 12.4378 8.15766L11.9539 7.43646C12.044 7.6187 12.0953 7.81765 12.1045 8.02072Z" fill="url(#paint25_radial_304_9647)"/>
<path style="mix-blend-mode:screen" fill-rule="evenodd" clip-rule="evenodd" d="M10.3746 7.934C10.3495 7.95809 10.3219 7.97951 10.2924 7.99791C10.2206 8.03588 10.1458 8.06793 10.0687 8.09376C9.93654 8.13967 9.79788 8.16432 9.65795 8.16679C9.49169 8.16832 9.3255 8.15917 9.16042 8.13941L9.58034 8.2307L9.9318 8.30829L10.3609 8.39958H10.4385L10.6941 7.98421H10.6211L10.3791 7.92944L10.3746 7.934ZM10.9223 7.08501L11.1095 7.12608H11.1779L11.4335 6.66963H11.4016H11.3788L10.9543 6.57835L10.1098 6.40033C10.3881 6.45454 10.6385 6.60478 10.8173 6.82483C10.8577 6.8895 10.8813 6.96325 10.8858 7.03936C10.8879 7.04442 10.889 7.04985 10.889 7.05534C10.889 7.06082 10.8879 7.06626 10.8858 7.07131H10.936L10.9223 7.08501Z" fill="url(#paint26_radial_304_9647)"/>
<path style="mix-blend-mode:screen" opacity="0.5" fill-rule="evenodd" clip-rule="evenodd" d="M4.21247 10.7092C3.69211 10.1295 4.02989 9.18012 4.43157 8.42697C3.76515 9.39921 3.06222 10.3395 2.29538 11.257L7.52173 12.4757C8.25206 11.5628 8.94587 10.5906 9.59403 9.61375C8.97782 10.3715 8.33423 11.0881 7.34829 11.3893C6.45822 11.6632 4.86519 11.4532 4.21247 10.7184V10.7092Z" fill="url(#paint27_radial_304_9647)"/>
<defs>
<linearGradient id="paint0_linear_304_9647" x1="8.51227" y1="16.7161" x2="8.51227" y2="10.449" gradientUnits="userSpaceOnUse">
<stop stop-color="#57280C"/>
<stop offset="0.57" stop-color="#884329"/>
</linearGradient>
<radialGradient id="paint1_radial_304_9647" cx="0" cy="0" r="1" gradientUnits="userSpaceOnUse" gradientTransform="translate(9.20602 -0.501215) scale(13.94 13.94)">
<stop stop-color="#CD9463"/>
<stop offset="1" stop-color="#734324"/>
</radialGradient>
<radialGradient id="paint2_radial_304_9647" cx="0" cy="0" r="1" gradientUnits="userSpaceOnUse" gradientTransform="translate(5.16187 2.61177) scale(18.9701 18.9701)">
<stop stop-color="#B6753E"/>
<stop offset="1" stop-color="#64381C"/>
</radialGradient>
<radialGradient id="paint3_radial_304_9647" cx="0" cy="0" r="1" gradientUnits="userSpaceOnUse" gradientTransform="translate(0.688666 0.274752) scale(15.282 15.282)">
<stop stop-color="#C28653"/>
<stop offset="1" stop-color="#734324"/>
</radialGradient>
<linearGradient id="paint4_linear_304_9647" x1="11.7211" y1="9.60004" x2="5.23948" y2="3.11845" gradientUnits="userSpaceOnUse">
<stop stop-color="#8F5630"/>
<stop offset="1" stop-color="#AE8361"/>
</linearGradient>
<radialGradient id="paint5_radial_304_9647" cx="0" cy="0" r="1" gradientUnits="userSpaceOnUse" gradientTransform="translate(8.88652 10.3897) scale(13.9035 13.9035)">
<stop stop-color="#160E0C"/>
<stop offset="0.15" stop-color="#1A100C"/>
<stop offset="0.31" stop-color="#26170E"/>
<stop offset="0.46" stop-color="#3A2210"/>
<stop offset="0.61" stop-color="#563212"/>
<stop offset="0.77" stop-color="#7A4616"/>
<stop offset="0.92" stop-color="#A65E1A"/>
<stop offset="1" stop-color="#C06D1D"/>
</radialGradient>
<radialGradient id="paint6_radial_304_9647" cx="0" cy="0" r="1" gradientUnits="userSpaceOnUse" gradientTransform="translate(0.588247 -1.12655) scale(16.5418 16.5418)">
<stop stop-color="#F39200"/>
<stop offset="0.45" stop-color="#B63000"/>
<stop offset="0.52" stop-color="#9D2900"/>
<stop offset="0.85" stop-color="#2F0C00"/>
<stop offset="1" stop-color="#030000"/>
</radialGradient>
<radialGradient id="paint7_radial_304_9647" cx="0" cy="0" r="1" gradientUnits="userSpaceOnUse" gradientTransform="translate(8.2429 7.56883) scale(22.3889 22.3889)">
<stop stop-color="#3D8A00"/>
<stop offset="1" stop-color="#7DCC00"/>
</radialGradient>
<radialGradient id="paint8_radial_304_9647" cx="0" cy="0" r="1" gradientUnits="userSpaceOnUse" gradientTransform="translate(8.11969 6.92523) scale(12.7852 12.7852)">
<stop stop-color="#3D8A00"/>
<stop offset="1" stop-color="#7DCC00"/>
</radialGradient>
<radialGradient id="paint9_radial_304_9647" cx="0" cy="0" r="1" gradientUnits="userSpaceOnUse" gradientTransform="translate(5.29883 5.29571) scale(10.4527 10.4527)">
<stop stop-color="#327300"/>
<stop offset="1" stop-color="#6BAD00"/>
</radialGradient>
<radialGradient id="paint10_radial_304_9647" cx="0" cy="0" r="1" gradientUnits="userSpaceOnUse" gradientTransform="translate(2.06256 10.6864) scale(24.4293 24.4293)">
<stop stop-color="#528500"/>
<stop offset="1" stop-color="#365C00"/>
</radialGradient>
<radialGradient id="paint11_radial_304_9647" cx="0" cy="0" r="1" gradientUnits="userSpaceOnUse" gradientTransform="translate(11.5111 1.61671) scale(13.8396 13.8396)">
<stop stop-color="#528500"/>
<stop offset="1" stop-color="#365C00"/>
</radialGradient>
<radialGradient id="paint12_radial_304_9647" cx="0" cy="0" r="1" gradientUnits="userSpaceOnUse" gradientTransform="translate(8.13798 6.69701) scale(5.98864)">
<stop stop-color="#85B319"/>
<stop offset="1" stop-color="#A9DE28"/>
</radialGradient>
<radialGradient id="paint13_radial_304_9647" cx="0" cy="0" r="1" gradientUnits="userSpaceOnUse" gradientTransform="translate(7.7865 8.17134) scale(3.81136)">
<stop stop-color="#BFC6E3"/>
<stop offset="1" stop-color="white"/>
</radialGradient>
<linearGradient id="paint14_linear_304_9647" x1="12.0862" y1="8.73279" x2="10.8036" y2="7.86553" gradientUnits="userSpaceOnUse">
<stop stop-color="#85A5C7"/>
<stop offset="1" stop-color="#BFC6E3"/>
</linearGradient>
<radialGradient id="paint15_radial_304_9647" cx="0" cy="0" r="1" gradientUnits="userSpaceOnUse" gradientTransform="translate(10.5891 6.84307) scale(8.85972 8.85971)">
<stop offset="0.31"/>
<stop offset="1" stop-color="#C9FC10"/>
</radialGradient>
<radialGradient id="paint16_radial_304_9647" cx="0" cy="0" r="1" gradientUnits="userSpaceOnUse" gradientTransform="translate(13.1361 9.89674) scale(3.01258 3.01258)">
<stop stop-color="#9C71E3"/>
<stop offset="1" stop-color="white"/>
</radialGradient>
<radialGradient id="paint17_radial_304_9647" cx="0" cy="0" r="1" gradientUnits="userSpaceOnUse" gradientTransform="translate(8.31595 6.99826) scale(4.14458 4.14457)">
<stop stop-color="#D7001E"/>
<stop offset="1" stop-color="#EB716D"/>
</radialGradient>
<radialGradient id="paint18_radial_304_9647" cx="0" cy="0" r="1" gradientUnits="userSpaceOnUse" gradientTransform="translate(13.4191 2.26487) scale(3.73375 3.73377)">
<stop stop-color="#5E7800"/>
<stop offset="1"/>
</radialGradient>
<radialGradient id="paint19_radial_304_9647" cx="0" cy="0" r="1" gradientUnits="userSpaceOnUse" gradientTransform="translate(13.8846 0.306699) scale(7.17995 7.17997)">
<stop stop-color="#5E7800"/>
<stop offset="1"/>
</radialGradient>
<radialGradient id="paint20_radial_304_9647" cx="0" cy="0" r="1" gradientUnits="userSpaceOnUse" gradientTransform="translate(15.1901 -0.460136) scale(7.50865 7.50861)">
<stop stop-color="#5E7800"/>
<stop offset="1"/>
</radialGradient>
<radialGradient id="paint21_radial_304_9647" cx="0" cy="0" r="1" gradientUnits="userSpaceOnUse" gradientTransform="translate(7.38023 12.1425) scale(2.22292 2.22292)">
<stop stop-color="#5E7800"/>
<stop offset="1"/>
</radialGradient>
<radialGradient id="paint22_radial_304_9647" cx="0" cy="0" r="1" gradientUnits="userSpaceOnUse" gradientTransform="translate(2.58293 10.4034) scale(4.7973 4.7973)">
<stop stop-color="#5E7800"/>
<stop offset="1"/>
</radialGradient>
<radialGradient id="paint23_radial_304_9647" cx="0" cy="0" r="1" gradientUnits="userSpaceOnUse" gradientTransform="translate(2.91616 12.5076) scale(5.39067 5.39067)">
<stop stop-color="#5E7800"/>
<stop offset="1"/>
</radialGradient>
<radialGradient id="paint24_radial_304_9647" cx="0" cy="0" r="1" gradientUnits="userSpaceOnUse" gradientTransform="translate(7.40308 7.17627) scale(3.75659)">
<stop/>
<stop offset="1" stop-color="#F24C7C"/>
</radialGradient>
<radialGradient id="paint25_radial_304_9647" cx="0" cy="0" r="1" gradientUnits="userSpaceOnUse" gradientTransform="translate(9.89988 7.46841) scale(3.31384 3.31383)">
<stop offset="0.33" stop-color="white"/>
<stop offset="0.41" stop-color="#FDFAFA"/>
<stop offset="0.49" stop-color="#F7ECEC"/>
<stop offset="0.58" stop-color="#EED5D5"/>
<stop offset="0.67" stop-color="#E1B4B4"/>
<stop offset="0.76" stop-color="#D08A8A"/>
<stop offset="0.86" stop-color="#BC5757"/>
<stop offset="0.96" stop-color="#A41C1C"/>
<stop offset="1" stop-color="#990000"/>
</radialGradient>
<radialGradient id="paint26_radial_304_9647" cx="0" cy="0" r="1" gradientUnits="userSpaceOnUse" gradientTransform="translate(9.69446 6.93894) scale(2.79347 2.79348)">
<stop/>
<stop offset="1" stop-color="#F24C7C"/>
</radialGradient>
<radialGradient id="paint27_radial_304_9647" cx="0" cy="0" r="1" gradientUnits="userSpaceOnUse" gradientTransform="translate(6.92835 8.14397) scale(6.94718 6.94719)">
<stop offset="0.31"/>
<stop offset="1" stop-color="#C9FC10"/>
</radialGradient>
</defs>
</svg>
