<svg width="16" height="17" viewBox="0 0 16 17" fill="none" xmlns="http://www.w3.org/2000/svg">
<path d="M15.988 8.27537C15.9592 8.13128 15.9303 7.95838 15.9015 7.79508C15.6902 4.63478 15.6278 1.96437 14.9409 0.499485C13.2167 0.248775 11.4804 0.0884597 9.73941 0.0191956H9.58092C6.07 0.249734 2.06919 0.614754 1.33915 0.883716C0.724382 1.72903 0.368968 3.36201 0.176852 4.43305C0.176852 4.48108 0.176852 4.52431 0.152837 4.56753C-0.00844021 6.84364 -0.0421132 9.12699 0.0519767 11.4069C0.0519767 11.5173 0.0519767 11.6182 0.0519767 11.7094C0.0519767 11.8007 0.0519767 11.8583 0.0519767 11.94C0.183051 12.7093 0.408905 13.4595 0.724382 14.1733C0.772411 14.303 0.825243 14.4279 0.873272 14.5479C1.05838 14.9967 1.27839 15.4303 1.53127 15.8447C1.63213 16.008 1.71858 16.1473 1.78102 16.2338C2.67436 16.2338 6.61753 16.4643 8.98536 16.6564C11.968 16.5411 14.4222 16.2626 15.33 15.7775L15.695 14.5672C15.9385 12.4792 16.0364 10.3769 15.988 8.27537Z" fill="#924000"/>
<path fill-rule="evenodd" clip-rule="evenodd" d="M0.782041 10.941L0.109636 12.1849C0.277703 12.8586 0.48294 13.5224 0.724407 14.1733C0.990931 14.9008 1.3458 15.5928 1.78104 16.2338C2.67438 16.2338 6.61756 16.4643 8.98538 16.6564C11.968 16.5412 14.4223 16.2626 15.33 15.7775L15.695 14.5672L15.7623 10.941H0.782041Z" fill="url(#paint0_linear_281_1710)"/>
<path style="mix-blend-mode:screen" fill-rule="evenodd" clip-rule="evenodd" d="M14.3406 15.6766C14.0717 15.6766 13.8603 15.912 13.5818 15.9504C13.3032 15.9888 9.33121 16.4835 9.28798 16.4739C7.90955 16.2194 5.77226 15.9936 5.11427 15.9216C4.87412 15.9216 2.91454 15.8063 2.00199 15.8351C1.685 14.8602 1.38242 14.8217 0.724421 14.1733C0.991651 14.9005 1.34648 15.5924 1.78106 16.2338C2.6744 16.2338 6.61757 16.4643 8.9854 16.6564C11.968 16.5412 14.4223 16.2626 15.33 15.7775L15.4933 15.2396C15.1632 15.5003 14.7607 15.6529 14.3406 15.6766Z" fill="url(#paint1_radial_281_1710)"/>
<path fill-rule="evenodd" clip-rule="evenodd" d="M0.0471739 11.964C0.181701 12.7254 0.409136 13.4674 0.724382 14.1733L5.93552 15.1916C9.19872 15.1932 12.4586 14.9847 15.695 14.5672C15.9385 12.4793 16.0364 10.3769 15.988 8.27539C15.0424 7.67722 14.0516 7.15371 13.0246 6.70964C8.92292 4.78848 4.65315 4.78849 0.152837 4.59157C-0.00844021 6.86767 -0.0421132 9.15102 0.0519767 11.4309V11.964H0.0471739Z" fill="url(#paint2_radial_281_1710)"/>
<path fill-rule="evenodd" clip-rule="evenodd" d="M8.75965 4.91335C8.71866 3.24814 8.98906 1.58993 9.55694 0.0240021C6.04602 0.254541 2.04521 0.619561 1.31517 0.888523C0.724414 1.72903 0.368999 3.36201 0.176884 4.43306L2.73202 4.52432C4.86451 4.59636 5.94036 4.63478 8.75965 4.90374V4.91335Z" fill="url(#paint3_radial_281_1710)"/>
<path fill-rule="evenodd" clip-rule="evenodd" d="M9.72021 0.0144081C9.32914 1.22337 9.10927 2.48113 9.06702 3.75106C9.0334 4.71164 9.23512 5.02863 9.66258 5.11989C10.8756 5.41641 12.0504 5.85153 13.1639 6.41667C14.2782 6.93538 15.085 7.37724 15.9015 7.77589C15.6902 4.61558 15.6278 1.94517 14.941 0.480289C13.2167 0.22958 11.4805 0.0692642 9.73942 0L9.72021 0.0144081Z" fill="url(#paint4_radial_281_1710)"/>
<path fill-rule="evenodd" clip-rule="evenodd" d="M0.152869 4.57717C4.65318 4.75488 8.92295 4.7933 13.0246 6.69524C14.0521 7.14395 15.0429 7.67228 15.988 8.2754C15.9592 8.13131 15.9304 7.95841 15.9016 7.79511C14.989 7.31482 14.2782 6.9546 13.1639 6.43589C12.0504 5.87076 10.8756 5.43563 9.6626 5.13911C9.23514 5.04785 9.03342 4.70685 9.06704 3.77028C9.10929 2.50035 9.32916 1.24259 9.72023 0.0336304H9.56174C8.99341 1.59622 8.7214 3.25108 8.75965 4.91337C5.94036 4.64441 4.86451 4.60599 2.73202 4.53394L0.176884 4.43308C0.176884 4.48111 0.176884 4.52434 0.152869 4.56756V4.57717ZM3.5149 13.3232C2.46306 12.6845 1.34879 12.0553 0.0568113 11.4309C0.0568113 11.5414 0.0568113 11.6422 0.0568113 11.7335C0.0568113 11.8247 0.0568113 11.8824 0.0568113 11.964C1.80026 12.4635 4.08644 14.0389 5.93555 15.1916C5.56573 14.6248 4.10085 13.6835 3.50529 13.3232H3.5149Z" fill="url(#paint5_linear_281_1710)"/>
<path style="mix-blend-mode:screen" opacity="0.35" d="M15.988 8.27537C15.9592 8.13128 15.9303 7.95838 15.9015 7.79508C15.6902 4.63478 15.6278 1.96437 14.9409 0.499485C13.2167 0.248775 11.4804 0.0884597 9.73941 0.0191956H9.58092C6.07 0.249734 2.06919 0.614754 1.33915 0.883716C0.724382 1.72903 0.368968 3.36201 0.176852 4.43305C0.176852 4.48108 0.176852 4.52431 0.152837 4.56753C-0.00844021 6.84364 -0.0421132 9.12699 0.0519767 11.4069C0.0519767 11.5173 0.0519767 11.6182 0.0519767 11.7094C0.0519767 11.8007 0.0519767 11.8583 0.0519767 11.94C0.183051 12.7093 0.408905 13.4595 0.724382 14.1733C0.772411 14.303 0.825243 14.4279 0.873272 14.5479C1.05838 14.9967 1.27839 15.4303 1.53127 15.8447C1.63213 16.008 1.71858 16.1473 1.78102 16.2338C2.67436 16.2338 6.61753 16.4643 8.98536 16.6564C11.968 16.5411 14.4222 16.2626 15.33 15.7775L15.695 14.5672C15.9385 12.4792 16.0364 10.3769 15.988 8.27537Z" fill="url(#paint6_radial_281_1710)"/>
<g style="mix-blend-mode:multiply" opacity="0.4">
<path fill-rule="evenodd" clip-rule="evenodd" d="M12.0304 5.11508L11.6942 4.87014C11.6641 4.84657 11.6319 4.82568 11.5982 4.8077L11.3532 4.63479L11.1995 4.53873L10.9882 4.40425L10.8105 4.30339L10.5896 4.17371C8.50991 2.97299 5.62817 4.07766 4.15369 6.6328C2.6792 9.18794 3.15949 12.2378 5.23914 13.4385C5.73617 13.7286 6.25111 13.9869 6.78087 14.2118C8.78368 15.0523 11.3628 13.9476 12.7269 11.5846C14.0909 9.22155 13.7643 6.43107 12.0304 5.11508Z" fill="#3A1D0D"/>
</g>
<path fill-rule="evenodd" clip-rule="evenodd" d="M11.4445 4.01041C13.1783 5.3264 13.5145 8.11208 12.1457 10.4751C10.7769 12.8381 8.2025 13.9428 6.19969 13.0783C5.66953 12.8561 5.15451 12.5994 4.65796 12.3098L7.33318 7.67502L10.0084 3.04503C10.5101 3.33182 10.9915 3.65277 11.4493 4.00561L11.4445 4.01041Z" fill="url(#paint7_linear_281_1710)"/>
<path style="mix-blend-mode:screen" fill-rule="evenodd" clip-rule="evenodd" d="M11.3868 4.63958C12.5876 5.54733 12.991 7.56935 12.2802 9.33201C11.5693 11.0947 9.9988 11.9688 8.65879 11.4165C8.30183 11.2668 7.95525 11.0935 7.62137 10.8978L9.00941 7.44447L10.4022 3.98639C10.7437 4.1834 11.0726 4.40155 11.3868 4.63958Z" fill="url(#paint8_radial_281_1710)"/>
<path style="mix-blend-mode:multiply" fill-rule="evenodd" clip-rule="evenodd" d="M11.5645 4.53873C13.039 5.66261 13.3656 8.08807 12.2561 10.1629C11.2235 12.0841 9.29276 13.0879 7.66457 12.6508C7.16751 12.8019 6.64509 12.8513 6.12851 12.796C5.61193 12.7407 5.11179 12.5819 4.65796 12.329C5.15502 12.6121 5.67002 12.8623 6.19969 13.0783C8.2025 13.9236 10.7817 12.8189 12.1457 10.4559C13.5097 8.09287 13.1783 5.3072 11.4445 3.9912C10.9849 3.64093 10.5037 3.3201 10.0036 3.03062C10.5396 3.35428 10.983 3.81088 11.2908 4.35622L11.5453 4.53873H11.5645Z" fill="url(#paint9_radial_281_1710)"/>
<g style="mix-blend-mode:screen">
<path fill-rule="evenodd" clip-rule="evenodd" d="M10.3302 3.27557C12.2514 4.43307 12.7317 7.33882 11.2908 9.81711C9.84992 12.2954 7.10747 13.3761 5.14308 12.2426C3.1787 11.1091 2.74164 8.18413 4.1825 5.70584C5.62337 3.22754 8.36583 2.14209 10.3302 3.27557Z" fill="#FCCE3A"/>
</g>
<path fill-rule="evenodd" clip-rule="evenodd" d="M10.0084 3.06424C12.0833 4.26016 12.5732 7.31 11.0939 9.86514C9.61458 12.4203 6.73284 13.5249 4.65799 12.329C2.58314 11.1331 2.09325 8.08326 3.57254 5.52332C5.05183 2.96338 7.92877 1.86352 10.0084 3.06424Z" fill="url(#paint10_radial_281_1710)"/>
<g style="mix-blend-mode:screen">
<path fill-rule="evenodd" clip-rule="evenodd" d="M7.86153 11.4357C7.84373 11.501 7.80833 11.5602 7.75921 11.6067C7.71009 11.6533 7.64913 11.6855 7.58297 11.6998C7.5265 11.7164 7.46707 11.7202 7.40894 11.7111C7.35082 11.702 7.29543 11.6801 7.24676 11.647C6.6389 11.7988 5.9976 11.7413 5.42647 11.4837C3.77907 10.7152 3.24115 8.37143 4.23055 6.24855C4.71186 5.18232 5.56577 4.32841 6.63199 3.8471C6.64242 3.77111 6.67622 3.70024 6.72871 3.6443C6.7812 3.58837 6.84979 3.55014 6.92497 3.53491C6.99232 3.51302 7.06445 3.51042 7.1332 3.5274C7.20195 3.54437 7.26458 3.58025 7.314 3.63097C7.53222 3.58799 7.75444 3.56866 7.9768 3.57334C8.00644 3.53175 8.04811 3.50025 8.0962 3.48307C8.14429 3.4659 8.19649 3.46388 8.24577 3.47728C8.28782 3.4853 8.32747 3.5029 8.36162 3.52872C8.39577 3.55454 8.42351 3.58789 8.44268 3.62617C8.64411 3.66982 8.84047 3.73421 9.02864 3.81829C10.676 4.58675 11.2092 6.93056 10.2198 9.04864C9.75382 10.1041 8.92354 10.9565 7.88075 11.4501L7.86153 11.4357Z" fill="#FFFCE4"/>
</g>
<path fill-rule="evenodd" clip-rule="evenodd" d="M9.2976 4.00562C10.8489 4.91336 11.1755 7.24757 10.0228 9.23597C8.87014 11.2244 6.66081 12.1177 5.11908 11.2292C3.57735 10.3406 3.24115 7.98722 4.39384 5.98921C5.54654 3.99121 7.75587 3.10747 9.2976 3.99601V4.00562Z" fill="url(#paint11_radial_281_1710)"/>
<path style="mix-blend-mode:multiply" opacity="0.5" fill-rule="evenodd" clip-rule="evenodd" d="M5.24393 6.79131C6.33419 4.91337 8.40904 4.05365 9.88353 4.91337C10.0922 5.03327 10.2816 5.18384 10.4455 5.36004C10.2234 4.79639 9.81937 4.32307 9.29758 4.01523C7.74144 3.11709 5.54652 4.01523 4.39382 6.00843C3.24113 8.00163 3.56772 10.331 5.11906 11.2484C5.23042 11.3121 5.34595 11.3683 5.46487 11.4165C4.40343 10.4079 4.27375 8.47232 5.24393 6.80091V6.79131Z" fill="url(#paint12_radial_281_1710)"/>
<path fill-rule="evenodd" clip-rule="evenodd" d="M4.90773 6.29658C5.96437 4.46668 7.89033 3.56374 9.40324 4.11127L9.54252 4.1689L9.41765 4.08245L9.29758 4.0056C7.74144 3.10746 5.54652 4.0056 4.39382 5.9988C3.24113 7.992 3.56772 10.3214 5.11906 11.2388L5.24393 11.3108L5.38322 11.3732L5.26314 11.2772C4.0336 10.2446 3.85109 8.12168 4.90773 6.29658Z" fill="url(#paint13_linear_281_1710)"/>
<path style="mix-blend-mode:multiply" fill-rule="evenodd" clip-rule="evenodd" d="M8.31298 3.95277C8.68301 3.93082 9.0537 3.98308 9.40324 4.10646L9.54252 4.1641L9.41765 4.07764L9.29758 4.0008C7.74144 3.10265 5.54652 4.0008 4.39382 5.994C3.24113 7.9872 3.56772 10.3166 5.11906 11.234L5.24393 11.306L5.38322 11.3684L5.26314 11.2724C5.07896 11.1125 4.91739 10.9283 4.78286 10.7248C3.63977 9.76427 3.44765 7.78068 4.40343 6.07085C5.30157 4.43306 6.96817 3.59255 8.31298 3.95277Z" fill="url(#paint14_radial_281_1710)"/>
<path style="mix-blend-mode:screen" fill-rule="evenodd" clip-rule="evenodd" d="M9.64338 4.87493C6.88652 3.62138 4.31697 7.20914 4.6964 9.52894C6.21892 8.9574 8.75005 7.70864 9.64338 4.87493Z" fill="url(#paint15_radial_281_1710)"/>
<defs>
<linearGradient id="paint0_linear_281_1710" x1="7.93835" y1="16.6564" x2="7.93835" y2="10.941" gradientUnits="userSpaceOnUse">
<stop offset="0.43" stop-color="#884329"/>
<stop offset="1" stop-color="#57280C"/>
</linearGradient>
<radialGradient id="paint1_radial_281_1710" cx="0" cy="0" r="1" gradientUnits="userSpaceOnUse" gradientTransform="translate(4.79247 7.52133) scale(17.0311 17.0311)">
<stop stop-color="#160E0C"/>
<stop offset="0.15" stop-color="#1A100C"/>
<stop offset="0.31" stop-color="#26170E"/>
<stop offset="0.46" stop-color="#3A2210"/>
<stop offset="0.61" stop-color="#563212"/>
<stop offset="0.77" stop-color="#7A4616"/>
<stop offset="0.92" stop-color="#A65E1A"/>
<stop offset="1" stop-color="#C06D1D"/>
</radialGradient>
<radialGradient id="paint2_radial_281_1710" cx="0" cy="0" r="1" gradientUnits="userSpaceOnUse" gradientTransform="translate(1.49284 0.989398) scale(19.9368 19.9368)">
<stop stop-color="#CD9463"/>
<stop offset="1" stop-color="#734324"/>
</radialGradient>
<radialGradient id="paint3_radial_281_1710" cx="0" cy="0" r="1" gradientUnits="userSpaceOnUse" gradientTransform="translate(7.90954 9.28398) scale(15.6094 15.6094)">
<stop stop-color="#CD9463"/>
<stop offset="1" stop-color="#734324"/>
</radialGradient>
<radialGradient id="paint4_radial_281_1710" cx="0" cy="0" r="1" gradientUnits="userSpaceOnUse" gradientTransform="translate(3.18347 10.4655) scale(16.5364 16.5364)">
<stop stop-color="#CD9463"/>
<stop offset="1" stop-color="#734324"/>
</radialGradient>
<linearGradient id="paint5_linear_281_1710" x1="11.5742" y1="12.6797" x2="1.75703" y2="2.86254" gradientUnits="userSpaceOnUse">
<stop stop-color="#85451A"/>
<stop offset="1" stop-color="#D49765"/>
</linearGradient>
<radialGradient id="paint6_radial_281_1710" cx="0" cy="0" r="1" gradientUnits="userSpaceOnUse" gradientTransform="translate(1.86267 0.605149) scale(15.7343 15.7343)">
<stop stop-color="#F39200"/>
<stop offset="0.45" stop-color="#B63000"/>
<stop offset="0.52" stop-color="#9D2900"/>
<stop offset="0.85" stop-color="#2F0C00"/>
<stop offset="1" stop-color="#030000"/>
</radialGradient>
<linearGradient id="paint7_linear_281_1710" x1="7.06421" y1="13.7171" x2="12.4146" y2="4.45228" gradientUnits="userSpaceOnUse">
<stop stop-color="#E86F0C"/>
<stop offset="0.69" stop-color="#FC940D"/>
<stop offset="1" stop-color="#E86F0C"/>
</linearGradient>
<radialGradient id="paint8_radial_281_1710" cx="0" cy="0" r="1" gradientUnits="userSpaceOnUse" gradientTransform="translate(9.02381 7.53093) scale(5.02383)">
<stop stop-color="#FFF369"/>
<stop offset="0.11" stop-color="#FAEF67"/>
<stop offset="0.23" stop-color="#EDE262"/>
<stop offset="0.36" stop-color="#D6CC58"/>
<stop offset="0.5" stop-color="#B7AE4B"/>
<stop offset="0.64" stop-color="#8E873B"/>
<stop offset="0.78" stop-color="#5C5826"/>
<stop offset="0.92" stop-color="#23210E"/>
<stop offset="1"/>
</radialGradient>
<radialGradient id="paint9_radial_281_1710" cx="0" cy="0" r="1" gradientUnits="userSpaceOnUse" gradientTransform="translate(6.39181 7.18993) scale(7.29079)">
<stop offset="0.51" stop-color="white"/>
<stop offset="0.68" stop-color="#E6DDC3"/>
<stop offset="1" stop-color="#B09444"/>
</radialGradient>
<radialGradient id="paint10_radial_281_1710" cx="0" cy="0" r="1" gradientUnits="userSpaceOnUse" gradientTransform="translate(5.41685 2.87213) scale(9.34643 9.34643)">
<stop stop-color="#FCF80D"/>
<stop offset="1" stop-color="#FC9C0D"/>
</radialGradient>
<radialGradient id="paint11_radial_281_1710" cx="0" cy="0" r="1" gradientUnits="userSpaceOnUse" gradientTransform="translate(2.72724 1.94517) scale(11.4213 11.4213)">
<stop stop-color="#FCF80D"/>
<stop offset="1" stop-color="#F78A0C"/>
</radialGradient>
<radialGradient id="paint12_radial_281_1710" cx="0" cy="0" r="1" gradientUnits="userSpaceOnUse" gradientTransform="translate(9.09585 8.49153) scale(6.59918)">
<stop offset="0.51" stop-color="white"/>
<stop offset="0.69" stop-color="#FFE2C3"/>
<stop offset="1" stop-color="#FFA84B"/>
</radialGradient>
<linearGradient id="paint13_linear_281_1710" x1="3.84149" y1="10.5039" x2="7.95276" y2="3.37642" gradientUnits="userSpaceOnUse">
<stop stop-color="#FC940D"/>
<stop offset="1" stop-color="#E86F0C"/>
</linearGradient>
<radialGradient id="paint14_radial_281_1710" cx="0" cy="0" r="1" gradientUnits="userSpaceOnUse" gradientTransform="translate(9.21112 8.77007) scale(6.39746 6.39746)">
<stop offset="0.51" stop-color="white"/>
<stop offset="0.68" stop-color="#E6DDC3"/>
<stop offset="1" stop-color="#B09444"/>
</radialGradient>
<radialGradient id="paint15_radial_281_1710" cx="0" cy="0" r="1" gradientUnits="userSpaceOnUse" gradientTransform="translate(2.50148 2.07485) scale(8.50592 8.50593)">
<stop stop-color="#FFF369"/>
<stop offset="0.11" stop-color="#FAEF67"/>
<stop offset="0.23" stop-color="#EDE262"/>
<stop offset="0.36" stop-color="#D6CC58"/>
<stop offset="0.5" stop-color="#B7AE4B"/>
<stop offset="0.64" stop-color="#8E873B"/>
<stop offset="0.78" stop-color="#5C5826"/>
<stop offset="0.92" stop-color="#23210E"/>
<stop offset="1"/>
</radialGradient>
</defs>
</svg>
