<svg width="16" height="17" viewBox="0 0 16 17" fill="none" xmlns="http://www.w3.org/2000/svg">
<path fill-rule="evenodd" clip-rule="evenodd" d="M15.9818 1.52224C15.3429 1.04579 14.6366 0.667188 13.8861 0.398893C11.8046 0.172336 9.32194 0.0543357 7.07053 0.00241631C5.89998 -0.0259033 3.36065 0.200653 1.08092 0.370571C0.783565 0.47913 0.339892 0.743449 0.330453 0.922807C0.240774 2.04615 0.127497 3.22614 0.0378184 3.97661C0.0378184 4.08045 0.0142152 4.17485 0.00477534 4.25981C-0.00466455 4.34477 0.00477534 4.4014 0.00477534 4.4722C0.0519748 5.53419 0.0708563 7.16257 0.0802962 8.64935C0.089736 10.1361 0.0802962 11.5238 0.0802962 11.9203C0.225357 12.7605 0.443299 13.5864 0.731651 14.3888C0.936042 15.018 1.18202 15.633 1.46796 16.2296C1.49533 16.2799 1.52526 16.3287 1.55764 16.3759C2.02963 16.3759 3.1813 16.3759 4.5312 16.4325C5.8811 16.4892 7.42925 16.5411 8.66587 16.6402C10.2187 16.5836 11.6347 16.475 12.7722 16.3193C13.6241 16.2477 14.4582 16.0355 15.2408 15.6915C15.3446 15.2573 15.4531 14.823 15.557 14.3935C15.557 13.6431 15.6986 10.8536 15.8071 8.0452C15.9299 5.35484 16.0195 2.61727 15.9818 1.52224ZM7.7974 9.47534C7.7974 9.55086 7.7974 9.6311 7.7974 9.70662C7.80212 9.63582 7.7974 9.54614 7.7974 9.48006V9.47534ZM7.7974 9.76798C7.80232 9.83959 7.81338 9.91065 7.83044 9.98038C7.82471 9.91127 7.82471 9.8418 7.83044 9.7727L7.7974 9.76798ZM7.7974 9.44702C7.7974 9.39982 7.7974 9.35263 7.7974 9.30543C7.79472 9.35416 7.79472 9.40301 7.7974 9.45174V9.44702Z" fill="#924000"/>
<path fill-rule="evenodd" clip-rule="evenodd" d="M0.420114 10.6553L0.0944366 11.925C0.239497 12.7652 0.45744 13.5911 0.745791 14.3935C0.961598 15.0859 1.23963 15.7573 1.5765 16.3995C2.04849 16.3995 3.20016 16.3995 4.55006 16.4561C5.89997 16.5128 7.44811 16.5647 8.68473 16.6638C10.2376 16.6072 11.6536 16.4986 12.7911 16.3428C13.6429 16.2713 14.4771 16.0591 15.2596 15.7151C15.3635 15.2809 15.472 14.8466 15.5759 14.4171C15.5381 13.1427 15.5003 11.8919 15.4673 10.6412H0.420114V10.6553Z" fill="url(#paint0_linear_281_1734)"/>
<path fill-rule="evenodd" clip-rule="evenodd" d="M7.35839 9.35261C5.99673 8.70692 4.68422 7.96232 3.43139 7.1248C2.22793 6.32231 1.0814 5.43758 0 4.47691C0.0471994 5.5389 0.0660809 7.16728 0.0755208 8.65406C0.0849607 10.1408 0.0755208 11.5285 0.0755208 11.925C0.292638 12.9728 1.41598 14.5918 1.83133 15.1298C2.82837 15.3678 3.85069 15.4835 4.8757 15.4744C6.23976 15.5216 7.85398 15.4744 9.421 15.3989C8.95959 14.4134 8.54843 13.4052 8.1891 12.3781C7.84116 11.3901 7.56202 10.3792 7.35367 9.35261H7.35839Z" fill="url(#paint1_radial_281_1734)"/>
<path fill-rule="evenodd" clip-rule="evenodd" d="M0.037796 3.98134C0.981637 5.03076 2.04993 5.96117 3.21903 6.75195C4.37991 7.53289 5.6034 8.21647 6.87699 8.79568C7.1909 8.9126 7.5199 8.98411 7.85402 9.00808C7.78502 9.3301 7.78502 9.66308 7.85402 9.9851C8.0734 10.9064 8.35085 11.8128 8.68473 12.6991C9.02959 13.6147 9.42996 14.5084 9.8836 15.3753C11.1627 15.295 12.3899 15.1676 13.3905 15.0071C14.148 14.9243 14.8883 14.7253 15.5853 14.4171C15.5853 13.6667 15.7269 10.8772 15.8354 8.06881C15.9393 5.35484 16.029 2.61728 15.9912 1.52697C15.3523 1.05052 14.646 0.671915 13.8955 0.40362C11.8141 0.177063 9.33136 0.0590659 7.07995 0.00714654C5.9094 -0.0211731 3.37007 0.205384 1.09034 0.375302C0.792985 0.48386 0.349312 0.748176 0.339872 0.927534C0.250193 2.05088 0.13691 3.23087 0.0472307 3.98134H0.037796Z" fill="url(#paint2_radial_281_1734)"/>
<path fill-rule="evenodd" clip-rule="evenodd" d="M7.80209 9.31014C8.65144 8.86551 9.52258 8.4638 10.4122 8.10655C11.4648 7.65816 12.3332 7.34664 13.3575 6.87465C14.2307 6.46873 15.4154 5.75602 15.6514 5.40675C14.882 5.87874 14.0891 6.31769 13.2631 6.71889C12.3474 7.19088 11.3751 7.58736 10.4311 7.96968C9.48711 8.35199 8.49592 8.69182 7.59913 8.97502C7.3617 8.94225 7.12887 8.88207 6.9053 8.79567C5.63171 8.21645 4.40822 7.53288 3.24734 6.75193C2.07824 5.96115 1.00995 5.03075 0.0661082 3.98132C0.0661082 4.08516 0.042505 4.17956 0.0330651 4.26452C0.0236252 4.34948 0.0330651 4.40612 0.0330651 4.47692C1.11447 5.43758 2.261 6.32232 3.46447 7.1248C4.71729 7.96233 6.02981 8.70693 7.39146 9.35262C7.59363 10.3787 7.86647 11.3896 8.20801 12.3781C8.56734 13.4052 8.9785 14.4134 9.43991 15.3989L9.87415 15.3753C9.42051 14.5084 9.02014 13.6147 8.67528 12.6991C8.3414 11.8128 8.06395 10.9064 7.84457 9.98509C7.80071 9.76296 7.78643 9.53601 7.80209 9.31014Z" fill="url(#paint3_linear_281_1734)"/>
<path style="mix-blend-mode:screen" fill-rule="evenodd" clip-rule="evenodd" d="M14.2307 15.6065C13.9475 15.6065 13.7304 15.8567 13.4519 15.9039C13.3197 15.9275 12.2153 16.0691 11.1438 16.206C10.0724 16.3429 9.01985 16.475 8.99625 16.4703C7.58027 16.1965 5.34301 15.9511 4.66334 15.8756C4.41318 15.8473 2.77536 15.9369 1.83137 15.97C1.64239 15.207 1.22198 14.5211 0.627792 14.0065C0.869195 14.8311 1.18516 15.6321 1.57178 16.3995C2.04378 16.3995 3.19544 16.3995 4.54534 16.4561C5.89524 16.5128 7.44339 16.5647 8.68001 16.6638C10.2329 16.6072 11.6489 16.4986 12.7864 16.3429C13.6382 16.2713 14.4723 16.0592 15.2549 15.7151L15.3965 15.1346C15.0693 15.417 14.6576 15.583 14.2259 15.6065H14.2307Z" fill="url(#paint4_radial_281_1734)"/>
<path style="mix-blend-mode:screen" opacity="0.35" fill-rule="evenodd" clip-rule="evenodd" d="M15.9818 1.52224C15.3429 1.04579 14.6366 0.667188 13.8861 0.398893C11.8046 0.172336 9.32194 0.0543357 7.07053 0.00241631C5.89998 -0.0259033 3.36065 0.200653 1.08092 0.370571C0.783565 0.47913 0.339892 0.743449 0.330453 0.922807C0.240774 2.04615 0.127497 3.22614 0.0378184 3.97661C0.0378184 4.08045 0.0142152 4.17485 0.00477534 4.25981C-0.00466455 4.34477 0.00477534 4.4014 0.00477534 4.4722C0.0519748 5.53419 0.0708563 7.16257 0.0802962 8.64935C0.089736 10.1361 0.0802962 11.5238 0.0802962 11.9203C0.225357 12.7605 0.443299 13.5864 0.731651 14.3888C0.936042 15.018 1.18202 15.633 1.46796 16.2296C1.49533 16.2799 1.52526 16.3287 1.55764 16.3759C2.02963 16.3759 3.1813 16.3759 4.5312 16.4325C5.8811 16.4892 7.42925 16.5411 8.66587 16.6402C10.2187 16.5836 11.6347 16.475 12.7722 16.3193C13.6241 16.2477 14.4582 16.0355 15.2408 15.6915C15.3446 15.2573 15.4531 14.823 15.557 14.3935C15.557 13.6431 15.6986 10.8536 15.8071 8.0452C15.9299 5.35484 16.0195 2.61727 15.9818 1.52224ZM7.7974 9.47534C7.7974 9.55086 7.7974 9.6311 7.7974 9.70662C7.80212 9.63582 7.7974 9.54614 7.7974 9.48006V9.47534ZM7.7974 9.76798C7.80232 9.83959 7.81338 9.91065 7.83044 9.98038C7.82471 9.91127 7.82471 9.8418 7.83044 9.7727L7.7974 9.76798ZM7.7974 9.44702C7.7974 9.39982 7.7974 9.35263 7.7974 9.30543C7.79472 9.35416 7.79472 9.40301 7.7974 9.45174V9.44702Z" fill="url(#paint5_radial_281_1734)"/>
<g style="mix-blend-mode:multiply" opacity="0.4">
<path fill-rule="evenodd" clip-rule="evenodd" d="M15.4154 5.70884C15.1882 5.69646 14.9631 5.75771 14.7735 5.88347C14.6469 5.96991 14.5396 6.08164 14.4583 6.21162C14.3771 6.3416 14.3237 6.487 14.3015 6.63866C14.2542 6.8196 14.2568 7.00999 14.3092 7.18953C14.3616 7.36907 14.4617 7.53103 14.5988 7.65817C14.3489 8.26678 13.9127 8.78064 13.3528 9.12608C13.2972 9.16364 13.2388 9.19679 13.1781 9.2252C12.7306 8.42697 12.4783 7.53418 12.4418 6.61979C12.652 6.57939 12.8409 6.46553 12.9748 6.2986C13.1087 6.13167 13.1789 5.92255 13.1728 5.70863C13.1666 5.49471 13.0846 5.28995 12.9413 5.13097C12.798 4.972 12.6029 4.86917 12.3908 4.84089C12.1786 4.8126 11.9634 4.8607 11.7834 4.97659C11.6035 5.09248 11.4707 5.26859 11.4087 5.47343C11.3468 5.67827 11.3597 5.89847 11.4452 6.09466C11.5307 6.29084 11.6832 6.45021 11.8754 6.54427C11.6337 7.36211 11.252 8.13185 10.7473 8.81928L10.6577 8.74376C10.4819 8.55239 10.3239 8.34544 10.1857 8.12545C10.0412 7.89743 9.91036 7.66101 9.79392 7.41746C9.79392 7.38914 9.79392 7.3561 9.75616 7.32778C9.63344 7.0493 9.52017 6.7661 9.42577 6.47819C9.33609 6.19971 9.25585 5.91652 9.18977 5.64276C9.15673 5.5106 9.12368 5.37844 9.09537 5.251C9.15812 5.22364 9.21817 5.19046 9.27473 5.15188C9.29243 5.14198 9.30838 5.12923 9.32193 5.11412C9.3664 5.08373 9.40896 5.05063 9.44936 5.01501C9.46389 4.99811 9.47967 4.98233 9.49656 4.96781C9.53999 4.9212 9.58095 4.87236 9.61928 4.82149C9.65704 4.76013 9.69008 4.69405 9.72312 4.62797C9.75616 4.56189 9.72312 4.59021 9.72312 4.57133C9.74464 4.52091 9.76201 4.46882 9.77504 4.41557V4.34949C9.782 4.27413 9.782 4.1983 9.77504 4.12294V3.88222C9.75545 3.56316 9.61489 3.26359 9.38204 3.04459C9.14918 2.82559 8.84156 2.70366 8.52189 2.70366C8.20223 2.70366 7.89461 2.82559 7.66175 3.04459C7.42889 3.26359 7.28834 3.56316 7.26875 3.88222V4.09461C7.26935 4.17071 7.27725 4.24658 7.29235 4.32117V4.38725C7.29235 4.43917 7.32067 4.49109 7.33955 4.54301L7.36315 4.59965C7.39207 4.66555 7.42682 4.72873 7.46699 4.78845C7.50532 4.83932 7.54629 4.88816 7.58971 4.93477C7.60661 4.94929 7.62238 4.96507 7.6369 4.98197C7.67568 5.01756 7.71668 5.05066 7.75963 5.08108L7.81155 5.11885C7.8681 5.15742 7.92815 5.1906 7.9909 5.21796C7.90122 5.60972 7.79266 6.02979 7.66051 6.44514C7.56611 6.73463 7.45755 7.01783 7.33483 7.29474C7.27347 7.42689 7.21683 7.55433 7.15075 7.67705C7.14113 7.69016 7.1332 7.70444 7.12715 7.71953C6.93524 8.08167 6.69378 8.41528 6.40972 8.71072L6.32476 8.78624C5.82042 8.09791 5.43732 7.32852 5.19198 6.51123C5.38326 6.41761 5.53498 6.25898 5.62 6.06372C5.70501 5.86846 5.71776 5.64932 5.65597 5.44552C5.59418 5.24171 5.46187 5.06656 5.28273 4.95139C5.1036 4.83622 4.88933 4.78856 4.67826 4.81694C4.4672 4.84532 4.27312 4.94788 4.13076 5.10627C3.98841 5.26467 3.90707 5.46855 3.9013 5.68144C3.89554 5.89432 3.96571 6.10231 4.09928 6.26818C4.23285 6.43405 4.42109 6.54698 4.6303 6.58674C4.59381 7.50113 4.34151 8.39392 3.89399 9.19215C3.83226 9.16276 3.77236 9.12966 3.71463 9.09303C3.18883 8.74356 2.78084 8.24344 2.54409 7.65817C2.68125 7.53103 2.78134 7.36907 2.83371 7.18953C2.88607 7.00999 2.88874 6.8196 2.84144 6.63866C2.81894 6.48709 2.76541 6.34179 2.6842 6.21185C2.60298 6.08191 2.49583 5.97012 2.36945 5.88347C2.18187 5.75712 1.95804 5.69578 1.73226 5.70884C1.69101 5.72069 1.6542 5.7445 1.62648 5.77726C1.59875 5.81003 1.58136 5.85027 1.5765 5.89292C2.26039 7.94751 2.80288 10.0465 3.20016 12.1752V13.5251C3.1976 13.6203 3.22393 13.7141 3.27568 13.7941C3.74768 14.5682 5.90941 15.177 8.57146 15.177C11.2335 15.177 13.4094 14.5682 13.872 13.7941C13.9237 13.7141 13.95 13.6203 13.9475 13.5251V12.1752C14.3448 10.0465 14.8872 7.94751 15.5711 5.89292C15.5663 5.85027 15.5489 5.81003 15.5212 5.77726C15.4934 5.7445 15.4566 5.72069 15.4154 5.70884Z" fill="#3A1D0D"/>
</g>
<path fill-rule="evenodd" clip-rule="evenodd" d="M11.696 3.82555C11.4916 3.82417 11.2928 3.89268 11.1326 4.01975C10.9724 4.14681 10.8605 4.3248 10.8153 4.5242C10.7701 4.72361 10.7945 4.93246 10.8843 5.11614C10.974 5.29983 11.1239 5.44732 11.309 5.53417C11.041 6.43133 10.6072 7.27026 10.0299 8.00742C9.80019 8.33273 9.49574 8.59812 9.14215 8.78131C8.78856 8.96449 8.39616 9.06011 7.99794 9.06011C7.59972 9.06011 7.20732 8.96449 6.85373 8.78131C6.50014 8.59812 6.1957 8.33273 5.96601 8.00742C5.38839 7.27117 4.95592 6.43187 4.69163 5.53417C4.88256 5.44033 5.03392 5.28167 5.11866 5.08652C5.2034 4.89138 5.216 4.67246 5.15421 4.46888C5.09243 4.2653 4.96027 4.09031 4.78136 3.97519C4.60245 3.86006 4.38844 3.81229 4.17756 3.84041C3.96667 3.86852 3.77265 3.9707 3.63016 4.12868C3.48766 4.28666 3.40597 4.49016 3.39968 4.70282C3.39339 4.91548 3.46291 5.12344 3.59582 5.28957C3.72873 5.4557 3.91637 5.56916 4.12523 5.60969C4.12523 6.66224 3.59659 8.44166 2.70924 8.94669L3.26148 10.9763H12.7014L13.2536 8.94669C12.3804 8.41806 11.8707 6.66224 11.8376 5.60969C12.0554 5.56447 12.2487 5.44035 12.3805 5.26121C12.5123 5.08206 12.5732 4.86053 12.5515 4.6392C12.5298 4.41786 12.4271 4.21235 12.2631 4.06216C12.0991 3.91197 11.8854 3.8277 11.663 3.82555H11.696Z" fill="url(#paint6_linear_281_1734)"/>
<path style="mix-blend-mode:multiply" fill-rule="evenodd" clip-rule="evenodd" d="M12.4512 7.93664C12.2614 7.95608 12.0697 7.93696 11.8875 7.88044C11.7052 7.82392 11.5363 7.73116 11.3908 7.60773C11.2454 7.48429 11.1263 7.33273 11.0409 7.16215C10.9555 6.99157 10.9054 6.80547 10.8936 6.61505C10.6554 7.11562 10.366 7.59014 10.0299 8.03103C9.8002 8.35634 9.49576 8.62174 9.14217 8.80492C8.78858 8.98811 8.39618 9.08372 7.99796 9.08372C7.59973 9.08372 7.20733 8.98811 6.85374 8.80492C6.50015 8.62174 6.19572 8.35634 5.96602 8.03103C5.62997 7.59014 5.3405 7.11562 5.10227 6.61505C5.09055 6.80547 5.04046 6.99157 4.95502 7.16215C4.86958 7.33273 4.75055 7.48429 4.60508 7.60773C4.45961 7.73116 4.29068 7.82392 4.10846 7.88044C3.92624 7.93696 3.73448 7.95608 3.54469 7.93664C3.36807 8.34186 3.08408 8.69112 2.72342 8.9467L3.27566 10.9763H12.7155L13.2678 8.9467C12.9071 8.69112 12.6231 8.34186 12.4465 7.93664H12.4512Z" fill="url(#paint7_radial_281_1734)"/>
<path fill-rule="evenodd" clip-rule="evenodd" d="M1.00067 4.88283C1.00553 4.84019 1.02292 4.79994 1.05064 4.76718C1.07836 4.73442 1.11518 4.71061 1.15642 4.69875C1.38361 4.68638 1.60873 4.74762 1.79834 4.87339C1.92492 4.95982 2.03222 5.07156 2.11346 5.20154C2.19469 5.33152 2.24811 5.47692 2.27033 5.62858L1.32634 5.85514L0.981789 4.88283H1.00067Z" fill="url(#paint8_linear_281_1734)"/>
<path fill-rule="evenodd" clip-rule="evenodd" d="M8.00033 1.61191C7.66816 1.61191 7.34953 1.74353 7.11421 1.97797C6.8789 2.2124 6.74607 2.53053 6.74482 2.86269V3.07509H9.24639V2.86269C9.24639 2.53096 9.11461 2.21282 8.88004 1.97825C8.64548 1.74368 8.32734 1.61191 7.99561 1.61191H8.00033Z" fill="url(#paint9_linear_281_1734)"/>
<path fill-rule="evenodd" clip-rule="evenodd" d="M14.9953 4.88284C14.9917 4.83976 14.9748 4.79888 14.9469 4.76588C14.9189 4.73288 14.8814 4.70942 14.8395 4.69876C14.6138 4.6857 14.3899 4.74705 14.2023 4.8734C14.076 4.96004 13.9688 5.07183 13.8876 5.20177C13.8064 5.33172 13.7529 5.47702 13.7304 5.62859L14.6507 5.85515L14.9953 4.88284Z" fill="url(#paint10_linear_281_1734)"/>
<path fill-rule="evenodd" clip-rule="evenodd" d="M13.3716 10.9857V12.515C13.3742 12.6102 13.3479 12.704 13.2961 12.784C12.8241 13.5581 10.6624 14.167 8.00033 14.167C5.33828 14.167 3.16239 13.5581 2.69984 12.784C2.64809 12.704 2.62176 12.6102 2.62432 12.515V10.9857C3.15767 13.0389 12.843 13.0389 13.3716 10.9857Z" fill="url(#paint11_linear_281_1734)"/>
<path fill-rule="evenodd" clip-rule="evenodd" d="M8.00036 1.82431C8.28796 1.824 8.56688 1.92281 8.79014 2.1041C9.0134 2.28539 9.16737 2.53807 9.22612 2.81961C9.28486 3.10114 9.24479 3.39431 9.11266 3.64976C8.98052 3.9052 8.7644 4.10731 8.50068 4.22204C8.84995 5.80322 9.55322 7.87056 11.0966 8.36143C12.4088 8.78151 13.636 7.65816 14.0277 6.64809C13.8587 6.49069 13.747 6.28142 13.7102 6.05339C13.6735 5.82536 13.7138 5.59159 13.8248 5.38905C13.9358 5.1865 14.1112 5.02676 14.3232 4.93507C14.5352 4.84339 14.7717 4.82501 14.9953 4.88283C14.3114 6.93743 13.7689 9.03641 13.3717 11.1651C13.2112 12.0383 10.8606 12.7227 8.00036 12.7227C5.14008 12.7227 2.78483 12.0383 2.62435 11.1651C2.22707 9.03641 1.68458 6.93743 1.00069 4.88283C1.2243 4.82501 1.46082 4.84339 1.67282 4.93507C1.88482 5.02676 2.0602 5.1865 2.17122 5.38905C2.28224 5.59159 2.32256 5.82536 2.2858 6.05339C2.24905 6.28142 2.13731 6.49069 1.96828 6.64809C2.36003 7.65816 3.58721 8.78151 4.89936 8.36143C6.44278 7.88944 7.14605 5.80322 7.49533 4.22204C7.23123 4.10716 7.01487 3.90465 6.88278 3.64871C6.7507 3.39278 6.71098 3.09911 6.77034 2.81728C6.8297 2.53546 6.9845 2.28276 7.2086 2.10185C7.43269 1.92094 7.71236 1.82291 8.00036 1.82431Z" fill="url(#paint12_linear_281_1734)"/>
<path style="mix-blend-mode:multiply" fill-rule="evenodd" clip-rule="evenodd" d="M3.71465 12.0713C3.45506 10.594 3.14826 9.17798 2.79898 7.82336C2.43546 7.50439 2.15108 7.10528 1.96828 6.65753C2.13731 6.50013 2.24905 6.29086 2.2858 6.06283C2.32256 5.8348 2.28224 5.60103 2.17122 5.39848C2.0602 5.19594 1.88482 5.0362 1.67282 4.94452C1.46082 4.85283 1.2243 4.83445 1.00069 4.89227C1.68896 6.94343 2.23617 9.03925 2.63851 11.1651C2.69987 11.5049 3.1105 11.8164 3.72881 12.0713H3.71465Z" fill="url(#paint13_linear_281_1734)"/>
<path style="mix-blend-mode:multiply" fill-rule="evenodd" clip-rule="evenodd" d="M12.0783 8.41334C11.8046 9.70189 11.578 11.014 11.394 12.3592C12.5126 12.0855 13.2819 11.6748 13.3858 11.2075C13.3858 11.2075 13.3858 11.2075 13.3858 11.1698C13.783 9.04112 14.3255 6.94213 15.0094 4.88754C14.7858 4.82972 14.5493 4.8481 14.3373 4.93979C14.1253 5.03147 13.9499 5.19122 13.8389 5.39376C13.7279 5.5963 13.6876 5.83007 13.7243 6.0581C13.7611 6.28613 13.8728 6.4954 14.0418 6.6528C13.8739 7.07866 13.609 7.45951 13.2682 7.76512C12.9273 8.07072 12.5199 8.29267 12.0783 8.41334Z" fill="url(#paint14_linear_281_1734)"/>
<path style="mix-blend-mode:screen" fill-rule="evenodd" clip-rule="evenodd" d="M6.32945 12.6424C6.24921 10.9904 6.11233 9.33846 5.90937 7.72896C5.62879 8.01837 5.28219 8.2354 4.8993 8.36144C4.59445 8.4602 4.26916 8.47809 3.95531 8.41336C4.25623 9.71452 4.48159 11.032 4.63027 12.3592C5.19411 12.4933 5.76661 12.588 6.34361 12.6424H6.32945Z" fill="url(#paint15_radial_281_1734)"/>
<path style="mix-blend-mode:screen" fill-rule="evenodd" clip-rule="evenodd" d="M8.96795 5.83154C8.78387 8.12544 8.67531 10.4193 8.70363 12.7085C9.20866 12.7085 9.6901 12.6471 10.1196 12.5905C10.2471 11.1132 10.4028 9.63582 10.6152 8.15847C9.81598 7.59022 9.22955 6.77122 8.94906 5.83154H8.96795Z" fill="url(#paint16_radial_281_1734)"/>
<path fill-rule="evenodd" clip-rule="evenodd" d="M11.0966 8.36144C12.4087 8.78151 13.6359 7.65816 14.0277 6.6481C13.9249 7.11791 13.7041 7.5538 13.3861 7.91467C13.0682 8.27554 12.6636 8.54949 12.2105 8.71071C9.68061 9.39038 8.61862 6.17138 8.50063 4.22205C8.8499 5.80323 9.55317 7.87056 11.0966 8.36144Z" fill="url(#paint17_linear_281_1734)"/>
<path fill-rule="evenodd" clip-rule="evenodd" d="M4.89932 8.36144C3.58718 8.78151 2.35999 7.65816 1.96824 6.6481C2.07151 7.11844 2.293 7.55468 2.61179 7.91559C2.93059 8.2765 3.33614 8.55016 3.79014 8.71071C6.31531 9.39038 7.37729 6.17138 7.49529 4.22205C7.14601 5.80323 6.44274 7.87056 4.89932 8.36144Z" fill="url(#paint18_linear_281_1734)"/>
<path style="mix-blend-mode:multiply" fill-rule="evenodd" clip-rule="evenodd" d="M3.71462 13.4967V12.0807C3.08215 11.8259 2.68568 11.5144 2.62432 11.1745V12.5244C2.62176 12.6197 2.64809 12.7135 2.69984 12.7935C2.95887 13.1275 3.31247 13.3759 3.71462 13.5062V13.4967Z" fill="url(#paint19_linear_281_1734)"/>
<path style="mix-blend-mode:screen" opacity="0.75" fill-rule="evenodd" clip-rule="evenodd" d="M4.61612 12.3781V13.7941C5.17898 13.936 5.75171 14.0354 6.32946 14.0915V12.6472C5.75246 12.5927 5.17995 12.4981 4.61612 12.364V12.3781Z" fill="url(#paint20_radial_281_1734)"/>
<path style="mix-blend-mode:screen" opacity="0.75" fill-rule="evenodd" clip-rule="evenodd" d="M8.70361 12.7085V14.1528C9.20864 14.1528 9.69007 14.0914 10.1196 14.0301V12.5905C9.67119 12.6471 9.1756 12.6896 8.70361 12.7085Z" fill="url(#paint21_radial_281_1734)"/>
<path style="mix-blend-mode:multiply" fill-rule="evenodd" clip-rule="evenodd" d="M11.3704 12.3781V13.7941C12.3616 13.5439 13.0554 13.1852 13.2961 12.784C13.3479 12.704 13.3742 12.6102 13.3716 12.515V11.1651C13.282 11.6371 12.5221 12.076 11.3704 12.3592V12.3781Z" fill="url(#paint22_linear_281_1734)"/>
<path style="mix-blend-mode:screen" opacity="0.65" fill-rule="evenodd" clip-rule="evenodd" d="M12.9563 11.6843C12.1633 12.2979 10.2187 12.7227 7.95784 12.7227C5.69698 12.7227 3.75708 12.2979 2.95941 11.6843C3.67212 12.3592 5.64506 12.8407 7.95784 12.8407C10.2706 12.8407 12.2483 12.3687 12.9563 11.6843Z" fill="url(#paint23_radial_281_1734)"/>
<path style="mix-blend-mode:multiply" fill-rule="evenodd" clip-rule="evenodd" d="M8.00032 4.32589C7.82664 4.32618 7.65475 4.29084 7.49528 4.22205C7.49528 4.29756 7.45752 4.3778 7.44336 4.45332C7.66412 4.63075 7.93893 4.72734 8.22215 4.72708C8.35349 4.7259 8.48392 4.70523 8.60919 4.66572C8.57143 4.51468 8.53367 4.36364 8.50063 4.22205C8.34282 4.29085 8.17247 4.32621 8.00032 4.32589Z" fill="url(#paint24_radial_281_1734)"/>
<path fill-rule="evenodd" clip-rule="evenodd" d="M6.26337 8.75319L8.00032 7.88943L9.73254 8.75319L9.49654 11.7315L8.00032 12.1563L6.49937 11.7315L6.26337 8.75319Z" fill="#BE8954"/>
<path fill-rule="evenodd" clip-rule="evenodd" d="M6.48992 8.88063L8.0003 8.12544L9.51068 8.88063L9.29357 11.5663L8.0003 11.9344L6.70232 11.5663L6.48992 8.88063Z" fill="#E6E6E6"/>
<path fill-rule="evenodd" clip-rule="evenodd" d="M7.00916 9.17798L7.16965 11.1792L8.00035 11.4152L8.82634 11.1792L8.98682 9.17798L8.00035 8.68239L7.00916 9.17798Z" fill="url(#paint25_radial_281_1734)"/>
<path fill-rule="evenodd" clip-rule="evenodd" d="M6.70232 11.5663L7.16959 11.1792L7.00911 9.17799L6.48992 8.88063L6.70232 11.5663Z" fill="url(#paint26_radial_281_1734)"/>
<path fill-rule="evenodd" clip-rule="evenodd" d="M7.00911 9.17799L8.0003 8.68239V8.12544L6.48992 8.88063L7.00911 9.17799Z" fill="url(#paint27_radial_281_1734)"/>
<path fill-rule="evenodd" clip-rule="evenodd" d="M8.00034 11.4152L7.16963 11.1792L6.70235 11.5663L8.00034 11.9344V11.4152Z" fill="url(#paint28_radial_281_1734)"/>
<path fill-rule="evenodd" clip-rule="evenodd" d="M9.2936 11.5663L8.82632 11.1792L8.9868 9.17799L9.51071 8.88063L9.2936 11.5663Z" fill="url(#paint29_radial_281_1734)"/>
<path fill-rule="evenodd" clip-rule="evenodd" d="M8.9868 9.17799L8.00034 8.68239V8.12544L9.51072 8.88063L8.9868 9.17799Z" fill="url(#paint30_radial_281_1734)"/>
<path fill-rule="evenodd" clip-rule="evenodd" d="M8.00034 11.4152L8.82633 11.1792L9.2936 11.5663L8.00034 11.9344V11.4152Z" fill="url(#paint31_radial_281_1734)"/>
<g style="mix-blend-mode:screen" opacity="0.65">
<path fill-rule="evenodd" clip-rule="evenodd" d="M7.49055 8.82397C7.34101 8.91427 7.17167 8.96663 6.99726 8.97651C6.82286 8.98638 6.64869 8.95346 6.48992 8.88061L7.00911 9.17797L8.0003 8.68237V8.13014C7.98376 8.28096 7.92799 8.42482 7.83855 8.54738C7.74911 8.66994 7.62913 8.76693 7.49055 8.82869V8.82397Z" fill="white"/>
</g>
<g style="mix-blend-mode:screen" opacity="0.45">
<path fill-rule="evenodd" clip-rule="evenodd" d="M8.35906 11.3964C8.51895 11.3508 8.68713 11.3425 8.85075 11.3719C9.01436 11.4014 9.16907 11.4679 9.30305 11.5663L8.83106 11.1792L8.00507 11.4152V11.807C8.00507 11.6135 8.09947 11.4813 8.36379 11.3964H8.35906Z" fill="white"/>
</g>
<path fill-rule="evenodd" clip-rule="evenodd" d="M6.48994 8.88062L8.00032 8.12543V7.88943L6.26337 8.75319L6.48994 8.88062Z" fill="url(#paint32_linear_281_1734)"/>
<path fill-rule="evenodd" clip-rule="evenodd" d="M6.70233 11.5663L6.48994 8.88062L6.26337 8.75319L6.49937 11.7315L6.70233 11.5663Z" fill="url(#paint33_linear_281_1734)"/>
<path fill-rule="evenodd" clip-rule="evenodd" d="M8.00032 11.9344L6.70234 11.5663L6.49937 11.7315L8.00032 12.1563V11.9344Z" fill="url(#paint34_linear_281_1734)"/>
<path fill-rule="evenodd" clip-rule="evenodd" d="M9.51072 8.88062L8.00034 8.12543V7.88943L9.73255 8.75319L9.51072 8.88062Z" fill="url(#paint35_linear_281_1734)"/>
<path fill-rule="evenodd" clip-rule="evenodd" d="M9.29359 11.5663L9.51071 8.88062L9.73255 8.75319L9.49655 11.7315L9.29359 11.5663Z" fill="url(#paint36_linear_281_1734)"/>
<path fill-rule="evenodd" clip-rule="evenodd" d="M8.00034 11.9344L9.2936 11.5663L9.49656 11.7315L8.00034 12.1563V11.9344Z" fill="url(#paint37_linear_281_1734)"/>
<g style="mix-blend-mode:screen" opacity="0.7">
<path fill-rule="evenodd" clip-rule="evenodd" d="M6.36253 8.706C6.95139 8.64802 7.49789 8.37393 7.89652 7.93665L6.36253 8.706Z" fill="#FFFCE3"/>
</g>
<path fill-rule="evenodd" clip-rule="evenodd" d="M8.00033 1.82432C8.2475 1.82525 8.48887 1.8994 8.69393 2.03741C8.899 2.17541 9.05858 2.37108 9.15253 2.59971C9.24647 2.82834 9.27057 3.07969 9.22178 3.322C9.17299 3.56432 9.05349 3.78675 8.87838 3.9612C8.70327 4.13565 8.48039 4.25431 8.23789 4.30219C7.99539 4.35007 7.74414 4.32503 7.51587 4.23022C7.28759 4.13542 7.09252 3.9751 6.95529 3.76951C6.81806 3.56392 6.74482 3.32229 6.74482 3.0751C6.74482 2.91045 6.77732 2.74742 6.84048 2.59536C6.90363 2.4433 6.99619 2.3052 7.11284 2.18899C7.22948 2.07278 7.36792 1.98075 7.52022 1.91817C7.67252 1.85559 7.83567 1.8237 8.00033 1.82432Z" fill="url(#paint38_radial_281_1734)"/>
<path style="mix-blend-mode:screen" fill-rule="evenodd" clip-rule="evenodd" d="M7.85871 1.99422C8.04542 1.99422 8.22793 2.04958 8.38317 2.15331C8.53841 2.25703 8.6594 2.40447 8.73085 2.57696C8.8023 2.74945 8.82099 2.93925 8.78457 3.12237C8.74814 3.30549 8.65824 3.47369 8.52622 3.60571C8.3942 3.73773 8.22599 3.82763 8.04288 3.86406C7.85976 3.90048 7.66996 3.88178 7.49747 3.81034C7.32498 3.73889 7.17755 3.61789 7.07382 3.46266C6.97009 3.30742 6.91473 3.12491 6.91473 2.93821C6.91473 2.68784 7.01418 2.44774 7.19121 2.2707C7.36825 2.09367 7.60835 1.99422 7.85871 1.99422Z" fill="url(#paint39_radial_281_1734)"/>
<path style="mix-blend-mode:screen" fill-rule="evenodd" clip-rule="evenodd" d="M7.2829 2.32462C7.37547 2.27162 7.48104 2.2456 7.58764 2.24951C7.69423 2.25343 7.7976 2.28712 7.88603 2.34676C7.97447 2.40641 8.04443 2.48963 8.08799 2.587C8.13156 2.68437 8.14698 2.79199 8.13252 2.89768C8.11805 3.00336 8.07428 3.10288 8.00616 3.18496C7.93804 3.26705 7.8483 3.32841 7.74709 3.36211C7.64588 3.39581 7.53726 3.40049 7.43354 3.37562C7.32981 3.35075 7.23512 3.29733 7.16019 3.22141C7.06156 3.08477 7.01928 2.91542 7.04213 2.74846C7.06498 2.5815 7.15119 2.42973 7.2829 2.32462Z" fill="url(#paint40_radial_281_1734)"/>
<path style="mix-blend-mode:screen" fill-rule="evenodd" clip-rule="evenodd" d="M8.56202 2.0603C8.77451 2.19291 8.93798 2.39117 9.02765 2.62504C9.11732 2.85891 9.1283 3.11564 9.05893 3.35632C8.98955 3.59699 8.84361 3.80849 8.64321 3.95875C8.44281 4.10901 8.1989 4.18984 7.94843 4.189C7.7856 4.18746 7.62487 4.1521 7.47643 4.08516C7.56628 4.10572 7.65803 4.1168 7.75019 4.1182C8.0669 4.1182 8.37063 3.99239 8.59457 3.76844C8.81852 3.5445 8.94434 3.24076 8.94434 2.92405C8.94474 2.76221 8.91185 2.602 8.84771 2.45341C8.78356 2.30482 8.68953 2.17101 8.57146 2.0603H8.56202Z" fill="url(#paint41_radial_281_1734)"/>
<path style="mix-blend-mode:screen" fill-rule="evenodd" clip-rule="evenodd" d="M9.71842 3.07508C9.71842 3.47089 9.60104 3.85781 9.38114 4.18692C9.16124 4.51602 8.84869 4.77253 8.48301 4.924C8.11733 5.07547 7.71494 5.1151 7.32673 5.03789C6.93853 4.96067 6.58194 4.77006 6.30206 4.49018C6.02218 4.2103 5.83158 3.85371 5.75436 3.46551C5.67714 3.0773 5.71677 2.67491 5.86824 2.30923C6.01971 1.94355 6.27622 1.631 6.60532 1.4111C6.93443 1.1912 7.32135 1.07383 7.71716 1.07383C7.98014 1.07321 8.24066 1.12454 8.48374 1.22489C8.72683 1.32525 8.94769 1.47263 9.13365 1.65859C9.31961 1.84455 9.46699 2.06541 9.56735 2.3085C9.6677 2.55158 9.71904 2.8121 9.71842 3.07508Z" fill="url(#paint42_radial_281_1734)"/>
<path style="mix-blend-mode:screen" fill-rule="evenodd" clip-rule="evenodd" d="M9.04345 8.90894C9.04438 9.22207 8.95232 9.52842 8.77894 9.78917C8.60555 10.0499 8.35866 10.2533 8.06954 10.3736C7.78043 10.4938 7.46211 10.5255 7.15495 10.4647C6.84779 10.4038 6.56562 10.2531 6.34421 10.0317C6.12279 9.8103 5.9721 9.52813 5.91124 9.22098C5.85038 8.91382 5.88209 8.5955 6.00235 8.30639C6.12261 8.01727 6.32601 7.77037 6.58675 7.59699C6.8475 7.42361 7.15385 7.33155 7.46698 7.33248C7.8847 7.33373 8.28496 7.50022 8.58033 7.79559C8.87571 8.09097 9.0422 8.49122 9.04345 8.90894Z" fill="url(#paint43_radial_281_1734)"/>
<defs>
<linearGradient id="paint0_linear_281_1734" x1="7.83514" y1="16.6638" x2="7.83514" y2="10.6553" gradientUnits="userSpaceOnUse">
<stop offset="0.43" stop-color="#884329"/>
<stop offset="1" stop-color="#57280C"/>
</linearGradient>
<radialGradient id="paint1_radial_281_1734" cx="0" cy="0" r="1" gradientUnits="userSpaceOnUse" gradientTransform="translate(-2.19949 15.6349) scale(18.0207 18.0207)">
<stop stop-color="#B6753E"/>
<stop offset="1" stop-color="#64381C"/>
</radialGradient>
<radialGradient id="paint2_radial_281_1734" cx="0" cy="0" r="1" gradientUnits="userSpaceOnUse" gradientTransform="translate(-2.95937 0.653779) scale(23.2316 23.2316)">
<stop stop-color="#C28653"/>
<stop offset="1" stop-color="#734324"/>
</radialGradient>
<linearGradient id="paint3_linear_281_1734" x1="13.6926" y1="11.5521" x2="3.08215" y2="0.941675" gradientUnits="userSpaceOnUse">
<stop stop-color="#85451A"/>
<stop offset="1" stop-color="#D49765"/>
</linearGradient>
<radialGradient id="paint4_radial_281_1734" cx="0" cy="0" r="1" gradientUnits="userSpaceOnUse" gradientTransform="translate(7.35843 6.46873) scale(16.8644 16.8644)">
<stop stop-color="#160E0C"/>
<stop offset="0.15" stop-color="#1A100C"/>
<stop offset="0.31" stop-color="#26170E"/>
<stop offset="0.46" stop-color="#3A2210"/>
<stop offset="0.61" stop-color="#563212"/>
<stop offset="0.77" stop-color="#7A4616"/>
<stop offset="0.92" stop-color="#A65E1A"/>
<stop offset="1" stop-color="#C06D1D"/>
</radialGradient>
<radialGradient id="paint5_radial_281_1734" cx="0" cy="0" r="1" gradientUnits="userSpaceOnUse" gradientTransform="translate(1.09508 -0.837733) scale(18.37 18.37)">
<stop stop-color="#F39200"/>
<stop offset="0.45" stop-color="#B63000"/>
<stop offset="0.52" stop-color="#9D2900"/>
<stop offset="0.85" stop-color="#2F0C00"/>
<stop offset="1" stop-color="#030000"/>
</radialGradient>
<linearGradient id="paint6_linear_281_1734" x1="8.0003" y1="10.9763" x2="8.0003" y2="3.82555" gradientUnits="userSpaceOnUse">
<stop stop-color="#E86900"/>
<stop offset="1" stop-color="#FC8F00"/>
</linearGradient>
<radialGradient id="paint7_radial_281_1734" cx="0" cy="0" r="1" gradientUnits="userSpaceOnUse" gradientTransform="translate(8.03336 2.11222) scale(8.67054 8.67054)">
<stop offset="0.51" stop-color="white"/>
<stop offset="0.65" stop-color="#F8E1C3"/>
<stop offset="0.95" stop-color="#E6962D"/>
<stop offset="1" stop-color="#E38812"/>
</radialGradient>
<linearGradient id="paint8_linear_281_1734" x1="1.00067" y1="5.27459" x2="2.26561" y2="5.27459" gradientUnits="userSpaceOnUse">
<stop stop-color="#ED8E00"/>
<stop offset="1" stop-color="#FFCB30"/>
</linearGradient>
<linearGradient id="paint9_linear_281_1734" x1="8.00033" y1="3.07509" x2="8.00033" y2="1.61191" gradientUnits="userSpaceOnUse">
<stop stop-color="#ED8E00"/>
<stop offset="1" stop-color="#FFCB30"/>
</linearGradient>
<linearGradient id="paint10_linear_281_1734" x1="13.7304" y1="5.2746" x2="14.9953" y2="5.2746" gradientUnits="userSpaceOnUse">
<stop stop-color="#ED8E00"/>
<stop offset="1" stop-color="#FFCB30"/>
</linearGradient>
<linearGradient id="paint11_linear_281_1734" x1="2.62432" y1="12.5763" x2="13.3716" y2="12.5763" gradientUnits="userSpaceOnUse">
<stop offset="0.05" stop-color="#ED9500"/>
<stop offset="0.4" stop-color="#FFCC00"/>
<stop offset="0.93" stop-color="#B36600"/>
</linearGradient>
<linearGradient id="paint12_linear_281_1734" x1="1.00069" y1="7.27584" x2="14.9953" y2="7.27584" gradientUnits="userSpaceOnUse">
<stop offset="0.05" stop-color="#ED9500"/>
<stop offset="0.4" stop-color="#FFCC00"/>
<stop offset="0.93" stop-color="#B36600"/>
</linearGradient>
<linearGradient id="paint13_linear_281_1734" x1="1.00069" y1="8.46055" x2="3.71465" y2="8.46055" gradientUnits="userSpaceOnUse">
<stop stop-color="#FFA163"/>
<stop offset="1" stop-color="white"/>
</linearGradient>
<linearGradient id="paint14_linear_281_1734" x1="11.3704" y1="8.60686" x2="14.9953" y2="8.60686" gradientUnits="userSpaceOnUse">
<stop stop-color="white"/>
<stop offset="1" stop-color="#FFA163"/>
</linearGradient>
<radialGradient id="paint15_radial_281_1734" cx="0" cy="0" r="1" gradientUnits="userSpaceOnUse" gradientTransform="translate(4.42731 7.84224) scale(5.88578 5.88577)">
<stop stop-color="#FFF0B0"/>
<stop offset="1"/>
</radialGradient>
<radialGradient id="paint16_radial_281_1734" cx="0" cy="0" r="1" gradientUnits="userSpaceOnUse" gradientTransform="translate(2.81788 7.37024) scale(9.06698 9.06701)">
<stop stop-color="#FFF0B0"/>
<stop offset="1"/>
</radialGradient>
<linearGradient id="paint17_linear_281_1734" x1="8.50063" y1="6.51122" x2="14.0277" y2="6.51122" gradientUnits="userSpaceOnUse">
<stop stop-color="#ED8E00"/>
<stop offset="1" stop-color="#FFCB30"/>
</linearGradient>
<linearGradient id="paint18_linear_281_1734" x1="1.96824" y1="6.51122" x2="7.49529" y2="6.51122" gradientUnits="userSpaceOnUse">
<stop stop-color="#FFCB30"/>
<stop offset="1" stop-color="#ED8E00"/>
</linearGradient>
<linearGradient id="paint19_linear_281_1734" x1="2.62432" y1="12.3309" x2="3.71462" y2="12.3309" gradientUnits="userSpaceOnUse">
<stop stop-color="#FFA163"/>
<stop offset="1" stop-color="white"/>
</linearGradient>
<radialGradient id="paint20_radial_281_1734" cx="0" cy="0" r="1" gradientUnits="userSpaceOnUse" gradientTransform="translate(4.55004 12.194) scale(4.21963 4.21963)">
<stop stop-color="#FFF0B0"/>
<stop offset="1"/>
</radialGradient>
<radialGradient id="paint21_radial_281_1734" cx="0" cy="0" r="1" gradientUnits="userSpaceOnUse" gradientTransform="translate(7.29234 13.525) scale(3.08212 3.08212)">
<stop stop-color="#FFF0B0"/>
<stop offset="1"/>
</radialGradient>
<linearGradient id="paint22_linear_281_1734" x1="11.3704" y1="12.4772" x2="13.3716" y2="12.4772" gradientUnits="userSpaceOnUse">
<stop stop-color="white"/>
<stop offset="1" stop-color="#FFA163"/>
</linearGradient>
<radialGradient id="paint23_radial_281_1734" cx="0" cy="0" r="1" gradientUnits="userSpaceOnUse" gradientTransform="translate(7.95783 12.2601) scale(7.99559 7.99557)">
<stop stop-color="#FFF0B0"/>
<stop offset="1"/>
</radialGradient>
<radialGradient id="paint24_radial_281_1734" cx="0" cy="0" r="1" gradientUnits="userSpaceOnUse" gradientTransform="translate(7.83039 3.39606) scale(2.56765 2.56765)">
<stop stop-color="#FFA163"/>
<stop offset="1" stop-color="white"/>
</radialGradient>
<radialGradient id="paint25_radial_281_1734" cx="0" cy="0" r="1" gradientUnits="userSpaceOnUse" gradientTransform="translate(7.58972 8.81927) scale(3.50692 3.50692)">
<stop stop-color="#FF8AAF"/>
<stop offset="1" stop-color="#D7001E"/>
</radialGradient>
<radialGradient id="paint26_radial_281_1734" cx="0" cy="0" r="1" gradientUnits="userSpaceOnUse" gradientTransform="translate(6.10761 9.00335) scale(5.80554 5.80553)">
<stop stop-color="#FF8480"/>
<stop offset="1" stop-color="#F50022"/>
</radialGradient>
<radialGradient id="paint27_radial_281_1734" cx="0" cy="0" r="1" gradientUnits="userSpaceOnUse" gradientTransform="translate(6.92888 7.45049) scale(2.65261 2.6526)">
<stop stop-color="#FFE3E3"/>
<stop offset="1" stop-color="#FF8A91"/>
</radialGradient>
<radialGradient id="paint28_radial_281_1734" cx="0" cy="0" r="1" gradientUnits="userSpaceOnUse" gradientTransform="translate(6.6646 13.4637) scale(2.51101 2.511)">
<stop stop-color="#EB716D"/>
<stop offset="0.27" stop-color="#E35252"/>
<stop offset="1" stop-color="#CF0008"/>
</radialGradient>
<radialGradient id="paint29_radial_281_1734" cx="0" cy="0" r="1" gradientUnits="userSpaceOnUse" gradientTransform="translate(7.94842 8.96559) scale(2.92636 2.92637)">
<stop stop-color="#EB716D"/>
<stop offset="1" stop-color="#CF0008"/>
</radialGradient>
<radialGradient id="paint30_radial_281_1734" cx="0" cy="0" r="1" gradientUnits="userSpaceOnUse" gradientTransform="translate(8.21745 8.00272) scale(4.41786 4.41786)">
<stop stop-color="#FF8480"/>
<stop offset="1" stop-color="#F50022"/>
</radialGradient>
<radialGradient id="paint31_radial_281_1734" cx="0" cy="0" r="1" gradientUnits="userSpaceOnUse" gradientTransform="translate(7.86818 9.33848) scale(2.90749 2.90747)">
<stop stop-color="#FFE3E3"/>
<stop offset="1" stop-color="#FF8A91"/>
</radialGradient>
<linearGradient id="paint32_linear_281_1734" x1="6.26337" y1="8.38503" x2="8.00032" y2="8.38503" gradientUnits="userSpaceOnUse">
<stop stop-color="#F5D36C"/>
<stop offset="1" stop-color="#FFF5B0"/>
</linearGradient>
<linearGradient id="paint33_linear_281_1734" x1="6.48049" y1="11.7315" x2="6.48049" y2="8.75319" gradientUnits="userSpaceOnUse">
<stop stop-color="#ED8E00"/>
<stop offset="1" stop-color="#FFCB30"/>
</linearGradient>
<linearGradient id="paint34_linear_281_1734" x1="6.49937" y1="11.8589" x2="8.00032" y2="11.8589" gradientUnits="userSpaceOnUse">
<stop stop-color="#A34900"/>
<stop offset="1" stop-color="#F09C00"/>
</linearGradient>
<linearGradient id="paint35_linear_281_1734" x1="8.00034" y1="8.38503" x2="9.73255" y2="8.38503" gradientUnits="userSpaceOnUse">
<stop stop-color="#F09C00"/>
<stop offset="1" stop-color="#A34900"/>
</linearGradient>
<linearGradient id="paint36_linear_281_1734" x1="9.51543" y1="11.7315" x2="9.51543" y2="8.75319" gradientUnits="userSpaceOnUse">
<stop stop-color="#A34900"/>
<stop offset="1" stop-color="#F09C00"/>
</linearGradient>
<linearGradient id="paint37_linear_281_1734" x1="8.00034" y1="11.8589" x2="9.49656" y2="11.8589" gradientUnits="userSpaceOnUse">
<stop stop-color="#FFBF00"/>
<stop offset="1" stop-color="#DB6A00"/>
</linearGradient>
<radialGradient id="paint38_radial_281_1734" cx="0" cy="0" r="1" gradientUnits="userSpaceOnUse" gradientTransform="translate(7.59913 2.73055) scale(1.70862 1.70862)">
<stop stop-color="#FCCD10"/>
<stop offset="0.22" stop-color="#EDAB09"/>
<stop offset="0.45" stop-color="#E08E02"/>
<stop offset="0.58" stop-color="#DB8300"/>
<stop offset="0.71" stop-color="#D67D00"/>
<stop offset="0.88" stop-color="#C86C00"/>
<stop offset="1" stop-color="#BA5B00"/>
</radialGradient>
<radialGradient id="paint39_radial_281_1734" cx="0" cy="0" r="1" gradientUnits="userSpaceOnUse" gradientTransform="translate(7.20736 2.19245) scale(2.07678 2.07677)">
<stop stop-color="#FFE58A"/>
<stop offset="1"/>
</radialGradient>
<radialGradient id="paint40_radial_281_1734" cx="0" cy="0" r="1" gradientUnits="userSpaceOnUse" gradientTransform="translate(6.76844 1.76295) scale(2.05316 2.05317)">
<stop stop-color="#FFE58A"/>
<stop offset="1"/>
</radialGradient>
<radialGradient id="paint41_radial_281_1734" cx="0" cy="0" r="1" gradientUnits="userSpaceOnUse" gradientTransform="translate(8.06643 2.85797) scale(1.97293 1.97294)">
<stop stop-color="#FFE58A"/>
<stop offset="1"/>
</radialGradient>
<radialGradient id="paint42_radial_281_1734" cx="0" cy="0" r="1" gradientUnits="userSpaceOnUse" gradientTransform="translate(7.73132 3.07508) scale(2.00126)">
<stop stop-color="#FFF200"/>
<stop offset="0.07" stop-color="#E1D600"/>
<stop offset="0.21" stop-color="#A69E00"/>
<stop offset="0.36" stop-color="#746E00"/>
<stop offset="0.5" stop-color="#4A4600"/>
<stop offset="0.64" stop-color="#2A2800"/>
<stop offset="0.77" stop-color="#131200"/>
<stop offset="0.89" stop-color="#050500"/>
<stop offset="1"/>
</radialGradient>
<radialGradient id="paint43_radial_281_1734" cx="0" cy="0" r="1" gradientUnits="userSpaceOnUse" gradientTransform="translate(7.46698 8.90894) scale(1.57646)">
<stop stop-color="#FF8854"/>
<stop offset="0.07" stop-color="#E1784A"/>
<stop offset="0.21" stop-color="#A65937"/>
<stop offset="0.36" stop-color="#743E26"/>
<stop offset="0.5" stop-color="#4A2718"/>
<stop offset="0.64" stop-color="#2A160E"/>
<stop offset="0.77" stop-color="#130A06"/>
<stop offset="0.89" stop-color="#050302"/>
<stop offset="1"/>
</radialGradient>
</defs>
</svg>
