<svg width="36" height="37" viewBox="0 0 36 37" fill="none" xmlns="http://www.w3.org/2000/svg">
<path fill-rule="evenodd" clip-rule="evenodd" d="M34.9933 22.97C34.9533 20.3033 34.8933 17.6967 34.8133 15.15C34.6933 11 34.8133 6.49 34.5433 2.42C32.8627 1.47006 30.9969 0.893631 29.0733 0.73H28.6533C26.8833 0.59 24.5533 0.37 23.3033 0.19C21.4933 0.0800001 19.0533 0 17.2233 0H16.6433C13.8633 0 11.4733 0.19 8.69333 0.25C6.45333 0.54 3.58333 0.87 1.75333 1.25C1.55333 1.24 0.553333 1.85 0.553333 2.04C0.493333 2.62 0.183333 5.04 0.143333 5.98C0.0833334 7.72 0.0433333 9.49 0.0133333 11.27C-0.0166667 13.05 0.0133333 14.9 0.0133333 16.74C0.0133333 18.58 0.0133335 20.48 0.103333 22.38C0.107576 22.4566 0.107576 22.5334 0.103333 22.61C0.163333 25.07 0.243333 27.56 0.353333 30.1V30.44C0.483333 31.05 0.633333 31.66 0.783333 32.21C0.868265 32.5488 0.971754 32.8826 1.09333 33.21C1.34206 33.7252 1.69839 34.181 2.13829 34.5467C2.57819 34.9124 3.09141 35.1795 3.64333 35.33C5.82333 35.26 7.91333 35.27 9.95333 35.33C11.9933 35.39 13.9533 35.47 15.9533 35.57L21.9533 35.91C24.0033 36.02 26.1033 36.12 28.2933 36.18C30.1623 35.9533 31.9941 35.4861 33.7433 34.79L34.9133 31.25V31.18C35.0067 28.38 35.0333 25.6433 34.9933 22.97ZM17.2933 20.44C17.0733 20.99 16.8433 21.54 16.6233 22.11C16.8433 21.52 17.0733 20.97 17.2933 20.44ZM22.7233 7.99C22.9233 7.57 23.1133 7.17 23.2933 6.81C23.0933 7.17 22.9033 7.57 22.7033 7.99H22.7233ZM21.5533 10.37C21.6133 10.24 21.6733 10.11 21.7233 9.98L21.5533 10.37Z" fill="#924000"/>
<path fill-rule="evenodd" clip-rule="evenodd" d="M34.2234 22.38C34.4634 25.2466 34.7134 28.1733 34.9734 31.16L33.8034 34.7C32.0491 35.3934 30.2148 35.8637 28.3434 36.1C23.9834 35.98 19.9634 35.7 15.9634 35.49C11.9634 35.28 7.96335 35.13 3.62335 35.26C3.06961 35.1108 2.55442 34.8443 2.11272 34.4785C1.67103 34.1127 1.31315 33.6562 1.06335 33.14C0.774681 32.2537 0.534327 31.3523 0.343354 30.44C0.519792 27.7707 0.425982 25.0904 0.0633545 22.44H34.2234V22.38Z" fill="url(#paint0_linear_281_1654)"/>
<path fill-rule="evenodd" clip-rule="evenodd" d="M17.2233 0C18.8228 1.54759 20.5232 2.98741 22.3133 4.31C22.5751 4.55865 22.904 4.72523 23.2594 4.7892C23.6148 4.85317 23.9811 4.81173 24.3133 4.67C25.8259 3.43116 27.2744 2.11613 28.6533 0.73C26.8833 0.59 24.5533 0.37 23.3033 0.19C21.4933 0.0800001 19.0533 0 17.2233 0Z" fill="url(#paint1_radial_281_1654)"/>
<path fill-rule="evenodd" clip-rule="evenodd" d="M23.2733 6.80998C22.4633 8.42998 21.4333 10.67 20.2733 13.3C19.6933 14.64 19.0733 16.08 18.4433 17.59C17.8133 19.1 17.1633 20.73 16.5533 22.38C15.9433 24.03 15.2433 25.65 14.5533 27.33C13.8633 29.01 13.2733 30.72 12.6533 32.41C15.3933 32.41 18.1133 32.41 20.8633 32.41C23.6133 32.41 26.4033 32.5 29.2933 32.57C31.2396 32.3304 33.148 31.8466 34.9733 31.13C35.0433 28.37 35.0433 25.63 34.9733 22.94C34.9033 20.25 34.8733 17.68 34.7933 15.12C34.6733 10.97 34.7933 6.45998 34.5233 2.38998C32.8426 1.44004 30.9769 0.863612 29.0533 0.699982C27.8533 1.95998 26.5533 3.16998 25.2933 4.43998C24.4398 5.072 23.7533 5.90267 23.2933 6.85998L23.2733 6.80998Z" fill="url(#paint2_radial_281_1654)"/>
<path fill-rule="evenodd" clip-rule="evenodd" d="M15.8033 22.38C16.95 19.4267 18.1467 16.5667 19.3933 13.8C20.6033 11.09 21.8833 8.44 23.1933 5.89C23.1933 5.32 23.0633 5.26 22.2633 4.74C20.2813 3.29753 18.4064 1.71339 16.6533 0C13.8733 0 11.4733 0.19 8.65333 0.25C6.41333 0.54 3.54333 0.87 1.71333 1.25C1.55333 1.24 0.553333 1.85 0.553333 2.04C0.493333 2.62 0.183333 5.04 0.143333 5.98C0.0833334 7.72 0.0433333 9.49 0.0133333 11.27C-0.0166667 13.05 0.0133333 14.9 0.0133333 16.74C0.0133333 18.58 0.0133335 20.49 0.103333 22.39C0.156667 25.0167 0.246667 27.6833 0.373333 30.39C0.636071 30.9239 1.00898 31.3959 1.46749 31.7752C1.92599 32.1544 2.45967 32.4321 3.03333 32.59C6.17333 32.49 9.18333 32.43 12.1633 32.4C12.75 30.66 13.35 28.95 13.9633 27.27C14.5767 25.59 15.1933 23.9533 15.8133 22.36L15.8033 22.38Z" fill="url(#paint3_radial_281_1654)"/>
<path fill-rule="evenodd" clip-rule="evenodd" d="M12.6433 32.44C13.5533 29.83 14.5533 27.2 15.5533 24.65C16.5533 22.1 17.5533 19.71 18.5533 17.44C19.5533 15.17 20.3733 13.14 21.1833 11.34C21.9933 9.54 22.7033 8.01 23.3033 6.81C23.7632 5.85269 24.4498 5.02202 25.3033 4.39C26.5533 3.17 27.8533 1.96 29.0733 0.73H28.6533C27.2777 2.11587 25.8325 3.4309 24.3233 4.67C23.9912 4.81173 23.6248 4.85317 23.2694 4.7892C22.9141 4.72523 22.5852 4.55865 22.3233 4.31C20.5332 2.98741 18.8328 1.54759 17.2333 0H16.6533C18.4102 1.71315 20.2884 3.29726 22.2733 4.74C23.0633 5.26 23.2233 5.32 23.1933 5.89C22.1933 7.89 21.1933 9.89 20.2433 11.89C19.2933 13.89 18.3433 16.11 17.4333 18.3C16.5233 20.49 15.6133 22.79 14.7333 25.13C13.8533 27.47 12.9733 29.93 12.1333 32.44H12.6433Z" fill="url(#paint4_linear_281_1654)"/>
<path style="mix-blend-mode:screen" opacity="0.35" fill-rule="evenodd" clip-rule="evenodd" d="M34.9933 22.97C34.9533 20.3033 34.8933 17.6967 34.8133 15.15C34.6933 11 34.8133 6.49 34.5433 2.42C32.8627 1.47006 30.9969 0.893631 29.0733 0.73H28.6533C26.8833 0.59 24.5533 0.37 23.3033 0.19C21.4933 0.0800001 19.0533 0 17.2233 0H16.6433C13.8633 0 11.4733 0.19 8.69333 0.25C6.45333 0.54 3.58333 0.87 1.75333 1.25C1.55333 1.24 0.553333 1.85 0.553333 2.04C0.493333 2.62 0.183333 5.04 0.143333 5.98C0.0833334 7.72 0.0433333 9.49 0.0133333 11.27C-0.0166667 13.05 0.0133333 14.9 0.0133333 16.74C0.0133333 18.58 0.0133335 20.48 0.103333 22.38C0.107576 22.4566 0.107576 22.5334 0.103333 22.61C0.163333 25.07 0.243333 27.56 0.353333 30.1V30.44C0.483333 31.05 0.633333 31.66 0.783333 32.21C0.868265 32.5488 0.971754 32.8826 1.09333 33.21C1.34206 33.7252 1.69839 34.181 2.13829 34.5467C2.57819 34.9124 3.09141 35.1795 3.64333 35.33C5.82333 35.26 7.91333 35.27 9.95333 35.33C11.9933 35.39 13.9533 35.47 15.9533 35.57L21.9533 35.91C24.0033 36.02 26.1033 36.12 28.2933 36.18C30.1623 35.9533 31.9941 35.4861 33.7433 34.79L34.9133 31.25V31.18C35.0067 28.38 35.0333 25.6433 34.9933 22.97ZM17.2933 20.44C17.0733 20.99 16.8433 21.54 16.6233 22.11C16.8433 21.52 17.0733 20.97 17.2933 20.44ZM22.7233 7.99C22.9233 7.57 23.1133 7.17 23.2933 6.81C23.0933 7.17 22.9033 7.57 22.7033 7.99H22.7233ZM21.5533 10.37C21.6133 10.24 21.6733 10.11 21.7233 9.98L21.5533 10.37Z" fill="url(#paint5_radial_281_1654)"/>
<g style="mix-blend-mode:multiply" opacity="0.4">
<path fill-rule="evenodd" clip-rule="evenodd" d="M27.7534 15.9C27.7534 15.81 27.7534 15.84 27.7034 15.82C27.5134 15.5 26.3334 13.94 25.9934 13.56C25.9638 13.4889 25.9138 13.4282 25.8497 13.3855C25.7856 13.3428 25.7104 13.32 25.6334 13.32C25.0234 13.32 24.1834 13.32 23.3034 13.32H23.5534C24.9334 11.27 26.3534 9.08999 27.5534 7.17999C27.5798 7.11662 27.5934 7.04864 27.5934 6.97999C27.5934 6.91133 27.5798 6.84336 27.5534 6.77999C27.0182 5.92763 26.4128 5.12149 25.7434 4.36999H25.8134C25.7858 4.30542 25.7417 4.24925 25.6855 4.20712C25.6294 4.16499 25.5631 4.13839 25.4934 4.12999C22.5758 3.74817 19.6209 3.74817 16.7034 4.12999C16.6008 4.14862 16.5029 4.18737 16.4154 4.24401C16.3279 4.30065 16.2524 4.37405 16.1934 4.45999C13.4471 8.84645 11.1457 13.4962 9.32337 18.34C9.3039 18.4032 9.29828 18.4699 9.30691 18.5354C9.31554 18.601 9.33821 18.664 9.37337 18.72C9.69042 19.2276 10.0518 19.7062 10.4534 20.15C10.7417 20.5402 11.0776 20.893 11.4534 21.2C11.9834 21.2 12.7334 21.2 13.5134 21.2V21.15C12.3598 23.8655 11.3582 26.6431 10.5134 29.47C10.3634 30.08 10.0134 31.31 10.2534 31.47C10.3434 31.66 11.7234 33.47 11.9834 33.76C12.2234 33.89 13.3534 32.86 13.9834 32.19C18.8521 27.1634 23.436 21.8685 27.7134 16.33C27.7511 16.2656 27.7742 16.1937 27.7811 16.1194C27.788 16.0451 27.7786 15.9702 27.7534 15.9ZM14.0234 19.86C14.0234 19.94 13.9534 20.02 13.9134 20.11L14.0234 19.86Z" fill="#3A1D0D"/>
</g>
<path fill-rule="evenodd" clip-rule="evenodd" d="M13.3033 16.72C12.1133 16.81 9.71332 16.83 8.48332 16.72C8.41828 16.7169 8.35477 16.6991 8.29761 16.6679C8.24044 16.6368 8.19111 16.593 8.15332 16.54C8.47383 17.0452 8.83503 17.5235 9.23332 17.97C9.52444 18.3579 9.86007 18.7103 10.2333 19.02C10.7633 19.02 11.5133 19.02 12.2933 19.02C12.6333 18.21 12.9833 17.4 13.2933 16.64L13.3033 16.72Z" fill="url(#paint6_radial_281_1654)"/>
<path fill-rule="evenodd" clip-rule="evenodd" d="M24.5534 2.74998C22.8734 5.42998 20.7734 8.59998 18.9534 11.27C19.9034 11.27 21.1534 11.2 22.2934 11.19C23.6734 9.13998 25.0934 6.95998 26.2934 5.04998C26.3221 4.98723 26.337 4.91901 26.337 4.84998C26.337 4.78095 26.3221 4.71273 26.2934 4.64998C25.7828 3.79556 25.2008 2.986 24.5534 2.22998C24.5875 2.29111 24.6055 2.35996 24.6055 2.42998C24.6055 2.5 24.5875 2.56886 24.5534 2.62998V2.74998Z" fill="url(#paint7_radial_281_1654)"/>
<path fill-rule="evenodd" clip-rule="evenodd" d="M24.7533 11.89C20.4796 17.4317 15.8991 22.73 11.0333 27.76C10.3733 28.43 9.24333 29.45 9.03333 29.33C9.13333 29.52 10.5033 31.33 10.7633 31.62C10.9933 31.75 12.1233 30.72 12.7633 30.05C17.6322 25.0235 22.216 19.7286 26.4933 14.19C26.5268 14.1232 26.5442 14.0496 26.5442 13.975C26.5442 13.9003 26.5268 13.8267 26.4933 13.76C26.4933 13.67 26.4933 13.7 26.4433 13.68C26.2533 13.36 25.0733 11.8 24.7333 11.42C24.7743 11.4842 24.796 11.5588 24.796 11.635C24.796 11.7112 24.7743 11.7857 24.7333 11.85L24.7533 11.89Z" fill="url(#paint8_radial_281_1654)"/>
<path style="mix-blend-mode:multiply" opacity="0.5" fill-rule="evenodd" clip-rule="evenodd" d="M24.4833 2.84998C24.9446 3.20632 25.2921 3.68934 25.4833 4.23998C25.7133 6.02998 24.0033 8.37998 23.0633 9.67998C22.8575 10.0509 22.58 10.3771 22.2469 10.6398C21.9139 10.9024 21.5319 11.0963 21.1233 11.21H22.3033C23.6833 9.15998 25.1033 6.97998 26.3033 5.06998C26.3321 5.00723 26.3469 4.93901 26.3469 4.86998C26.3469 4.80095 26.3321 4.73273 26.3033 4.66998C25.7914 3.80774 25.2058 2.99137 24.5533 2.22998C24.5874 2.29111 24.6054 2.35996 24.6054 2.42998C24.6054 2.5 24.5874 2.56886 24.5533 2.62998L24.4833 2.72998V2.84998Z" fill="url(#paint9_radial_281_1654)"/>
<path style="mix-blend-mode:multiply" opacity="0.5" fill-rule="evenodd" clip-rule="evenodd" d="M26.4833 13.68C26.3233 13.41 25.4333 12.22 24.9733 11.68C25.9033 13.68 25.9033 14.35 24.6233 16.08C23.0433 18.2 21.4233 20.3 19.7133 22.33C18.1533 24.18 16.5233 25.98 14.8233 27.71C14.0554 28.4813 13.2186 29.1809 12.3233 29.8C11.9382 30.1206 11.4669 30.3202 10.9687 30.3735C10.4705 30.4269 9.96758 30.3317 9.52332 30.1C9.96332 30.7 10.5233 31.46 10.7133 31.63C10.9433 31.76 12.0733 30.73 12.7133 30.06C17.5996 25.0316 22.2001 19.7333 26.4933 14.19C26.5268 14.1233 26.5442 14.0496 26.5442 13.975C26.5442 13.9003 26.5268 13.8267 26.4933 13.76C26.4933 13.67 26.4933 13.7 26.4433 13.68H26.4833Z" fill="url(#paint10_radial_281_1654)"/>
<path style="mix-blend-mode:screen" fill-rule="evenodd" clip-rule="evenodd" d="M11.9733 30.83C11.7733 30.93 11.5333 30.99 11.4033 30.9C10.9646 30.4465 10.5633 29.9582 10.2033 29.44V29.38C10.1465 29.2614 10.1171 29.1315 10.1171 29C10.1171 28.8685 10.1465 28.7386 10.2033 28.62C9.68333 29.08 9.20333 29.46 9.03333 29.38C9.13333 29.57 10.5033 31.38 10.7633 31.67C10.7633 31.67 11.4433 31.35 11.9833 30.87L11.9733 30.83ZM24.2533 12.62C24.4333 12.54 24.6333 12.5 24.7333 12.62L24.7933 12.67C25.2289 13.1485 25.6267 13.6601 25.9833 14.2C26.0326 14.3066 26.0581 14.4226 26.0581 14.54C26.0581 14.6574 26.0326 14.7734 25.9833 14.88L26.4833 14.23C26.5168 14.1633 26.5342 14.0896 26.5342 14.015C26.5342 13.9403 26.5168 13.8667 26.4833 13.8C26.4833 13.71 26.4833 13.74 26.4333 13.72C26.2433 13.4 25.0633 11.84 24.7233 11.46C24.7643 11.5242 24.786 11.5988 24.786 11.675C24.786 11.7512 24.7643 11.8258 24.7233 11.89L24.1533 12.62V12.68L24.2633 12.62H24.2533Z" fill="url(#paint11_radial_281_1654)"/>
<path fill-rule="evenodd" clip-rule="evenodd" d="M15.4934 2.14997C18.4076 1.76812 21.3592 1.76812 24.2734 2.14997C24.3431 2.15837 24.4093 2.18497 24.4655 2.2271C24.5217 2.26923 24.5658 2.3254 24.5934 2.38997C24.6275 2.4511 24.6455 2.51995 24.6455 2.58997C24.6455 2.66 24.6275 2.72885 24.5934 2.78998C22.9134 5.46997 20.8134 8.63998 18.9934 11.31C20.6134 11.24 23.0934 11.21 24.4634 11.31C24.5404 11.31 24.6156 11.3328 24.6797 11.3755C24.7438 11.4182 24.7938 11.4789 24.8234 11.55C24.8643 11.6142 24.8861 11.6888 24.8861 11.765C24.8861 11.8412 24.8643 11.9157 24.8234 11.98C20.5243 17.4928 15.9204 22.761 11.0334 27.76C10.3734 28.43 9.24337 29.45 9.03337 29.33C8.82337 29.21 9.15337 27.98 9.29337 27.33C10.4053 23.6975 11.7412 20.1373 13.2934 16.67C12.1034 16.76 9.70337 16.78 8.47337 16.67C8.40832 16.6669 8.34482 16.6491 8.28766 16.6179C8.23049 16.5868 8.18115 16.543 8.14337 16.49C8.1163 16.4303 8.10229 16.3655 8.10229 16.3C8.10229 16.2344 8.1163 16.1697 8.14337 16.11C9.96964 11.3419 12.2572 6.76346 14.9734 2.43997C15.0335 2.35295 15.1106 2.2789 15.1999 2.22222C15.2892 2.16553 15.389 2.12736 15.4934 2.10997V2.14997Z" fill="url(#paint12_radial_281_1654)"/>
<path style="mix-blend-mode:multiply" fill-rule="evenodd" clip-rule="evenodd" d="M23.9033 8.78998C22.7233 9.84998 20.4633 10.54 19.9033 9.78998C19.5733 10.29 19.2433 10.79 18.9033 11.24C19.8533 11.24 21.1033 11.17 22.2433 11.16L23.8433 8.75998L23.9033 8.78998Z" fill="url(#paint13_radial_281_1654)"/>
<path style="mix-blend-mode:multiply" fill-rule="evenodd" clip-rule="evenodd" d="M11.6034 16.79C12.2534 17.29 11.2534 18.87 9.95337 18.79C10.0246 18.8837 10.1171 18.9592 10.2234 19.01C10.7534 19.01 11.5034 19.01 12.2834 19.01C12.6234 18.2 12.9734 17.39 13.2834 16.63C12.8434 16.63 12.2834 16.69 11.5834 16.7L11.6034 16.79Z" fill="url(#paint14_radial_281_1654)"/>
<path style="mix-blend-mode:screen" fill-rule="evenodd" clip-rule="evenodd" d="M15.6433 4.11C17.7202 3.81177 19.8258 3.76811 21.9133 3.98C22.1887 4.00378 22.452 4.10424 22.6733 4.27C23.0933 4.62 22.8033 5.38 22.4433 6.06C23.1833 4.92 23.9133 3.79 24.5633 2.75C24.5974 2.68887 24.6153 2.62002 24.6153 2.55C24.6153 2.47998 24.5974 2.41112 24.5633 2.35C24.5357 2.28543 24.4916 2.22925 24.4354 2.18712C24.3792 2.145 24.313 2.1184 24.2433 2.11C21.329 1.72815 18.3775 1.72815 15.4633 2.11C15.3589 2.12738 15.2591 2.16555 15.1698 2.22224C15.0804 2.27892 15.0034 2.35298 14.9433 2.44C13.6602 4.40409 12.4981 6.44454 11.4633 8.55C12.3633 7.03 14.2633 4.3 15.6133 4.07L15.6433 4.11Z" fill="url(#paint15_radial_281_1654)"/>
<path style="mix-blend-mode:screen" fill-rule="evenodd" clip-rule="evenodd" d="M24.4333 11.22C23.9933 11.22 23.4333 11.22 22.8233 11.22C23.8233 11.55 23.8233 12.3 23.0233 13.37C20.8133 16.25 14.9233 23.37 12.0233 25.52C10.5633 26.58 10.0933 25.91 10.0233 24.95C9.66332 25.95 9.39332 26.84 9.25332 27.41C9.11332 27.98 8.78332 29.13 8.96332 29.34C9.11332 29.42 9.61332 29.04 10.1333 28.58C10.4333 28.31 10.7433 28.01 10.9833 27.77C15.6316 22.9743 20.0243 17.9373 24.1433 12.68C24.3433 12.42 24.5533 12.16 24.7533 11.89C24.7943 11.8258 24.816 11.7512 24.816 11.675C24.816 11.5988 24.7943 11.5242 24.7533 11.46C24.7188 11.4001 24.6693 11.3502 24.6097 11.3152C24.5501 11.2801 24.4824 11.2611 24.4133 11.26L24.4333 11.22Z" fill="url(#paint16_radial_281_1654)"/>
<path style="mix-blend-mode:screen" fill-rule="evenodd" clip-rule="evenodd" d="M15.9433 2.44C15.714 2.4781 15.4995 2.57841 15.3233 2.73C13.8933 4.2 10.4433 10.96 9.94327 12.73C9.94327 12.85 9.86327 13.06 9.94327 13.14C10.0233 13.22 10.2933 12.96 10.3633 12.84C11.6333 10.84 12.7733 8.74 14.0233 6.72C14.6533 5.72 15.4033 4.55 16.1233 3.61C16.6673 3.07339 17.3676 2.72325 18.1233 2.61C19.1233 2.35 18.6833 2.11 17.9933 2.14C17.3038 2.19185 16.6187 2.2921 15.9433 2.44Z" fill="url(#paint17_linear_281_1654)"/>
<path style="mix-blend-mode:screen" fill-rule="evenodd" clip-rule="evenodd" d="M23.9634 11.34C22.4034 11.34 20.8534 11.34 19.2934 11.4C18.5334 11.4 19.1234 12.21 19.6534 12.24C21.0947 12.2785 22.5329 12.0861 23.9134 11.67C24.0434 11.67 24.2334 11.58 24.2534 11.44C24.2734 11.3 24.0634 11.34 23.9634 11.34Z" fill="url(#paint18_linear_281_1654)"/>
<path style="mix-blend-mode:screen" opacity="0.5" fill-rule="evenodd" clip-rule="evenodd" d="M10.6633 28.12C10.5633 29.82 14.4633 26.69 15.3533 25.88C18.6926 22.9283 21.592 19.5137 23.9633 15.74C24.6633 14.52 24.7533 12.93 23.7233 13.21C19.7747 18.2402 15.5691 23.0633 11.1233 27.66L11.0333 27.76L10.6633 28.12Z" fill="url(#paint19_radial_281_1654)"/>
<path style="mix-blend-mode:screen" fill-rule="evenodd" clip-rule="evenodd" d="M16.0933 5.43998C15.6689 5.73416 15.3056 6.1077 15.0233 6.53998C13.5933 8.97998 12.3533 11.54 11.0233 14.06C10.7433 14.58 10.4433 15.58 11.4233 15.67C12.5633 15.77 13.7133 15.67 14.8533 15.67C13.5307 18.2535 12.3913 20.9268 11.4433 23.67C11.1933 24.51 11.8833 24.53 12.4433 24.02C14.9533 21.7 19.3333 16.9 21.1033 13.84C21.5733 13.04 20.7833 12.66 20.1033 12.64C19.1033 12.64 18.1833 12.64 17.2233 12.64C18.3433 10.83 19.5133 9.03998 20.5733 7.19998C20.7232 6.93053 20.8215 6.63549 20.8633 6.32998C20.8887 6.11755 20.8608 5.90213 20.7823 5.70313C20.7037 5.50412 20.5769 5.32778 20.4133 5.18998C19.9233 4.72998 18.5633 4.70998 17.4133 4.92998C16.9245 5.00308 16.4554 5.17308 16.0333 5.42998L16.0933 5.43998Z" fill="url(#paint20_radial_281_1654)"/>
<defs>
<linearGradient id="paint0_linear_281_1654" x1="17.5134" y1="36.1" x2="17.5134" y2="22.38" gradientUnits="userSpaceOnUse">
<stop stop-color="#57280C"/>
<stop offset="0.57" stop-color="#884329"/>
</linearGradient>
<radialGradient id="paint1_radial_281_1654" cx="0" cy="0" r="1" gradientUnits="userSpaceOnUse" gradientTransform="translate(19.0333 -1.61) scale(30.54 30.54)">
<stop stop-color="#CD9463"/>
<stop offset="1" stop-color="#734324"/>
</radialGradient>
<radialGradient id="paint2_radial_281_1654" cx="0" cy="0" r="1" gradientUnits="userSpaceOnUse" gradientTransform="translate(10.1733 5.19998) scale(41.56 41.56)">
<stop stop-color="#B6753E"/>
<stop offset="1" stop-color="#64381C"/>
</radialGradient>
<radialGradient id="paint3_radial_281_1654" cx="0" cy="0" r="1" gradientUnits="userSpaceOnUse" gradientTransform="translate(0.373334 0.0800001) scale(33.48)">
<stop stop-color="#C28653"/>
<stop offset="1" stop-color="#734324"/>
</radialGradient>
<linearGradient id="paint4_linear_281_1654" x1="24.5433" y1="20.52" x2="10.3433" y2="6.31" gradientUnits="userSpaceOnUse">
<stop stop-color="#8F5630"/>
<stop offset="1" stop-color="#AE8361"/>
</linearGradient>
<radialGradient id="paint5_radial_281_1654" cx="0" cy="0" r="1" gradientUnits="userSpaceOnUse" gradientTransform="translate(0.153333 -2.98) scale(36.24)">
<stop stop-color="#F39200"/>
<stop offset="0.45" stop-color="#B63000"/>
<stop offset="0.52" stop-color="#9D2900"/>
<stop offset="0.85" stop-color="#2F0C00"/>
<stop offset="1" stop-color="#030000"/>
</radialGradient>
<radialGradient id="paint6_radial_281_1654" cx="0" cy="0" r="1" gradientUnits="userSpaceOnUse" gradientTransform="translate(6.66332 15.21) scale(7.66)">
<stop stop-color="#00BDFC"/>
<stop offset="1" stop-color="#0061BD"/>
</radialGradient>
<radialGradient id="paint7_radial_281_1654" cx="0" cy="0" r="1" gradientUnits="userSpaceOnUse" gradientTransform="translate(21.7634 4.23998) scale(18.78)">
<stop stop-color="#00BDFC"/>
<stop offset="1" stop-color="#0061BD"/>
</radialGradient>
<radialGradient id="paint8_radial_281_1654" cx="0" cy="0" r="1" gradientUnits="userSpaceOnUse" gradientTransform="translate(24.8733 26.26) scale(35.29 35.29)">
<stop stop-color="#0061BD"/>
<stop offset="1" stop-color="#00BDFC"/>
</radialGradient>
<radialGradient id="paint9_radial_281_1654" cx="0" cy="0" r="1" gradientUnits="userSpaceOnUse" gradientTransform="translate(20.3933 2.80998) scale(9.23)">
<stop stop-color="white"/>
<stop offset="0.11" stop-color="#F9FAFB"/>
<stop offset="0.26" stop-color="#E9ECF1"/>
<stop offset="0.42" stop-color="#CFD5DF"/>
<stop offset="0.6" stop-color="#AAB6C6"/>
<stop offset="0.79" stop-color="#7A8DA6"/>
<stop offset="0.98" stop-color="#415B80"/>
<stop offset="1" stop-color="#3C577D"/>
</radialGradient>
<radialGradient id="paint10_radial_281_1654" cx="0" cy="0" r="1" gradientUnits="userSpaceOnUse" gradientTransform="translate(10.1533 13.61) scale(19.65 19.65)">
<stop stop-color="white"/>
<stop offset="0.11" stop-color="#F9FAFB"/>
<stop offset="0.26" stop-color="#E9ECF1"/>
<stop offset="0.42" stop-color="#CFD5DF"/>
<stop offset="0.6" stop-color="#AAB6C6"/>
<stop offset="0.79" stop-color="#7A8DA6"/>
<stop offset="0.98" stop-color="#415B80"/>
<stop offset="1" stop-color="#3C577D"/>
</radialGradient>
<radialGradient id="paint11_radial_281_1654" cx="0" cy="0" r="1" gradientUnits="userSpaceOnUse" gradientTransform="translate(18.6833 22.06) scale(12.67 12.67)">
<stop offset="0.58"/>
<stop offset="0.74" stop-color="#000202"/>
<stop offset="0.79" stop-color="#000909"/>
<stop offset="0.83" stop-color="#001414"/>
<stop offset="0.87" stop-color="#002525"/>
<stop offset="0.89" stop-color="#003B3B"/>
<stop offset="0.92" stop-color="#005757"/>
<stop offset="0.94" stop-color="#007777"/>
<stop offset="0.96" stop-color="#009D9D"/>
<stop offset="0.98" stop-color="#00C8C8"/>
<stop offset="1" stop-color="#00FFFF"/>
</radialGradient>
<radialGradient id="paint12_radial_281_1654" cx="0" cy="0" r="1" gradientUnits="userSpaceOnUse" gradientTransform="translate(14.3834 2.15997) scale(27.3 27.3)">
<stop stop-color="#00F9FC"/>
<stop offset="1" stop-color="#0081FC"/>
</radialGradient>
<radialGradient id="paint13_radial_281_1654" cx="0" cy="0" r="1" gradientUnits="userSpaceOnUse" gradientTransform="translate(18.3433 7.05998) scale(7.2 7.2)">
<stop stop-color="white"/>
<stop offset="0.11" stop-color="#F9FAFB"/>
<stop offset="0.26" stop-color="#E9ECF1"/>
<stop offset="0.42" stop-color="#CFD5DF"/>
<stop offset="0.6" stop-color="#AAB6C6"/>
<stop offset="0.79" stop-color="#7A8DA6"/>
<stop offset="0.98" stop-color="#415B80"/>
<stop offset="1" stop-color="#3C577D"/>
</radialGradient>
<radialGradient id="paint14_radial_281_1654" cx="0" cy="0" r="1" gradientUnits="userSpaceOnUse" gradientTransform="translate(9.99337 16.84) scale(6.91 6.91)">
<stop stop-color="white"/>
<stop offset="0.11" stop-color="#F9FAFB"/>
<stop offset="0.26" stop-color="#E9ECF1"/>
<stop offset="0.42" stop-color="#CFD5DF"/>
<stop offset="0.6" stop-color="#AAB6C6"/>
<stop offset="0.79" stop-color="#7A8DA6"/>
<stop offset="0.98" stop-color="#415B80"/>
<stop offset="1" stop-color="#3C577D"/>
</radialGradient>
<radialGradient id="paint15_radial_281_1654" cx="0" cy="0" r="1" gradientUnits="userSpaceOnUse" gradientTransform="translate(21.7733 8.17) scale(14.48)">
<stop/>
<stop offset="0.08" stop-color="#002323"/>
<stop offset="0.22" stop-color="#005C5C"/>
<stop offset="0.36" stop-color="#008E8E"/>
<stop offset="0.5" stop-color="#00B7B7"/>
<stop offset="0.64" stop-color="#00D6D6"/>
<stop offset="0.77" stop-color="#00EDED"/>
<stop offset="0.89" stop-color="#00FAFA"/>
<stop offset="1" stop-color="#00FFFF"/>
</radialGradient>
<radialGradient id="paint16_radial_281_1654" cx="0" cy="0" r="1" gradientUnits="userSpaceOnUse" gradientTransform="translate(29.1933 38.07) scale(29.12 29.12)">
<stop stop-color="#00FFFF"/>
<stop offset="0.11" stop-color="#00FAFA"/>
<stop offset="0.23" stop-color="#00EDED"/>
<stop offset="0.36" stop-color="#00D6D6"/>
<stop offset="0.5" stop-color="#00B7B7"/>
<stop offset="0.64" stop-color="#008E8E"/>
<stop offset="0.78" stop-color="#005C5C"/>
<stop offset="0.92" stop-color="#002323"/>
<stop offset="1"/>
</radialGradient>
<linearGradient id="paint17_linear_281_1654" x1="17.5133" y1="1.09" x2="9.35327" y2="16.67" gradientUnits="userSpaceOnUse">
<stop stop-color="#A1E1FF"/>
<stop offset="1"/>
</linearGradient>
<linearGradient id="paint18_linear_281_1654" x1="18.9334" y1="11.79" x2="24.2534" y2="11.79" gradientUnits="userSpaceOnUse">
<stop stop-color="#A1E1FF"/>
<stop offset="1"/>
</linearGradient>
<radialGradient id="paint19_radial_281_1654" cx="0" cy="0" r="1" gradientUnits="userSpaceOnUse" gradientTransform="translate(8.47326 8.17997) scale(21.29)">
<stop stop-color="#00FFFF"/>
<stop offset="0.11" stop-color="#00FAFA"/>
<stop offset="0.23" stop-color="#00EDED"/>
<stop offset="0.36" stop-color="#00D6D6"/>
<stop offset="0.5" stop-color="#00B7B7"/>
<stop offset="0.64" stop-color="#008E8E"/>
<stop offset="0.78" stop-color="#005C5C"/>
<stop offset="0.92" stop-color="#002323"/>
<stop offset="1"/>
</radialGradient>
<radialGradient id="paint20_radial_281_1654" cx="0" cy="0" r="1" gradientUnits="userSpaceOnUse" gradientTransform="translate(4.04326 5.38998) scale(20.13 20.13)">
<stop stop-color="#00FFFF"/>
<stop offset="0.11" stop-color="#00FAFA"/>
<stop offset="0.23" stop-color="#00EDED"/>
<stop offset="0.36" stop-color="#00D6D6"/>
<stop offset="0.5" stop-color="#00B7B7"/>
<stop offset="0.64" stop-color="#008E8E"/>
<stop offset="0.78" stop-color="#005C5C"/>
<stop offset="0.92" stop-color="#002323"/>
<stop offset="1"/>
</radialGradient>
</defs>
</svg>
