<svg width="48" height="53" viewBox="0 0 48 53" fill="none" xmlns="http://www.w3.org/2000/svg">
<path d="M28.3807 51.5871C28.3807 51.6743 28.2452 51.7578 28.0096 51.8301C27.6985 51.9133 27.3807 51.9692 27.0598 51.9971C26.776 52.0268 26.4588 52.0491 26.1193 52.0583C25.9746 52.0583 25.8243 52.0583 25.674 52.0583C24.918 52.0763 24.1624 52.0078 23.4219 51.8543L23.344 51.832C23.2015 51.8094 23.0708 51.7395 22.973 51.6335H22.9043L22.6483 38.3898V38.0355L22.6001 35.5737V35.5144L21.9378 1.48953L27.3492 1.38379L27.967 33.2567L28.0208 36.0597L28.0672 38.4621L28.3195 51.4907C28.3363 51.501 28.3506 51.5151 28.3612 51.5318C28.3719 51.5485 28.3785 51.5674 28.3807 51.5871Z" fill="url(#paint0_linear_137_1016)"/>
<path style="mix-blend-mode:screen" opacity="0.7" d="M26.1193 52.0658C25.9746 52.0658 25.8243 52.0658 25.674 52.0658C24.9177 52.0813 24.1621 52.0103 23.4219 51.8543L23.2791 35.6647L23.1214 34.7093L25.7074 33.5962L26.1193 52.0658Z" fill="url(#paint1_linear_137_1016)"/>
<path style="mix-blend-mode:multiply" opacity="0.31" d="M28.0097 51.8303C27.6985 51.9135 27.3807 51.9693 27.0598 51.9972L26.6294 30.2515H27.5848L28.0097 51.8303Z" fill="url(#paint2_linear_137_1016)"/>
<path style="mix-blend-mode:multiply" opacity="0.31" d="M28.0709 37.9836L25.5145 36.1433L22.6558 37.9131L22.6484 37.5606L22.6001 35.0988L22.8079 33.5962L28.0245 35.583L28.0709 37.9836Z" fill="url(#paint3_linear_137_1016)"/>
<path d="M47.8242 4.27802C47.5923 4.63235 47.1545 4.97184 46.6073 5.28721C44.8134 6.31495 41.8359 7.06998 41.0419 7.16459C39.9771 7.29074 40.5893 2.78465 40.8972 0.857173C40.9658 0.430495 41.0196 0.12811 41.0382 0.0334984C41.039 0.023003 41.039 0.0124485 41.0382 0.00195313C41.0382 0.00195312 44.7002 0.744011 47.2454 2.67705C47.3271 2.74012 47.4087 2.80134 47.4866 2.86256C47.7279 3.03154 47.9035 3.27855 47.9838 3.56193C48.0073 3.68587 48.0052 3.8133 47.9778 3.93642C47.9504 4.05955 47.8981 4.17578 47.8242 4.27802Z" fill="url(#paint4_linear_137_1016)"/>
<path d="M7.49938 6.72469C7.4159 7.21815 7.2508 7.51682 6.96511 7.48342C6.11175 7.38325 2.75398 6.52062 1.02871 5.37972C0.679524 5.16878 0.379665 4.88537 0.149385 4.54862C0.0766397 4.44107 0.0288862 4.31861 0.00962603 4.19021C-0.00963414 4.06181 8.73424e-05 3.93072 0.0380777 3.80657C0.131827 3.55469 0.297639 3.33597 0.514844 3.17768L0.609456 3.10348C3.15654 1.08882 6.96325 0.311523 6.96325 0.311523C6.96325 0.311523 6.9985 0.49703 7.0523 0.816111C7.1265 1.25763 7.23781 1.94402 7.33242 2.7139C7.42332 3.42812 7.5068 4.21284 7.54205 4.94005C7.58803 5.53484 7.57374 6.13277 7.49938 6.72469Z" fill="url(#paint5_linear_137_1016)"/>
<path style="mix-blend-mode:screen" opacity="0.7" d="M47.9837 3.56554L40.8007 2.07031L40.8935 0.855209L40.9584 0L41.0345 0.0315339L47.2454 2.67508C47.327 2.73816 47.4087 2.79938 47.4866 2.8606C47.7289 3.03098 47.9046 3.28011 47.9837 3.56554Z" fill="url(#paint6_linear_137_1016)"/>
<path style="mix-blend-mode:screen" opacity="0.7" d="M7.33429 2.71956L0.0473709 3.81223C0.14112 3.56035 0.306932 3.34163 0.524138 3.18335L0.618749 3.10914L7.06159 0.821777C7.12838 1.2633 7.23597 1.94969 7.33429 2.71956Z" fill="url(#paint7_linear_137_1016)"/>
<path style="mix-blend-mode:multiply" opacity="0.6" d="M47.8242 4.27786C47.5923 4.63219 47.1545 4.97168 46.6073 5.28705L41.1513 6.58564L41.5966 4.14429L47.8242 4.27786Z" fill="url(#paint8_linear_137_1016)"/>
<path style="mix-blend-mode:multiply" opacity="0.6" d="M7.49942 6.7249L1.0306 5.37993L0.151276 4.54883L7.54394 4.94583C7.58893 5.53884 7.57402 6.13488 7.49942 6.7249Z" fill="url(#paint9_linear_137_1016)"/>
<path d="M42.3924 3.58224C42.3924 5.56166 41.7858 7.16448 41.0382 7.16448C40.7785 7.16448 40.5373 6.96969 40.3295 6.63391L40.2683 6.52818H7.88526C7.6441 7.11996 7.32873 7.48356 6.9577 7.48356C6.21565 7.48356 5.60532 5.87888 5.60532 3.90132C5.60532 1.92376 6.21194 0.317219 6.9577 0.317219C7.37325 0.317219 7.74427 0.812536 7.99286 1.59169H39.901C40.144 0.630734 40.5558 0 41.0252 0C41.7876 0 42.3924 1.60654 42.3924 3.58224Z" fill="url(#paint10_linear_137_1016)"/>
<path style="mix-blend-mode:screen" opacity="0.3" d="M7.99287 2.24297L39.7526 2.22998C40.0372 2.2293 40.3115 2.33679 40.5199 2.53071C40.7283 2.72462 40.8552 2.99046 40.8749 3.27442C40.8858 3.42686 40.8655 3.57991 40.8153 3.72425C40.7651 3.86859 40.6861 4.00121 40.583 4.11403C40.4799 4.22684 40.3549 4.31748 40.2156 4.38044C40.0764 4.4434 39.9258 4.47736 39.773 4.48025L7.96876 5.07203C7.30277 5.08502 6.93174 4.5155 6.98554 3.85693L7.03007 3.27999C7.0783 2.69377 7.40666 2.24297 7.99287 2.24297Z" fill="url(#paint11_linear_137_1016)"/>
<path d="M39.9084 31.3421C39.8954 32.3754 39.8787 33.3828 39.8583 34.3382C39.7785 38.3675 39.6598 41.6177 39.6005 43.0906C39.5782 43.6472 39.5652 43.944 39.5652 43.944L25.674 35.6646L11.1781 43.944C11.1781 43.944 9.7441 38.2135 9.26734 23.0868C9.24879 22.5291 9.23766 21.9725 9.23395 21.4172C9.19128 17.6142 9.41946 13.9875 9.68288 10.869C9.71504 10.498 9.74658 10.1375 9.7775 9.78746C10.0632 6.66343 10.3674 4.13119 10.4472 2.56732C10.488 1.74921 11.0816 1.33366 11.8627 1.23163C11.9574 1.21931 12.0528 1.21188 12.1483 1.20937L13.1631 1.17412L13.7196 1.15558C19.0513 0.983049 29.7757 0.689933 34.7549 0.940375C35.5231 0.958129 36.2886 1.03754 37.0441 1.17784L37.1257 1.20195C37.185 1.21841 37.2428 1.24014 37.2982 1.26688C39.1534 2.22227 39.0532 3.7008 39.6876 15.4382C39.799 17.5011 39.8732 19.7049 39.9047 21.9645C39.9566 25.133 39.9474 28.3647 39.9084 31.3421Z" fill="url(#paint12_linear_137_1016)"/>
<path d="M39.5615 43.944L25.6703 35.6646L11.1781 43.944C11.1781 43.944 9.74409 38.2135 9.26733 23.0868C8.99462 14.2212 10.2821 6.03641 10.4546 2.5729C10.4991 1.64534 11.2393 1.24648 12.1558 1.21495L13.7178 1.16114C12.4581 2.07015 12.4581 2.54692 12.1391 5.57263C11.0631 15.8055 12.6177 40.4489 12.6177 40.4489L25.5145 32.01L37.1387 39.8126C37.1387 39.8126 37.7991 18.3544 37.6155 10.9933C37.4559 4.62466 37.1387 2.23526 34.753 0.953369C36.0776 1.02015 36.9958 1.12404 37.2964 1.27987C39.1515 2.23526 39.0513 3.7138 39.6858 15.4512C40.3221 27.2256 39.5615 43.944 39.5615 43.944Z" fill="url(#paint13_linear_137_1016)"/>
<path style="mix-blend-mode:screen" opacity="0.7" d="M42.3924 3.58218C42.3924 5.56159 41.7858 7.16442 41.0382 7.16442C40.7784 7.16442 40.5373 6.96962 40.3295 6.63384C40.3295 6.63384 40.9602 5.73968 40.9398 3.59145C40.9194 1.44322 39.9158 1.59905 39.9158 1.59905C40.1588 0.638095 40.5707 0.00734982 41.04 0.00734982C41.7876 -7.06702e-05 42.3924 1.60647 42.3924 3.58218Z" fill="url(#paint14_linear_137_1016)"/>
<path style="mix-blend-mode:screen" opacity="0.7" d="M8.00027 1.59158C8.00027 1.59158 6.8872 1.43204 6.8872 4.2982C6.8872 6.44458 7.88711 6.52435 7.88711 6.52435C7.88711 6.52435 7.36582 7.63743 6.82041 7.45191C6.21008 7.24971 5.45504 5.87877 5.61458 3.33168C5.8001 0.467371 6.86494 0.311541 7.04674 0.305976C7.22854 0.300411 7.68119 0.636187 8.00027 1.59158Z" fill="url(#paint15_linear_137_1016)"/>
<path style="mix-blend-mode:screen" d="M41.0456 0C40.9914 0.000487089 40.9376 0.00923663 40.886 0.0259631C41.5594 0.233737 42.0807 1.74567 42.0807 3.58224C42.0807 5.41881 41.5594 6.92146 40.8879 7.13851C40.9388 7.15525 40.992 7.16401 41.0456 7.16448C41.7876 7.16448 42.3998 5.56166 42.3998 3.58224C42.3998 1.60283 41.7876 0 41.0456 0Z" fill="url(#paint16_linear_137_1016)"/>
<path style="mix-blend-mode:screen" opacity="0.2" d="M36.8196 2.38767C36.3169 3.34306 17.7119 3.82168 13.4135 3.18351C10.9648 2.81249 11.2134 2.37468 11.8701 1.23749C11.9649 1.22517 12.0602 1.21774 12.1558 1.21523L13.7178 1.16143C19.0494 0.988899 29.7739 0.695795 34.753 0.946236C35.5212 0.963991 36.2867 1.04339 37.0422 1.18369C37.3929 1.97768 37.161 1.74209 36.8196 2.38767Z" fill="url(#paint17_linear_137_1016)"/>
<path style="mix-blend-mode:multiply" opacity="0.3" d="M39.5615 43.9442L25.6704 35.6648C26.9431 35.8259 28.2354 35.7201 29.465 35.3541C30.6946 34.988 31.8344 34.3698 32.8118 33.5389C33.7892 32.7079 34.5827 31.6824 35.1418 30.5278C35.7009 29.3731 36.0133 28.1147 36.059 26.8326L36.9718 1.2727L37.1165 1.20776C37.1758 1.22422 37.2335 1.24596 37.289 1.2727C39.1441 2.22809 39.0439 3.70662 39.6784 15.444C40.3221 27.2259 39.5615 43.9442 39.5615 43.9442Z" fill="url(#paint18_linear_137_1016)"/>
<path style="mix-blend-mode:screen" opacity="0.2" d="M39.9084 31.3421C31.4769 25.3371 17.8436 15.6144 9.78491 9.79302C10.0706 6.669 10.3748 4.13676 10.4546 2.57289C10.4954 1.75478 11.0891 1.33923 11.8701 1.2372C11.9649 1.22487 12.0602 1.21744 12.1558 1.21494L13.1705 1.17969L39.9028 21.9701C39.9566 25.133 39.9474 28.3647 39.9084 31.3421Z" fill="url(#paint19_linear_137_1016)"/>
<path style="mix-blend-mode:screen" opacity="0.2" d="M39.8583 34.3381C39.7786 38.3674 39.6598 41.6176 39.6005 43.0906C35.2966 40.0333 20.2961 29.3627 9.24138 21.4227C9.19871 17.6197 9.42689 13.993 9.69032 10.8745L39.8583 34.3381Z" fill="url(#paint20_linear_137_1016)"/>
<defs>
<linearGradient id="paint0_linear_137_1016" x1="21.372" y1="25.8417" x2="36.354" y2="28.7543" gradientUnits="userSpaceOnUse">
<stop stop-color="#BAEFF0"/>
<stop offset="0.08" stop-color="#A6D7DE"/>
<stop offset="0.33" stop-color="#7097AE"/>
<stop offset="0.55" stop-color="#456488"/>
<stop offset="0.75" stop-color="#263F6D"/>
<stop offset="0.9" stop-color="#13285C"/>
<stop offset="1" stop-color="#0C2056"/>
</linearGradient>
<linearGradient id="paint1_linear_137_1016" x1="21.2533" y1="42.9516" x2="25.7649" y2="42.831" gradientUnits="userSpaceOnUse">
<stop stop-color="#BAEFF0"/>
<stop offset="0.04" stop-color="#B0E3E9"/>
<stop offset="0.3" stop-color="#77A3C0"/>
<stop offset="0.53" stop-color="#4B70A0"/>
<stop offset="0.73" stop-color="#2B4B88"/>
<stop offset="0.9" stop-color="#17347A"/>
<stop offset="1" stop-color="#102C75"/>
</linearGradient>
<linearGradient id="paint2_linear_137_1016" x1="26.0006" y1="40.8683" x2="31.1634" y2="41.8701" gradientUnits="userSpaceOnUse">
<stop stop-color="#BAEFF0"/>
<stop offset="0.08" stop-color="#A6D7DE"/>
<stop offset="0.33" stop-color="#7097AE"/>
<stop offset="0.55" stop-color="#456488"/>
<stop offset="0.75" stop-color="#263F6D"/>
<stop offset="0.9" stop-color="#13285C"/>
<stop offset="1" stop-color="#0C2056"/>
</linearGradient>
<linearGradient id="paint3_linear_137_1016" x1="24.9561" y1="38.8685" x2="25.1787" y2="37.4437" gradientUnits="userSpaceOnUse">
<stop stop-color="#BAEFF0"/>
<stop offset="0.08" stop-color="#A6D7DE"/>
<stop offset="0.33" stop-color="#7097AE"/>
<stop offset="0.55" stop-color="#456488"/>
<stop offset="0.75" stop-color="#263F6D"/>
<stop offset="0.9" stop-color="#13285C"/>
<stop offset="1" stop-color="#0C2056"/>
</linearGradient>
<linearGradient id="paint4_linear_137_1016" x1="44.2197" y1="-5.09593" x2="44.2197" y2="10.5539" gradientUnits="userSpaceOnUse">
<stop stop-color="#BAEFF0"/>
<stop offset="0.04" stop-color="#B0E3E9"/>
<stop offset="0.3" stop-color="#77A3C0"/>
<stop offset="0.53" stop-color="#4B70A0"/>
<stop offset="0.73" stop-color="#2B4B88"/>
<stop offset="0.9" stop-color="#17347A"/>
<stop offset="1" stop-color="#102C75"/>
</linearGradient>
<linearGradient id="paint5_linear_137_1016" x1="3.0508" y1="-0.688387" x2="4.53675" y2="9.07883" gradientUnits="userSpaceOnUse">
<stop stop-color="#BAEFF0"/>
<stop offset="0.04" stop-color="#B0E3E9"/>
<stop offset="0.3" stop-color="#77A3C0"/>
<stop offset="0.53" stop-color="#4B70A0"/>
<stop offset="0.73" stop-color="#2B4B88"/>
<stop offset="0.9" stop-color="#17347A"/>
<stop offset="1" stop-color="#102C75"/>
</linearGradient>
<linearGradient id="paint6_linear_137_1016" x1="44.6445" y1="0.61961" x2="44.2995" y2="2.94408" gradientUnits="userSpaceOnUse">
<stop stop-color="#BAEFF0"/>
<stop offset="0.04" stop-color="#B0E3E9"/>
<stop offset="0.3" stop-color="#77A3C0"/>
<stop offset="0.53" stop-color="#4B70A0"/>
<stop offset="0.73" stop-color="#2B4B88"/>
<stop offset="0.9" stop-color="#17347A"/>
<stop offset="1" stop-color="#102C75"/>
</linearGradient>
<linearGradient id="paint7_linear_137_1016" x1="3.8411" y1="-0.49907" x2="3.53871" y2="6.85649" gradientUnits="userSpaceOnUse">
<stop stop-color="#BAEFF0"/>
<stop offset="0.04" stop-color="#B0E3E9"/>
<stop offset="0.3" stop-color="#77A3C0"/>
<stop offset="0.53" stop-color="#4B70A0"/>
<stop offset="0.73" stop-color="#2B4B88"/>
<stop offset="0.9" stop-color="#17347A"/>
<stop offset="1" stop-color="#102C75"/>
</linearGradient>
<linearGradient id="paint8_linear_137_1016" x1="44.7113" y1="3.91425" x2="44.2642" y2="6.93996" gradientUnits="userSpaceOnUse">
<stop stop-color="#BAEFF0"/>
<stop offset="0.04" stop-color="#B0E3E9"/>
<stop offset="0.3" stop-color="#77A3C0"/>
<stop offset="0.53" stop-color="#4B70A0"/>
<stop offset="0.73" stop-color="#2B4B88"/>
<stop offset="0.9" stop-color="#17347A"/>
<stop offset="1" stop-color="#102C75"/>
</linearGradient>
<linearGradient id="paint9_linear_137_1016" x1="3.90975" y1="4.02383" x2="3.73537" y2="8.22755" gradientUnits="userSpaceOnUse">
<stop stop-color="#BAEFF0"/>
<stop offset="0.04" stop-color="#B0E3E9"/>
<stop offset="0.3" stop-color="#77A3C0"/>
<stop offset="0.53" stop-color="#4B70A0"/>
<stop offset="0.73" stop-color="#2B4B88"/>
<stop offset="0.9" stop-color="#17347A"/>
<stop offset="1" stop-color="#102C75"/>
</linearGradient>
<linearGradient id="paint10_linear_137_1016" x1="24.3235" y1="-3.33922" x2="23.7466" y2="9.36836" gradientUnits="userSpaceOnUse">
<stop stop-color="#BAEFF0"/>
<stop offset="0.04" stop-color="#B0E3E9"/>
<stop offset="0.3" stop-color="#77A3C0"/>
<stop offset="0.53" stop-color="#4B70A0"/>
<stop offset="0.73" stop-color="#2B4B88"/>
<stop offset="0.9" stop-color="#17347A"/>
<stop offset="1" stop-color="#102C75"/>
</linearGradient>
<linearGradient id="paint11_linear_137_1016" x1="24.0768" y1="0.0761848" x2="23.6928" y2="9.39633" gradientUnits="userSpaceOnUse">
<stop stop-color="#BAEFF0"/>
<stop offset="0.04" stop-color="#B0E3E9"/>
<stop offset="0.3" stop-color="#77A3C0"/>
<stop offset="0.53" stop-color="#4B70A0"/>
<stop offset="0.73" stop-color="#2B4B88"/>
<stop offset="0.9" stop-color="#17347A"/>
<stop offset="1" stop-color="#102C75"/>
</linearGradient>
<linearGradient id="paint12_linear_137_1016" x1="0.915574" y1="5.4038" x2="43.2532" y2="36.581" gradientUnits="userSpaceOnUse">
<stop stop-color="#DB1620"/>
<stop offset="0.02" stop-color="#D7151F"/>
<stop offset="0.34" stop-color="#A80C12"/>
<stop offset="0.62" stop-color="#860608"/>
<stop offset="0.85" stop-color="#710102"/>
<stop offset="1" stop-color="#690000"/>
</linearGradient>
<linearGradient id="paint13_linear_137_1016" x1="7.73499" y1="5.34259" x2="32.7254" y2="31.3032" gradientUnits="userSpaceOnUse">
<stop stop-color="#EDCD28"/>
<stop offset="0.36" stop-color="#DEA324"/>
<stop offset="1" stop-color="#C2511D"/>
</linearGradient>
<linearGradient id="paint14_linear_137_1016" x1="40.0846" y1="-9.19963" x2="41.8785" y2="10.6279" gradientUnits="userSpaceOnUse">
<stop stop-color="#BAEFF0"/>
<stop offset="0.04" stop-color="#B0E3E9"/>
<stop offset="0.3" stop-color="#77A3C0"/>
<stop offset="0.53" stop-color="#4B70A0"/>
<stop offset="0.73" stop-color="#2B4B88"/>
<stop offset="0.9" stop-color="#17347A"/>
<stop offset="1" stop-color="#102C75"/>
</linearGradient>
<linearGradient id="paint15_linear_137_1016" x1="8.02995" y1="16.6533" x2="6.2379" y2="-3.1427" gradientUnits="userSpaceOnUse">
<stop stop-color="#BAEFF0"/>
<stop offset="0.04" stop-color="#B0E3E9"/>
<stop offset="0.3" stop-color="#77A3C0"/>
<stop offset="0.53" stop-color="#4B70A0"/>
<stop offset="0.73" stop-color="#2B4B88"/>
<stop offset="0.9" stop-color="#17347A"/>
<stop offset="1" stop-color="#102C75"/>
</linearGradient>
<linearGradient id="paint16_linear_137_1016" x1="40.3369" y1="-9.22182" x2="42.1308" y2="10.6057" gradientUnits="userSpaceOnUse">
<stop stop-color="#BAEFF0"/>
<stop offset="0.04" stop-color="#B0E3E9"/>
<stop offset="0.3" stop-color="#77A3C0"/>
<stop offset="0.53" stop-color="#4B70A0"/>
<stop offset="0.73" stop-color="#2B4B88"/>
<stop offset="0.9" stop-color="#17347A"/>
<stop offset="1" stop-color="#102C75"/>
</linearGradient>
<linearGradient id="paint17_linear_137_1016" x1="18.3055" y1="0.844204" x2="42.1104" y2="5.47088" gradientUnits="userSpaceOnUse">
<stop stop-color="#DB1620"/>
<stop offset="0.02" stop-color="#D7151F"/>
<stop offset="0.34" stop-color="#A80C12"/>
<stop offset="0.62" stop-color="#860608"/>
<stop offset="0.85" stop-color="#710102"/>
<stop offset="1" stop-color="#690000"/>
</linearGradient>
<linearGradient id="paint18_linear_137_1016" x1="32.4304" y1="21.4267" x2="46.7854" y2="24.2169" gradientUnits="userSpaceOnUse">
<stop stop-color="#DB1620"/>
<stop offset="0.02" stop-color="#D7151F"/>
<stop offset="0.34" stop-color="#A80C12"/>
<stop offset="0.62" stop-color="#860608"/>
<stop offset="0.85" stop-color="#710102"/>
<stop offset="1" stop-color="#690000"/>
</linearGradient>
<linearGradient id="paint19_linear_137_1016" x1="4.07484" y1="-2.19293" x2="33.8013" y2="23.6786" gradientUnits="userSpaceOnUse">
<stop stop-color="white"/>
<stop offset="1"/>
</linearGradient>
<linearGradient id="paint20_linear_137_1016" x1="4.65551" y1="12.1601" x2="25.765" y2="28.8414" gradientUnits="userSpaceOnUse">
<stop stop-color="white"/>
<stop offset="1"/>
</linearGradient>
</defs>
</svg>
