<svg width="176" height="260" viewBox="0 0 176 260" fill="none" xmlns="http://www.w3.org/2000/svg">
<g clip-path="url(#clip0_1_1396)">
<path d="M41.137 222.258C35.3795 226.76 29.153 228.171 22.3449 225.175C14.4412 221.7 9.58542 212.107 11.3122 202.827C13.9047 188.882 22.133 179.34 33.8555 172.714C37.8367 170.459 42.1379 168.991 46.9622 167.683C45.3977 167.027 44.1804 166.483 42.945 166.004C27.6155 160.049 16.903 149.593 12.737 132.67C12.4664 131.559 12.1058 130.893 10.6991 130.996C8.72877 131.137 6.64126 131.095 4.8378 130.152C1.72682 128.521 0.153303 125.806 0.135268 122.148C0.108216 116.287 0.189372 110.412 8.48435e-06 104.565C-0.189355 98.5251 3.33642 95.8102 8.62507 95.7399C10.92 95.7117 11.4791 95.0881 11.3303 92.8046C10.9335 86.24 11.195 79.7035 15.1221 74.2033C17.2009 71.4357 18.2006 67.9549 17.9219 64.4549C17.7055 60.4974 19.1798 56.8963 21.7182 53.8765C22.0931 53.4653 22.3813 52.9772 22.5645 52.4435C22.7477 51.9098 22.8219 51.3423 22.7823 50.7771C22.3269 36.9915 29.0132 26.9805 41.642 22.5072C42.0546 22.4097 42.4305 22.1877 42.7224 21.8691C43.0143 21.5505 43.2094 21.1493 43.2831 20.716C48.4771 0.581443 73.0854 -6.70994 87.2696 7.1179C88.1713 7.98067 88.5906 7.7556 89.3842 7.05225C104.763 -6.54583 127.545 0.487663 133.046 20.5378C133.137 21.0149 133.359 21.4545 133.684 21.8038C134.01 22.1532 134.425 22.3974 134.881 22.5072C147.577 26.8726 154.516 37.3713 153.817 51.1335C153.771 51.5483 153.809 51.9687 153.931 52.3666C154.054 52.7645 154.256 53.1306 154.525 53.4405C158.092 57.5902 159.034 62.5137 158.511 67.8826C158.416 68.8626 158.218 69.8332 158.926 70.7475C163.885 77.1668 165.549 84.5941 164.9 92.6498C164.715 94.9474 165.193 95.7821 167.645 95.768C173.128 95.7399 175.851 98.6846 175.946 104.325C176.036 109.882 176.014 115.438 176.018 120.995C176.023 126.551 173.592 129.608 168.398 130.682C167.608 130.897 166.794 130.998 165.977 130.982C164.417 130.856 163.939 131.564 163.552 133.102C159.467 149.377 149.426 159.942 134.403 165.672C132.902 166.248 131.297 166.609 129.809 167.744C133.461 169.048 137.068 169.953 140.431 171.58C152.046 177.206 160.535 185.872 164.489 198.72C167.064 207.089 165.937 214.878 159.755 221.4C157.052 224.219 153.537 226.041 149.745 226.589C145.953 227.137 142.094 226.38 138.754 224.434C137.541 223.717 136.387 222.891 135.183 222.09C134.502 222.638 134.836 223.384 134.836 224.007C134.809 229.334 134.836 234.656 134.836 239.983C134.813 250.256 127.099 258.889 117.031 259.92C108.262 260.821 98.7396 253.407 97.0669 244.029C96.6161 241.516 95.8045 240.864 93.46 240.991C89.5375 241.207 85.5969 241.089 81.6653 240.991C80.3127 240.963 79.8258 241.253 79.6139 242.81C78.9854 247.364 76.8679 251.553 73.6178 254.674C70.3677 257.794 66.1833 259.655 61.7686 259.944C53.4411 260.544 45.0866 254.467 42.4896 245.877C41.9894 244.186 41.7341 242.427 41.7322 240.658C41.6645 234.647 41.5563 228.64 41.4616 222.629C41.5248 222.512 41.6645 222.357 41.633 222.282C41.5338 222.019 41.3264 222.136 41.137 222.258ZM33.9232 209.561C33.6841 208.738 33.2789 207.977 32.7346 207.331C32.1903 206.684 31.5195 206.165 30.7671 205.809C28.4542 203.723 25.6723 203.587 22.8183 203.727C21.9842 203.765 21.7453 204.29 21.619 205.078C20.8751 209.767 23.4766 214.128 27.9672 215.619C28.1205 215.811 28.2828 215.961 28.5263 215.75C28.7398 215.852 28.9732 215.9 29.2079 215.892C29.4426 215.884 29.6724 215.819 29.8789 215.703C33.5715 215.098 34.9601 212.979 33.9186 209.551L33.9232 209.561ZM7.06057 109.554C7.02149 112.611 6.98092 115.67 6.93883 118.73C6.93883 120.08 7.58808 120.606 8.87305 120.606C10.158 120.606 10.6765 120.034 10.654 118.664C10.6134 114.833 10.6765 111.003 10.6765 107.172C10.6765 106.703 10.8659 106.07 10.2256 105.765C6.79907 105.896 6.73144 105.971 7.06057 109.554ZM165.585 109.554C165.585 112.714 165.549 115.874 165.549 119.035C165.549 119.78 165.378 120.676 166.532 120.709C167.618 120.742 168.912 120.652 168.944 119.302C169.03 115.082 169.49 110.89 168.782 106.703C168.141 105.563 167.037 105.47 166.076 105.765C165.116 106.06 165.68 107.204 165.558 107.959C165.519 108.489 165.528 109.021 165.585 109.549V109.554ZM142.825 208.515C141.414 211.061 142.311 213.851 144.94 215.112C148.998 217.058 153.718 214.25 154.818 209.251C155.801 204.764 155.008 203.756 150.652 203.971C150.431 203.971 150.201 204.042 149.999 204.074C147.018 204.525 144.525 205.847 142.825 208.515ZM131.617 199.038C131.617 200.422 131.617 201.805 131.671 203.188C131.659 203.42 131.728 203.649 131.866 203.833C132.003 204.016 132.2 204.142 132.419 204.187C132.87 204.257 133.001 203.807 133.177 203.47C135.593 198.898 139.3 195.864 143.849 193.852C145.066 193.538 146.265 193.055 147.501 192.943C149.521 192.75 149.079 192.005 148.091 190.945C143.705 186.244 138.305 182.697 132.338 180.597C132.05 180.334 131.793 180.259 131.635 180.733L131.603 181.67C131.546 181.706 131.499 181.756 131.466 181.816C131.434 181.876 131.416 181.944 131.416 182.013C131.416 182.082 131.434 182.15 131.466 182.21C131.499 182.27 131.546 182.32 131.603 182.355C131.603 183.368 131.603 184.381 131.603 185.393C131.286 187.569 131.286 189.782 131.603 191.958V196.136C131.293 197.077 131.298 198.1 131.617 199.038ZM34.2297 194.349C38.0305 196.558 41.3264 199.306 43.3598 203.437C43.5446 203.816 43.7565 204.374 44.3336 204.14C44.9874 203.901 45.1362 203.319 45.1407 202.654C45.1888 195.658 45.2429 188.663 45.303 181.67C45.303 180.643 45.0641 180.109 44.0316 180.845C37.6563 182.435 32.6472 186.219 28.4767 191.339C27.8951 192.057 27.6246 192.586 28.8825 192.872C30.6589 193.29 32.4353 193.857 34.2162 194.359L34.2297 194.349ZM116.562 248.273C121.103 247.579 123.537 244.765 123.614 240.076C123.686 236.222 123.659 232.363 123.614 228.509C123.614 227.918 123.911 227.196 123.226 226.568C121.206 229.548 118.807 232.229 116.093 234.539C113.668 236.128 111.314 237.877 108.519 238.731C108.393 238.751 108.273 238.797 108.165 238.868C108.058 238.938 107.965 239.03 107.893 239.139C107.822 239.248 107.772 239.372 107.748 239.501C107.723 239.631 107.725 239.765 107.752 239.894C108.1 245.469 112.874 249.558 116.549 248.306L116.562 248.273ZM61.8949 235.434C58.5544 232.988 55.5601 230.066 52.9993 226.755C52.9226 227.092 52.8669 227.433 52.8325 227.777C52.8325 231.866 52.8054 235.955 52.864 240.048C52.9452 245.464 56.498 248.742 61.8092 248.385C63.6354 248.027 65.305 247.074 66.5771 245.665C67.8493 244.256 68.6584 242.463 68.8878 240.545C69.0095 239.683 68.8878 239.139 68.0176 238.712C65.9436 237.676 63.9328 236.527 61.8949 235.434ZM122.248 24.1389C122.248 21.5834 120.773 19.886 119.385 17.9542C115.575 12.6556 110.44 10.9207 104.565 12.0695C98.3384 13.2699 92.8784 17.5181 93.992 27.9605L93.9469 40.527L94.1228 54.5471C93.744 56.3523 94.0822 58.1904 93.9424 60.0004C93.8252 61.5008 94.5331 61.6743 95.6692 61.3274C111.35 61.3617 127.03 61.3883 142.708 61.4071C143.835 61.4071 145.53 62.0354 145.968 60.9991C146.5 59.7472 145.283 58.3827 144.349 57.4449C142.92 56.0147 142.658 54.4017 142.753 52.4464C142.857 50.327 143.204 48.1654 142.528 46.06C142.466 45.4554 142.366 44.8555 142.23 44.2641C140.003 36.4616 132.027 31.6413 123.321 32.823C122.559 32.0633 122.974 31.0927 122.893 30.2112C122.717 28.1855 123.262 26.0708 122.248 24.1389ZM99.2852 168.335C85.5653 168.255 71.8455 168.199 58.1256 168.072C56.6513 168.072 56.6513 168.832 56.6558 169.948C56.7054 181.905 56.7099 193.862 56.764 205.823C56.764 210.1 57.8777 214.043 60.4701 217.452C61.9402 220.404 64.0304 222.975 66.5857 224.972C69.1411 226.97 72.096 228.344 75.2315 228.992C82.6888 230.666 90.2814 230.019 97.8154 229.526C109.367 228.776 119.259 218.742 119.669 206.742C120.088 194.495 119.804 182.224 119.858 169.967C119.858 168.851 119.601 168.255 118.384 168.274C113.645 168.349 108.916 168.363 104.164 168.396C102.547 168.158 100.907 168.137 99.2852 168.335ZM62.6072 61.332C64.6001 61.3555 66.5929 61.4399 68.5857 61.3789C72.4857 61.257 76.3992 61.7681 80.2857 61.0835C81.9584 61.9182 82.54 61.2945 82.3822 59.4752C82.247 57.7965 82.256 56.1085 82.2019 54.4252C82.2379 49.7674 82.2725 45.1128 82.3056 40.4613C82.3236 35.3816 82.3416 30.3034 82.3597 25.2268C82.3822 17.7244 79.1315 13.5043 72.0935 11.9382C64.1717 10.1657 55.4565 15.7785 54.2482 23.445C53.2176 26.3701 52.9167 29.5191 53.3735 32.5979C51.9623 32.5979 50.5556 32.6729 49.1444 32.6682C41.3399 32.6401 34.2388 39.5798 33.8149 47.6965C33.709 49.4687 33.709 51.2462 33.8149 53.0185C33.9412 54.8941 33.6752 56.4133 32.264 57.7825C31.3128 58.7502 30.6572 59.9881 30.3793 61.3414L62.6072 61.332ZM150.693 78.4797C147.898 74.63 144.115 72.9326 139.538 72.9279C105.435 72.9092 71.33 72.8904 37.2235 72.8717C28.4406 72.8717 22.6019 78.8923 22.5568 88.0312C22.4982 99.0597 22.6109 110.069 22.5298 121.112C22.4126 137.992 33.2604 150.99 49.1309 155.342C49.2732 155.388 49.4271 155.373 49.5595 155.302C49.6919 155.231 49.7922 155.109 49.8387 154.962C50.9794 155.9 52.3095 155.843 53.6485 155.843C75.8913 155.843 98.134 155.843 120.377 155.843C122.451 155.859 124.523 155.715 126.576 155.412C141.076 153.152 153.294 139.938 153.768 124.357C154.142 112.029 153.853 99.6786 153.768 87.3419C153.83 84.0971 152.735 80.9433 150.693 78.4891V78.4797Z" fill="#191919"/>
<path d="M150.693 78.4891C152.745 80.9373 153.852 84.0897 153.799 87.3372C153.885 99.6739 154.174 112.025 153.799 124.352C153.326 139.938 141.107 153.147 126.608 155.407C124.554 155.71 122.482 155.854 120.408 155.839C98.1655 155.839 75.9228 155.839 53.6801 155.839C52.3275 155.839 51.011 155.876 49.8703 154.957C48.1029 153.607 46.1236 152.613 44.4824 151.014C39.9738 146.644 36.9214 141.247 34.0449 135.709C33.2513 134.18 32.2414 132.717 32.0746 130.889C33.3009 130.954 33.4948 132.15 34.0268 132.905C39.5905 140.787 46.8945 145.218 56.4349 145.218C78.3019 145.218 100.169 145.279 122.036 145.157C128.348 145.124 133.817 142.583 138.416 138.035C143.236 133.257 145.035 127.25 145.075 120.526C145.143 109.197 145.116 97.864 145.138 86.5307C145.138 85.5929 145.242 84.6926 145.296 83.7689C147.09 82.0152 148.596 79.9239 150.693 78.4891Z" fill="#B7B7B7"/>
<path d="M82.2018 54.4345C82.256 56.1179 82.2469 57.8059 82.3822 59.4846C82.5265 61.3039 81.9584 61.9275 80.2857 61.0929C76.2775 56.5868 71.2278 53.4874 66.3088 50.2473C62.9634 48.0387 59.1671 50.4911 58.9732 54.6315C58.829 57.6793 60.4295 59.6628 62.5802 61.3414H30.4064C30.6843 59.9881 31.3398 58.7501 32.291 57.7825C33.7022 56.4133 33.9682 54.8753 33.842 53.0185C33.736 51.2462 33.736 49.4687 33.842 47.6964C34.2477 39.5798 41.3489 32.6401 49.1714 32.6917C50.5826 32.6917 51.9893 32.6448 53.4005 32.6213C54.451 33.6998 55.479 34.8064 56.5566 35.8427C58.7117 37.8918 61.2952 38.3419 63.7299 37.1415C66.1645 35.9411 67.2962 33.7139 66.7371 31.3787C66.1375 28.903 62.747 26.1365 60.2853 26.7226C57.1608 27.4634 55.5421 26.0005 54.2617 23.4684C55.479 15.8019 64.1807 10.1892 72.107 11.971C79.145 13.5512 82.3957 17.7572 82.3732 25.2596C82.3732 30.3394 82.3551 35.4175 82.3191 40.4942C81.246 39.7064 80.2406 38.7639 79.0773 38.1497C75.0917 36.1006 70.9347 38.1497 70.5109 42.4073C70.2223 45.2535 71.9356 47.1713 73.9555 48.6858C76.6472 50.688 79.4426 52.5167 82.2018 54.4345Z" fill="#FEEDCD"/>
<path d="M32.0566 130.884C32.2098 132.713 33.2333 134.166 34.0268 135.704C36.9034 141.242 39.9692 146.639 44.4644 151.009C46.1055 152.599 48.0713 153.602 49.8522 154.952C49.8057 155.1 49.7054 155.222 49.573 155.293C49.4406 155.364 49.2867 155.378 49.1444 155.332C33.2604 151 22.4125 137.983 22.5433 121.103C22.6244 110.074 22.5117 99.0644 22.5703 88.0218C22.6154 78.8829 28.4316 72.8623 37.237 72.8623C71.3465 72.8623 105.451 72.881 139.552 72.9185C144.128 72.9185 147.911 74.6206 150.706 78.4703C148.61 79.9051 147.099 81.9964 145.296 83.7454C142.654 80.8195 139.385 80.2006 135.625 80.2803C125.913 80.4866 116.193 80.3506 106.476 80.3506C83.4823 80.3506 60.4882 80.3506 37.494 80.3506C34.7888 80.3506 32.6382 81.2884 30.9294 83.5297C30.0277 84.7114 29.8293 85.9586 29.7977 87.3888C29.5227 99.7208 30.4379 112.034 30.2982 124.366C30.2531 126.603 30.5281 128.994 32.0566 130.884Z" fill="#FEEDCD"/>
<path d="M104.15 168.391C108.889 168.358 113.618 168.344 118.37 168.269C119.588 168.269 119.849 168.846 119.845 169.962C119.791 182.219 120.075 194.49 119.655 206.738C119.245 218.732 109.353 228.776 97.8018 229.522C90.2679 230.014 82.6753 230.661 75.218 228.987C72.0829 228.34 69.1283 226.966 66.5736 224.968C64.0189 222.97 61.9297 220.4 60.4611 217.447L62.2646 218.001C63.288 219.253 64.7534 219.131 66.106 219.342C71.2548 220.139 76.4398 219.543 81.5977 219.811C83.6684 219.932 85.7264 219.403 87.5041 218.291C94.1588 214.273 99.5737 209.214 101.224 200.942C102.604 194.016 101.787 187.006 101.873 180.029C101.873 179.842 101.652 179.649 101.53 179.462C101.981 177.9 101.607 176.442 101.021 175.012C101.422 174.201 102.072 174.107 102.87 174.201C103.883 174.332 104.905 174.388 105.926 174.37C106.612 174.37 107.59 174.796 107.915 173.966C108.239 173.136 107.365 172.513 106.887 171.866C106.003 170.679 104.538 169.999 104.15 168.391Z" fill="#FAB135"/>
<path d="M95.6692 61.3273C94.5331 61.6743 93.8252 61.5008 93.9424 60.0003C94.0822 58.1904 93.744 56.3523 94.1228 54.5424C97.8379 52.3526 101.562 50.1628 104.56 46.9274C105.348 46.0068 105.854 44.8633 106.015 43.6425C106.175 42.4217 105.983 41.1789 105.462 40.0721C104.43 38.1262 101.643 37.0618 99.2942 37.4228C97.0895 37.7651 95.7324 39.4907 93.965 40.527C93.965 36.3381 93.98 32.1493 94.01 27.9605C95.3626 27.4634 95.9578 26.1693 96.6882 25.0627C97.5662 23.7044 98.6967 22.5425 100.013 21.6454C101.329 20.7483 102.805 20.1342 104.353 19.8391C109.069 18.9013 113.438 20.594 117.622 22.6525C118.925 23.2949 120.057 24.2984 121.58 24.3781C121.405 24.715 121.195 25.0311 120.954 25.3206C119.543 26.7273 117.798 26.6569 115.994 26.671C114.421 26.6372 112.893 27.2156 111.708 28.293C110.524 29.3703 109.769 30.8688 109.592 32.4947C109.389 34.5532 111.224 36.9633 113.672 37.6057C116.901 38.4544 119.277 36.757 121.269 34.4313C121.835 33.7496 122.535 33.2013 123.321 32.8229C132.027 31.6413 140.003 36.4616 142.23 44.2641C142.366 44.8555 142.466 45.4553 142.528 46.06V54.7721C141.202 49.6752 138.19 45.9521 134.466 42.6698C131.166 39.7908 127.343 39.3875 123.447 40.5598C119.84 41.6664 117.135 44.4282 114.515 47.1244C113.781 47.8699 113.212 48.8781 112.189 49.2157C109.52 50.1528 107.049 51.6159 104.912 53.5248C101.851 56.1554 98.167 57.9841 95.6692 61.3273Z" fill="#FBC45F"/>
<path d="M95.6693 61.3273C98.167 57.9841 101.851 56.1694 104.912 53.5389C107.05 51.6316 109.52 50.1702 112.189 49.2344C113.212 48.8968 113.781 47.8887 114.515 47.1431C117.153 44.447 119.836 41.6851 123.447 40.5785C127.343 39.3828 131.166 39.8095 134.466 42.6886C138.19 45.9427 141.202 49.6799 142.528 54.7768V46.06C143.195 48.1653 142.857 50.327 142.753 52.4464C142.658 54.4017 142.92 56.0147 144.349 57.4448C145.283 58.3826 146.5 59.7471 145.968 60.9991C145.517 62.0354 143.835 61.407 142.708 61.407C127.027 61.4039 111.347 61.3773 95.6693 61.3273Z" fill="#A86A4B"/>
<path d="M62.2646 218.001L60.4611 217.447C57.8641 214.038 56.773 210.095 56.7505 205.819C56.6964 193.862 56.6919 181.905 56.6423 169.943C56.6423 168.841 56.6423 168.068 58.1121 168.068C71.8319 168.194 85.5518 168.25 99.2716 168.33C99.2266 170.14 101.224 172.128 98.8208 173.737C92.45 173.319 86.0748 173.572 79.6996 173.554C78.4326 173.596 77.1983 173.982 76.1197 174.674C73.2071 173.891 70.2584 174.571 67.3143 174.309C65.5108 174.145 64.821 174.89 64.8616 176.813C64.9472 181.117 64.9517 185.431 64.8345 189.735C64.6001 198.199 63.518 206.695 66.9987 214.845C68.1033 217.424 66.9085 218.596 64.2123 218.127C63.5659 218.046 62.9156 218.004 62.2646 218.001Z" fill="#F5F5F5"/>
<path d="M121.567 24.3828C120.043 24.3031 118.911 23.2996 117.608 22.6572C113.424 20.5847 109.042 18.906 104.339 19.8438C102.791 20.1389 101.316 20.7531 99.9995 21.6501C98.6832 22.5472 97.5527 23.7091 96.6747 25.0674C95.9443 26.174 95.3581 27.4681 93.9965 27.9652C92.8784 17.5181 98.3384 13.2699 104.565 12.0695C110.426 10.9394 115.575 12.6556 119.385 17.9542C120.773 19.886 122.266 21.5834 122.248 24.1389L121.567 24.3828Z" fill="#FEEDCD"/>
<path d="M62.6073 61.3414C60.4476 59.6628 58.847 57.6793 59.0003 54.6315C59.1942 50.4911 62.9905 48.0387 66.3359 50.2473C71.2368 53.4873 76.2865 56.5868 80.3128 61.0929C76.4263 61.7775 72.5128 61.2664 68.6128 61.3883C66.5929 61.4493 64.6001 61.3649 62.6073 61.3414Z" fill="#A86A4B"/>
<path d="M93.9469 40.527C95.7143 39.4907 97.0714 37.7652 99.2762 37.4229C101.625 37.0618 104.412 38.1262 105.444 40.0721C105.965 41.1789 106.157 42.4218 105.997 43.6425C105.836 44.8633 105.33 46.0068 104.542 46.9274C101.544 50.1629 97.8199 52.3526 94.1047 54.5424L93.9469 40.527Z" fill="#FEEDCD"/>
<path d="M61.8092 248.385C56.498 248.742 52.9452 245.464 52.864 240.048C52.8054 235.955 52.8325 231.866 52.8325 227.777C52.8669 227.433 52.9226 227.092 52.9993 226.755C55.5601 230.066 58.5544 232.988 61.8949 235.434C61.8678 239.754 61.8393 244.071 61.8092 248.385Z" fill="#ECECEC"/>
<path d="M82.2019 54.4345C79.4426 52.5167 76.6472 50.688 73.942 48.6764C71.9221 47.1619 70.2088 45.2441 70.4974 42.3979C70.9482 38.1403 75.0827 36.0912 79.0638 38.1403C80.2271 38.7405 81.2325 39.683 82.3056 40.4848C82.2755 45.13 82.2409 49.7799 82.2019 54.4345Z" fill="#A86A4B"/>
<path d="M54.2482 23.445C55.5286 25.977 57.1472 27.44 60.2717 26.6991C62.7335 26.113 66.133 28.8795 66.7236 31.3553C67.2827 33.6998 66.106 35.9411 63.7164 37.1181C61.3268 38.295 58.6982 37.8683 56.5431 35.8192C55.452 34.783 54.424 33.6764 53.387 32.5979C52.9259 29.5203 53.2221 26.3713 54.2482 23.445Z" fill="#A86A4B"/>
<path d="M121.567 24.3828L122.248 24.1295C123.262 26.0614 122.699 28.1761 122.892 30.2252C122.974 31.1068 122.559 32.0774 123.321 32.837C122.541 33.2129 121.846 33.7563 121.283 34.4313C119.29 36.7758 116.914 38.4544 113.686 37.6057C111.238 36.9633 109.403 34.5532 109.605 32.4947C109.778 30.8686 110.529 29.3683 111.71 28.2875C112.891 27.2068 114.417 26.6236 115.99 26.6522C117.793 26.6522 119.556 26.7226 120.949 25.3018C121.186 25.0192 121.393 24.7111 121.567 24.3828Z" fill="#FEEDCD"/>
<path d="M132.338 180.597C138.305 182.697 143.705 186.244 148.091 190.945C149.079 192.005 149.521 192.75 147.501 192.943C146.265 193.055 145.066 193.538 143.849 193.852C142.577 193.942 141.321 193.519 140.341 192.671C137.657 190.642 134.816 188.848 131.847 187.307C131.77 186.669 131.689 186.031 131.612 185.393C131.612 184.381 131.612 183.368 131.612 182.355C131.612 182.125 131.612 181.886 131.612 181.67C131.612 181.356 131.635 181.047 131.644 180.733L132.338 180.597Z" fill="#FEEDCD"/>
<path d="M34.2162 194.359C32.4127 193.857 30.6724 193.29 28.8689 192.882C27.611 192.596 27.8815 192.066 28.4632 191.348C32.6337 186.228 37.6428 182.439 44.018 180.854C44.8025 181.647 45.3391 186.645 44.6718 187.396C44.3856 187.61 44.0522 187.745 43.7024 187.79C39.8069 188.84 36.9304 191.47 34.2162 194.359Z" fill="#FEEDCD"/>
<path d="M116.111 234.52C116.919 235.425 116.562 236.55 116.562 237.573C116.598 241.15 116.562 244.728 116.535 248.306C112.861 249.558 108.086 245.492 107.757 239.865C107.73 239.736 107.728 239.603 107.752 239.473C107.776 239.343 107.826 239.22 107.898 239.111C107.97 239.002 108.062 238.91 108.17 238.839C108.277 238.769 108.398 238.723 108.523 238.703C111.332 237.859 113.686 236.11 116.111 234.52Z" fill="#ECECEC"/>
<path d="M27.9852 215.623C23.4766 214.132 20.8931 209.781 21.637 205.083C21.7633 204.295 22.0022 203.77 22.8363 203.732C25.6903 203.591 28.4722 203.732 30.7851 205.814C29.5903 207.493 28.3098 209.148 29.3513 211.441C29.5362 212.847 29.7165 214.282 29.9014 215.703C29.6949 215.819 29.4652 215.884 29.2304 215.892C28.9957 215.9 28.7623 215.852 28.5488 215.75L27.9852 215.623Z" fill="#FEEDCD"/>
<path d="M98.8524 173.751C101.237 172.142 99.2401 170.154 99.3032 168.344C100.925 168.142 102.564 168.158 104.182 168.391C104.556 169.999 106.021 170.689 106.887 171.87C107.365 172.517 108.239 173.113 107.915 173.971C107.59 174.829 106.612 174.365 105.926 174.374C104.905 174.393 103.883 174.337 102.87 174.205C102.072 174.112 101.422 174.205 101.021 175.017C100.415 174.408 99.6679 173.972 98.8524 173.751Z" fill="#FBC45F"/>
<path d="M149.999 204.074C150.048 205.151 150.035 206.23 149.958 207.305C149.819 208.378 149.334 209.369 148.582 210.117C147.83 210.865 146.856 211.325 145.819 211.422C143.213 211.549 142.988 211.328 142.825 208.515C144.525 205.847 147.018 204.525 149.999 204.074Z" fill="#FEEDCD"/>
<path d="M131.847 187.307C131.653 188.849 132.068 190.434 131.594 191.963C131.277 189.787 131.277 187.574 131.594 185.398C131.689 186.031 131.77 186.669 131.847 187.307Z" fill="#87A2BD"/>
<path d="M131.603 196.141C131.908 197.081 131.908 198.098 131.603 199.038C131.29 198.1 131.29 197.079 131.603 196.141Z" fill="#87A2BD"/>
<path d="M27.9852 215.623L28.5443 215.755C28.3008 215.966 28.1385 215.816 27.9852 215.623Z" fill="#87A2BD"/>
<path d="M41.137 222.258C41.3264 222.146 41.5338 222.029 41.651 222.315C41.6826 222.39 41.5428 222.544 41.4797 222.662C41.367 222.516 41.2542 222.38 41.137 222.258Z" fill="#DAF7FD"/>
<path d="M132.338 180.597L131.635 180.733C131.793 180.259 132.05 180.334 132.338 180.597Z" fill="#87A2BD"/>
<path d="M131.603 181.67C131.603 181.9 131.603 182.139 131.603 182.355C131.546 182.32 131.499 182.27 131.466 182.21C131.434 182.15 131.416 182.082 131.416 182.013C131.416 181.944 131.434 181.876 131.466 181.816C131.499 181.756 131.546 181.706 131.603 181.67Z" fill="#87A2BD"/>
<path d="M32.0566 130.884C30.5281 129.008 30.2531 126.622 30.2802 124.376C30.4199 112.043 29.5047 99.7302 29.7797 87.3981C29.8113 85.9914 30.0006 84.7207 30.9114 83.5391C32.6202 81.3071 34.7753 80.3553 37.476 80.36C60.4701 80.3787 83.4643 80.3787 106.458 80.36C116.175 80.36 125.895 80.4959 135.607 80.2896C139.367 80.2099 142.636 80.8289 145.278 83.7548C145.224 84.6926 145.125 85.5976 145.12 86.5166C145.098 97.8499 145.12 109.183 145.057 120.512C145.017 127.217 143.218 133.242 138.398 138.021C133.799 142.569 128.316 145.11 122.018 145.143C100.151 145.265 78.2838 145.213 56.4169 145.204C46.8765 145.204 39.5725 140.773 34.0088 132.891C33.4768 132.145 33.2829 130.95 32.0566 130.884ZM97.8379 105.906C97.817 111.63 99.9834 117.128 103.861 121.191C107.738 125.255 113.008 127.549 118.512 127.571C124.016 127.593 129.303 125.34 133.21 121.307C137.117 117.275 139.324 111.794 139.345 106.07C139.345 93.9815 130.242 84.4347 118.69 84.4394C107.058 84.4441 97.8379 93.944 97.8379 105.906ZM58.4052 84.4019C46.7864 84.3409 37.4805 93.7799 37.4038 105.718C37.3227 117.97 46.2318 127.545 57.7514 127.588C69.271 127.63 78.7753 117.975 78.8204 106.262C78.87 94.0893 69.8842 84.4581 58.4052 84.4019Z" fill="#DFDFDF"/>
<path d="M62.2646 218.001C62.9261 218.001 63.587 218.042 64.2439 218.123C66.9491 218.615 68.1349 217.438 67.0302 214.84C63.5496 206.691 64.6316 198.194 64.8661 189.731C64.9833 185.426 64.9788 181.112 64.8931 176.808C64.8526 174.885 65.5243 174.14 67.3458 174.304C70.272 174.567 73.2387 173.887 76.1467 174.67C75.0737 176.344 74.3433 178.055 75.4344 180.043C76.5255 182.031 78.3515 182.388 80.3939 182.388C85.8043 182.322 91.2147 182.257 96.6251 182.327C98.8794 182.355 100.48 181.488 101.53 179.457C101.652 179.645 101.873 179.837 101.873 180.025C101.787 187.002 102.604 194.012 101.224 200.937C99.5737 209.204 94.1588 214.264 87.5041 218.287C85.7264 219.398 83.6685 219.927 81.5977 219.806C76.4398 219.539 71.2548 220.134 66.106 219.337C64.7534 219.131 63.2881 219.253 62.2646 218.001Z" fill="#FBC45F"/>
<path d="M101.531 179.467C100.48 181.497 98.8839 182.364 96.6251 182.336C91.2147 182.266 85.8043 182.336 80.3939 182.397C78.356 182.425 76.5525 182.102 75.4344 180.053C74.3162 178.004 75.0737 176.353 76.1468 174.679C77.2338 173.983 78.4777 173.597 79.7537 173.558C86.1289 173.558 92.5042 173.324 98.8749 173.741C99.6904 173.962 100.437 174.398 101.044 175.007C101.607 176.447 101.963 177.905 101.531 179.467Z" fill="#A86A4B"/>
<path d="M97.8379 105.906C97.8379 93.944 107.072 84.4441 118.69 84.4394C130.242 84.4394 139.358 93.9815 139.345 106.07C139.324 111.794 137.117 117.275 133.21 121.307C129.304 125.34 124.017 127.593 118.512 127.571C113.008 127.549 107.738 125.255 103.861 121.191C99.9834 117.128 97.817 111.63 97.8379 105.906ZM108.943 108.621C109.899 112.451 113.478 115.978 117.108 116.461C121.269 117.014 124.867 115.635 127.113 111.959C129.358 108.283 129.714 104.349 127.279 100.485C124.475 95.6555 119.2 93.8643 114.322 96.0869C109.56 98.2485 107.419 103.252 108.929 108.621H108.943Z" fill="#191919"/>
<path d="M58.4052 84.4019C69.8752 84.4628 78.87 94.094 78.8204 106.262C78.7753 117.984 69.235 127.63 57.7514 127.588C46.2679 127.545 37.3227 117.966 37.4219 105.713C37.4805 93.7799 46.7864 84.3362 58.4052 84.4019ZM48.4411 108.869C48.4095 110.023 49.0407 110.928 49.5908 111.818C52.4898 116.545 58.4052 117.914 63.3196 115.077C67.6615 112.559 69.6318 106.829 67.6389 102.417C67.4856 101.278 66.6696 100.579 66.0654 99.7161C63.0085 95.3554 57.8732 93.9768 53.3239 96.3682C48.7747 98.7596 46.8901 103.688 48.4411 108.864V108.869Z" fill="#191919"/>
<path d="M127.266 100.485C129.701 104.349 129.313 108.33 127.099 111.959C124.885 115.588 121.238 117.014 117.094 116.461C113.487 115.992 109.881 112.451 108.929 108.621C108.862 107.533 109.137 106.67 110.241 106.276C110.793 106.041 111.248 105.611 111.526 105.062C114.975 99.1441 120.268 97.9672 125.891 100.626C126.477 100.888 126.869 101.371 127.266 100.485Z" fill="#FBC45F"/>
<path d="M127.266 100.485C126.869 101.371 126.477 100.888 125.913 100.612C120.291 97.9531 114.998 99.13 111.549 105.048C111.271 105.597 110.816 106.026 110.264 106.262C109.159 106.67 108.884 107.533 108.952 108.606C107.441 103.238 109.592 98.2344 114.331 96.0728C119.186 93.8643 124.462 95.6555 127.266 100.485Z" fill="#FEEDCD"/>
<path d="M67.6299 102.431C69.6092 106.825 67.6299 112.555 63.3106 115.091C58.3962 117.947 52.4898 116.559 49.5817 111.832C49.0317 110.942 48.4005 110.037 48.4365 108.883C49.5051 105.019 52.2283 102.595 55.3348 100.621C58.3421 98.7127 61.5207 98.919 64.7083 100.359C65.8264 100.846 66.3675 102.22 67.6299 102.431Z" fill="#FBC45F"/>
<path d="M67.6299 102.431C66.3584 102.197 65.8264 100.846 64.7083 100.34C61.5206 98.9002 58.342 98.6939 55.3348 100.602C52.2283 102.576 49.5051 105.001 48.4365 108.864C46.8945 103.706 48.8288 98.7408 53.3149 96.3822C57.801 94.0237 62.9995 95.3694 66.0563 99.7302C66.6695 100.593 67.4856 101.282 67.6299 102.431Z" fill="#FEEDCD"/>
</g>
<defs>
<clipPath id="clip0_1_1396">
<rect width="176" height="260" fill="white"/>
</clipPath>
</defs>
</svg>
