<svg width="99" height="181" viewBox="0 0 99 181" fill="none" xmlns="http://www.w3.org/2000/svg">
<path d="M19.541 0.0924911H36.448L37.0372 1.94825C36.7503 2.23335 36.354 2.29994 35.9749 2.41773C35.121 2.68406 34.2757 2.94015 33.432 3.21501C29.8047 4.38787 26.1005 5.4566 22.5159 6.74385L22.4459 6.5902C21.6586 4.84541 21.0421 3.0238 20.2411 1.29779C20.0413 0.867572 19.7578 0.493689 19.541 0.0924911Z" fill="#4AB3DD"/>
<path d="M60.5431 0.042984L80.7171 0.128345L77.0454 10.4332L75.6791 14.073L74.1011 13.9227C72.4873 13.7418 70.8769 13.274 69.304 12.883C66.6797 12.2275 64.0588 11.5491 61.4414 10.848C60.0905 10.4861 58.767 10.049 57.4008 9.74345L57.7235 8.91032L60.5431 0.042984Z" fill="#4AB3DD"/>
<path d="M57.7235 8.91032C58.2769 9.19202 58.9292 9.15787 59.5389 9.19543C60.4389 9.24835 61.3406 9.29786 62.2423 9.3525C65.2156 9.53688 68.1888 9.74174 71.1621 9.93466C73.0526 10.0576 75.1992 10.0422 77.0505 10.4332L75.6843 14.073L74.1063 13.9227C72.4924 13.7418 70.882 13.274 69.3091 12.883C66.6814 12.2275 64.0588 11.5491 61.4414 10.848C60.0905 10.4861 58.767 10.049 57.4008 9.74345L57.7235 8.91032Z" fill="#1F5E8B"/>
<path d="M36.4395 0.0925038C37.0645 0.0464087 37.7288 -0.0543179 38.3505 0.042994C39.7355 0.128355 41.2127 -0.0594393 42.5721 0.169329C43.5968 1.71608 44.0818 3.89108 44.7051 5.63245C45.781 8.64229 46.9662 11.6077 48.1207 14.5954C48.329 15.1332 48.8431 16.8472 49.3161 17.1118C49.6713 16.9889 49.8746 17.3423 50.0727 17.035C50.3305 16.6355 50.4142 15.7102 50.5765 15.2254C51.3245 12.8899 52.1476 10.5561 52.8461 8.20866C53.4148 6.29657 54.0262 4.40496 54.6102 2.5014C54.8374 1.76217 54.9689 1.02636 55.2933 0.317858C55.3514 0.19323 55.336 0.165915 55.4949 0.130063L58.5484 0.010557L60.5448 0.0498231L57.7235 8.91033L57.4059 9.74516L56.4154 12.9189L55.2387 16.5143L53.9288 20.5348C53.1808 22.3394 52.4875 24.1917 51.6131 25.9399C51.0734 27.0189 50.4962 28.1303 49.4903 28.8422C48.937 28.9634 48.5784 28.9822 48.0933 28.6612C47.1506 28.0398 46.582 26.7201 46.1123 25.7402L41.3732 13.9945L37.0286 1.93972L36.4395 0.0925038ZM48.2795 25.8528C48.45 26.1847 48.6525 26.4992 48.884 26.7918C50.421 24.4871 51.3518 22.0935 52.3184 19.5242C53.3553 16.8162 54.2553 14.0578 55.015 11.2595L54.8613 11.1912C54.7434 11.4097 54.6905 11.4217 54.7264 11.6795L54.6495 11.8724L54.5949 12.1438L54.4873 12.2531L54.4668 12.3419L54.1372 13.4447L54.0911 13.5898C53.9459 14.0832 54.1782 13.2774 54.0552 13.8784L53.9391 14.1857C53.8383 14.452 53.8247 14.761 53.6214 14.9642L53.6044 15.1349C53.5849 15.3101 53.5156 15.476 53.4045 15.6129V15.8297L53.3226 15.939C53.1518 16.2531 53.2047 16.6082 52.9708 16.9155V17.134L52.8905 17.2416L52.7556 17.6769L52.6992 17.7299L52.6309 17.3884C52.566 17.5779 52.5951 17.4465 52.5951 17.6752C52.5951 18.0423 52.1954 18.4093 52.0639 18.7593C51.8573 19.3073 51.8675 20.0585 51.514 20.5229L51.6677 20.5502L51.6131 20.7209L51.5892 20.8575C51.5396 21.1085 51.5892 20.8814 51.4508 21.1546L51.3962 21.3731C51.3931 21.4354 51.3771 21.4965 51.3491 21.5523C51.3212 21.6081 51.282 21.6576 51.234 21.6975L51.2596 21.887L51.1247 22.0235C51.0601 22.1413 51.0151 22.2687 50.9914 22.4008C50.9606 22.6133 50.8538 22.8074 50.6909 22.9471C50.7404 23.42 50.3118 23.8008 50.1478 24.2498C50.0509 24.4731 49.9414 24.6909 49.8199 24.9019L49.7123 25.0726L49.6303 25.2621C49.5494 25.4109 49.4488 25.5481 49.3315 25.6702L49.2973 24.9173C49.1026 25.2809 49.2563 25.7111 49.0053 26.0458C48.7919 25.9995 48.581 25.9425 48.3734 25.875L48.2795 25.8528Z" fill="url(#paint0_linear_304_9516)"/>
<path d="M48.2795 25.8528L48.3632 25.8631C48.5708 25.9306 48.7817 25.9875 48.9951 26.0338C49.2461 25.6924 49.0924 25.269 49.2871 24.9053L49.3213 25.6582C49.4386 25.5361 49.5392 25.3989 49.6201 25.2502L49.7021 25.0607L49.8097 24.89C49.9312 24.6789 50.0407 24.4612 50.1376 24.2378C50.3084 23.7939 50.7302 23.4081 50.6807 22.9352C50.8436 22.7954 50.9504 22.6013 50.9812 22.3889C51.0049 22.2567 51.0499 22.1293 51.1145 22.0116L51.2494 21.875L51.2238 21.6855C51.2718 21.6456 51.311 21.5962 51.3389 21.5403C51.3669 21.4845 51.3829 21.4235 51.386 21.3611L51.4406 21.1426C51.5824 20.8694 51.5294 21.0965 51.579 20.8455L51.6029 20.709L51.6575 20.5382L51.5038 20.5109C51.8573 20.0466 51.8454 19.2954 52.0537 18.7474C52.1852 18.4059 52.5849 18.0303 52.5849 17.6633C52.5849 17.4345 52.5558 17.566 52.6207 17.3765L52.689 17.7179L52.7454 17.665L52.8803 17.2296L52.9606 17.1221V16.9036C53.1945 16.5963 53.1433 16.2412 53.3124 15.927L53.3943 15.8178V15.6009C53.5054 15.464 53.5747 15.2981 53.5942 15.1229L53.6112 14.9522C53.8145 14.749 53.8281 14.44 53.9289 14.1737L54.045 13.8664C54.168 13.2655 53.9357 14.0713 54.0809 13.5779L54.127 13.4328L54.46 12.3265L54.4805 12.2377L54.5881 12.1284L54.6496 11.8724L54.7315 11.6829C54.6957 11.4251 54.7486 11.4131 54.8664 11.1946L55.0201 11.2629C54.2605 14.0612 53.3605 16.8196 52.3236 19.5276C51.357 22.0969 50.4211 24.4905 48.8892 26.7952C48.6557 26.5017 48.4515 26.1861 48.2795 25.8528Z" fill="#E7F3F8" fill-opacity="0.99"/>
<path d="M36.4395 0.0925038C37.0645 0.0464087 37.7288 -0.0543179 38.3505 0.042994C40.5142 5.80147 42.4799 11.6368 44.6402 17.4004C45.3108 19.1884 46.0161 20.9605 46.7562 22.7167C47.2019 23.7666 47.6391 24.9173 48.2795 25.8614C48.45 26.1933 48.6525 26.5077 48.884 26.8004C50.421 24.4956 51.3518 22.1021 52.3184 19.5327C53.3553 16.8247 54.2553 14.0664 55.015 11.268C55.5119 10.102 55.8211 8.77546 56.2104 7.56333C57.008 5.05371 57.826 2.54237 58.5501 0.0122639L60.5465 0.05153L57.7235 8.91033L57.4059 9.74516L56.4154 12.9189L55.2387 16.5143L53.9288 20.5348C53.1808 22.3394 52.4875 24.1917 51.6131 25.9399C51.0734 27.0189 50.4962 28.1303 49.4903 28.8422C48.937 28.9634 48.5784 28.9822 48.0933 28.6612C47.1506 28.0398 46.582 26.7201 46.1123 25.7402L41.3732 13.9945L37.0286 1.93972L36.4395 0.0925038Z" fill="#190301"/>
<path d="M2.45631 123.17L2.85423 123.636C3.00622 122.967 3.45024 119.921 3.91817 119.605L4.02064 119.544C4.06209 119.481 4.09016 119.41 4.10309 119.336C4.11602 119.262 4.11353 119.186 4.09578 119.113C3.97282 118.664 4.10945 118.26 4.17263 117.809C4.29218 116.971 4.50053 116.122 4.51419 115.277C4.08041 115.996 3.86182 116.874 3.6381 117.667C3.12747 119.498 2.83715 121.324 2.45631 123.17ZM4.16409 117.807C4.28535 116.971 4.49199 116.121 4.50565 115.277C8.42842 104.114 16.2603 94.4201 26.8332 88.9075C27.8117 88.3953 33.8214 85.4606 34.6036 85.8806L34.7641 86.0052L34.9058 85.7987H35.1808L35.0988 85.9335L35.3225 86.0616L34.5404 86.4201L33.4611 86.8366C33.2422 86.9712 33.0571 87.154 32.9197 87.371C26.0527 90.3638 19.8347 94.427 14.8582 100.074C13.7157 101.367 12.6893 102.758 11.5724 104.063C11.2206 104.476 11.1523 104.916 10.6605 105.227L10.611 105.358C9.92785 107.163 8.71704 108.889 7.86315 110.651C7.05537 112.32 6.52083 114.103 5.73013 115.76C5.69615 115.858 5.62989 115.941 5.54227 115.996L5.34588 116.078C4.99407 116.701 4.75157 117.676 4.54834 118.369L4.0992 119.113C3.97282 118.664 4.10774 118.256 4.17093 117.807H4.16409ZM46.3975 78.2715L46.6502 78.3005C46.5717 79.0824 46.0423 80.0863 45.7571 80.834C45.5709 80.7487 45.1201 80.5882 44.98 80.4499C44.91 80.3782 44.8178 79.8899 44.7427 79.7551L44.6743 79.6492C44.8395 79.1288 45.102 78.6445 45.448 78.222L45.5675 78.4388C45.9603 78.4542 46.0525 78.4542 46.4043 78.2715H46.3975ZM46.4897 75.755L46.6605 75.7055C46.266 75.6731 46.0303 75.6628 45.6683 75.8336L41.8224 82.8622L43.7624 82.6693L44.8093 82.6027L45.1628 82.1503L45.7639 80.834C45.5778 80.7487 45.1269 80.5882 44.9869 80.4499C44.9169 80.3782 44.8246 79.8899 44.7495 79.7551L44.6812 79.6492C44.8463 79.1288 45.1088 78.6445 45.4548 78.222L45.5743 78.4388C45.9603 78.449 46.0525 78.4559 46.4043 78.2681C46.4124 78.1256 46.4067 77.9827 46.3872 77.8413L46.2267 77.7883L46.1379 76.9877L45.9671 77.1259C46.0662 76.735 46.2523 76.3816 46.3616 75.9906C46.4043 75.8489 46.3907 75.8933 46.4965 75.755H46.4897ZM54.4821 71.6953C53.6983 72.3969 52.8307 73.1088 51.8334 73.4708L51.6335 73.5425C50.3459 74.0154 49.1214 73.9403 47.7757 73.9403C47.0533 73.9403 46.2694 73.9898 45.5556 73.8771L45.407 73.8481C44.6127 73.6854 43.8494 73.3972 43.1459 72.9944C41.4757 72.105 40.2734 70.5241 39.703 68.752C39.4144 67.8625 39.3905 66.2782 39.7218 65.4007C40.0345 64.5081 40.5414 63.6958 41.2058 63.0225C41.6157 62.9764 42.8043 63.8523 43.2552 64.0827C43.752 64.3306 44.2656 64.5434 44.7922 64.7195C46.3292 65.2505 48.341 65.5168 49.9531 65.2966C51.7879 65.0781 53.5442 64.4255 55.0764 63.393C55.7886 64.542 56.2719 65.5817 56.3675 66.9475C56.5041 68.8937 55.7134 70.2783 54.489 71.6953H54.4821ZM98.8503 128.288C98.7546 126.726 98.647 125.085 98.3652 123.544C97.9964 121.529 97.6258 119.494 97.0417 117.534C94.5569 109.169 90.2533 101.828 84.0096 95.7125C82.2404 93.9797 80.3328 92.2212 78.2818 90.823C74.5912 88.2997 70.8307 86.1179 66.6022 84.6172C65.499 84.2246 64.3821 83.8507 63.2499 83.5417C62.4694 83.3283 61.6787 83.1217 60.8931 82.951C60.444 82.852 59.836 82.84 59.4552 82.5839C59.0743 82.3279 58.7533 81.7628 58.4869 81.3752C57.9745 80.6479 57.4622 79.9155 56.8952 79.2361C60.4269 77.3325 63.0432 74.8758 64.2028 70.9407C65.1902 67.5333 64.79 63.874 63.0893 60.7605C62.8571 60.3405 62.5548 59.9068 62.4062 59.451L62.5411 59.2803C63.3062 58.2969 63.8186 57.177 64.4026 56.081C65.4273 54.1484 66.411 52.2021 67.3793 50.2405C74.1284 36.5827 79.7743 22.5339 85.0668 8.26665C85.7191 6.50992 86.3408 4.74123 86.9641 2.97425C87.2783 2.08478 87.7838 1.11337 87.8692 0.17269H86.0282H82.64L80.7102 0.133424L77.047 10.4348L75.6808 14.0712L74.1045 13.921C72.4924 13.7503 70.8802 13.2739 69.3091 12.883C66.6791 12.2274 64.0559 11.5497 61.4396 10.8497C60.0905 10.4878 58.7652 10.049 57.399 9.7434L56.4085 12.9188L55.2301 16.5126L53.9203 20.5331C53.174 22.341 52.4789 24.1917 51.6062 25.9382C51.0666 27.0205 50.4893 28.1302 49.4817 28.8507C48.9301 28.9702 48.5698 28.989 48.0865 28.668C47.1438 28.0449 46.5768 26.7286 46.1072 25.7469L41.3664 14.0029L37.0286 1.93967C36.74 2.22478 36.3455 2.29136 35.9681 2.40916C35.1142 2.67719 34.2603 2.93328 33.4218 3.20643C29.7979 4.381 26.092 5.44802 22.5074 6.73356L22.4373 6.57991C21.6501 4.83683 21.0335 3.01522 20.2326 1.28751C20.0413 0.870946 19.7561 0.497063 19.5495 0.0924506C18.506 0.0531844 17.4131 -0.0526636 16.3781 0.0531845C15.8077 0.181226 15.0956 0.114645 14.4996 0.118059H11.3077L9.46675 0.181226L34.788 58.3464C32.4279 61.2487 31.0309 64.5949 31.4134 68.4003C31.5949 70.1218 32.1154 71.7904 32.9449 73.31C33.7744 74.8295 34.8964 76.1699 36.2465 77.254C37.7595 78.4712 39.4229 79.26 41.2127 79.9855C40.989 80.776 40.2119 81.9147 39.7098 82.5839C27.4958 84.6207 16.6172 91.7415 9.45138 101.777C1.93544 112.295 -1.56722 126.057 0.664852 138.856C2.97889 152.133 10.3087 164.265 21.4468 171.976C32.1017 179.356 45.8886 182.19 58.6389 179.877C71.2867 177.584 82.6076 170.404 89.9288 159.831C96.3057 150.636 99.5402 139.462 98.8503 128.288ZM35.5224 74.0546C33.6745 71.7601 32.696 68.7025 33.0529 65.7524C33.4081 62.7562 35.2098 59.8317 37.558 57.9879L37.9901 59.002C35.4284 61.7592 34.0485 64.2227 34.2057 68.0725C34.291 70.1587 35.1552 72.4891 36.3592 74.1827C36.5043 74.3893 37.0645 74.9902 36.9466 75.1831L36.2243 74.8417L35.5224 74.0546Z" fill="#190301"/>
<path d="M36.366 74.1861C36.5112 74.3927 37.0713 74.9937 36.9535 75.1866L36.2311 74.8451L35.5224 74.0547C33.6746 71.7602 32.696 68.7025 33.0529 65.7524C33.4081 62.7563 35.2099 59.8318 37.558 57.988L37.9901 59.0021C35.4284 61.7592 34.0486 64.2228 34.2057 68.0726C34.2979 70.1588 35.162 72.4892 36.366 74.1861Z" fill="#F8C355"/>
<path d="M46.6571 78.3006C46.5785 79.0825 46.0491 80.0863 45.7639 80.8341C45.5777 80.7487 45.1269 80.5882 44.9868 80.45C44.9168 80.3783 44.8246 79.89 44.7495 79.7551L44.6812 79.6493C44.8463 79.1288 45.1088 78.6445 45.4548 78.222L45.5743 78.4388C45.9603 78.4491 46.0525 78.4559 46.4043 78.2681L46.6571 78.3006Z" fill="#E7F3F8"/>
<path d="M37.804 85.7372L34.5336 86.4201L33.4543 86.8367C33.2354 86.9712 33.0502 87.154 32.9129 87.371C26.0527 90.3638 19.8347 94.427 14.8582 100.075C13.7157 101.367 12.6894 102.758 11.5725 104.063C11.2207 104.476 11.1524 104.916 10.6605 105.227L10.611 105.358C9.92788 107.163 8.71706 108.889 7.86317 110.651C7.05539 112.32 6.52086 114.103 5.73015 115.761C5.69618 115.858 5.62991 115.941 5.5423 115.996L5.3459 116.078C4.9941 116.701 4.7516 117.676 4.54837 118.369L4.09922 119.114C3.97456 118.665 4.10947 118.26 4.17266 117.807C4.29391 116.971 4.50055 116.121 4.51421 115.277C8.42845 104.114 16.2603 94.4202 26.8332 88.9076C27.8117 88.3954 33.8214 85.4607 34.6036 85.8806V85.8363L37.1123 84.9553L37.956 85.2814L37.804 85.7372Z" fill="url(#paint1_linear_304_9516)"/>
<path d="M1.87906 132.512C2.00202 133.109 2.09253 133.536 2.52631 133.992L3.33238 139.231C3.05569 139.302 2.81338 139.469 2.64927 139.703L1.87906 132.512Z" fill="#E5A63A"/>
<path d="M2.45636 123.17C2.83719 121.324 3.12752 119.498 3.63814 117.676C3.86186 116.874 4.08046 115.996 4.51423 115.286C4.50057 116.131 4.29222 116.979 4.17268 117.818C4.10949 118.263 3.97287 118.671 4.09583 119.122C4.11358 119.195 4.11606 119.271 4.10313 119.345C4.0902 119.419 4.06214 119.49 4.02069 119.552L3.91822 119.614C3.45029 119.93 3.00626 122.975 2.85427 123.644L2.45636 123.17Z" fill="#FBDA7D" fill-opacity="0.99"/>
<path d="M2.4563 123.17L2.85422 123.636L2.48192 126.868C2.35555 127.602 2.39482 128.404 2.39312 129.152C2.39312 130.777 2.47509 132.374 2.52462 133.992C2.09084 133.536 2.00033 133.109 1.87737 132.512C1.78173 131.899 1.85346 131.146 1.85346 130.519C1.88518 128.059 2.08661 125.603 2.4563 123.17Z" fill="#F7C75C"/>
<path d="M17.7837 8.68326L18.4343 10.2198C17.922 10.3632 17.4097 10.5117 16.8973 10.6073C16.5148 10.6773 15.9734 10.6927 15.6728 10.9487L14.9607 9.07763C15.4187 8.96318 15.8828 8.87483 16.3508 8.81301C16.8341 8.76521 17.3157 8.8352 17.7837 8.68326Z" fill="#163861"/>
<path d="M79.7983 8.11646C80.5805 8.18134 81.3627 8.2445 82.1448 8.32133C82.4249 8.35035 82.8501 8.33669 83.1097 8.4323L82.0987 11.1468L82.0133 11.1331C81.016 10.8446 79.8649 10.8531 78.8266 10.6722L79.7983 8.11646Z" fill="#1B1C3F"/>
<path d="M74.2292 23.1401C75.2592 23.1614 76.2865 23.2555 77.3032 23.4218C77.1171 23.8998 76.036 26.9421 75.8072 27.0428C74.9311 26.7116 73.8757 26.6399 72.9415 26.5682L74.2292 23.1401Z" fill="#1B1C3F"/>
<path d="M22.0309 19.4354L23.8394 24.0346C23.2503 24.0005 21.7116 24.1354 21.2061 24.3966L19.4692 20.2378C20.1746 20.021 21.4639 19.8571 22.0309 19.4354Z" fill="#163861"/>
<path d="M44.9869 80.45C44.9168 80.3783 44.8246 79.89 44.7495 79.7551L44.6812 79.6493L44.4284 80.2246C44.6999 80.8802 44.2218 81.5067 44.4574 82.0445L45.1628 82.1504L45.7639 80.8341C45.5777 80.7487 45.1269 80.5883 44.9869 80.45ZM46.4965 75.7551L46.6673 75.7056C46.2728 75.6731 46.0371 75.6629 45.6751 75.8336L41.8292 82.8623L43.7692 82.6694L44.8161 82.6028L45.1696 82.1504L45.7707 80.8341C45.5846 80.7487 45.1337 80.5883 44.9937 80.45C44.9237 80.3783 44.8314 79.89 44.7563 79.7551L44.688 79.6493C44.8531 79.1288 45.1157 78.6445 45.4616 78.222L45.5812 78.4389C45.9671 78.4491 46.0593 78.4559 46.4111 78.2681C46.4192 78.1256 46.4135 77.9827 46.3941 77.8413L46.2335 77.7884L46.1447 76.9877L45.9739 77.126C46.073 76.735 46.2591 76.3816 46.3684 75.9907C46.4043 75.849 46.3906 75.8934 46.4965 75.7551Z" fill="#F8C355"/>
<path d="M43.7607 82.6694L43.6429 82.4559C43.8184 81.6838 44.0825 80.9344 44.4302 80.2229C44.6983 80.8802 44.2218 81.5067 44.4575 82.0428L45.1611 82.1504L44.811 82.6045L43.7607 82.6694Z" fill="#E7F3F8"/>
<path d="M45.7691 80.8341L45.1679 82.1504L44.4626 82.0445C44.2269 81.5067 44.7051 80.8802 44.4336 80.2246L44.6863 79.6493L44.7546 79.7551C44.8298 79.89 44.9254 80.3782 44.992 80.45C45.1269 80.5882 45.5778 80.7487 45.7691 80.8341Z" fill="#E7F3F8" fill-opacity="0.65"/>
<path d="M22.4374 6.57996L22.5074 6.73361L23.93 10.0627L24.0034 10.2334C24.1785 10.5968 24.3274 10.9722 24.4491 11.3568C23.532 11.8946 22.3776 12.2104 21.3751 12.586L20.8628 11.2697L19.3839 7.50357L22.4374 6.57996Z" fill="#69C9EC"/>
<path d="M20.8645 11.2714C21.7508 10.6466 22.9531 10.4178 24.0034 10.2351C24.1785 10.5985 24.3274 10.9739 24.4491 11.3585C23.5321 11.8963 22.3776 12.2121 21.3751 12.5877L20.8645 11.2714Z" fill="#78D7F6"/>
<path d="M35.3158 86.0616C36.103 85.9062 37.3651 85.8209 37.9611 85.2814L37.1175 84.9553C37.4932 84.8444 38.9585 84.5217 38.9585 84.5217C43.1391 83.7739 47.1199 83.2361 51.386 83.47L54.5607 83.7176C54.2755 84.059 54.1765 84.2041 53.7547 84.3578C53.3328 84.5114 52.5814 84.3714 52.1203 84.339C51.1691 84.2144 50.2674 84.4192 49.3213 84.4602C48.4178 84.5012 47.5076 84.4431 46.6059 84.491C44.811 84.5966 43.0248 84.819 41.2588 85.1568C39.9063 85.4129 38.5469 85.698 37.2216 86.0701C36.3285 86.3228 35.4336 86.6011 34.5473 86.876C34.3338 86.9425 33.9342 87.1645 33.7327 87.173C33.6711 87.1658 33.6107 87.1503 33.5533 87.1269C33.5414 87.0245 33.507 86.926 33.4526 86.8384L34.5319 86.4201L35.3158 86.0616Z" fill="#FFF2C1"/>
<path d="M51.3859 83.47L54.5607 83.7176C54.2755 84.059 54.1764 84.2041 53.7546 84.3578C53.3328 84.5114 52.5814 84.3714 52.1203 84.339C52.4767 84.3339 52.8314 84.288 53.1774 84.2024L53.2167 83.9788C52.8854 83.5947 52.3628 83.9276 51.929 83.7893C51.7381 83.7006 51.5563 83.5937 51.3859 83.47Z" fill="#FBDA7D"/>
<path d="M58.6201 59.5911C60.6523 62.0068 61.6531 65.4656 61.3747 68.5847C61.1288 71.3248 59.3493 74.3244 57.2351 76.0385C56.6833 76.5126 56.0573 76.8927 55.3821 77.1635C55.1844 76.9314 55.0019 76.6868 54.8356 76.4311L54.8988 76.269L56.3487 75.4017C58.5466 73.802 59.8821 71.5587 60.3176 68.8835L60.3945 68.3423C60.6199 65.469 59.491 62.9697 57.6893 60.8117L58.6201 59.5911Z" fill="#F8C355"/>
<path d="M16.3696 0.0464112C17.4079 -0.0611441 18.4992 0.0464115 19.5409 0.0873849C19.7578 0.493705 20.0413 0.867588 20.2241 1.28244C21.025 3.01357 21.6415 4.83518 22.4288 6.57485L19.377 7.49846L16.3696 0.0464112Z" fill="#78D7F6"/>
<path d="M49.5979 82.2972C49.1351 82.2972 48.6262 82.2647 48.1804 82.386L44.8093 82.6028L45.1628 82.1504L45.7639 80.8341C46.0491 80.0863 46.5785 79.0825 46.6571 78.3006L46.4043 78.2715C46.4124 78.129 46.4067 77.9861 46.3873 77.8447L46.2267 77.7918L45.769 77.0372C45.8578 76.8494 46.1106 75.7722 46.254 75.6322C46.5119 75.6151 48.0011 75.6851 48.0011 75.6851C48.5391 75.5639 49.3041 75.6595 49.866 75.6595C49.8797 77.2148 49.755 78.7325 49.7055 80.2826C49.6833 80.8272 49.7823 81.826 49.5979 82.2972Z" fill="#F7C75C"/>
<path d="M57.7696 65.9915C57.5107 64.8038 56.9884 63.6895 56.2411 62.7306L57.329 61.3939C58.866 63.673 60.0153 66.2134 59.4825 69.0303C58.9701 71.7141 57.2282 73.8771 54.991 75.3624L54.3386 75.7841L53.1432 74.4183C54.1048 73.8807 55.0055 73.2407 55.8295 72.5096C57.5663 70.4576 57.8754 68.6103 57.7696 65.9915Z" fill="#E5A63A"/>
<path d="M57.7696 65.9915C58.3127 66.1622 58.5535 66.5036 58.8729 66.9526C58.6901 69.1515 58.1163 71.0039 56.4119 72.554C56.3405 72.6248 56.2573 72.6826 56.166 72.7248C56.0442 72.6652 55.9296 72.5919 55.8245 72.5062C57.5664 70.4576 57.8755 68.6103 57.7696 65.9915Z" fill="#FBDA7D"/>
<path d="M11.3094 0.106155H14.5013C14.8599 1.54023 15.4849 2.84967 16.0383 4.21545C16.6343 5.69903 17.1705 7.2031 17.787 8.67814C17.3191 8.83008 16.8375 8.76009 16.3542 8.80789C15.8862 8.86971 15.4221 8.95806 14.9641 9.07251L11.3094 0.106155Z" fill="#1F5E8B"/>
<path d="M82.6451 0.167618H86.0334L83.1097 8.43742C82.8501 8.34182 82.4266 8.35548 82.1448 8.32646C81.3626 8.24963 80.5804 8.18646 79.7983 8.12159C80.3653 6.60045 80.9015 5.06565 81.4668 3.54281C81.8784 2.43823 82.3873 1.31829 82.6451 0.167618Z" fill="#163861"/>
<path d="M15.6677 10.9402C15.9683 10.691 16.5097 10.6756 16.8922 10.5988C17.4148 10.5032 17.9169 10.3546 18.4292 10.2112L22.0275 19.4302C21.4588 19.8519 20.1694 20.0158 19.4556 20.2378L15.6677 10.9402Z" fill="#1F5E8B"/>
<path d="M24.4491 11.3602L24.5738 11.4831L27.6478 18.9198L25.8598 19.4883L24.3672 20.149L21.3854 12.5894C22.3725 12.2138 23.5321 11.8963 24.4491 11.3602Z" fill="#69C9EC"/>
<path d="M58.6201 59.5911L59.2315 58.5975C61.7265 61.4724 63.1389 64.4652 62.8708 68.3406C62.6641 71.3146 60.9683 74.1213 58.7482 76.0419C57.903 76.7412 56.9965 77.3629 56.0396 77.8994L55.3907 77.1635C56.0659 76.8927 56.6919 76.5126 57.2436 76.0385C59.3579 74.3313 61.1374 71.3248 61.3833 68.5847C61.6514 65.4656 60.6524 62.0068 58.6201 59.5911Z" fill="#C0872B"/>
<path d="M38.861 61.3666L39.3734 61.0422C39.7179 61.277 40.0229 61.5651 40.2768 61.8958C38.8662 63.6833 37.78 65.539 38.0567 67.9104C38.3077 70.1298 39.5766 71.9292 41.3015 73.2916C42.1828 73.9577 43.1524 74.4984 44.1825 74.8981L43.3166 76.2553C42.9614 76.0999 42.5499 75.8592 42.169 75.8012L40.2734 74.6061C38.3812 73.2079 36.9005 70.9595 36.5419 68.6206C36.1081 65.8054 37.2301 63.5552 38.861 61.3666Z" fill="#894D16"/>
<path d="M40.5825 59.2547C42.5806 59.2889 44.519 59.9257 46.4675 60.3218C48.9387 60.822 51.5243 61.1498 53.9322 61.9112L53.7512 62.07C51.8436 63.5911 49.1402 63.7994 46.8125 63.4357C44.2406 63.0243 42.07 61.3188 40.5825 59.2547Z" fill="#163861"/>
<path d="M49.8678 75.6595C50.5184 75.668 51.7719 75.4888 52.233 75.948C53.034 76.7384 53.6642 77.7577 54.3148 78.6796C55.2541 80.001 56.2088 81.3104 57.1566 82.6267L48.1805 82.3808C48.6279 82.2596 49.1351 82.2972 49.5979 82.2938C49.7841 81.8209 49.6833 80.8221 49.7004 80.2775C49.7499 78.7308 49.8763 77.2148 49.8678 75.6595Z" fill="#C0872B"/>
<path d="M78.8265 10.6773C79.8649 10.8583 81.0159 10.848 82.0132 11.1383L82.0986 11.1519L77.3066 23.4183C76.2899 23.2521 75.2626 23.1579 74.2326 23.1366L78.8265 10.6773Z" fill="#163861"/>
<path d="M42.9119 76.9519C42.6984 77.435 42.3364 78.1606 41.9368 78.5105C39.7935 77.7303 37.7647 76.5558 36.2311 74.8332L36.9535 75.1746C37.0713 74.9817 36.5112 74.3808 36.366 74.1742C35.162 72.4806 34.2979 70.1503 34.2125 68.064C34.0554 64.2142 35.4335 61.7473 37.9969 58.9935C38.3385 59.4733 38.7654 59.9581 38.9891 60.513L38.7398 60.7912C38.8833 60.9859 38.8645 61.1207 38.8611 61.3597C37.2199 63.5484 36.1098 65.7985 36.5368 68.6052C36.8971 70.9424 38.3778 73.1925 40.2717 74.5908L42.1656 75.7858C42.0187 76.0317 41.9829 76.1597 41.7267 76.298L42.9119 76.9519Z" fill="#F8C355"/>
<path d="M38.7416 60.7981C38.8833 60.9961 38.8662 61.1293 38.8611 61.3666C37.2216 63.5552 36.1082 65.8054 36.5385 68.612C36.8972 70.9509 38.3778 73.1994 40.27 74.5976L42.1657 75.7926C42.0205 76.0351 41.9812 76.1648 41.7251 76.3048C40.0173 75.5502 38.4973 73.9744 37.4556 72.4618C36.074 70.4627 35.4148 68.1494 35.8742 65.7268C36.2055 63.9223 37.1772 61.848 38.7416 60.7981Z" fill="#010000"/>
<path d="M72.9449 26.5648C73.8791 26.6365 74.9345 26.7082 75.8106 27.0394L61.1237 58.0068L60.2869 56.9312C60.6711 55.8625 61.3713 54.9696 61.87 53.9606C62.77 52.1441 63.5778 50.2645 64.3667 48.3951C67.3964 41.1786 70.0639 33.8358 72.9449 26.5648Z" fill="#163861"/>
<path d="M21.2078 24.3966C21.7201 24.1354 23.2571 24.0005 23.8412 24.0347L36.6956 56.3951C36.5795 56.6632 36.4702 56.699 36.2311 56.8612C35.7427 56.629 35.256 55.212 34.9827 54.6947C32.03 49.1189 29.4393 43.3878 26.8793 37.6225C24.9341 33.2486 22.9668 28.849 21.2078 24.3966Z" fill="#1F5E8B"/>
<path d="M14.9965 158.61L15.5089 159.293C16.0007 160.008 16.7794 160.681 17.3874 161.314C19.1225 163.141 20.8952 164.847 22.9035 166.376C24.5311 167.619 26.2627 168.676 28.0064 169.746C28.1601 169.984 28.2045 170.136 28.4624 170.259L28.8961 170.53L29.0567 170.609C29.3043 170.732 29.5126 170.895 29.7671 171.018C30.1113 171.217 30.4746 171.381 30.8515 171.507L30.8874 171.677L30.7166 171.768C30.558 171.856 30.4326 171.994 30.3597 172.16L30.2538 172.318C29.8952 172.859 29.7415 173.224 29.8422 173.897C29.8545 173.973 29.8793 174.047 29.9157 174.115C29.5639 174.158 29.4221 174.047 29.1113 173.9L28.6758 173.729C28.3923 173.613 28.1481 173.448 27.8544 173.35C27.7232 173.29 27.598 173.217 27.4804 173.134L27.2635 173.079L27.0432 172.932L26.6794 173.019C26.121 172.816 25.6035 172.382 25.081 172.092C20.3419 169.482 16.151 165.605 12.7849 161.419C12.9028 161.171 12.8174 160.842 12.913 160.644C13.0479 160.365 13.3741 160.183 13.5039 159.872L13.6235 159.575C13.7857 159.225 14.006 158.634 14.3971 158.494C14.5275 158.562 14.672 158.597 14.8189 158.598L14.9965 158.61Z" fill="#C0872B"/>
<path d="M65.1541 86.0514C64.6622 86.2033 64.3702 86.5345 64.1106 86.9647L64.0423 87.0655C63.8862 87.2921 63.7984 87.5587 63.7896 87.8337L63.7759 87.9583C63.7457 88.3323 63.7792 88.7087 63.875 89.0715C52.9537 85.3156 40.837 85.8516 30.4025 90.9375C19.9679 96.0233 11.8116 105.131 8.02713 116.138C4.09924 127.576 4.79772 140.03 10.1345 150.909C11.4871 153.671 13.1573 156.155 14.9932 158.61H14.8224C14.675 158.609 14.5299 158.574 14.3989 158.506C14.0078 158.646 13.7858 159.237 13.6269 159.585L13.5057 159.884C13.3776 160.193 13.0497 160.375 12.9148 160.655C12.8175 160.852 12.9028 161.183 12.7867 161.432C11.8577 160.442 11.0789 159.213 10.3019 158.083C7.61696 154.133 5.52066 149.814 4.07875 145.261C3.50152 143.453 3.07799 141.55 2.65446 139.703C2.81955 139.47 3.06138 139.302 3.33757 139.23L2.52979 133.999C2.47343 132.374 2.39146 130.779 2.39146 129.159C2.39146 128.411 2.35218 127.61 2.47685 126.875L2.85085 123.643C3.00455 122.974 3.44516 119.928 3.9148 119.612L4.01897 119.551C4.0596 119.488 4.08718 119.417 4.10009 119.343C4.11299 119.269 4.11096 119.193 4.09412 119.12L4.54497 118.376C4.7482 117.683 4.9907 116.708 5.3425 116.085L5.5389 116.003C5.62651 115.948 5.69278 115.865 5.72675 115.767C6.51746 114.11 7.05199 112.327 7.85977 110.658C8.71366 108.901 9.91764 107.175 10.6076 105.365L10.6571 105.234C11.149 104.926 11.2173 104.483 11.5691 104.069C12.686 102.76 13.7123 101.369 14.8514 100.076C19.8313 94.4287 26.0493 90.3655 32.9095 87.3728C33.0468 87.1557 33.232 86.973 33.4508 86.8384C33.5027 86.927 33.5364 87.0251 33.5499 87.1269C33.6065 87.1526 33.6672 87.1682 33.7292 87.173C33.9307 87.173 34.3304 86.9426 34.5438 86.8777C35.4302 86.6045 36.3233 86.3228 37.2165 86.0736C38.5417 85.6997 39.9046 85.4146 41.2537 85.1585C43.0207 84.8204 44.8081 84.5986 46.6042 84.4944C47.5042 84.4432 48.4161 84.4944 49.3161 84.4619C50.2639 84.4193 51.1674 84.2161 52.1186 84.3407C52.578 84.3732 53.3277 84.5115 53.7512 84.3578C54.1748 84.2042 54.2721 84.0556 54.5573 83.7176C58.1727 84.211 61.6941 84.8768 65.1541 86.0514Z" fill="url(#paint2_linear_304_9516)"/>
<path d="M4.54664 118.369C4.68535 118.495 4.78543 118.658 4.83526 118.839L4.80793 118.939C3.78326 122.927 3.35632 126.834 3.33583 130.941C3.33583 132.625 3.31704 134.286 3.5066 135.962C3.56808 136.524 3.48611 137.268 3.65006 137.789C3.77643 138.193 3.6808 138.642 3.58004 139.037L3.53905 139.312L3.39731 139.348L3.33924 139.225L2.53146 133.992C2.4751 132.374 2.39142 130.777 2.39142 129.159C2.39142 128.413 2.35385 127.609 2.48023 126.875L2.85252 123.643C3.00452 122.974 3.44854 119.928 3.91647 119.612L4.01894 119.551C4.06039 119.488 4.08845 119.417 4.10138 119.343C4.11431 119.269 4.11183 119.193 4.09408 119.12L4.54664 118.369Z" fill="#FFF2C1"/>
<path d="M81.7418 96.0813C84.1326 98.3878 86.3306 100.716 88.2826 103.422C93.8653 111.146 96.9615 120.872 97.1152 130.383C97.3201 143.003 92.4376 155.551 83.6237 164.604C74.6716 173.796 62.618 178.633 49.8199 178.798C43.2159 178.884 36.6325 177.472 30.5579 174.918C29.2736 174.378 27.834 173.813 26.6863 173.029L27.0501 172.942L27.2704 173.089L27.4873 173.144C27.6049 173.228 27.7301 173.3 27.8613 173.361C28.155 173.458 28.3992 173.624 28.6827 173.74L29.1182 173.91C29.429 174.057 29.5708 174.168 29.9226 174.125C29.8862 174.057 29.8614 173.983 29.8491 173.907C29.7433 173.234 29.9021 172.869 30.2607 172.328L30.3666 172.171C30.4395 172.004 30.5649 171.866 30.7235 171.778L30.8943 171.688L30.8584 171.517C30.4815 171.391 30.1182 171.227 29.774 171.029C29.5195 170.906 29.3112 170.742 29.0636 170.619L28.903 170.54L28.4693 170.269C28.2114 170.154 28.167 170.003 28.0133 169.757C29.8304 170.61 31.4596 171.573 33.3672 172.254C33.4621 172.03 33.5899 171.82 33.7463 171.633C35.2355 172.135 36.7213 172.63 38.2344 173.057C38.9465 173.257 39.715 173.528 40.4545 173.569L46.1875 174.446L46.2285 174.959L46.833 175.172C50.8395 175.491 54.8271 174.858 58.7755 174.318C58.8814 174.378 58.9907 174.423 59.1017 174.472C65.8054 173.431 72.1625 170.801 77.6414 166.801C86.8292 160.121 92.996 149.15 94.6936 138.011C96.4645 126.385 93.4742 114.19 87.3006 104.256C86.3222 102.66 85.2644 101.114 84.1309 99.6238C83.3112 98.5619 82.4232 97.5751 81.6171 96.4894C81.6332 96.3468 81.6754 96.2085 81.7418 96.0813Z" fill="url(#paint3_linear_304_9516)"/>
<path d="M33.7411 171.631C35.2303 172.133 36.7161 172.628 38.2292 173.055C38.9413 173.255 39.7098 173.526 40.4493 173.567L46.1823 174.445L46.2233 174.957L46.8278 175.17C45.6785 175.073 44.5326 175.042 43.385 174.897C41.2252 174.61 39.0921 174.149 37.0064 173.519C35.7683 173.151 34.5848 172.656 33.3603 172.254C33.4556 172.029 33.5839 171.819 33.7411 171.631Z" fill="#321407"/>
<path d="M65.1541 86.0514C70.0776 87.8047 74.5127 90.0753 78.6096 93.3498C79.6787 94.2034 80.7973 95.0894 81.7417 96.0813C81.675 96.2096 81.6327 96.3491 81.6171 96.4928C82.4163 97.5717 83.3112 98.5653 84.1309 99.6272C85.2628 101.113 86.3196 102.655 87.2971 104.247C93.4708 114.181 96.4611 126.376 94.6901 138.002C92.9926 149.142 86.8258 160.113 77.6379 166.793C72.159 170.792 65.802 173.423 59.0983 174.464C58.9873 174.414 58.878 174.37 58.7721 174.31C54.8237 174.854 50.836 175.488 46.8296 175.163L46.225 174.95L46.184 174.438L40.451 173.56L40.1334 173.279C39.814 173.224 39.7525 173.224 39.5613 172.973L39.6774 172.659L40.5227 172.83C40.8882 172.881 41.2059 172.956 41.5816 173C42.2766 173.079 42.9785 173.195 43.6719 173.297L44.08 173.325L44.3465 173.379L44.4097 173.262C44.0152 172.953 43.1134 173.216 42.6558 172.864C42.7241 172.565 42.7514 172.565 42.9973 172.369C45.7298 172.71 48.3888 172.966 51.14 172.84C52.2825 172.787 53.4079 172.587 54.5419 172.521C55.7153 172.46 56.8776 172.263 58.0053 171.933C59.9265 171.742 62.0903 170.909 63.9005 170.24C72.3023 167.091 79.4999 161.379 84.4742 153.914C85.7772 151.943 86.836 149.827 87.8197 147.682C90.3353 140.985 91.8415 133.78 90.7229 126.61L90.5402 125.384C90.7043 125.212 90.8897 125.062 91.0918 124.937L90.9091 123.639L90.9723 123.349V123.165L90.547 121.388C90.3853 121.079 90.1675 120.804 89.9049 120.575L89.5634 120.623C89.3635 120.315 89.2218 119.472 89.1057 119.096C85.2973 107.965 77.7267 99.0451 67.1163 93.8568C57.2419 89.0305 46.0047 88.5644 35.6675 92.1718C25.4772 95.7211 17.1893 103.339 12.5288 113.026C7.69409 123.076 6.85899 134.66 10.5888 145.197C12.8089 151.524 16.4499 157.215 21.3905 161.767C22.4783 162.771 23.6311 163.708 24.806 164.597C25.2449 164.927 25.6873 165.25 26.1381 165.562C26.2696 165.653 26.5582 165.794 26.6248 165.938L26.4028 166.008L25.9622 165.746L26.0459 165.917L25.9998 166.122L25.8922 166.076C25.6138 165.962 25.484 166.018 25.1988 166.064L24.8351 166.11L24.6011 166.315L24.8487 166.863C27.4582 168.925 30.6945 170.317 33.7292 171.626C33.5728 171.813 33.445 172.023 33.3501 172.248C31.4425 171.565 29.8133 170.605 27.9962 169.75C26.2525 168.679 24.5208 167.623 22.8933 166.38C20.885 164.843 19.1123 163.145 17.3772 161.318C16.7761 160.684 15.9973 160.012 15.4986 159.297L14.9863 158.614C13.1487 156.159 11.4802 153.675 10.126 150.914C4.80111 140.03 4.09922 127.585 8.02711 116.136C11.8081 105.133 19.9611 96.0318 30.399 90.9375C40.837 85.8431 52.9417 85.3224 63.8715 89.0715C63.7734 88.7091 63.7393 88.3324 63.7708 87.9583L63.7861 87.8337C63.7942 87.558 63.882 87.2906 64.0389 87.0638L64.1038 86.9664C64.3702 86.5328 64.6622 86.205 65.1541 86.0514Z" fill="#010000"/>
<path d="M82.1038 158.865L82.4214 159.43L81.2055 160.795L81.1833 159.874L82.1038 158.865Z" fill="#F7C75C"/>
<path d="M86.4279 152.705L87.0119 153.217C85.5296 155.395 84.3 157.524 82.4214 159.414L82.1038 158.865C83.7723 157.157 85.2187 154.767 86.4279 152.705Z" fill="#E5A63A"/>
<path d="M89.4029 146.345C89.6644 146.398 89.9193 146.479 90.1628 146.588C89.2475 148.891 88.2843 151.092 87.012 153.224L86.4279 152.712L89.3175 146.361L89.4029 146.345Z" fill="#F8C355"/>
<path d="M90.9688 123.161L90.9859 123.057C91.042 122.83 91.0246 122.591 90.9364 122.374C90.8151 122.009 90.7656 121.628 90.6392 121.254C90.5989 121.15 90.5831 121.037 90.5931 120.925C90.5726 120.536 90.3438 120.181 90.2157 119.815C90.1133 119.52 89.9203 119.148 89.6248 119.008L89.2986 118.9C89.1624 118.65 89.12 118.359 89.1791 118.081L89.285 118.137C89.4764 118.211 89.6791 118.252 89.8844 118.258L90.132 118.101L90.3575 118.185L90.658 117.977L90.6854 118.091L90.892 118.733C90.9774 118.985 91.003 119.245 91.0918 119.496L91.418 120.691L91.4522 120.891L91.5256 121.072L91.541 121.195C91.5598 121.326 91.6101 121.452 91.6878 121.56C91.6161 121.927 91.8159 122.007 91.7442 122.374L91.9064 122.591C91.8159 123.049 92.1626 123.423 92.0772 123.895L92.2377 124.112C92.1762 124.495 92.2941 124.454 92.347 124.764C92.4 125.075 92.2275 125.06 92.4939 125.415C92.5442 125.478 92.6015 125.535 92.6647 125.586C92.9089 127.042 92.9311 128.488 92.9806 129.966C93.0045 130.625 93.107 131.276 93.1087 131.935C93.0942 134.351 92.8541 136.761 92.3914 139.132C92.207 140.083 91.8791 140.997 91.6725 141.944L90.1713 146.588C89.9278 146.479 89.6729 146.398 89.4114 146.346L89.3311 146.361L89.0117 146.388L88.9161 146.559C88.6941 146.952 88.3423 147.203 88.1425 147.616L87.8282 147.674C90.3438 140.976 91.8501 133.772 90.7315 126.601L90.5487 125.376C90.7129 125.204 90.8982 125.053 91.1003 124.928L90.9176 123.631L90.9808 123.341L90.9688 123.161Z" fill="#BA771E"/>
<path d="M90.9723 123.354L91.3139 124.022C92.067 125.265 92.3146 127.704 92.2788 129.164L92.3863 129.326C92.3863 129.639 92.289 130.369 92.4956 130.576L92.3881 130.685L92.4956 130.856C92.4956 131.279 92.4478 131.771 92.5588 132.179C92.6306 132.447 92.4854 132.799 92.4307 133.068C92.3068 132.94 92.2334 132.772 92.2241 132.594C92.235 132.443 92.2719 132.296 92.3334 132.158L92.2771 132.015C92.2357 131.906 92.2194 131.789 92.2291 131.673C92.2389 131.557 92.2745 131.445 92.3334 131.344L92.2788 131.245C92.1199 130.849 92.3061 130.391 92.1695 129.987L92.2002 129.867C92.2286 129.726 92.218 129.58 92.1695 129.444C92.0585 128.961 92.26 128.194 91.9987 127.815L91.9714 127.19L91.8006 127.115L91.6862 127.163L91.4863 126.939L91.0919 124.939L90.9091 123.641L90.9723 123.354Z" fill="#C0872B"/>
<path d="M91.4863 126.939L91.7066 127.151L91.8211 127.795C91.8723 128.078 91.7972 128.375 91.8501 128.648C91.9611 129.208 91.886 129.729 91.9748 130.274C92.0193 130.426 92.0518 130.582 92.0721 130.74C92.0841 131.438 91.8808 132.679 92.1729 133.29L92.1199 133.493C91.9833 134.064 92.0601 134.767 92.0687 135.354C92.1814 135.013 92.1455 134.629 92.2309 134.269V133.507L92.4017 133.616C92.2975 135.51 91.9628 137.319 91.6896 139.189C91.541 140.213 91.4675 141.193 91.1482 142.195L91.2438 142.236L91.3241 142.149C91.4197 142.056 91.5372 141.989 91.6656 141.953L90.1713 146.588C89.9278 146.479 89.6729 146.398 89.4114 146.345C90.0552 144.268 90.8118 142.13 91.2899 140.015C92.2412 135.868 91.9577 131.127 91.4863 126.939Z" fill="#E5A63A"/>
<path d="M91.0918 124.933L91.4863 126.939C91.9577 131.132 92.2411 135.873 91.2882 140.02C90.8032 142.135 90.0466 144.273 89.4096 146.351L89.3294 146.366L89.01 146.393L88.9144 146.564C88.6924 146.957 88.3406 147.208 88.1408 147.621L87.8265 147.679C90.3421 140.981 91.8484 133.777 90.7298 126.607L90.547 125.381C90.709 125.209 90.8921 125.059 91.0918 124.933Z" fill="url(#paint4_linear_304_9516)"/>
<path d="M87.8197 147.679L88.134 147.621C88.3338 147.208 88.6856 146.957 88.9076 146.564L89.0032 146.393L89.3226 146.366L86.4279 152.71C85.2188 154.767 83.7723 157.157 82.1038 158.865L81.1833 159.88L81.2055 160.802C76.6799 165.504 70.7026 169.723 64.4949 171.84C59.6977 173.945 54.2226 174.482 49.0497 174.47C48.1155 174.47 47.1097 174.539 46.184 174.434L40.451 173.557L40.1334 173.275C39.814 173.221 39.7526 173.221 39.5613 172.97L39.6774 172.656L40.5228 172.826C40.8882 172.878 41.2059 172.953 41.5816 172.997C42.2766 173.076 42.9785 173.192 43.6719 173.294L44.0801 173.321L44.3465 173.376L44.4097 173.258C44.0152 172.949 43.1135 173.212 42.6558 172.86C42.7241 172.562 42.7514 172.562 42.9973 172.365C45.7298 172.707 48.3888 172.963 51.14 172.837C52.2825 172.784 53.408 172.584 54.5419 172.517C55.7153 172.457 56.8776 172.26 58.0053 171.93C59.9266 171.739 62.0903 170.906 63.9006 170.236C72.3018 167.088 79.4994 161.378 84.4742 153.914C85.7772 151.94 86.836 149.816 87.8197 147.679Z" fill="url(#paint5_linear_304_9516)"/>
<path d="M81.1833 159.872L81.2055 160.794C76.6799 165.504 70.7027 169.723 64.4949 171.84L64.3395 171.691L64.5307 171.611L64.6383 171.529L64.8552 171.502C65.2788 171.418 65.8474 171.117 66.23 170.912C66.3826 170.842 66.5408 170.785 66.703 170.742L67.5194 170.306C68.0009 170.044 68.544 169.878 69.0376 169.601L68.9607 169.25C68.5816 169.212 68.0761 169.591 67.7516 169.777C67.1744 170.108 66.5562 170.4 65.9584 170.687C64.845 171.213 61.3867 172.611 60.2613 172.333C61.6805 171.783 63.2533 171.577 64.693 171.003C66.0985 170.443 67.4049 169.721 68.7421 169.024C69.7514 168.498 70.8325 168.034 71.7854 167.416C72.5846 166.904 73.3224 166.279 74.1131 165.734C75.3769 164.859 76.6884 163.99 77.8702 163.003C78.4304 162.528 78.8761 161.953 79.4072 161.444C79.9571 160.893 80.6078 160.415 81.1833 159.872Z" fill="#F8C355"/>
<path d="M60.2613 172.34C61.3867 172.618 64.845 171.22 65.9584 170.694C66.5613 170.407 67.1744 170.115 67.7516 169.784C68.0761 169.598 68.5816 169.219 68.9607 169.256L69.0376 169.608C68.5423 169.885 68.0009 170.05 67.5193 170.313L66.703 170.749C66.5408 170.792 66.3825 170.849 66.23 170.919C65.8474 171.124 65.2787 171.431 64.8552 171.508L64.6383 171.536L64.5307 171.618L64.3395 171.698L64.4949 171.846C59.6977 173.951 54.2226 174.489 49.0497 174.477C48.1155 174.477 47.1097 174.545 46.1841 174.441L40.451 173.564L40.1334 173.282C39.814 173.227 39.7526 173.227 39.5613 172.977L39.6774 172.662L40.5228 172.833C40.8882 172.884 41.2059 172.959 41.5816 173.004C42.2766 173.082 42.9785 173.198 43.6719 173.301L44.0801 173.328L44.3465 173.383L44.4097 173.265C45.3285 173.352 46.2216 173.606 47.1421 173.67C48.6535 173.799 50.1721 173.82 51.6865 173.735C52.8632 173.644 54.0552 173.393 55.2199 173.195C56.9038 172.912 58.5774 172.652 60.2613 172.34Z" fill="#F7C75C"/>
<path d="M65.154 86.0514C70.0775 87.8047 74.5126 90.0753 78.6096 93.3498C79.6787 94.2034 80.7973 95.0894 81.7417 96.0813C81.675 96.2096 81.6327 96.3491 81.617 96.4928C82.4162 97.5717 83.3111 98.5653 84.1309 99.6272C85.2628 101.113 86.3195 102.655 87.2971 104.247C93.4707 114.181 96.461 126.376 94.6901 138.002C92.9925 149.142 86.8257 160.113 77.6379 166.793C72.159 170.792 65.8019 173.423 59.0982 174.464C58.9872 174.414 58.8779 174.37 58.772 174.31L68.006 171.211C78.4474 166.521 86.9863 157.704 91.061 146.969C95.117 136.263 94.6474 123.557 89.9339 113.145C85.9834 104.418 79.3663 97.1682 71.0339 92.4381C69.6967 91.6733 68.4176 90.7821 66.9608 90.2494L63.8715 89.0715C63.7734 88.7091 63.7393 88.3324 63.7707 87.9583L63.7861 87.8337C63.7941 87.558 63.8819 87.2906 64.0388 87.0638L64.1037 86.9664C64.3701 86.5328 64.6622 86.205 65.154 86.0514Z" fill="#E5A63A"/>
<path d="M24.8556 166.868L24.6438 166.737C23.24 165.782 21.9319 164.628 20.6749 163.493C13.3176 156.824 8.43781 147.86 6.83168 138.062C5.00094 126.697 7.85634 114.531 14.626 105.212C18.0061 100.582 22.2655 96.6641 27.1608 93.6809C32.0561 90.6977 37.4914 88.7079 43.1562 87.8252C53.9391 86.1367 65.7142 89.051 74.4922 95.5077C84.4059 102.815 90.8169 113.382 92.6527 125.574C92.5896 125.523 92.5323 125.466 92.482 125.403C92.2156 125.048 92.3897 125.084 92.3351 124.752C92.2804 124.421 92.1643 124.483 92.2258 124.1L92.0653 123.884C92.1575 123.411 91.8108 123.03 91.8945 122.579L91.7323 122.362C91.804 121.995 91.6042 121.915 91.6759 121.548C91.5982 121.44 91.5478 121.315 91.529 121.183L91.5137 121.06L91.4402 120.879L91.4061 120.679L91.0799 119.484C90.9911 119.231 90.9655 118.972 90.8801 118.721L90.6837 118.084L90.6564 117.97L90.3558 118.178L90.1304 118.094L89.8827 118.251C89.6775 118.246 89.4747 118.205 89.2833 118.13L89.1774 118.074C89.1183 118.352 89.1607 118.643 89.297 118.893L89.6231 119.001C89.9186 119.141 90.1116 119.513 90.214 119.808C90.3421 120.174 90.571 120.529 90.5915 120.918C90.5815 121.03 90.5972 121.143 90.6376 121.248C90.7708 121.621 90.8083 122.002 90.9347 122.367C91.0229 122.584 91.0403 122.823 90.9842 123.05L90.9672 123.155L90.5419 121.377C90.3802 121.069 90.1624 120.793 89.8998 120.565L89.5582 120.612C89.3584 120.305 89.2167 119.462 89.1006 119.086C85.2973 107.965 77.7267 99.0451 67.1163 93.8568C57.2419 89.0305 46.0047 88.5644 35.6675 92.1718C25.4772 95.7211 17.1894 103.339 12.5288 113.026C7.69411 123.076 6.859 134.66 10.5888 145.197C12.8089 151.524 16.4499 157.215 21.3905 161.767C22.4784 162.771 23.6311 163.708 24.8061 164.597C25.245 164.927 25.6873 165.25 26.1381 165.562C26.2696 165.653 26.5582 165.794 26.6248 165.938L26.4028 166.008L25.9622 165.746L26.0459 165.917L25.9998 166.122L25.8922 166.076C25.6138 165.962 25.4841 166.018 25.1989 166.064L24.8351 166.11L24.6011 166.315L24.8556 166.868Z" fill="url(#paint6_linear_304_9516)"/>
<path d="M89.1057 119.086C89.4285 119.117 89.618 119.067 89.8315 119.346C90.2414 119.868 90.4463 120.735 90.5437 121.377C90.3819 121.069 90.1641 120.793 89.9015 120.565L89.56 120.612C89.3636 120.312 89.2167 119.469 89.1057 119.086Z" fill="#C0872B"/>
<path d="M37.0287 1.93971L41.3682 14.0013L46.1107 25.747C46.5803 26.7269 47.149 28.0466 48.0917 28.6681C48.5767 28.989 48.9353 28.9702 49.4887 28.849C50.4945 28.1303 51.0718 27.0189 51.6114 25.9467C52.4858 24.1985 53.1792 22.3462 53.9272 20.5417L55.237 16.5211L56.4137 12.9257L57.4042 9.75198C58.7704 10.0576 60.094 10.4946 61.4448 10.8566C64.0634 11.5588 66.686 12.2366 69.3126 12.8899C70.8854 13.2808 72.4959 13.7435 74.1097 13.9296L75.6877 14.0798L71.3277 25.6787C70.1938 28.3334 69.2374 31.0513 68.2025 33.7436C66.6382 37.8012 65.0141 41.8353 63.3302 45.8462C62.0323 48.9192 60.7088 52.0024 59.1205 54.9372C57.7031 57.5543 56.2071 59.9274 53.9323 61.9112C51.5243 61.1497 48.9387 60.822 46.4676 60.3217C44.519 59.9257 42.5807 59.2889 40.5826 59.2547C39.4093 57.8019 38.6477 56.0349 37.8877 54.3396C36.6923 51.6934 35.6454 48.9858 34.5644 46.2935C32.6568 41.5371 30.7475 36.7808 28.9287 31.9886L26.3192 25.2621L24.3553 20.1405L25.8479 19.4798L27.6359 18.9113L24.5619 11.4746L24.4372 11.3517C24.3155 10.9671 24.1666 10.5917 23.9915 10.2283L23.9181 10.0576L22.4955 6.72848C26.0818 5.44124 29.7843 4.37251 33.4116 3.19965C34.2553 2.92478 35.1074 2.6687 35.9545 2.40237C36.3422 2.2914 36.7418 2.22482 37.0287 1.93971Z" fill="#1F5E8B"/>
<path d="M52.9553 24.9019C54.0022 24.7961 55.5256 25.4141 56.5673 25.6787L64.184 27.5908C65.721 27.9783 67.3212 28.231 68.8309 28.7141L68.2075 28.7722L51.9478 27.6164L52.9553 24.9019Z" fill="#3083B2"/>
<path d="M25.8547 19.4866L25.9281 19.6129C26.5292 19.4115 27.144 19.2868 27.711 18.9966L29.0141 22.1328L29.0499 22.2847L29.733 23.741L29.8201 23.8434C30.5408 25.4721 31.2017 27.1281 31.9122 28.762C32.1888 29.3953 32.416 30.056 32.7507 30.6604L41.8105 53.4348L30.0985 31.0701C29.6816 31.3378 29.293 31.6473 28.9389 31.9937L26.3294 25.2673L24.3655 20.1456L25.8547 19.4866Z" fill="#4AB3DD"/>
<path d="M29.7296 23.741C29.277 24.3471 27.7724 24.7346 27.0381 24.989C26.8136 24.3965 26.5553 23.8174 26.2645 23.2544C27.0347 22.814 28.1943 22.5716 29.0499 22.2847L29.7296 23.741Z" fill="#69C9EC"/>
<path d="M26.3259 25.2621C26.6214 25.1682 26.8383 25.0402 27.1457 25.1187C28.3309 26.9318 29.3077 29.0453 30.095 31.065C29.6781 31.3327 29.2895 31.6421 28.9354 31.9886L26.3259 25.2621Z" fill="#3D9DCB"/>
<path d="M41.3681 14.0013L46.1106 25.747C44.8656 26.0253 43.7385 26.4982 42.5481 26.9421C41.1153 27.473 39.6756 27.9835 38.2411 28.5042C37.1208 28.9105 35.9954 29.298 34.8717 29.6992C34.1885 29.9399 33.3005 30.1977 32.7506 30.6689C32.409 30.0646 32.1887 29.4039 31.9121 28.7705C31.2016 27.1367 30.5459 25.4807 29.82 23.852L29.733 23.7495L29.0498 22.2933L29.014 22.1413L27.7109 19.0052C27.9432 18.7866 28.3787 18.6927 28.6741 18.5937C29.3026 18.382 29.9242 18.155 30.5527 17.9347C33.1348 17.0231 35.7102 16.0773 38.2975 15.1827C39.1923 14.8634 40.6286 14.5578 41.3681 14.0013Z" fill="#3083B2"/>
<path d="M29.014 22.1328L29.1848 22.1225C29.8559 22.0628 30.6944 21.6821 31.3468 21.4806C34.1339 20.6168 36.9159 19.7358 39.7013 18.8669C40.1453 18.7269 41.6191 18.1191 41.9914 18.2932C41.0521 19.449 38.8713 20.079 37.5512 20.6526C34.9895 21.7589 32.3937 22.7645 29.8269 23.8434L29.7398 23.741L29.0567 22.2847L29.014 22.1328Z" fill="#3D9DCB"/>
<path d="M37.0286 1.93971L41.3681 14.0013C40.6286 14.5578 39.1924 14.8549 38.2941 15.1741C35.7068 16.0687 33.1315 17.0145 30.5493 17.9262C29.9243 18.1464 29.3026 18.3735 28.6708 18.5852C28.3753 18.6842 27.9398 18.7781 27.7076 18.9966C27.1406 19.2868 26.5258 19.4115 25.9246 19.6129L25.8512 19.4866L27.6393 18.9181L24.5653 11.4814L24.4406 11.3585C24.3189 10.9739 24.1699 10.5985 23.9949 10.2351L23.9214 10.0644L22.4988 6.73531C26.0852 5.44806 29.7876 4.37934 33.415 3.20648C34.2586 2.93161 35.1108 2.67553 35.9579 2.4092C36.3421 2.2914 36.7417 2.22482 37.0286 1.93971Z" fill="#3D9DCB"/>
<path d="M23.9299 10.0644H24.1007C24.9409 10.0149 25.9793 9.55225 26.7939 9.30811C28.7698 8.72595 30.7576 8.17964 32.7301 7.58723C34.3406 7.10408 36.062 6.31022 37.7459 6.2095C36.74 6.89239 35.3379 7.30554 34.2056 7.73405C32.2451 8.4784 30.3051 9.27055 28.3445 10.0149C27.1013 10.4861 25.7521 10.8822 24.5738 11.4882L24.4491 11.3653C24.3274 10.9808 24.1784 10.6054 24.0034 10.242L23.9299 10.0644Z" fill="#4AB3DD"/>
<path d="M57.4008 9.74516C58.767 10.0507 60.0905 10.4878 61.4414 10.8497C64.06 11.552 66.6825 12.2297 69.3091 12.883C70.882 13.274 72.4924 13.7367 74.1063 13.9227L75.6843 14.073L71.3243 25.6719L52.9042 24.6014L54.1269 21.298L54.185 21.088L53.9237 20.5348L55.2336 16.5143L56.4102 12.9189L57.4008 9.74516Z" fill="#3083B2"/>
<path d="M55.2336 16.5143L55.5751 16.9428C55.3924 18.3376 54.6256 19.7341 54.1867 21.088L53.9254 20.5348L55.2336 16.5143Z" fill="#256D9E"/>
<path d="M57.4007 9.74516C58.767 10.0507 60.0905 10.4878 61.4413 10.8497C64.0599 11.552 66.6825 12.2297 69.3091 12.883C70.8819 13.274 72.4924 13.7367 74.1062 13.9227L74.1711 14.0269C73.5051 14.3461 72.4002 14.2266 71.6624 14.1976C68.9573 14.1259 66.2231 13.7503 63.5214 13.5386C61.8495 13.4072 60.1725 13.3081 58.5005 13.1596C57.8174 13.0981 57.0626 13.1186 56.4102 12.9104L57.4007 9.74516Z" fill="#4AB3DD"/>
<path d="M26.6317 165.943C26.5651 165.799 26.2764 165.658 26.1449 165.567C25.6941 165.255 25.2518 164.932 24.8129 164.603C23.6311 163.713 22.4783 162.776 21.3973 161.772C16.4499 157.215 12.8089 151.524 10.5888 145.197C6.85898 134.66 7.69408 123.076 12.5288 113.026C17.1893 103.339 25.4772 95.7211 35.6641 92.1718C46.0013 88.5695 57.2385 89.0305 67.1129 93.8568C77.7267 99.0451 85.2973 107.965 89.1057 119.086C89.2167 119.462 89.3635 120.305 89.5633 120.612L89.9049 120.565C90.1675 120.793 90.3853 121.069 90.547 121.377L90.9723 123.155V123.339L90.9091 123.629L91.0918 124.927C90.8897 125.052 90.7043 125.202 90.5402 125.374L90.7229 126.6C91.8415 133.77 90.3353 140.975 87.8197 147.672C86.836 149.816 85.7704 151.94 84.4742 153.903C79.4994 161.372 72.2997 167.085 63.8954 170.235C62.0852 170.906 59.9214 171.737 58.0002 171.928C56.8725 172.258 55.7102 172.455 54.5368 172.516C53.4028 172.582 52.2774 172.782 51.1349 172.835C48.3836 172.961 45.7178 172.703 42.9922 172.364C42.7514 172.56 42.7241 172.56 42.6506 172.859C43.1083 173.21 44.0169 172.948 44.4045 173.257L44.3413 173.374L44.0749 173.32L43.6668 173.292C42.9734 173.19 42.2715 173.074 41.5764 172.995C41.2058 172.953 40.8831 172.878 40.5176 172.825L39.6723 172.654L39.5561 172.968C39.7474 173.219 39.8089 173.219 40.1282 173.274L40.4459 173.555C39.7047 173.518 38.9362 173.246 38.2258 173.043C36.7127 172.616 35.2269 172.121 33.7377 171.619C30.6979 170.31 27.4616 168.918 24.8573 166.856L24.6096 166.308L24.8436 166.103L25.2074 166.057C25.4926 166.011 25.6224 165.955 25.9007 166.069L26.0083 166.115L26.0544 165.91L25.9707 165.74L26.4114 166.001L26.6317 165.943Z" fill="#9D5A18"/>
<path d="M86.2878 117.859C87.374 120.561 88.1015 123.279 88.3218 126.199L87.7155 126.185L85.936 118.915L86.2878 117.859Z" fill="#894D16"/>
<path d="M73.5529 101.451C74.347 101.423 74.6493 101.889 75.1941 102.396C78.2954 105.285 81.4856 108.479 83.6596 112.146C84.7525 113.99 85.5142 115.871 86.2878 117.859L85.936 118.915C84.2436 114.675 82.2353 110.659 79.2159 107.194C77.4671 105.186 75.4349 103.335 73.5529 101.451Z" fill="#7E420D"/>
<path d="M90.062 128.305C90.1064 128.274 90.4326 128.075 90.4394 128.053C90.5231 127.776 90.3899 127.339 90.4394 127.044C90.5153 126.891 90.6075 126.746 90.7144 126.613C91.833 133.784 90.3267 140.988 87.8112 147.686C86.8275 149.83 85.7618 151.954 84.4656 153.917C79.4909 161.385 72.2912 167.099 63.8869 170.248C62.0766 170.919 59.9129 171.751 57.9916 171.942V171.913L57.8379 171.788L57.6518 171.869C57.3922 171.928 57.0728 171.925 56.8098 171.978C56.6553 172.036 56.495 172.077 56.3317 172.101L56.1045 172.113C55.7442 172.222 56.0806 172.183 55.7425 172.208C55.5471 172.224 55.3535 172.257 55.1635 172.306C55.0081 172.345 54.9159 172.259 54.7742 172.193L54.8305 172.085C55.3138 171.799 55.7664 171.763 56.3078 171.648L56.0823 171.51C56.1319 171.457 56.5468 171.408 56.6613 171.385C57.3785 171.24 58.0958 171.095 58.8096 170.93C60.9884 170.414 63.1199 169.717 65.1814 168.843C71.0818 166.388 76.574 162.327 80.7222 157.468C85.726 151.565 88.9004 144.332 89.8571 136.654C89.9681 135.779 90.0159 134.919 90.0825 134.042C90.1201 133.543 90.2157 133.029 90.1696 132.529L90.062 128.305Z" fill="#190301"/>
<path d="M87.7155 126.185L88.3217 126.199C88.788 127.674 88.7845 129.442 88.7999 130.979C88.8314 133.034 88.7378 135.089 88.5199 137.133C88.3952 138.241 88.1014 139.389 87.8367 140.474C87.1619 143.443 86.1195 146.315 84.7337 149.026C81.868 154.523 77.7916 159.081 72.9244 162.863C69.3859 165.612 65.4802 167.904 61.1544 169.18C59.1377 169.752 57.0833 170.181 55.0064 170.465C54.2754 170.831 53.3413 170.706 52.5438 170.696H52.5301C50.2398 170.856 47.9401 170.827 45.6546 170.609C44.91 170.545 44.1278 170.554 43.3952 170.407C42.0682 170.141 40.7703 169.601 39.4963 169.161C37.291 168.398 35.088 167.627 32.8872 166.846C33.1485 166.687 33.1946 166.711 33.5054 166.731L33.6677 166.841C33.9122 166.954 34.1666 167.044 34.4276 167.11C34.7333 167.196 34.9929 167.35 35.2969 167.437C35.9151 167.607 36.5077 167.889 37.1362 168.026L37.3479 167.898C38.3828 168.135 39.3785 168.509 40.4049 168.751C44.6643 169.745 49.0569 170.041 53.4113 169.629C56.7398 169.323 59.9367 168.468 63.0688 167.324C64.0388 166.969 65.0618 166.651 65.9925 166.207C71.1449 163.754 76.0975 159.804 79.7316 155.411C83.7893 150.509 86.6328 144.019 87.6301 137.733C87.7257 137.133 87.6301 136.507 87.6882 135.897C87.7667 135.061 87.9204 134.222 87.9614 133.383C88.0912 130.938 87.9512 128.616 87.7155 126.185Z" fill="#753A09"/>
<path d="M52.5404 170.696C52.2392 170.588 51.9226 170.531 51.6029 170.525L51.5482 170.416C52.5985 170.327 53.9938 170.214 55.0167 170.467C54.2858 170.832 53.3516 170.708 52.5541 170.697L52.5404 170.696Z" fill="#7E420D"/>
<path d="M26.6317 165.943C26.5651 165.799 26.2764 165.658 26.1449 165.567C25.6941 165.255 25.2518 164.932 24.8129 164.603C23.6311 163.713 22.4783 162.776 21.3973 161.772C16.4499 157.215 12.8089 151.524 10.5888 145.197C6.85898 134.66 7.69408 123.076 12.5288 113.026C17.1893 103.339 25.4772 95.7211 35.6641 92.1718C46.0013 88.5695 57.2385 89.0305 67.1129 93.8568C77.7267 99.0451 85.2973 107.965 89.1057 119.086C89.2167 119.462 89.3635 120.305 89.5633 120.612L89.9049 120.565C90.1675 120.793 90.3853 121.069 90.547 121.377L90.9723 123.155V123.339L90.9091 123.629L91.0918 124.927C90.8897 125.052 90.7043 125.202 90.5402 125.374L90.7229 126.6C90.616 126.733 90.5238 126.877 90.448 127.03C90.3899 127.325 90.5231 127.762 90.448 128.039C90.448 128.061 90.1064 128.261 90.0705 128.292C89.811 127.479 89.729 126.613 89.5958 125.775C89.3738 124.338 89.1671 122.852 88.8358 121.437C88.2091 118.743 87.1434 116.07 85.9121 113.596C82.3685 106.468 77.2656 101.01 70.5301 96.8171C70.4011 96.9836 70.2212 97.1035 70.0178 97.1586C69.0632 96.6652 67.8865 96.1428 67.0446 95.4957C66.9314 95.3973 66.8035 95.3172 66.6654 95.2584L64.8518 94.4714C62.7119 93.7612 60.6677 93.0749 58.4476 92.6139C50.9487 91.0535 43.2279 91.4701 35.9852 93.9797C34.6021 94.4294 33.2485 94.9654 31.9326 95.5845C29.0294 97.0186 26.2577 98.9887 23.795 101.068C22.8131 101.898 21.8243 102.683 20.9584 103.639C20.3504 104.31 19.9201 105.066 19.3855 105.79C19.0115 106.302 18.5744 106.751 18.1901 107.245C17.8673 107.656 17.6265 108.141 17.3362 108.578C16.9742 109.123 16.4823 109.555 16.1493 110.127C14.3322 113.251 12.9028 116.867 11.7842 120.281C11.4102 121.418 11.0072 122.577 10.7476 123.745C10.5973 124.42 10.5768 125.111 10.4761 125.794C10.1913 127.666 10.0145 129.554 9.94665 131.447C9.87797 131.33 9.83761 131.199 9.82881 131.064C9.80562 130.873 9.74775 130.687 9.65803 130.516L9.45993 130.432C9.32501 130.772 9.39332 131.208 9.39332 131.549C9.39332 132.384 9.48555 133.307 9.34892 134.13C9.629 144.128 14.5662 154.008 21.744 160.83C29.2838 168 39.4707 172.212 49.9224 171.966L54.4855 171.747L54.5812 171.887L54.6768 171.928C55.1072 171.587 55.558 171.587 56.0926 171.501L56.318 171.64C55.7766 171.754 55.3241 171.79 54.8408 172.077L54.7844 172.184C54.9262 172.251 55.0184 172.336 55.1738 172.297C55.3637 172.248 55.5574 172.216 55.7527 172.2C56.0943 172.174 55.7527 172.213 56.1148 172.104L56.3419 172.092C56.5052 172.068 56.6655 172.027 56.8201 171.969C57.0831 171.916 57.4024 171.92 57.662 171.86L57.8482 171.78L58.0019 171.904V171.933C56.8742 172.263 55.7119 172.46 54.5385 172.521C53.4045 172.587 52.2791 172.787 51.1366 172.84C48.3854 172.966 45.7195 172.708 42.9939 172.369C42.7531 172.565 42.7258 172.565 42.6523 172.864C43.11 173.216 44.0186 172.953 44.4062 173.262L44.343 173.379L44.0766 173.325L43.6685 173.297C42.9751 173.195 42.2732 173.079 41.5781 173C41.2076 172.958 40.8848 172.883 40.5193 172.83L39.674 172.659L39.5578 172.973C39.7491 173.224 39.8106 173.224 40.1299 173.279L40.4476 173.56C39.7064 173.523 38.9379 173.251 38.2275 173.048C36.7144 172.621 35.2286 172.126 33.7394 171.624C30.6996 170.315 27.4633 168.924 24.859 166.861L24.6114 166.313L24.8453 166.108L25.2091 166.062C25.4943 166.016 25.6241 165.96 25.9024 166.074L26.01 166.12L26.0561 165.915L25.9725 165.745L26.4131 166.006L26.6317 165.943Z" fill="#010000"/>
<path d="M90.2994 123.866L90.9091 123.629L91.0919 124.927C90.8897 125.052 90.7044 125.202 90.5402 125.374C90.5292 125.205 90.5069 125.038 90.4736 124.872L90.2994 123.866Z" fill="#F8C355"/>
<path d="M89.5634 120.623L89.9049 120.575C90.1675 120.804 90.3853 121.079 90.547 121.388L90.9723 123.165V123.349L90.9091 123.639L90.2994 123.866C90.2413 122.864 89.7905 121.628 89.5634 120.623Z" fill="#E5A63A"/>
<path d="M64.8501 94.4714L64.9697 94.328L64.4215 94.0822L64.0953 93.9251C63.6666 93.7663 64.0953 93.9644 63.7162 93.7817L63.5454 93.6997C63.3753 93.6299 63.2151 93.5381 63.0689 93.4266L63.4224 93.29C65.9055 94.2102 68.3579 95.2636 70.5148 96.824C70.3858 96.9905 70.2059 97.1104 70.0025 97.1654C69.0478 96.672 67.8712 96.1496 67.0293 95.5026C66.9161 95.4041 66.7882 95.324 66.6501 95.2653L64.8501 94.4714Z" fill="#894D16"/>
<path d="M36.5983 170.781L42.9922 172.37C42.7514 172.567 42.7241 172.567 42.6507 172.866C43.1084 173.217 44.0169 172.954 44.4046 173.263L44.3414 173.381L44.075 173.326L43.6668 173.299C42.9734 173.197 42.2715 173.081 41.5765 173.002C41.2059 172.959 40.8831 172.884 40.5177 172.831L39.6723 172.661L39.5562 172.975L39.2932 172.483C38.318 172.359 36.752 171.8 36.0347 171.141V170.986L36.5983 170.781Z" fill="#E5A63A"/>
<path d="M24.8555 166.868L24.6079 166.32L24.8419 166.115L25.2056 166.069C25.4908 166.023 25.6206 165.967 25.899 166.081L26.0066 166.127L26.0527 165.922L25.969 165.752L26.4096 166.013L26.6316 165.943C28.2062 166.844 29.7056 167.809 31.3383 168.618C33.029 169.456 34.8409 170.098 36.5982 170.781L36.0347 170.986V171.138C36.7519 171.802 38.318 172.355 39.2931 172.48L39.5561 172.971C39.7474 173.222 39.8089 173.222 40.1282 173.277L40.4459 173.559C39.7047 173.521 38.9362 173.25 38.2257 173.047C36.7127 172.62 35.2269 172.125 33.7377 171.623C30.7013 170.322 27.465 168.937 24.8555 166.868Z" fill="#BA771E"/>
<path d="M9.34038 134.132C9.1696 133.251 9.24133 132.254 9.24133 131.351C9.25095 125.887 10.3476 120.48 12.4673 115.445C15.4013 108.43 20.3095 102.454 26.4575 98.0088C27.1628 97.4966 27.8237 96.9452 28.5666 96.4945C30.3188 95.4377 32.252 94.5704 34.1459 93.8022C42.5635 90.3877 52.011 89.7253 60.7241 92.4193C61.6343 92.701 62.5531 92.9161 63.4326 93.29L63.0791 93.4266C63.2253 93.5381 63.3855 93.6299 63.5556 93.6997L63.7263 93.7817C64.0986 93.9644 63.6768 93.7663 64.1055 93.9251L64.4317 94.0822L64.9799 94.328L64.8603 94.4714C62.7205 93.7612 60.6763 93.0749 58.4561 92.614C50.9573 91.0535 43.2364 91.4701 35.9937 93.9797C34.6106 94.4294 33.2571 94.9654 31.9411 95.5845C29.0379 97.0186 26.2662 98.9887 23.8036 101.068C22.8216 101.898 21.8328 102.683 20.9669 103.639C20.359 104.31 19.9286 105.066 19.3941 105.79C19.0201 106.302 18.5829 106.751 18.1986 107.245C17.8759 107.656 17.6351 108.141 17.3447 108.578C16.9827 109.123 16.4909 109.555 16.1578 110.127C14.3322 113.251 12.9028 116.867 11.7842 120.281C11.4102 121.418 11.0072 122.577 10.7476 123.745C10.5973 124.42 10.5768 125.111 10.4761 125.794C10.1913 127.666 10.0145 129.554 9.94664 131.447C9.87796 131.33 9.8376 131.199 9.8288 131.064C9.80562 130.873 9.74775 130.687 9.65803 130.516L9.45992 130.432C9.32501 130.772 9.39332 131.208 9.39332 131.549C9.39332 132.386 9.477 133.309 9.34038 134.132Z" fill="#7E420D"/>
<path d="M28.5341 163.688L25.7778 161.695C17.9954 155.72 12.58 146.069 11.3624 136.375C10.1072 126.395 12.995 115.404 19.2797 107.494C25.6736 99.448 35.2269 94.3382 45.4087 93.1534C55.5495 91.9686 65.6049 95.1577 73.5597 101.456C75.4383 103.334 77.474 105.191 79.2227 107.195C82.2421 110.661 84.2504 114.676 85.9428 118.917L87.7224 126.19C87.9495 128.621 88.0981 130.943 87.9785 133.386C87.9375 134.226 87.7838 135.064 87.7053 135.901C87.6489 136.51 87.7428 137.137 87.6472 137.736C86.6499 144.022 83.8064 150.513 79.7487 155.414C76.1146 159.807 71.162 163.758 66.0096 166.211C65.0789 166.655 64.0559 166.972 63.0859 167.327C59.9538 168.471 56.7569 169.326 53.4284 169.632C49.074 170.045 44.6814 169.748 40.422 168.755C39.3973 168.514 38.4 168.14 37.365 167.901L37.1533 168.029C36.5248 167.892 35.9322 167.616 35.314 167.44C35.01 167.353 34.7504 167.199 34.4447 167.114C34.1837 167.047 33.9293 166.957 33.6848 166.844L33.5225 166.735C33.2117 166.714 33.1656 166.691 32.9043 166.849C32.6568 166.809 32.4153 166.738 32.1854 166.638L32.0556 166.58C31.3797 166.296 30.7527 165.909 30.1975 165.431C30.3802 165.361 30.399 165.381 30.5186 165.214C29.8337 164.761 28.862 164.469 28.5341 163.688Z" fill="#190301"/>
<path d="M28.5341 163.688L37.3582 167.898L37.1465 168.026C36.518 167.889 35.9254 167.612 35.3072 167.437C35.0032 167.35 34.7436 167.196 34.4379 167.11C34.1769 167.044 33.9225 166.954 33.678 166.841L33.5157 166.731C33.2049 166.711 33.1588 166.687 32.8975 166.846C32.65 166.805 32.4085 166.734 32.1785 166.634L32.0487 166.576C31.3729 166.293 30.7458 165.905 30.1907 165.427C30.3734 165.357 30.3922 165.378 30.5117 165.21C29.8337 164.761 28.862 164.469 28.5341 163.688Z" fill="#7E420D"/>
<path d="M16.6019 149.463C14.5013 145.465 12.9336 141.268 12.3939 136.759C11.2173 126.939 13.4767 116.472 19.6913 108.633C24.1315 103.026 29.7996 98.5892 36.5642 96.1394C39.5544 95.0875 42.6574 94.389 45.8101 94.0583C54.0211 93.1227 62.601 95.3421 69.538 99.7809C70.882 100.643 72.127 101.667 73.3754 102.658C73.2462 102.78 73.094 102.876 72.9274 102.939C72.7609 103.003 72.5834 103.032 72.4053 103.026C71.075 102.98 69.3313 101.676 68.1547 101.08C67.0742 100.533 65.9738 100.026 64.8535 99.5607C60.0871 97.5751 54.9911 96.293 49.8097 96.2094C48.611 96.2157 47.4137 96.2898 46.2234 96.4313C39.4588 97.0766 32.8122 99.6067 27.5232 103.909C20.0363 109.999 15.5414 118.697 14.6106 128.263L14.5833 134.767L14.6397 134.827C14.9481 138.548 15.8781 142.192 17.3909 145.606C17.8469 146.648 18.4668 147.602 18.8869 148.655C18.0928 148.874 17.3243 149.046 16.6019 149.463Z" fill="url(#paint7_linear_304_9516)"/>
<path d="M14.6397 134.827L14.5833 134.767L14.6106 128.263C15.5397 118.702 20.0363 109.995 27.5283 103.906C32.8224 99.6033 39.464 97.0766 46.2285 96.4279C47.4188 96.2864 48.6161 96.2123 49.8148 96.2059C54.9979 96.293 60.0922 97.582 64.8587 99.5607C65.979 100.027 67.0793 100.534 68.1598 101.08C69.3347 101.676 71.0801 102.98 72.4104 103.026C72.5885 103.032 72.766 103.003 72.9325 102.939C73.0991 102.876 73.2514 102.78 73.3805 102.658C75.1173 103.974 76.5877 105.502 78.0051 107.151C82.6971 112.603 85.7331 119.281 86.7558 126.4C88.122 136.218 85.4374 146.141 79.4363 154.021C73.4829 161.837 64.2678 167.136 54.5351 168.415C49.5776 169.069 44.5397 168.739 39.7098 167.445C34.8798 166.15 30.3527 163.916 26.3875 160.871C23.5457 158.673 21.1617 156.116 19.0082 153.251C18.1423 152.099 17.174 150.783 16.6002 149.463C17.3226 149.046 18.0911 148.874 18.8852 148.655C19.0754 149.275 19.4501 149.822 19.9594 150.223L20.1524 150.439L20.2395 150.277C20.0947 150.099 19.9347 149.933 19.7613 149.782C19.4539 149.528 19.249 149.007 19.0782 148.649L19.1277 148.432L19.2985 148.379L19.3429 148.468C19.3943 148.572 19.465 148.665 19.5512 148.742L19.6383 148.732L21.9865 152.454C22.5108 153.391 23.5338 154.359 24.2596 155.16C28.8263 160.217 34.764 163.839 41.3511 165.586C50.0163 167.863 59.252 166.472 66.9507 161.929C70.3223 159.923 73.3485 157.386 75.9131 154.417C76.6611 153.564 77.3357 152.621 77.9966 151.696C78.1264 151.515 78.4526 150.916 78.6234 150.806C80.9972 146.8 82.722 142.584 83.5008 137.973C85.1266 128.292 82.3412 119.015 76.7192 111.117L71.7273 105.698C70.0486 104.486 68.4689 103.219 66.6808 102.157C60.0376 98.2137 52.2177 96.5884 44.5873 97.8278C35.5873 99.2892 27.5095 103.974 22.1522 111.405C20.3829 113.86 19.044 116.527 17.8827 119.317C17.6095 119.969 17.2201 120.71 17.1211 121.408C17.0493 121.905 16.8512 122.381 16.718 122.863C16.4977 123.662 16.3184 124.469 16.1254 125.273C15.9871 125.425 15.7566 125.596 15.7412 125.801C15.733 126.04 15.6898 126.276 15.6131 126.502C15.4423 126.958 15.5602 127.453 15.4816 127.921C15.3687 128.501 15.3002 129.089 15.2767 129.68C15.2681 129.977 15.053 130.205 15.0752 130.407L15.1008 132.553C15.0273 133.171 15 133.664 14.6704 134.212C14.6602 134.366 14.7097 134.69 14.6397 134.827Z" fill="url(#paint8_linear_304_9516)"/>
<path d="M71.7136 105.691C72.3967 105.879 72.9091 106.374 73.4607 106.801C75.1428 108.146 76.6576 109.688 77.9726 111.393H77.8633C77.4625 111.382 77.0683 111.288 76.7055 111.117L71.7136 105.691Z" fill="#FBDA7D"/>
<path d="M76.7055 111.11C77.0683 111.281 77.4625 111.375 77.8634 111.387H77.9727C81.6973 115.578 83.8816 121.324 84.7355 126.813C85.0531 128.862 85.2478 130.986 85.1197 133.048C84.8577 137.825 83.6166 142.498 81.4736 146.776C80.7666 148.179 79.9503 149.678 78.801 150.767L78.6097 150.793C80.9835 146.786 82.7084 142.571 83.4871 137.96C85.1129 128.285 82.3275 119.008 76.7055 111.11Z" fill="#F8C355"/>
<path d="M16.1118 125.266C16.3048 124.462 16.4841 123.655 16.7044 122.856C16.8376 122.374 17.0357 121.898 17.1074 121.401C17.2065 120.703 17.5958 119.962 17.8691 119.31C19.0304 116.527 20.3693 113.847 22.1385 111.399C27.4958 103.964 35.5736 99.2824 44.5736 97.821C52.204 96.5815 60.0239 98.2068 66.6672 102.151C68.4552 103.212 70.0349 104.479 71.7137 105.691L76.7055 111.11C82.3275 119.008 85.1129 128.285 83.4871 137.966C82.7118 142.576 80.9835 146.793 78.6097 150.8C78.4389 150.909 78.1127 151.508 77.9829 151.689C77.322 152.614 76.6475 153.552 75.8995 154.41C73.3387 157.384 70.3153 159.926 66.9456 161.938C59.2469 166.481 50.0112 167.872 41.3459 165.594C34.7566 163.846 28.8176 160.22 24.2511 155.16C23.5253 154.359 22.5023 153.391 21.978 152.454L19.6298 148.732L19.5427 148.742C19.4565 148.665 19.3858 148.572 19.3344 148.468L19.29 148.379L19.1192 148.432L19.0697 148.649C19.2404 149.007 19.4522 149.528 19.7528 149.782C19.9262 149.933 20.0862 150.099 20.2309 150.277L20.1439 150.439L19.9509 150.223C19.4416 149.822 19.0669 149.275 18.8767 148.655C18.4566 147.602 17.8366 146.648 17.3807 145.606C15.8713 142.191 14.9449 138.548 14.6397 134.827C14.7097 134.69 14.6602 134.366 14.6568 134.205C14.9864 133.657 15.0137 133.164 15.0871 132.546L15.0615 130.4C15.0393 130.199 15.2545 129.97 15.263 129.673C15.2865 129.082 15.355 128.494 15.468 127.914C15.5465 127.447 15.4321 126.951 15.5995 126.496C15.6762 126.269 15.7193 126.033 15.7275 125.794C15.7429 125.589 15.9735 125.418 16.1118 125.266Z" fill="url(#paint9_linear_304_9516)"/>
<path d="M53.869 98.7088C54.5607 98.3144 55.3514 98.4885 56.0891 98.6507L56.306 98.6968C56.762 98.7958 57.3478 98.9187 57.6278 99.3336L57.7235 99.4872L53.869 98.7088Z" fill="#321407"/>
<path d="M15.087 132.546L15.0614 130.4C15.0392 130.199 15.2544 129.97 15.2629 129.673C15.2864 129.082 15.3549 128.494 15.4679 127.914C15.5464 127.447 15.432 126.951 15.5994 126.496C15.6761 126.269 15.7193 126.033 15.7275 125.794C15.7428 125.589 15.9734 125.418 16.1117 125.266C15.7479 128.273 15.3039 131.284 15.5242 134.327L15.4423 134.361L15.2715 134.439L15.1007 134.368L15.087 132.546Z" fill="#894D16"/>
<path d="M15.0871 132.546V134.368L15.2579 134.439L15.4287 134.361L15.5106 134.327C15.719 136.584 15.9871 138.825 16.5661 141.022C17.2816 143.742 18.3797 146.217 19.611 148.732L19.5239 148.742C19.4377 148.665 19.367 148.572 19.3156 148.468L19.2712 148.379L19.1004 148.432L19.0509 148.649C19.2217 149.007 19.4334 149.528 19.734 149.782C19.9074 149.933 20.0674 150.099 20.2122 150.277L20.1251 150.439L19.9321 150.223C19.4228 149.822 19.0481 149.275 18.8579 148.655C18.4378 147.602 17.8179 146.648 17.3619 145.606C15.859 142.19 14.9389 138.547 14.6397 134.827C14.7097 134.69 14.6602 134.366 14.6568 134.205C14.9864 133.657 15.0137 133.164 15.0871 132.546Z" fill="#9D5A18"/>
<path d="M76.0651 116.696C75.0876 114.341 73.8625 112.095 72.4105 109.999C71.5429 108.747 70.5832 107.561 69.6046 106.395C69.2528 105.976 68.3357 105.172 68.2384 104.715C68.4303 104.823 68.6404 104.895 68.8583 104.928H68.9915C70.7334 106.081 72.1868 107.506 73.6025 109.026C77.8856 113.635 80.9613 119.168 82.208 125.367C83.9653 134.108 82.3788 143.293 77.4126 150.759C72.7128 157.818 64.9458 163.221 56.5964 164.871C47.9841 166.578 39.2061 165.222 31.8575 160.287C29.7484 158.871 27.2465 156.995 25.6993 154.955C26.6539 155.063 27.337 155.575 28.1192 156.08C28.7904 156.514 29.4854 156.912 30.189 157.289C36.2568 160.546 42.7976 162.31 49.7192 161.926C53.8292 161.712 57.8554 160.681 61.5631 158.896C65.2707 157.11 68.5855 154.604 71.3141 151.524C76.9754 145.171 79.3611 137.695 79.0845 129.256C79.0367 127.766 78.7071 126.303 78.6234 124.817L78.4287 124.085C77.831 121.541 77.1513 119.086 76.0651 116.696Z" fill="#894D16"/>
<path d="M23.0555 147.334L76.065 116.696C77.1512 119.086 77.8309 121.541 78.4286 124.092L78.6233 124.824C78.707 126.309 79.0366 127.773 79.0844 129.263C79.361 137.704 76.9753 145.178 71.314 151.53C68.5842 154.613 65.2674 157.121 61.5573 158.908C57.8472 160.695 53.8182 161.725 49.7054 161.938C42.7838 162.322 36.243 160.558 30.1753 157.301C29.4717 156.923 28.7766 156.526 28.1054 156.092C27.3233 155.58 26.6402 155.068 25.6855 154.967C23.7489 153.384 22.1572 150.859 20.8849 148.737L21.3153 148.42L23.0555 147.334Z" fill="#C0872B"/>
<path d="M74.2224 126.33C75.0455 125.572 76.3332 124.928 77.3493 124.452C77.6925 124.288 78.0552 124.168 78.4286 124.095L78.6233 124.828C78.5567 125.227 78.5652 125.364 78.1827 125.591L77.8719 125.738C77.7417 125.372 77.6512 124.993 77.602 124.607C76.5859 125.183 75.3768 126.101 74.2224 126.33Z" fill="#E5A63A"/>
<path d="M53.6556 138.578C54.0125 139.056 54.0808 139.155 54.144 139.742C48.7132 142.933 43.291 146.136 37.8484 149.302C34.7539 151.105 31.6491 153.144 28.3633 154.562C29.5998 153.401 31.1812 152.514 32.6106 151.602C34.825 150.184 37.048 148.787 39.2795 147.411C44.0715 144.468 48.8191 141.437 53.6556 138.578Z" fill="#FBDA7D"/>
<path d="M74.2223 126.33C75.3768 126.101 76.5859 125.183 77.602 124.604C77.6512 124.989 77.7416 125.368 77.8718 125.734L54.1371 139.744C54.0739 139.156 54.0056 139.061 53.6487 138.579C53.7494 138.417 54.5367 138.067 54.7451 137.936C58.5022 135.575 62.3293 133.326 66.1291 131.033C68.7813 129.441 71.4574 127.692 74.2223 126.33Z" fill="#F7C75C"/>
<path d="M16.7112 135.235C16.332 133.004 16.5097 130.593 16.7436 128.35C17.6658 119.472 22.258 111.137 29.2207 105.556C34.1852 101.575 40.7823 98.9597 47.1387 98.5039C49.3838 98.3706 51.6363 98.4392 53.869 98.7088L57.7235 99.4872C61.7026 100.723 65.7091 102.275 68.9795 104.932H68.8463C68.6284 104.899 68.4183 104.826 68.2264 104.718C68.3305 105.176 69.251 105.98 69.5926 106.398C70.5711 107.564 71.5309 108.751 72.3985 110.002C73.8544 112.097 75.0835 114.341 76.0651 116.696L23.0556 147.334L21.3119 148.415L20.8816 148.732C19.5153 146.639 18.6495 144.182 17.8861 141.82C17.2098 139.716 16.6207 137.468 16.7112 135.235Z" fill="#F8C355"/>
<path d="M56.3573 105.915C56.4344 105.893 56.515 105.886 56.5947 105.894C57.5442 105.976 58.7943 106.456 59.6687 106.839C63.1918 108.396 65.9875 110.9 68.2861 113.951L68.071 113.896C67.4374 113.147 66.645 112.53 65.8935 111.906C64.1376 110.417 62.256 109.083 60.2698 107.919C58.9907 107.185 57.6586 106.586 56.3573 105.915Z" fill="#E5A63A"/>
<path d="M46.1379 99.716C46.932 99.6375 47.7654 99.7655 48.5612 99.8355C46.4129 100.716 44.0988 101.031 41.8804 101.703C39.8826 102.279 37.9395 103.03 36.074 103.948C32.8804 105.562 30.107 107.65 27.3147 109.86L25.6565 111.112C26.0089 110.25 26.4991 109.451 27.1081 108.747C31.6474 103.38 39.2453 100.286 46.1379 99.716Z" fill="#FFF2C1"/>
<path d="M19.2643 124.636L19.4146 124.565C19.5854 124.891 19.5341 125.35 19.5478 125.712C19.5717 126.436 19.5854 127.163 19.6315 127.885C19.7642 130.147 20.0755 132.394 20.5622 134.607C21.0327 136.721 21.7005 138.787 22.5569 140.777C23.2554 142.38 24.0939 143.879 24.8658 145.439L22.8165 146.769C20.0157 141.948 18.7178 136.305 18.7674 130.747C18.7861 128.705 19.0406 126.665 19.2643 124.636Z" fill="#E5A63A"/>
<path d="M17.0783 133.939L17.0288 133.579C16.7556 131.445 17.7119 124.266 18.9074 122.7H19.1243C19.5153 123.185 19.3155 124.066 19.2677 124.642C19.044 126.67 18.7964 128.71 18.7776 130.752C18.7246 136.31 20.026 141.953 22.8267 146.774L23.0624 147.339L21.3188 148.42L20.8884 148.737C19.5222 146.644 18.6563 144.188 17.893 141.825C17.2098 139.721 16.6241 137.473 16.7146 135.24C16.7556 134.668 16.7368 134.422 17.0783 133.939Z" fill="#FFF2C1"/>
<path d="M17.0784 133.939C17.4712 136.044 17.5907 138.284 18.2431 140.331C18.7554 141.922 19.3753 143.539 20.0123 145.084C20.3624 145.937 20.9772 146.74 21.2078 147.616C21.2693 147.848 21.2266 148.094 21.2761 148.312L21.3222 148.413L20.8919 148.731C19.5256 146.637 18.6598 144.181 17.8964 141.818C17.2133 139.715 16.6275 137.466 16.718 135.233C16.7556 134.668 16.7368 134.422 17.0784 133.939Z" fill="#F7C75C"/>
<defs>
<linearGradient id="paint0_linear_304_9516" x1="45.9915" y1="25.2402" x2="48.4537" y2="-0.74417" gradientUnits="userSpaceOnUse">
<stop stop-color="#D6E9F2"/>
<stop offset="1" stop-color="#D8EBF3"/>
</linearGradient>
<linearGradient id="paint1_linear_304_9516" x1="32.7233" y1="81.7833" x2="6.65551" y2="120.822" gradientUnits="userSpaceOnUse">
<stop stop-color="#E5A844"/>
<stop offset="1" stop-color="#FFDD6D"/>
</linearGradient>
<linearGradient id="paint2_linear_304_9516" x1="50.3954" y1="77.5067" x2="0.168238" y2="152.722" gradientUnits="userSpaceOnUse">
<stop stop-color="#E5A844"/>
<stop offset="1" stop-color="#FFDD6D"/>
</linearGradient>
<linearGradient id="paint3_linear_304_9516" x1="92.918" y1="149.574" x2="46.0768" y2="131.417" gradientUnits="userSpaceOnUse">
<stop stop-color="#84460B"/>
<stop offset="1" stop-color="#BB7E28"/>
</linearGradient>
<linearGradient id="paint4_linear_304_9516" x1="86.3227" y1="134.757" x2="92.6558" y2="137.589" gradientUnits="userSpaceOnUse">
<stop stop-color="#F7D581"/>
<stop offset="1" stop-color="#FEF4B8"/>
</linearGradient>
<linearGradient id="paint5_linear_304_9516" x1="56.7278" y1="153.76" x2="75.0228" y2="167.471" gradientUnits="userSpaceOnUse">
<stop stop-color="#FBC85B"/>
<stop offset="1" stop-color="#FCF6C4"/>
</linearGradient>
<linearGradient id="paint6_linear_304_9516" x1="23.6805" y1="95.9653" x2="57.7823" y2="142.261" gradientUnits="userSpaceOnUse">
<stop stop-color="#7A3701"/>
<stop offset="1" stop-color="#B06D1A"/>
</linearGradient>
<linearGradient id="paint7_linear_304_9516" x1="47.2208" y1="129.415" x2="28.2228" y2="100.419" gradientUnits="userSpaceOnUse">
<stop stop-color="#F3AF44"/>
<stop offset="1" stop-color="#FFD15D"/>
</linearGradient>
<linearGradient id="paint8_linear_304_9516" x1="44.0987" y1="96.5933" x2="56.9864" y2="167.456" gradientUnits="userSpaceOnUse">
<stop stop-color="#9E5D18"/>
<stop offset="1" stop-color="#BE8026"/>
</linearGradient>
<linearGradient id="paint9_linear_304_9516" x1="26.0192" y1="106.858" x2="72.7639" y2="156.848" gradientUnits="userSpaceOnUse">
<stop/>
<stop offset="1" stop-color="#200300"/>
</linearGradient>
</defs>
</svg>
