<svg width="36" height="35" viewBox="0 0 36 35" fill="none" xmlns="http://www.w3.org/2000/svg">
<path fill-rule="evenodd" clip-rule="evenodd" d="M35.21 18.86C34.92 15.66 34.7 12.48 34.54 9.34C34.38 6.2 34.31 4.55 34.21 1.45C32.8372 0.82892 31.4071 0.343284 29.94 0H4.73001C3.46001 0.41 2.16999 0.859999 0.829987 1.39C0.719987 3.3 0.580002 5.21 0.440002 7.15C0.300002 9.09 0.15001 11.05 0.0100098 13.04C0.0100098 13.27 0.0100098 13.5 0.0100098 13.73C0.0100098 13.96 0.0100098 13.98 0.0100098 14.1C0.39001 16.59 0.649987 19.1 0.829987 21.6C1.00999 24.1 1.09 26.67 1.13 29.22L1.91 31.84C2.98967 32.7696 4.22086 33.507 5.54999 34.02C7.65217 33.7165 9.77963 33.626 11.9 33.75C13.7915 33.8783 15.6685 34.1694 17.51 34.62C19.51 34.46 21.51 34.21 23.51 34.01C25.4721 33.7892 27.4456 33.6857 29.42 33.7C30.53 33.5 31.65 33.23 32.84 33.12C32.91 32.9 32.98 32.71 33.04 32.53C33.1 32.35 33.11 32.34 33.15 32.25C33.34 31.72 33.54 31.25 33.84 30.62C34.12 29.73 34.39 28.83 34.66 27.94V27.43C34.6646 24.8351 34.8349 22.2432 35.17 19.67L35.23 19.3C35.24 19.15 35.23 19 35.21 18.86ZM28.34 16.69C27.94 16.56 27.69 16.5 27.49 16.41L28.34 16.69Z" fill="#924000"/>
<path fill-rule="evenodd" clip-rule="evenodd" d="M34.41 22.3C34.5 24.17 34.59 26.05 34.69 27.94C34.42 28.83 34.15 29.73 33.87 30.62C33.4809 31.4299 33.1468 32.2651 32.87 33.12C31.68 33.23 30.56 33.5 29.45 33.7C27.4756 33.6856 25.5021 33.7892 23.54 34.01C21.54 34.21 19.54 34.46 17.54 34.62C15.6985 34.1694 13.8215 33.8783 11.93 33.75C9.80963 33.626 7.68217 33.7165 5.57999 34.02C4.24521 33.5151 3.0072 32.7844 1.92001 31.86L1.14001 29.24C1.24001 26.92 1.34001 24.62 1.45001 22.32H34.45L34.41 22.3Z" fill="url(#paint0_linear_281_1183)"/>
<path fill-rule="evenodd" clip-rule="evenodd" d="M4.73001 0C3.46001 0.41 2.16999 0.859999 0.829987 1.39C0.719987 3.3 0.580002 5.21 0.440002 7.15C0.300002 9.09 0.15001 11.05 0.0100098 13.04C3.05405 14.3295 6.16135 15.4643 9.32001 16.44C12.4994 17.4253 15.731 18.2332 19 18.86C20.0261 19.076 21.0959 18.9013 22 18.37C23.53 17.52 26.17 16.79 26.81 16.18C29.46 17.05 33.03 18.32 35.25 18.87C34.96 15.67 34.74 12.49 34.58 9.35C34.42 6.21 34.35 4.56 34.25 1.46C32.8772 0.838918 31.4471 0.353286 29.98 0.0100021H4.73001V0Z" fill="url(#paint1_radial_281_1183)"/>
<path fill-rule="evenodd" clip-rule="evenodd" d="M35.2 19.67C32.5513 18.371 29.7288 17.4616 26.8199 16.97C24.7217 17.4505 22.7017 18.2248 20.8199 19.27C22.9799 20.27 24.9699 21.27 26.8799 22.27C29.6406 23.7159 32.256 25.4238 34.6899 27.37C34.6945 24.7751 34.8649 22.1832 35.2 19.61V19.67Z" fill="url(#paint2_radial_281_1183)"/>
<path fill-rule="evenodd" clip-rule="evenodd" d="M34.55 28.24C31.9283 25.95 29.0608 23.9578 26 22.3L25.48 22.02C23.602 20.987 21.5794 20.242 19.48 19.81C17.68 19.45 15.83 19.25 13.22 18.65C11.3 17.95 9.11001 17.21 6.85001 16.44C4.59001 15.67 2.23 14.86 0 14.1C0.38 16.59 0.640007 19.1 0.820007 21.6C1.00001 24.1 1.08 26.67 1.12 29.22C2.26353 30.2786 3.57464 31.1403 5 31.77C7.13 31.68 9.25 31.67 11.34 31.77C13.43 31.87 15.51 31.96 17.56 32.17C19.66 32.01 21.73 31.89 23.78 31.84C25.83 31.79 27.86 31.77 29.88 31.84C31.05 31.64 32.22 31.35 33.48 31.24C33.7994 30.2482 34.1699 29.2736 34.59 28.32L34.55 28.24Z" fill="url(#paint3_radial_281_1183)"/>
<path fill-rule="evenodd" clip-rule="evenodd" d="M19 18.86C15.7346 18.2362 12.5063 17.4316 9.33002 16.45C6.17136 15.4743 3.06406 14.3396 0.0200195 13.05C0.0200195 13.28 0.0200195 13.51 0.0200195 13.74C0.0200195 13.97 0.0200195 13.99 0.0200195 14.11C2.23002 14.89 4.56002 15.68 6.83002 16.45C9.10002 17.22 11.28 17.96 13.2 18.66C15.81 19.26 17.66 19.46 19.46 19.82C21.5594 20.252 23.582 20.997 25.46 22.03L25.98 22.31C29.0339 23.9691 31.8947 25.9612 34.51 28.25L34.65 27.95V27.44C32.216 25.4938 29.6007 23.7859 26.84 22.34C24.93 21.34 22.94 20.34 20.78 19.34C22.6618 18.2948 24.6818 17.5205 26.78 17.04C29.6888 17.5316 32.5113 18.441 35.16 19.74L35.22 19.37C35.22 19.22 35.22 19.07 35.17 18.93C33.4 18.48 30.76 17.59 28.43 16.8C27.43 16.46 27.26 16.61 26.77 15.62C26.52 15.12 26.32 14.62 26.08 14.04L24.2 9.86001C24.87 11.65 25.72 13.72 26.2 15.62C26.2895 15.9047 26.3333 16.2017 26.33 16.5C25.33 17.05 23.24 17.69 21.94 18.41C21.036 18.9413 19.9662 19.116 18.94 18.9L19 18.86ZM19.87 0.0100098C20.37 1.01001 20.87 2.07001 21.17 2.65001C22.11 4.79001 22.99 6.95001 23.91 9.12001C22.91 7.12001 21.98 5.21001 20.99 3.27001C20.48 2.27001 19.93 1.11001 19.36 0.0100098H19.87Z" fill="url(#paint4_linear_281_1183)"/>
<path style="mix-blend-mode:screen" fill-rule="evenodd" clip-rule="evenodd" d="M32.2499 32.47C31.1399 32.72 29.9299 32.75 28.7999 32.91C26.3921 33.3873 23.9445 33.635 21.4899 33.65C19.4299 33.56 17.0999 32.95 15.0999 33C12.2099 33.07 9.32994 33.44 6.43994 33.58C6.15854 33.5964 5.87731 33.5449 5.61993 33.43C4.0126 32.4426 2.56304 31.2189 1.31995 29.8L1.91995 31.8C2.99961 32.7296 4.23081 33.4669 5.55994 33.98C7.66212 33.6765 9.78958 33.586 11.9099 33.71C13.8015 33.8383 15.6784 34.1294 17.5199 34.58C19.5199 34.42 21.5199 34.17 23.5199 33.97C25.482 33.7492 27.4555 33.6456 29.4299 33.66C30.5399 33.46 31.6599 33.19 32.8499 33.08C32.9799 32.67 33.0899 32.36 33.2099 32.08C32.9162 32.2915 32.5706 32.4194 32.2099 32.45L32.2499 32.47Z" fill="url(#paint5_radial_281_1183)"/>
<path style="mix-blend-mode:screen" opacity="0.35" fill-rule="evenodd" clip-rule="evenodd" d="M35.21 18.86C34.92 15.66 34.7 12.48 34.54 9.34C34.38 6.2 34.31 4.55 34.21 1.45C32.8372 0.82892 31.4071 0.343284 29.94 0H4.73001C3.46001 0.41 2.16999 0.859999 0.829987 1.39C0.719987 3.3 0.580002 5.21 0.440002 7.15C0.300002 9.09 0.15001 11.05 0.0100098 13.04C0.0100098 13.27 0.0100098 13.5 0.0100098 13.73C0.0100098 13.96 0.0100098 13.98 0.0100098 14.1C0.39001 16.59 0.649987 19.1 0.829987 21.6C1.00999 24.1 1.09 26.67 1.13 29.22L1.91 31.84C2.98967 32.7696 4.22086 33.507 5.54999 34.02C7.65217 33.7165 9.77963 33.626 11.9 33.75C13.7915 33.8783 15.6685 34.1694 17.51 34.62C19.51 34.46 21.51 34.21 23.51 34.01C25.4721 33.7892 27.4456 33.6857 29.42 33.7C30.53 33.5 31.65 33.23 32.84 33.12C32.91 32.9 32.98 32.71 33.04 32.53C33.1 32.35 33.11 32.34 33.15 32.25C33.34 31.72 33.54 31.25 33.84 30.62C34.12 29.73 34.39 28.83 34.66 27.94V27.43C34.6646 24.8351 34.8349 22.2432 35.17 19.67L35.23 19.3C35.24 19.15 35.23 19 35.21 18.86ZM28.34 16.69C27.94 16.56 27.69 16.5 27.49 16.41L28.34 16.69Z" fill="url(#paint6_radial_281_1183)"/>
<g style="mix-blend-mode:multiply" opacity="0.4">
<path d="M29.26 28.86C30.6001 26.0388 32.1651 23.33 33.94 20.76L34.09 20.55C34.38 20.14 34.66 19.74 34.95 19.35C34.57 19.08 34.2099 18.84 33.8599 18.62L33.75 18.56C33.43 18.35 33.11 18.16 32.81 17.99L32.69 17.92C32.41 17.76 32.1299 17.62 31.8599 17.48L31.71 17.4C31.42 17.25 31.15 17.12 30.88 17L30.72 16.92L29.97 16.58L29.18 16.24L28.44 15.92H28.39L27.79 15.64H27.68L27.1 15.33H27.0499L27.54 14.33L27.6099 14.17C27.7099 13.97 27.8 13.78 27.88 13.59C27.96 13.4 27.93 13.49 27.95 13.45C28.09 13.13 28.2199 12.83 28.3299 12.56C28.4399 12.29 28.33 11.91 27.76 11.5C27.52 11.2712 27.2662 11.0575 27 10.86L26.91 10.8C26.37 10.5 25.7499 10.2 25.0499 9.87999H24.97L24.1099 9.48999L23.62 9.25999L23.13 9.02999C22.88 8.91999 22.6199 8.78999 22.3599 8.65999L22.1099 8.53999L21.34 8.14999C21.428 8.12012 21.5082 8.07084 21.5745 8.0058C21.6409 7.94076 21.6918 7.86163 21.7235 7.77426C21.7552 7.68688 21.7669 7.5935 21.7576 7.50102C21.7483 7.40854 21.7184 7.31933 21.67 7.23999C21.9467 7.12182 22.1915 6.93959 22.3841 6.70832C22.5766 6.47704 22.7115 6.20334 22.7775 5.90973C22.8436 5.61613 22.839 5.31104 22.7641 5.01957C22.6892 4.7281 22.5461 4.45859 22.3466 4.23325C22.1471 4.00791 21.897 3.83317 21.6168 3.72342C21.3365 3.61368 21.0342 3.57207 20.7348 3.60202C20.4353 3.63198 20.1473 3.73264 19.8944 3.89571C19.6414 4.05878 19.4308 4.2796 19.28 4.53999C19.0775 4.90167 18.9968 5.31892 19.0499 5.72999C18.9387 5.72658 18.8287 5.75366 18.7317 5.8083C18.6348 5.86294 18.5546 5.94306 18.5 6.03999C18.4576 6.12549 18.4356 6.2196 18.4356 6.31499C18.4356 6.41039 18.4576 6.5045 18.5 6.58999C17.75 7.92999 16.93 9.39999 16.13 10.81C15.88 11.26 15.62 11.7 15.38 12.13V12.19C14.38 13.99 13.28 15.78 12.2 17.55C12.2 17.63 12.2 17.73 12.26 17.86C11.57 19.11 11.26 19.66 10.78 20.56C10.6 20.88 10.4 21.23 10.14 21.67C9.13998 23.44 6.00997 28.67 4.94997 30.46C4.82997 30.67 5.28997 31.16 5.94997 31.55C6.60997 31.94 7.27995 32.09 7.39995 31.88C8.39995 30.08 11.4 24.77 12.4 23C13.4 21.23 13.65 20.9 14.65 19.25C14.7012 19.2572 14.7535 19.2519 14.8023 19.2345C14.851 19.2171 14.8949 19.1881 14.93 19.15C16.07 19.75 17.15 20.25 18.13 20.7C19.164 21.1326 20.1665 21.6372 21.13 22.21C20.62 23 20.13 23.76 19.65 24.46H19.7C19.6298 24.5179 19.572 24.5893 19.53 24.67C19.4885 24.761 19.4671 24.8599 19.4671 24.96C19.4671 25.06 19.4885 25.1589 19.53 25.25C19.6749 25.4912 19.8692 25.699 20.1 25.86C20.9966 26.4532 21.9557 26.9462 22.96 27.33C24.8953 28.146 26.7334 29.1757 28.44 30.4C28.5341 30.3993 28.6255 30.3677 28.7 30.31L29.18 29.19C29.2134 29.0817 29.2401 28.9715 29.26 28.86Z" fill="#3A1D0D"/>
</g>
<path fill-rule="evenodd" clip-rule="evenodd" d="M20.63 1.67998C20.957 1.86888 21.2207 2.15052 21.3878 2.48928C21.5548 2.82803 21.6176 3.2087 21.5683 3.58317C21.519 3.95764 21.3598 4.30909 21.1108 4.59309C20.8619 4.87709 20.5342 5.08089 20.1694 5.17873C19.8046 5.27657 19.419 5.26405 19.0613 5.14276C18.7036 5.02148 18.3899 4.79686 18.1599 4.49732C17.9298 4.19777 17.7937 3.83674 17.7688 3.45986C17.7439 3.08299 17.8313 2.70719 18.0199 2.37998C18.2749 1.9429 18.6922 1.62418 19.1809 1.49309C19.6697 1.36201 20.1905 1.42917 20.63 1.67998Z" fill="url(#paint7_radial_281_1183)"/>
<path style="mix-blend-mode:screen" fill-rule="evenodd" clip-rule="evenodd" d="M20.3199 1.79001C20.6554 1.98362 20.9003 2.30257 21.0006 2.67671C21.1009 3.05084 21.0485 3.44951 20.8549 3.78501C20.6613 4.12051 20.3423 4.36535 19.9682 4.46568C19.5941 4.56602 19.1954 4.51362 18.8599 4.32001C18.5244 4.1264 18.2796 3.80745 18.1792 3.43331C18.0789 3.05918 18.1313 2.6605 18.3249 2.32501C18.5185 1.98951 18.8375 1.74466 19.2116 1.64433C19.5858 1.544 19.9844 1.5964 20.3199 1.79001Z" fill="url(#paint8_radial_281_1183)"/>
<path style="mix-blend-mode:screen" fill-rule="evenodd" clip-rule="evenodd" d="M19.2999 1.79999C19.4626 1.79967 19.6221 1.84496 19.7603 1.93074C19.8986 2.01651 20.01 2.13933 20.0819 2.28524C20.1539 2.43115 20.1835 2.5943 20.1674 2.75619C20.1512 2.91807 20.09 3.07219 19.9907 3.20105C19.8914 3.32991 19.758 3.42834 19.6056 3.48517C19.4531 3.54201 19.2878 3.55496 19.1284 3.52257C18.969 3.49017 18.8218 3.41372 18.7036 3.30191C18.5855 3.19009 18.501 3.04738 18.4599 2.88999C18.3399 2.43999 18.7199 1.95999 19.2999 1.79999Z" fill="url(#paint9_radial_281_1183)"/>
<path style="mix-blend-mode:screen" fill-rule="evenodd" clip-rule="evenodd" d="M21.1899 2.42999C21.3724 2.76657 21.4395 3.15372 21.3809 3.53208C21.3223 3.91044 21.1412 4.25913 20.8654 4.52471C20.5896 4.79029 20.2343 4.95809 19.854 5.0024C19.4737 5.0467 19.0894 4.96507 18.7599 4.77C18.5398 4.64091 18.349 4.46719 18.2 4.25999C18.3057 4.35764 18.4233 4.44163 18.5499 4.50999C18.8633 4.69063 19.2236 4.77322 19.5844 4.74712C19.9452 4.72103 20.2899 4.58743 20.574 4.36358C20.8581 4.13972 21.0686 3.83587 21.1784 3.49123C21.2882 3.14658 21.2922 2.77694 21.1899 2.42999Z" fill="url(#paint10_radial_281_1183)"/>
<path d="M18.43 5.5C18.7473 5.68598 19.0823 5.84006 19.43 5.96C19.88 6.11 20.25 6.04 20.43 5.71C20.61 5.38 20.5 5.04 20.15 4.71C19.8691 4.47403 19.5679 4.26322 19.25 4.08C18.9325 3.89432 18.5976 3.74025 18.25 3.62001C18.0819 3.5307 17.8867 3.50682 17.702 3.55299C17.5173 3.59916 17.3563 3.7121 17.25 3.87001C17.06 4.19001 17.19 4.54001 17.54 4.87001C17.8174 5.11061 18.119 5.32175 18.44 5.5H18.43Z" fill="url(#paint11_linear_281_1183)"/>
<path style="mix-blend-mode:multiply" fill-rule="evenodd" clip-rule="evenodd" d="M19.42 5.96002C19.0723 5.84008 18.7374 5.68599 18.42 5.50002C18.099 5.32176 17.7974 5.11063 17.52 4.87002C17.394 4.76629 17.2917 4.6367 17.22 4.49001C17.2008 4.45295 17.1907 4.4118 17.1907 4.37002C17.1907 4.32824 17.2008 4.28708 17.22 4.25002C17.2386 4.21153 17.2668 4.17846 17.3018 4.15395C17.3368 4.12944 17.3775 4.11431 17.42 4.11002C17.5831 4.10152 17.7462 4.12531 17.9 4.18002C18.2469 4.30191 18.5817 4.45591 18.9 4.64002C19.2195 4.82076 19.5209 5.03173 19.8 5.27002C19.9231 5.37662 20.0249 5.50555 20.1 5.65002C20.1172 5.6877 20.126 5.72862 20.126 5.77002C20.126 5.81142 20.1172 5.85233 20.1 5.89002C20.08 5.92742 20.0515 5.95959 20.0168 5.98391C19.982 6.00823 19.942 6.02403 19.9 6.03002C19.7369 6.03989 19.5735 6.01606 19.42 5.96002Z" fill="url(#paint12_radial_281_1183)"/>
<path style="mix-blend-mode:screen" fill-rule="evenodd" clip-rule="evenodd" d="M17.49 3.95999C17.4785 3.93666 17.4725 3.911 17.4725 3.885C17.4725 3.85899 17.4785 3.83333 17.49 3.80999C17.91 3.27999 19.8 4.44999 19.8 5.09999C19.2044 4.58664 18.4946 4.2232 17.73 4.03999C17.62 4.03999 17.49 4.03999 17.46 3.95999H17.49Z" fill="url(#paint13_radial_281_1183)"/>
<path fill-rule="evenodd" clip-rule="evenodd" d="M27.42 28.1C23.48 25.3 20.79 24.96 18.89 23.56C18.7018 23.435 18.5389 23.2756 18.41 23.09C18.3386 22.9854 18.3004 22.8617 18.3004 22.735C18.3004 22.6084 18.3386 22.4846 18.41 22.38C20.6683 18.8879 22.7476 15.2832 24.64 11.58C24.52 11.88 24.64 12.22 25.2 12.58C27.1 13.98 29.79 14.32 33.73 17.12C31.2183 20.5119 29.1013 24.1788 27.42 28.05V28.1Z" fill="url(#paint14_linear_281_1183)"/>
<path style="mix-blend-mode:screen" opacity="0.75" fill-rule="evenodd" clip-rule="evenodd" d="M32.6399 16.43C31.3937 15.657 30.086 14.9881 28.7299 14.43C27.8815 16.3171 26.9369 18.1596 25.8999 19.95C24.8279 21.8096 23.6597 23.6121 22.3999 25.35C23.7536 25.9063 25.0582 26.5754 26.2999 27.35C26.959 25.3589 27.8237 23.4419 28.8799 21.63C29.9408 19.7653 31.2015 18.0217 32.6399 16.43Z" fill="url(#paint15_linear_281_1183)"/>
<path style="mix-blend-mode:multiply" fill-rule="evenodd" clip-rule="evenodd" d="M21.91 25.09C22.367 22.875 23.2281 20.7631 24.45 18.86C25.402 17.0982 26.597 15.479 28 14.05C27.0282 13.6849 26.102 13.2084 25.24 12.63C24.68 12.22 24.56 11.88 24.68 11.63C22.7876 15.3332 20.7083 18.9379 18.45 22.43C18.3786 22.5346 18.3405 22.6584 18.3405 22.785C18.3405 22.9117 18.3786 23.0354 18.45 23.14C18.5789 23.3256 18.7418 23.485 18.93 23.61C19.8668 24.2355 20.8736 24.749 21.93 25.14L21.91 25.09Z" fill="url(#paint16_linear_281_1183)"/>
<path fill-rule="evenodd" clip-rule="evenodd" d="M28.2199 26.3C24.6799 23.82 22.2199 23.4 20.3999 22.15C20.0567 21.9669 19.7376 21.7419 19.4499 21.48C19.3426 21.3543 19.2825 21.1952 19.2799 21.03L18.7999 21.78C18.785 21.8678 18.7889 21.9577 18.8113 22.0439C18.8337 22.1301 18.8741 22.2106 18.9299 22.28C19.1396 22.5082 19.3823 22.7037 19.6499 22.86C21.4899 24.18 24.0699 24.56 27.8099 27.19L28.2199 26.3ZM27.9999 15.08C26.8554 14.6495 25.7594 14.0998 24.7299 13.44C24.2999 13.12 24.1499 12.84 24.1599 12.59C24.0099 12.89 23.8399 13.2 23.6799 13.5C23.7115 13.6536 23.775 13.7988 23.8663 13.9263C23.9576 14.0537 24.0747 14.1606 24.2099 14.24C25.1515 14.8626 26.1573 15.3823 27.2099 15.79C29.1028 16.6059 30.9171 17.5933 32.6299 18.74L33.1799 17.95C31.5528 16.8236 29.8176 15.8622 27.9999 15.08Z" fill="url(#paint17_linear_281_1183)"/>
<path style="mix-blend-mode:multiply" fill-rule="evenodd" clip-rule="evenodd" d="M24.16 14.24C24.9293 14.769 25.7584 15.2053 26.63 15.54C26.84 15.27 27.05 15.01 27.26 14.78C26.3514 14.4338 25.4857 13.9842 24.68 13.44C24.25 13.12 24.1 12.84 24.11 12.59C23.96 12.89 23.79 13.2 23.63 13.5C23.6616 13.6536 23.7251 13.7988 23.8164 13.9263C23.9077 14.0537 24.0248 14.1606 24.16 14.24ZM22.38 23.24C21.6825 22.9724 21.0126 22.6374 20.38 22.24C20.0368 22.0569 19.7177 21.8319 19.43 21.57C19.3227 21.4443 19.2626 21.2852 19.26 21.12L18.78 21.87C18.7651 21.9578 18.769 22.0477 18.7914 22.1339C18.8138 22.2201 18.8542 22.3006 18.91 22.37C19.1197 22.5982 19.3624 22.7937 19.63 22.95C20.3983 23.4607 21.2198 23.8865 22.08 24.22C22.16 23.93 22.25 23.62 22.36 23.29L22.38 23.24Z" fill="url(#paint18_linear_281_1183)"/>
<path fill-rule="evenodd" clip-rule="evenodd" d="M20.73 21.29C23.1958 17.8344 25.3254 14.151 27.09 10.29C26.94 10.65 26.36 10.81 25.86 10.94C25.36 11.07 24.78 11.22 24.64 11.59C22.7483 15.2753 20.6448 18.848 18.34 22.29C18.7046 22.0567 19.1192 21.9128 19.55 21.87C20.01 21.75 20.55 21.61 20.73 21.3V21.29Z" fill="url(#paint19_linear_281_1183)"/>
<path fill-rule="evenodd" clip-rule="evenodd" d="M20.83 21.35C23.2568 17.863 25.3526 14.1569 27.09 10.28C27.2 9.97999 27.09 9.62999 26.52 9.21999C25.12 8.21999 22.6 7.34 19.79 5.84L13.48 16.77C16.29 18.27 18.81 19.12 20.21 20.15C20.55 20.39 21.12 20.9 20.83 21.35Z" fill="url(#paint20_linear_281_1183)"/>
<path style="mix-blend-mode:screen" fill-rule="evenodd" clip-rule="evenodd" d="M26.5199 9.21999C26.2416 9.01872 25.9511 8.83503 25.6499 8.66998C24.728 10.7203 23.7033 12.7228 22.5799 14.67C21.5299 16.49 20.4499 18.18 19.4099 19.67C19.6999 19.84 19.9699 20.01 20.2099 20.18C20.4499 20.35 21.1199 20.93 20.8299 21.38C23.2567 17.893 25.3525 14.1869 27.0899 10.31C27.1999 10.01 27.0899 9.65998 26.5199 9.24998V9.21999Z" fill="url(#paint21_linear_281_1183)"/>
<path style="mix-blend-mode:screen" fill-rule="evenodd" clip-rule="evenodd" d="M27.91 16.13C29.0952 16.6667 30.2502 17.2676 31.37 17.93L31.99 17.17C30.8121 16.4557 29.5896 15.8177 28.33 15.26C28.2033 15.5467 28.0633 15.8367 27.91 16.13ZM27 25.49C25.8936 24.8097 24.7369 24.2146 23.54 23.71L22.99 24.51C24.2573 25.0476 25.481 25.6829 26.65 26.41C26.76 26.1 26.88 25.79 27 25.49Z" fill="url(#paint22_linear_281_1183)"/>
<path style="mix-blend-mode:multiply" fill-rule="evenodd" clip-rule="evenodd" d="M23.8 7.75999C22.61 7.21999 21.24 6.61 19.8 5.84L13.49 16.77C14.99 17.57 16.4 18.19 17.61 18.77C18.41 17.49 19.21 16.14 20.01 14.77C21.4 12.36 22.68 10.01 23.81 7.77L23.8 7.75999Z" fill="url(#paint23_linear_281_1183)"/>
<path d="M13.5299 16.67C14.7399 17.32 15.8999 17.84 16.9299 18.32C18.0989 18.7931 19.2206 19.3757 20.2799 20.06C20.5141 20.217 20.7092 20.4257 20.8499 20.67C20.8914 20.761 20.9128 20.8599 20.9128 20.96C20.9128 21.06 20.8914 21.1589 20.8499 21.25C20.7341 21.4679 20.5417 21.6353 20.3099 21.72C20.0652 21.8251 19.8106 21.9055 19.5499 21.96C19.3099 22.03 19.0399 22.1 18.8199 22.19C18.6402 22.2538 18.4905 22.3821 18.3999 22.55C18.3706 22.6108 18.3555 22.6775 18.3555 22.745C18.3555 22.8125 18.3706 22.8791 18.3999 22.94C18.5246 23.1553 18.6996 23.3371 18.9099 23.47C19.7872 24.0606 20.7302 24.5472 21.7199 24.92C23.7193 25.7592 25.6151 26.8262 27.3699 28.1C27.2982 28.1556 27.2106 28.1871 27.1199 28.19C25.4107 26.9698 23.5731 25.9403 21.6399 25.12C20.6337 24.7405 19.6742 24.2473 18.7799 23.65C18.5432 23.4928 18.3449 23.2843 18.1999 23.04C18.1585 22.9489 18.137 22.85 18.137 22.75C18.137 22.6499 18.1585 22.551 18.1999 22.46C18.3158 22.242 18.5081 22.0746 18.7399 21.99C18.9882 21.895 19.242 21.8148 19.4999 21.75C19.7498 21.696 19.9942 21.619 20.2299 21.52C20.409 21.4603 20.5589 21.3353 20.6499 21.17C20.6793 21.1074 20.6946 21.0391 20.6946 20.97C20.6946 20.9008 20.6793 20.8326 20.6499 20.77C20.5265 20.557 20.3553 20.3756 20.1499 20.24C19.1019 19.5659 17.9939 18.9901 16.8399 18.52C15.8399 18.04 14.6399 17.52 13.4199 16.86L13.5299 16.67Z" fill="url(#paint24_linear_281_1183)"/>
<path fill-rule="evenodd" clip-rule="evenodd" d="M21.33 18.56C19.92 17.56 17.33 16.62 14.45 15.09L13.96 15.93C16.8 17.45 19.38 18.33 20.79 19.36C21.14 19.62 21.67 20.11 21.4 20.55C21.57 20.29 21.76 20.02 21.95 19.72C22.14 19.42 21.7 18.82 21.33 18.56ZM26.71 11.18C26.83 10.87 26.71 10.52 26.14 10.12C24.73 9.12 22.14 8.19999 19.3 6.67999L18.82 7.52C21.69 9.06 24.31 9.96999 25.72 11C26.24 11.38 26.43 11.74 26.3 12.07C26.45 11.76 26.59 11.46 26.71 11.18Z" fill="url(#paint25_linear_281_1183)"/>
<path style="mix-blend-mode:screen" fill-rule="evenodd" clip-rule="evenodd" d="M26.71 11.18C26.83 10.87 26.71 10.52 26.14 10.12C25.8538 9.91198 25.553 9.72482 25.24 9.56C25.11 9.85 24.97 10.14 24.82 10.44C25.1331 10.6048 25.4338 10.792 25.72 11C26.24 11.38 26.43 11.74 26.3 12.07C26.45 11.76 26.59 11.46 26.71 11.18ZM22 19.72C22.24 19.3 21.75 18.82 21.38 18.56C21.1141 18.3619 20.8333 18.1847 20.54 18.03C20.36 18.3 20.18 18.57 20.01 18.84C20.2971 18.9961 20.5743 19.1697 20.84 19.36C21.19 19.62 21.72 20.11 21.45 20.55C21.62 20.29 21.81 20.02 22 19.72Z" fill="url(#paint26_linear_281_1183)"/>
<path style="mix-blend-mode:multiply" fill-rule="evenodd" clip-rule="evenodd" d="M18.82 7.52C20.28 8.31 21.69 8.93 22.9 9.52L23.35 8.66C22.15 8.1 20.76 7.49 19.3 6.66L18.82 7.5V7.52ZM18.61 17.09C17.38 16.52 15.95 15.89 14.45 15.09L13.96 15.93C15.46 16.73 16.89 17.36 18.11 17.93C18.27 17.65 18.44 17.38 18.61 17.1V17.09Z" fill="url(#paint27_linear_281_1183)"/>
<path fill-rule="evenodd" clip-rule="evenodd" d="M18.87 4.73002C19.2032 4.91773 19.5093 5.14985 19.78 5.42002C19.98 5.64002 20.08 5.83002 20.01 5.95002C19.01 7.76002 17.79 9.80002 16.74 11.6L13.62 17.02L12.23 16.22L10.85 15.42C11.94 13.64 13 11.86 14 10.05C15 8.24002 16.19 6.18002 17.21 4.36002C17.27 4.24002 17.49 4.22002 17.78 4.29002C18.1492 4.38587 18.5027 4.53404 18.83 4.73002H18.87Z" fill="url(#paint28_linear_281_1183)"/>
<path style="mix-blend-mode:multiply" fill-rule="evenodd" clip-rule="evenodd" d="M14.59 10.07C15.64 8.23001 16.81 6.15001 17.85 4.29001C17.57 4.22001 17.35 4.24001 17.28 4.35001C16.28 6.10001 15.19 8.09001 14.2 9.83001L13.74 10.63C12.81 12.24 11.85 13.83 10.89 15.42C10.96 15.3 11.19 15.29 11.49 15.36C12.55 13.61 13.6 11.85 14.62 10.07H14.59Z" fill="url(#paint29_linear_281_1183)"/>
<path style="mix-blend-mode:screen" fill-rule="evenodd" clip-rule="evenodd" d="M18.2 4.39999C17.15 6.27999 15.96 8.39999 14.89 10.25C13.82 12.1 12.8899 13.74 11.8199 15.47C12.0486 15.5617 12.2694 15.6721 12.4799 15.8L12.6199 15.88C13.6399 14.1533 14.6399 12.4233 15.6199 10.69C16.6999 8.80999 17.8999 6.68999 18.9699 4.80999L18.8399 4.73C18.6237 4.60619 18.3999 4.49597 18.17 4.39999H18.2Z" fill="url(#paint30_linear_281_1183)"/>
<path style="mix-blend-mode:multiply" fill-rule="evenodd" clip-rule="evenodd" d="M19.53 5.17999L16.19 11C15.1833 12.7533 14.1667 14.5033 13.14 16.25C13.51 16.56 13.71 16.86 13.62 17.02L16.74 11.6L16.87 11.39L20 5.94999C20.07 5.82999 20 5.63999 19.77 5.41999C19.6915 5.33506 19.608 5.25492 19.52 5.17999H19.53Z" fill="url(#paint31_linear_281_1183)"/>
<path fill-rule="evenodd" clip-rule="evenodd" d="M12.48 15.8C13.25 16.24 13.7499 16.8 13.6199 17.02C13.4899 17.24 12.7499 17.09 11.9899 16.65C11.2299 16.21 10.7199 15.65 10.8499 15.42C10.9799 15.19 11.72 15.35 12.48 15.8Z" fill="#A71B00"/>
<path fill-rule="evenodd" clip-rule="evenodd" d="M13.4 17.01C12.4 18.77 12.12 19.1 11.09 20.87C10.06 22.64 7.09 27.95 6.09 29.75L4.85999 29.04L3.64001 28.33C4.69001 26.58 7.79001 21.33 8.82001 19.54C9.85001 17.75 10.02 17.41 11 15.61C11.06 15.5 11.24 15.49 11.5 15.54C12.152 15.7216 12.7472 16.0657 13.23 16.54C13.41 16.74 13.49 16.91 13.43 17.01H13.4Z" fill="url(#paint32_linear_281_1183)"/>
<path style="mix-blend-mode:multiply" fill-rule="evenodd" clip-rule="evenodd" d="M13.2 16.54C13.0614 16.3935 12.9071 16.2627 12.7399 16.15C11.6899 17.98 11.4399 18.38 10.3799 20.21C9.31994 22.04 6.22994 27.4 5.18994 29.21L6.05994 29.72C7.05994 27.92 10.0599 22.61 11.0599 20.84C12.0599 19.07 12.3199 18.74 13.3699 16.98C13.4299 16.88 13.37 16.71 13.17 16.51L13.2 16.54Z" fill="url(#paint33_linear_281_1183)"/>
<path style="mix-blend-mode:multiply" fill-rule="evenodd" clip-rule="evenodd" d="M3.99991 28.54C5.07991 26.72 8.1999 21.37 9.2699 19.54C10.3399 17.71 10.5099 17.36 11.4999 15.54C11.2499 15.49 11.0699 15.54 11.0099 15.61C10.0099 17.41 9.85989 17.78 8.8299 19.54C7.7999 21.3 4.6999 26.54 3.6499 28.33L3.99991 28.54Z" fill="url(#paint34_linear_281_1183)"/>
<path fill-rule="evenodd" clip-rule="evenodd" d="M5.05 28.66C5.73 29.05 6.18 29.54 6.05 29.75C5.92 29.96 5.28002 29.81 4.60002 29.42C3.92002 29.03 3.48002 28.54 3.60002 28.33C3.72002 28.12 4.36002 28.27 5.04002 28.66H5.05Z" fill="url(#paint35_radial_281_1183)"/>
<path style="mix-blend-mode:screen" fill-rule="evenodd" clip-rule="evenodd" d="M12.3499 15.86C12.1168 15.7315 11.8725 15.6244 11.6199 15.54C8.76994 20.54 5.32995 26.67 5.50995 26.78C5.68995 26.89 9.45995 20.88 12.3499 15.86Z" fill="url(#paint36_radial_281_1183)"/>
<path fill-rule="evenodd" clip-rule="evenodd" d="M14.67 15.19C14.82 14.94 14.22 14.36 13.54 13.97C13.091 13.6528 12.5491 13.4945 12 13.52L11.48 14.38C12.0397 14.3272 12.5992 14.484 13.05 14.82C13.77 15.23 14.32 15.82 14.18 16.04C14.35 15.76 14.51 15.47 14.67 15.19ZM17.89 6.41999C18.22 6.60999 19.23 7.31 19.03 7.65L19.52 6.79C19.72 6.45 18.67 5.73 18.39 5.57C18.11 5.41 17.1 4.92 16.81 5.14C16.52 5.36 16.5 5.7 16.34 5.98C16.66 5.8 17.6 6.24999 17.89 6.41999Z" fill="url(#paint37_linear_281_1183)"/>
<path style="mix-blend-mode:screen" fill-rule="evenodd" clip-rule="evenodd" d="M17.2399 6.11001C17.4627 6.20006 17.6797 6.30358 17.8899 6.42001L18.0399 6.51001L18.5199 5.65001L18.3899 5.57001C18.1735 5.45238 17.9497 5.34883 17.7199 5.26001L17.2399 6.11001ZM13.6899 14.11L13.5399 14.02C13.3369 13.8966 13.1226 13.7928 12.8999 13.71C12.7299 13.99 12.5599 14.27 12.3999 14.55C12.6242 14.6404 12.8415 14.7473 13.0499 14.87L13.1899 14.95L13.6899 14.11Z" fill="url(#paint38_linear_281_1183)"/>
<path style="mix-blend-mode:multiply" fill-rule="evenodd" clip-rule="evenodd" d="M16.34 5.98C16.5202 5.91068 16.7197 5.91068 16.9 5.98L17.38 5.12C17.1968 5.04809 16.9932 5.04809 16.81 5.12C16.66 5.4 16.5 5.68 16.34 5.96V5.98ZM12.55 13.54C12.3702 13.4886 12.1797 13.4886 12 13.54L11.48 14.4C11.6651 14.339 11.8649 14.339 12.05 14.4C12.22 14.12 12.39 13.84 12.55 13.55V13.54Z" fill="url(#paint39_linear_281_1183)"/>
<path style="mix-blend-mode:multiply" fill-rule="evenodd" clip-rule="evenodd" d="M14.2 14.43C14.04 14.71 13.87 14.99 13.71 15.28C14.07 15.58 14.27 15.88 14.18 16.04C14.35 15.76 14.51 15.47 14.67 15.19C14.76 15.02 14.54 14.73 14.19 14.43H14.2ZM18.55 6.86001C18.87 7.13001 19.14 7.43001 19.03 7.62001C19.2 7.34001 19.36 7.05001 19.52 6.77001C19.68 6.49001 19.36 6.27001 19.04 6.01001L18.55 6.86001Z" fill="url(#paint40_linear_281_1183)"/>
<defs>
<linearGradient id="paint0_linear_281_1183" x1="17.92" y1="34.62" x2="17.92" y2="22.3" gradientUnits="userSpaceOnUse">
<stop offset="0.43" stop-color="#884329"/>
<stop offset="1" stop-color="#57280C"/>
</linearGradient>
<radialGradient id="paint1_radial_281_1183" cx="0" cy="0" r="1" gradientUnits="userSpaceOnUse" gradientTransform="translate(-2.99999 6.93) scale(41.68 41.68)">
<stop stop-color="#C28653"/>
<stop offset="1" stop-color="#734324"/>
</radialGradient>
<radialGradient id="paint2_radial_281_1183" cx="0" cy="0" r="1" gradientUnits="userSpaceOnUse" gradientTransform="translate(-2.81006 18.62) scale(38.9 38.9)">
<stop stop-color="#C28653"/>
<stop offset="1" stop-color="#734324"/>
</radialGradient>
<radialGradient id="paint3_radial_281_1183" cx="0" cy="0" r="1" gradientUnits="userSpaceOnUse" gradientTransform="translate(-12.5 7.68001) scale(58.66 58.66)">
<stop stop-color="#C28653"/>
<stop offset="1" stop-color="#734324"/>
</radialGradient>
<linearGradient id="paint4_linear_281_1183" x1="32.85" y1="29.95" x2="7.97003" y2="5.08" gradientUnits="userSpaceOnUse">
<stop stop-color="#85451A"/>
<stop offset="1" stop-color="#D49765"/>
</linearGradient>
<radialGradient id="paint5_radial_281_1183" cx="0" cy="0" r="1" gradientUnits="userSpaceOnUse" gradientTransform="translate(12.5799 14.25) scale(36.37 36.37)">
<stop stop-color="#160E0C"/>
<stop offset="0.15" stop-color="#1A100C"/>
<stop offset="0.31" stop-color="#26170E"/>
<stop offset="0.46" stop-color="#3A2210"/>
<stop offset="0.61" stop-color="#563212"/>
<stop offset="0.77" stop-color="#7A4616"/>
<stop offset="0.92" stop-color="#A65E1A"/>
<stop offset="1" stop-color="#C06D1D"/>
</radialGradient>
<radialGradient id="paint6_radial_281_1183" cx="0" cy="0" r="1" gradientUnits="userSpaceOnUse" gradientTransform="translate(-0.959988 -6) scale(43.53 43.53)">
<stop stop-color="#F39200"/>
<stop offset="0.45" stop-color="#B63000"/>
<stop offset="0.52" stop-color="#9D2900"/>
<stop offset="0.85" stop-color="#2F0C00"/>
<stop offset="1" stop-color="#030000"/>
</radialGradient>
<radialGradient id="paint7_radial_281_1183" cx="0" cy="0" r="1" gradientUnits="userSpaceOnUse" gradientTransform="translate(19.413 2.57375) rotate(29.9999) scale(2.60001 2.6)">
<stop stop-color="#FCCD10"/>
<stop offset="0.22" stop-color="#EDAB09"/>
<stop offset="0.45" stop-color="#E08E02"/>
<stop offset="0.58" stop-color="#DB8300"/>
<stop offset="0.71" stop-color="#D67D00"/>
<stop offset="0.88" stop-color="#C86C00"/>
<stop offset="1" stop-color="#BA5B00"/>
</radialGradient>
<radialGradient id="paint8_radial_281_1183" cx="0" cy="0" r="1" gradientUnits="userSpaceOnUse" gradientTransform="translate(19.3034 1.56364) rotate(30) scale(3.17 3.17)">
<stop stop-color="#FFE58A"/>
<stop offset="1"/>
</radialGradient>
<radialGradient id="paint9_radial_281_1183" cx="0" cy="0" r="1" gradientUnits="userSpaceOnUse" gradientTransform="translate(19.0481 0.665699) rotate(29.9998) scale(3.13002 3.13001)">
<stop stop-color="#FFE58A"/>
<stop offset="1"/>
</radialGradient>
<radialGradient id="paint10_radial_281_1183" cx="0" cy="0" r="1" gradientUnits="userSpaceOnUse" gradientTransform="translate(19.9279 3.10196) rotate(30) scale(3 3)">
<stop stop-color="#FFE58A"/>
<stop offset="1"/>
</radialGradient>
<linearGradient id="paint11_linear_281_1183" x1="17.24" y1="3.88" x2="20.42" y2="5.70999" gradientUnits="userSpaceOnUse">
<stop offset="0.05" stop-color="#ED9500"/>
<stop offset="0.4" stop-color="#FFCC00"/>
<stop offset="0.93" stop-color="#B36600"/>
</linearGradient>
<radialGradient id="paint12_radial_281_1183" cx="0" cy="0" r="1" gradientUnits="userSpaceOnUse" gradientTransform="translate(19.77 5.97002) scale(7.10005 7.09999)">
<stop stop-color="#E38812"/>
<stop offset="0.11" stop-color="#E6962D"/>
<stop offset="0.73" stop-color="#F8E1C3"/>
<stop offset="1" stop-color="white"/>
</radialGradient>
<radialGradient id="paint13_radial_281_1183" cx="0" cy="0" r="1" gradientUnits="userSpaceOnUse" gradientTransform="translate(17.95 3.61999) scale(2.53 2.53)">
<stop stop-color="#FFF0B0"/>
<stop offset="1"/>
</radialGradient>
<linearGradient id="paint14_linear_281_1183" x1="21.31" y1="17.33" x2="30.56" y2="22.67" gradientUnits="userSpaceOnUse">
<stop stop-color="#9C0E0E"/>
<stop offset="0.69" stop-color="#FC3F00"/>
<stop offset="1" stop-color="#C4020B"/>
</linearGradient>
<linearGradient id="paint15_linear_281_1183" x1="24.2899" y1="18.99" x2="29.5899" y2="22.05" gradientUnits="userSpaceOnUse">
<stop/>
<stop offset="0.13" stop-color="#3E1111"/>
<stop offset="0.31" stop-color="#902727"/>
<stop offset="0.47" stop-color="#CC3737"/>
<stop offset="0.58" stop-color="#F14141"/>
<stop offset="0.64" stop-color="#FF4545"/>
<stop offset="0.68" stop-color="#F24040"/>
<stop offset="0.77" stop-color="#D03333"/>
<stop offset="0.89" stop-color="#991D1D"/>
<stop offset="1" stop-color="#630808"/>
</linearGradient>
<linearGradient id="paint16_linear_281_1183" x1="21.31" y1="17.33" x2="25.12" y2="19.53" gradientUnits="userSpaceOnUse">
<stop stop-color="#800C0C"/>
<stop offset="1" stop-color="#FFE4BF"/>
</linearGradient>
<linearGradient id="paint17_linear_281_1183" x1="21.3199" y1="17.42" x2="30.4299" y2="22.68" gradientUnits="userSpaceOnUse">
<stop offset="0.07" stop-color="#B36600"/>
<stop offset="0.6" stop-color="#FFCC00"/>
<stop offset="0.95" stop-color="#ED9500"/>
</linearGradient>
<linearGradient id="paint18_linear_281_1183" x1="21.32" y1="17.42" x2="24.63" y2="19.33" gradientUnits="userSpaceOnUse">
<stop offset="0.57" stop-color="#FFA163"/>
<stop offset="1" stop-color="#FFE4BF"/>
</linearGradient>
<linearGradient id="paint19_linear_281_1183" x1="22.03" y1="15.89" x2="23.66" y2="16.83" gradientUnits="userSpaceOnUse">
<stop stop-color="#960007"/>
<stop offset="1" stop-color="#610000"/>
</linearGradient>
<linearGradient id="paint20_linear_281_1183" x1="16.68" y1="11.22" x2="24.39" y2="15.67" gradientUnits="userSpaceOnUse">
<stop stop-color="#9C0E0E"/>
<stop offset="0.75" stop-color="#FC3F00"/>
<stop offset="1" stop-color="#C4020B"/>
</linearGradient>
<linearGradient id="paint21_linear_281_1183" x1="22.3099" y1="14.47" x2="24.3899" y2="15.67" gradientUnits="userSpaceOnUse">
<stop/>
<stop offset="0.68" stop-color="#FF7373"/>
<stop offset="0.74" stop-color="#F26D6D"/>
<stop offset="0.84" stop-color="#D05E5E"/>
<stop offset="0.97" stop-color="#994545"/>
<stop offset="1" stop-color="#8C3F3F"/>
</linearGradient>
<linearGradient id="paint22_linear_281_1183" x1="25.69" y1="19.8" x2="29.28" y2="21.87" gradientUnits="userSpaceOnUse">
<stop/>
<stop offset="0.02" stop-color="#0F0E0B"/>
<stop offset="0.1" stop-color="#4E4936"/>
<stop offset="0.18" stop-color="#847C5B"/>
<stop offset="0.25" stop-color="#B0A67A"/>
<stop offset="0.33" stop-color="#D2C691"/>
<stop offset="0.4" stop-color="#EBDDA2"/>
<stop offset="0.46" stop-color="#FAEBAC"/>
<stop offset="0.51" stop-color="#FFF0B0"/>
<stop offset="0.56" stop-color="#F9EAAC"/>
<stop offset="0.62" stop-color="#E8DAA0"/>
<stop offset="0.69" stop-color="#CCC08D"/>
<stop offset="0.77" stop-color="#A59B72"/>
<stop offset="0.85" stop-color="#736C4F"/>
<stop offset="0.93" stop-color="#373326"/>
<stop offset="1"/>
</linearGradient>
<linearGradient id="paint23_linear_281_1183" x1="16.72" y1="11.15" x2="22.86" y2="14.7" gradientUnits="userSpaceOnUse">
<stop stop-color="#FF3030"/>
<stop offset="1" stop-color="#FFE4BF"/>
</linearGradient>
<linearGradient id="paint24_linear_281_1183" x1="12.7899" y1="17.95" x2="28.1599" y2="26.83" gradientUnits="userSpaceOnUse">
<stop stop-color="#C4020B"/>
<stop offset="1" stop-color="#FC3F00"/>
</linearGradient>
<linearGradient id="paint25_linear_281_1183" x1="16.68" y1="11.22" x2="24.31" y2="15.62" gradientUnits="userSpaceOnUse">
<stop offset="0.07" stop-color="#B36600"/>
<stop offset="0.6" stop-color="#FFCC00"/>
<stop offset="0.95" stop-color="#ED9500"/>
</linearGradient>
<linearGradient id="paint26_linear_281_1183" x1="22.39" y1="14.51" x2="24.31" y2="15.62" gradientUnits="userSpaceOnUse">
<stop/>
<stop offset="1" stop-color="#FFF0B0"/>
</linearGradient>
<linearGradient id="paint27_linear_281_1183" x1="16.72" y1="11.16" x2="20.7" y2="13.46" gradientUnits="userSpaceOnUse">
<stop stop-color="#FFA163"/>
<stop offset="1" stop-color="#FFE4BF"/>
</linearGradient>
<linearGradient id="paint28_linear_281_1183" x1="14.17" y1="9.68002" x2="16.94" y2="11.27" gradientUnits="userSpaceOnUse">
<stop stop-color="#9C0E0E"/>
<stop offset="0.3" stop-color="#FC3F00"/>
<stop offset="1" stop-color="#C4020B"/>
</linearGradient>
<linearGradient id="paint29_linear_281_1183" x1="14.14" y1="9.73001" x2="14.62" y2="10.01" gradientUnits="userSpaceOnUse">
<stop stop-color="#800C0C"/>
<stop offset="1" stop-color="#FFE4BF"/>
</linearGradient>
<linearGradient id="paint30_linear_281_1183" x1="14.7799" y1="9.77999" x2="16.1699" y2="10.58" gradientUnits="userSpaceOnUse">
<stop/>
<stop offset="0.09" stop-color="#3E1111"/>
<stop offset="0.21" stop-color="#902727"/>
<stop offset="0.31" stop-color="#CC3737"/>
<stop offset="0.38" stop-color="#F14141"/>
<stop offset="0.42" stop-color="#FF4545"/>
<stop offset="0.5" stop-color="#F24040"/>
<stop offset="0.64" stop-color="#D03333"/>
<stop offset="0.83" stop-color="#991D1D"/>
<stop offset="1" stop-color="#630808"/>
</linearGradient>
<linearGradient id="paint31_linear_281_1183" x1="16.22" y1="10.9" x2="16.92" y2="11.3" gradientUnits="userSpaceOnUse">
<stop stop-color="#FFE4BF"/>
<stop offset="1" stop-color="#800C0C"/>
</linearGradient>
<linearGradient id="paint32_linear_281_1183" x1="7.39001" y1="21.78" x2="9.85" y2="23.2" gradientUnits="userSpaceOnUse">
<stop stop-color="#546578"/>
<stop offset="0.32" stop-color="#8DA0B8"/>
<stop offset="1" stop-color="#546578"/>
</linearGradient>
<linearGradient id="paint33_linear_281_1183" x1="8.78994" y1="22.6" x2="9.68994" y2="23.12" gradientUnits="userSpaceOnUse">
<stop stop-color="white"/>
<stop offset="0.52" stop-color="#C3CEE0"/>
<stop offset="1" stop-color="#8A9FC2"/>
</linearGradient>
<linearGradient id="paint34_linear_281_1183" x1="7.35991" y1="21.83" x2="8.71991" y2="22.62" gradientUnits="userSpaceOnUse">
<stop stop-color="#8A9FC2"/>
<stop offset="0.48" stop-color="#C3CEE0"/>
<stop offset="1" stop-color="white"/>
</linearGradient>
<radialGradient id="paint35_radial_281_1183" cx="0" cy="0" r="1" gradientUnits="userSpaceOnUse" gradientTransform="translate(4.22002 26.77) scale(3.35998 3.35999)">
<stop stop-color="#ADBDC9"/>
<stop offset="1" stop-color="#263754"/>
</radialGradient>
<radialGradient id="paint36_radial_281_1183" cx="0" cy="0" r="1" gradientUnits="userSpaceOnUse" gradientTransform="translate(0.919955 15.28) scale(12.97 12.97)">
<stop stop-color="white"/>
<stop offset="0.11" stop-color="#FAFAFA"/>
<stop offset="0.23" stop-color="#EDEDED"/>
<stop offset="0.36" stop-color="#D6D6D6"/>
<stop offset="0.5" stop-color="#B7B7B7"/>
<stop offset="0.64" stop-color="#8E8E8E"/>
<stop offset="0.78" stop-color="#5C5C5C"/>
<stop offset="0.92" stop-color="#232323"/>
<stop offset="1"/>
</radialGradient>
<linearGradient id="paint37_linear_281_1183" x1="14.23" y1="9.62" x2="15.32" y2="10.25" gradientUnits="userSpaceOnUse">
<stop offset="0.07" stop-color="#B36600"/>
<stop offset="0.6" stop-color="#FFCC00"/>
<stop offset="0.95" stop-color="#ED9500"/>
</linearGradient>
<linearGradient id="paint38_linear_281_1183" x1="15.0699" y1="9.85001" x2="15.8599" y2="10.3" gradientUnits="userSpaceOnUse">
<stop stop-color="#FFF0B0"/>
<stop offset="1"/>
</linearGradient>
<linearGradient id="paint39_linear_281_1183" x1="14.22" y1="9.64" x2="14.66" y2="9.9" gradientUnits="userSpaceOnUse">
<stop stop-color="#FFA163"/>
<stop offset="1" stop-color="#FFE4BF"/>
</linearGradient>
<linearGradient id="paint40_linear_281_1183" x1="16.27" y1="10.84" x2="16.96" y2="11.24" gradientUnits="userSpaceOnUse">
<stop stop-color="#FFE4BF"/>
<stop offset="1" stop-color="#FFA163"/>
</linearGradient>
</defs>
</svg>
