<svg width="259" height="368" viewBox="0 0 259 368" fill="none" xmlns="http://www.w3.org/2000/svg">
<g clip-path="url(#clip0_101_135)">
<path d="M60.5368 314.581C52.0641 320.952 42.9013 322.95 32.8826 318.709C21.2516 313.791 14.1058 300.212 16.647 287.078C20.462 267.341 32.5707 253.835 49.8215 244.457C55.6801 241.265 62.0098 239.188 69.1091 237.336C66.8068 236.407 65.0154 235.637 63.1974 234.96C40.6388 226.532 24.8743 211.732 18.7436 187.78C18.3455 186.207 17.8147 185.264 15.7446 185.41C12.8452 185.609 9.77321 185.55 7.11925 184.216C2.54117 181.906 0.225591 178.063 0.199052 172.887C0.159242 164.591 0.27867 156.275 4.5104e-06 147.999C-0.278661 139.451 4.90983 135.608 12.6926 135.509C16.0697 135.469 16.8925 134.586 16.6735 131.354C16.0896 122.063 16.4745 112.811 22.2535 105.026C25.3127 101.109 26.7838 96.1824 26.3737 91.2285C26.0553 85.6271 28.2249 80.5301 31.9603 76.256C32.5119 75.6739 32.9361 74.9831 33.2057 74.2278C33.4753 73.4724 33.5845 72.6691 33.5262 71.8692C32.856 52.3572 42.6956 38.1878 61.28 31.8563C61.8872 31.7183 62.4403 31.4041 62.8699 30.9531C63.2995 30.5022 63.5865 29.9345 63.6951 29.3211C71.3385 0.822962 107.552 -9.49715 128.425 10.0746C129.752 11.2957 130.369 10.9772 131.537 9.98165C154.169 -9.26487 187.695 0.690227 195.789 29.0689C195.924 29.7442 196.25 30.3664 196.729 30.8608C197.208 31.3552 197.819 31.7009 198.49 31.8563C217.174 38.0351 227.385 52.8947 226.356 72.3736C226.287 72.9606 226.345 73.5557 226.524 74.1188C226.704 74.682 227.002 75.2002 227.398 75.6388C232.646 81.5123 234.033 88.4809 233.263 96.0799C233.124 97.467 232.832 98.8408 233.874 100.135C241.172 109.221 243.62 119.733 242.665 131.135C242.393 134.387 243.096 135.568 246.706 135.549C254.774 135.509 258.781 139.677 258.92 147.661C259.053 155.525 259.02 163.39 259.027 171.254C259.033 179.119 255.457 183.446 247.814 184.966C246.651 185.27 245.452 185.413 244.251 185.39C241.955 185.211 241.252 186.213 240.681 188.39C234.67 211.426 219.894 226.379 197.786 234.489C195.577 235.305 193.215 235.816 191.025 237.422C196.4 239.267 201.708 240.548 206.657 242.851C223.749 250.815 236.242 263.08 242.061 281.265C245.85 293.111 244.191 304.135 235.094 313.366C231.116 317.356 225.943 319.935 220.363 320.71C214.784 321.486 209.104 320.415 204.189 317.66C202.404 316.645 200.706 315.477 198.934 314.342C197.932 315.119 198.423 316.174 198.423 317.057C198.384 324.596 198.423 332.129 198.423 339.668C198.39 354.209 187.038 366.427 172.222 367.887C159.317 369.161 145.304 358.669 142.843 345.395C142.179 341.838 140.985 340.916 137.535 341.095C131.763 341.4 125.964 341.234 120.178 341.095C118.188 341.055 117.471 341.466 117.159 343.67C116.234 350.115 113.118 356.045 108.335 360.461C103.552 364.878 97.3947 367.512 90.8982 367.92C78.6435 368.77 66.349 360.169 62.5273 348.01C61.7912 345.617 61.4156 343.127 61.4127 340.624C61.3131 332.115 61.1539 323.614 61.0146 315.105C61.1074 314.939 61.3131 314.72 61.2667 314.614C61.1207 314.243 60.8155 314.408 60.5368 314.581ZM49.921 296.609C49.5692 295.444 48.9729 294.368 48.1719 293.452C47.371 292.537 46.3839 291.803 45.2766 291.299C41.8729 288.346 37.7791 288.154 33.5792 288.353C32.3518 288.406 32.0001 289.149 31.8144 290.264C30.7196 296.901 34.5479 303.073 41.1563 305.183C41.3819 305.456 41.6207 305.668 41.979 305.369C42.2932 305.513 42.6366 305.582 42.9821 305.571C43.3275 305.559 43.6656 305.467 43.9695 305.303C49.4035 304.447 51.447 301.447 49.9144 296.595L49.921 296.609ZM10.3903 155.061C10.3328 159.388 10.273 163.717 10.2111 168.049C10.2111 169.96 11.1665 170.703 13.0575 170.703C14.9484 170.703 15.7115 169.894 15.6783 167.956C15.6186 162.534 15.7115 157.111 15.7115 151.689C15.7115 151.025 15.9901 150.129 15.048 149.698C10.0054 149.884 9.90591 149.99 10.3903 155.061ZM243.673 155.061C243.673 159.534 243.62 164.007 243.62 168.48C243.62 169.535 243.368 170.803 245.067 170.849C246.666 170.896 248.57 170.77 248.616 168.858C248.742 162.885 249.419 156.952 248.378 151.025C247.435 149.413 245.81 149.28 244.397 149.698C242.983 150.116 243.813 151.736 243.634 152.804C243.576 153.554 243.589 154.307 243.673 155.054V155.061ZM210.18 295.129C208.104 298.732 209.424 302.681 213.292 304.467C219.264 307.221 226.21 303.245 227.829 296.171C229.276 289.819 228.108 288.392 221.699 288.698C221.374 288.698 221.035 288.797 220.737 288.844C216.351 289.481 212.682 291.352 210.18 295.129ZM193.686 281.716C193.686 283.674 193.686 285.632 193.766 287.589C193.748 287.918 193.85 288.242 194.052 288.502C194.255 288.762 194.544 288.94 194.867 289.003C195.531 289.103 195.723 288.465 195.982 287.988C199.538 281.517 204.992 277.223 211.687 274.376C213.478 273.931 215.243 273.247 217.061 273.088C220.033 272.816 219.383 271.761 217.93 270.261C211.474 263.607 203.528 258.586 194.748 255.614C194.323 255.242 193.945 255.136 193.713 255.806L193.666 257.133C193.582 257.184 193.513 257.254 193.465 257.339C193.416 257.424 193.391 257.52 193.391 257.618C193.391 257.716 193.416 257.812 193.465 257.897C193.513 257.981 193.582 258.052 193.666 258.102C193.666 259.536 193.666 260.97 193.666 262.403C193.199 265.483 193.199 268.615 193.666 271.694V277.608C193.21 278.94 193.217 280.388 193.686 281.716ZM50.3722 275.079C55.9654 278.205 60.8155 282.094 63.8079 287.941C64.0799 288.479 64.3917 289.268 65.241 288.937C66.2031 288.598 66.422 287.775 66.4286 286.833C66.4994 276.931 66.579 267.031 66.6675 257.133C66.6675 255.68 66.3158 254.923 64.7965 255.965C55.4147 258.215 48.0433 263.571 41.906 270.818C41.0501 271.834 40.652 272.584 42.5032 272.989C45.1173 273.579 47.7315 274.382 50.3523 275.092L50.3722 275.079ZM171.532 351.402C178.213 350.419 181.796 346.437 181.909 339.801C182.015 334.345 181.975 328.883 181.909 323.428C181.909 322.592 182.347 321.569 181.338 320.68C178.366 324.898 174.835 328.694 170.842 331.963C167.272 334.212 163.809 336.688 159.695 337.896C159.511 337.924 159.334 337.99 159.175 338.09C159.017 338.189 158.881 338.32 158.775 338.474C158.669 338.629 158.596 338.803 158.561 338.987C158.525 339.17 158.527 339.359 158.568 339.542C159.078 347.433 166.105 353.22 171.512 351.448L171.532 351.402ZM91.0839 333.23C86.1681 329.767 81.7617 325.632 77.9933 320.946C77.8805 321.422 77.7985 321.905 77.7478 322.392C77.7478 328.18 77.708 333.967 77.7942 339.761C77.9137 347.426 83.142 352.065 90.9579 351.561C93.6453 351.053 96.1022 349.705 97.9743 347.711C99.8464 345.716 101.037 343.179 101.375 340.464C101.554 339.243 101.375 338.473 100.094 337.869C97.0421 336.403 94.0829 334.777 91.0839 333.23ZM179.899 34.1659C179.899 30.5489 177.729 28.1464 175.686 25.412C170.079 17.9125 162.522 15.4569 153.877 17.0829C144.714 18.7819 136.679 24.7948 138.318 39.5748L138.251 57.3613L138.51 77.2051C137.953 79.7602 138.451 82.3618 138.245 84.9236C138.072 87.0474 139.114 87.2929 140.786 86.8018C163.862 86.8505 186.936 86.8881 210.008 86.9146C211.667 86.9146 214.161 87.8039 214.805 86.3372C215.588 84.5652 213.796 82.6339 212.423 81.3066C210.32 79.2824 209.935 76.9993 210.074 74.2318C210.227 71.232 210.738 68.1725 209.743 65.1926C209.651 64.3368 209.505 63.4878 209.305 62.6507C206.027 51.6072 194.29 44.7847 181.478 46.4571C180.357 45.382 180.967 44.0082 180.848 42.7605C180.589 39.8934 181.392 36.9002 179.899 34.1659ZM146.107 238.259C125.917 238.146 105.727 238.066 85.5372 237.887C83.3675 237.887 83.3675 238.962 83.3742 240.542C83.4472 257.465 83.4538 274.389 83.5334 291.319C83.5334 297.372 85.1722 302.953 88.9873 307.778C91.1506 311.957 94.2266 315.595 97.987 318.422C101.747 321.25 106.096 323.194 110.71 324.111C121.684 326.481 132.857 325.565 143.944 324.868C160.943 323.806 175.5 309.603 176.104 292.62C176.721 275.285 176.303 257.917 176.382 240.568C176.382 238.989 176.004 238.146 174.213 238.172C167.239 238.279 160.279 238.298 153.286 238.345C150.907 238.008 148.494 237.979 146.107 238.259ZM92.1322 86.8084C95.0649 86.8416 97.9975 86.9611 100.93 86.8748C106.669 86.7022 112.428 87.4256 118.148 86.4567C120.609 87.638 121.465 86.7553 121.233 84.1803C121.034 81.8043 121.047 79.4151 120.968 77.0325C121.021 70.44 121.071 63.852 121.12 57.2683C121.147 50.0786 121.173 42.891 121.2 35.7056C121.233 25.0868 116.449 19.1138 106.092 16.8971C94.4346 14.3884 81.6093 22.3326 79.8311 33.1837C78.3145 37.3238 77.8717 41.7808 78.544 46.1385C76.4672 46.1385 74.3972 46.2447 72.3204 46.2381C60.8354 46.1983 50.3854 56.0206 49.7618 67.5088C49.6058 70.0173 49.6058 72.533 49.7618 75.0415C49.9475 77.6962 49.5561 79.8465 47.4794 81.7844C46.0796 83.1541 45.1149 84.9063 44.706 86.8217L92.1322 86.8084ZM221.758 111.079C217.645 105.63 212.078 103.228 205.344 103.221C155.157 103.195 104.969 103.168 54.7778 103.141C41.853 103.141 33.2608 111.663 33.1944 124.598C33.1082 140.208 33.274 155.791 33.1546 171.42C32.9821 195.312 48.9457 213.709 72.3005 219.868C72.5099 219.933 72.7365 219.913 72.9313 219.813C73.1262 219.712 73.2737 219.539 73.3422 219.331C75.0208 220.658 76.9781 220.578 78.9487 220.578C111.681 220.578 144.413 220.578 177.145 220.578C180.197 220.6 183.246 220.396 186.268 219.968C207.606 216.769 225.587 198.067 226.283 176.013C226.834 158.565 226.409 141.084 226.283 123.622C226.375 119.03 224.763 114.566 221.758 111.092V111.079Z" fill="#191919"/>
<path d="M221.758 111.092C224.778 114.557 226.407 119.019 226.33 123.616C226.456 141.077 226.88 158.558 226.33 176.006C225.633 198.067 207.653 216.762 186.315 219.961C183.293 220.39 180.244 220.594 177.192 220.572C144.459 220.572 111.727 220.572 78.9951 220.572C77.0047 220.572 75.0673 220.625 73.3886 219.324C70.7878 217.413 67.875 216.006 65.4599 213.743C58.825 207.557 54.3332 199.918 50.1001 192.08C48.9324 189.917 47.4462 187.846 47.2007 185.258C49.0054 185.351 49.2907 187.043 50.0736 188.111C58.2611 199.268 69.0096 205.54 83.0491 205.54C115.228 205.54 147.408 205.626 179.587 205.453C188.876 205.407 196.924 201.81 203.691 195.372C210.784 188.609 213.432 180.108 213.491 170.591C213.591 154.556 213.551 138.515 213.584 122.474C213.584 121.147 213.737 119.873 213.816 118.565C216.457 116.083 218.673 113.123 221.758 111.092Z" fill="#B7B7B7"/>
<path d="M120.968 77.0458C121.047 79.4284 121.034 81.8176 121.233 84.1936C121.445 86.7686 120.609 87.6513 118.148 86.47C112.249 80.0921 104.818 75.7052 97.5795 71.1192C92.6564 67.9933 87.0698 71.4643 86.7845 77.3245C86.5722 81.6384 88.9276 84.4458 92.0924 86.8217H44.7458C45.1547 84.9063 46.1194 83.1541 47.5192 81.7844C49.5959 79.8465 49.9873 77.6697 49.8016 75.0415C49.6456 72.533 49.6456 70.0173 49.8016 67.5088C50.3987 56.0206 60.8487 46.1983 72.3602 46.2713C74.437 46.2713 76.507 46.2049 78.5838 46.1717C80.1297 47.6982 81.6425 49.2645 83.2282 50.7312C86.3997 53.6314 90.2015 54.2685 93.7843 52.5695C97.3672 50.8705 99.0325 47.7181 98.2098 44.413C97.3274 40.9088 92.3379 36.9931 88.7153 37.8227C84.1173 38.8713 81.7353 36.8007 79.851 33.2168C81.6425 22.3658 94.4478 14.4216 106.112 16.9436C116.469 19.1802 121.253 25.1333 121.22 35.7521C121.22 42.9419 121.193 50.1294 121.14 57.3148C119.561 56.1998 118.081 54.8658 116.37 53.9964C110.504 51.0962 104.387 53.9964 103.763 60.0226C103.339 64.0511 105.86 66.7655 108.832 68.9092C112.793 71.7431 116.907 74.3314 120.968 77.0458Z" fill="#FEEDCD"/>
<path d="M47.1742 185.251C47.3997 187.839 48.9059 189.897 50.0736 192.074C54.3067 199.912 58.8184 207.55 65.4334 213.736C67.8485 215.986 70.7413 217.406 73.3621 219.317C73.2936 219.526 73.1461 219.699 72.9512 219.799C72.7564 219.9 72.5299 219.92 72.3204 219.855C48.9457 213.723 32.9821 195.299 33.1745 171.407C33.2939 155.797 33.1281 140.214 33.2143 124.585C33.2807 111.65 41.8397 103.128 54.7977 103.128C104.993 103.128 155.182 103.155 205.363 103.208C212.098 103.208 217.665 105.617 221.778 111.066C218.693 113.096 216.47 116.056 213.816 118.532C209.928 114.391 205.118 113.515 199.584 113.627C185.293 113.919 170.988 113.727 156.69 113.727C122.852 113.727 89.0138 113.727 55.1758 113.727C51.1949 113.727 48.0301 115.054 45.5154 118.227C44.1884 119.899 43.8965 121.664 43.8501 123.689C43.4453 141.143 44.7922 158.571 44.5865 176.026C44.5202 179.192 44.9249 182.576 47.1742 185.251Z" fill="#FEEDCD"/>
<path d="M153.266 238.338C160.24 238.292 167.2 238.272 174.193 238.166C175.984 238.166 176.369 238.982 176.362 240.562C176.283 257.91 176.701 275.278 176.084 292.613C175.48 309.59 160.923 323.806 143.924 324.861C132.837 325.558 121.664 326.474 110.69 324.105C106.076 323.188 101.729 321.244 97.969 318.417C94.2096 315.589 91.1351 311.951 88.974 307.772L91.628 308.555C93.1341 310.327 95.2904 310.154 97.2809 310.453C104.858 311.581 112.488 310.738 120.078 311.117C123.126 311.288 126.154 310.539 128.77 308.966C138.563 303.279 146.532 296.118 148.96 284.41C150.99 274.608 149.79 264.686 149.916 254.811C149.916 254.545 149.59 254.273 149.411 254.008C150.075 251.798 149.524 249.733 148.662 247.709C149.252 246.561 150.208 246.428 151.382 246.561C152.874 246.747 154.377 246.827 155.88 246.8C156.889 246.8 158.329 247.404 158.806 246.229C159.284 245.055 157.997 244.172 157.294 243.256C155.993 241.577 153.837 240.615 153.266 238.338Z" fill="#FAB135"/>
<path d="M140.786 86.8018C139.114 87.2929 138.072 87.0473 138.245 84.9236C138.45 82.3618 137.953 79.7602 138.51 77.1984C143.977 74.0991 149.458 70.9997 153.87 66.4204C155.029 65.1174 155.774 63.4989 156.01 61.771C156.246 60.0431 155.963 58.284 155.197 56.7175C153.678 53.9633 149.577 52.4567 146.12 52.9677C142.876 53.4522 140.879 55.8945 138.278 57.3613C138.278 51.4324 138.3 45.5036 138.344 39.5748C140.335 38.8713 141.211 37.0396 142.285 35.4733C143.578 33.5508 145.241 31.9063 147.178 30.6366C149.115 29.3669 151.287 28.4977 153.565 28.08C160.505 26.7527 166.934 29.1485 173.091 32.062C175.009 32.9713 176.674 34.3915 178.917 34.5044C178.659 34.9813 178.35 35.4286 177.994 35.8383C175.918 37.8294 173.35 37.7298 170.696 37.7497C168.381 37.7019 166.132 38.5206 164.389 40.0454C162.646 41.5702 161.535 43.6912 161.275 45.9925C160.976 48.9061 163.676 52.3173 167.279 53.2266C172.03 54.4278 175.526 52.0253 178.459 48.7335C179.292 47.7687 180.321 46.9926 181.478 46.4571C194.29 44.7847 206.027 51.6072 209.305 62.6507C209.505 63.4878 209.651 64.3368 209.743 65.1926V77.5236C207.792 70.3095 203.36 65.04 197.879 60.3942C193.023 56.3193 187.396 55.7485 181.664 57.4077C176.356 58.974 172.375 62.883 168.52 66.6991C167.438 67.7544 166.602 69.1813 165.096 69.6591C161.168 70.9856 157.533 73.0563 154.388 75.7583C149.882 79.4815 144.462 82.0698 140.786 86.8018Z" fill="#FBC45F"/>
<path d="M140.786 86.8017C144.462 82.0698 149.882 79.5014 154.388 75.7781C157.533 73.0786 161.169 71.0101 165.096 69.6856C166.602 69.2078 167.438 67.7809 168.52 66.7256C172.401 62.9095 176.349 59.0005 181.664 57.4342C187.396 55.7419 193.023 56.3458 197.879 60.4208C203.36 65.0266 207.792 70.3161 209.743 77.5302V65.1926C210.724 68.1725 210.227 71.232 210.074 74.2318C209.935 76.9993 210.32 79.2823 212.423 81.3065C213.796 82.6339 215.588 84.5652 214.805 86.3372C214.141 87.8039 211.667 86.9146 210.008 86.9146C186.932 86.9102 163.858 86.8725 140.786 86.8017Z" fill="#A86A4B"/>
<path d="M91.628 308.555L88.974 307.772C85.1523 302.947 83.5467 297.365 83.5135 291.313C83.4339 274.389 83.4272 257.465 83.3543 240.535C83.3543 238.975 83.3543 237.88 85.5172 237.88C105.707 238.059 125.897 238.139 146.087 238.252C146.021 240.814 148.96 243.628 145.424 245.904C136.049 245.313 126.667 245.672 117.285 245.645C115.421 245.704 113.604 246.251 112.017 247.231C107.731 246.123 103.392 247.085 99.0591 246.714C96.4051 246.481 95.39 247.537 95.4497 250.258C95.5758 256.35 95.5824 262.456 95.4099 268.549C95.0649 280.528 93.4725 292.554 98.5946 304.088C100.22 307.738 98.4619 309.398 94.4943 308.734C93.543 308.619 92.5861 308.56 91.628 308.555Z" fill="#F5F5F5"/>
<path d="M178.897 34.511C176.654 34.3982 174.989 32.9779 173.071 32.0687C166.914 29.1352 160.465 26.7593 153.545 28.0866C151.267 28.5043 149.095 29.3735 147.158 30.6432C145.221 31.9129 143.558 33.5574 142.266 35.4799C141.191 37.0462 140.328 38.8779 138.324 39.5814C136.679 24.7948 144.714 18.7819 153.877 17.0829C162.502 15.4835 170.079 17.9125 175.686 25.412C177.729 28.1464 179.925 30.5489 179.899 34.1659L178.897 34.511Z" fill="#FEEDCD"/>
<path d="M92.1322 86.8217C88.9541 84.4457 86.5987 81.6384 86.8243 77.3245C87.1096 71.4643 92.6962 67.9933 97.6193 71.1192C104.831 75.7052 112.263 80.092 118.188 86.4699C112.468 87.4389 106.709 86.7155 100.97 86.888C97.9975 86.9743 95.0649 86.8549 92.1322 86.8217Z" fill="#A86A4B"/>
<path d="M138.251 57.3612C140.852 55.8945 142.849 53.4522 146.094 52.9677C149.551 52.4567 153.651 53.9632 155.17 56.7175C155.937 58.2839 156.22 60.0431 155.984 61.771C155.747 63.4989 155.002 65.1174 153.843 66.4204C149.431 70.9997 143.951 74.0991 138.484 77.1984L138.251 57.3612Z" fill="#FEEDCD"/>
<path d="M90.9579 351.561C83.1419 352.065 77.9136 347.426 77.7942 339.761C77.708 333.967 77.7478 328.18 77.7478 322.392C77.7985 321.905 77.8805 321.422 77.9933 320.946C81.7617 325.632 86.1681 329.767 91.0839 333.23C91.0441 339.345 91.0021 345.455 90.9579 351.561Z" fill="#ECECEC"/>
<path d="M120.968 77.0458C116.907 74.3314 112.793 71.743 108.812 68.8959C105.84 66.7522 103.319 64.0378 103.743 60.0093C104.407 53.9832 110.491 51.0829 116.35 53.9832C118.061 54.8327 119.541 56.1666 121.12 57.3015C121.076 63.8763 121.025 70.4577 120.968 77.0458Z" fill="#A86A4B"/>
<path d="M79.8311 33.1837C81.7154 36.7675 84.0974 38.8381 88.6954 37.7895C92.318 36.96 97.3207 40.8756 98.1899 44.3798C99.0126 47.6982 97.2809 50.8705 93.7644 52.5364C90.2479 54.2022 86.3798 53.5982 83.2083 50.698C81.6027 49.2313 80.0899 47.665 78.5639 46.1385C77.8852 41.7825 78.3212 37.3255 79.8311 33.1837Z" fill="#A86A4B"/>
<path d="M178.897 34.511L179.899 34.1526C181.392 36.8869 180.562 39.8801 180.848 42.7803C180.967 44.028 180.357 45.4018 181.478 46.477C180.33 47.0091 179.308 47.7781 178.479 48.7335C175.546 52.0518 172.05 54.4278 167.299 53.2265C163.696 52.3173 160.996 48.906 161.294 45.9925C161.549 43.691 162.653 41.5674 164.391 40.0378C166.129 38.5081 168.375 37.6827 170.689 37.7231C173.343 37.7231 175.938 37.8227 177.988 35.8118C178.336 35.4118 178.641 34.9757 178.897 34.511Z" fill="#FEEDCD"/>
<path d="M194.748 255.614C203.528 258.586 211.474 263.607 217.93 270.261C219.383 271.761 220.033 272.816 217.061 273.088C215.243 273.247 213.478 273.931 211.687 274.376C209.815 274.502 207.966 273.904 206.525 272.703C202.574 269.832 198.393 267.292 194.024 265.111C193.912 264.208 193.792 263.306 193.679 262.403C193.679 260.969 193.679 259.536 193.679 258.102C193.679 257.777 193.679 257.439 193.679 257.133C193.679 256.689 193.713 256.251 193.726 255.806L194.748 255.614Z" fill="#FEEDCD"/>
<path d="M50.3523 275.092C47.6983 274.382 45.1372 273.579 42.4833 273.002C40.6321 272.597 41.0302 271.847 41.8861 270.832C48.0234 263.584 55.3948 258.222 64.7765 255.979C65.931 257.1 66.7206 264.175 65.7386 265.237C65.3175 265.54 64.8269 265.731 64.3121 265.794C58.5795 267.281 54.3465 271.004 50.3523 275.092Z" fill="#FEEDCD"/>
<path d="M170.869 331.936C172.056 333.217 171.532 334.81 171.532 336.257C171.585 341.32 171.532 346.384 171.492 351.448C166.085 353.22 159.058 347.466 158.574 339.502C158.534 339.319 158.531 339.13 158.567 338.947C158.603 338.763 158.676 338.589 158.781 338.434C158.887 338.28 159.023 338.149 159.182 338.05C159.34 337.95 159.517 337.884 159.702 337.856C163.836 336.661 167.299 334.186 170.869 331.936Z" fill="#ECECEC"/>
<path d="M41.1828 305.19C34.5479 303.079 30.7461 296.921 31.8409 290.271C32.0267 289.156 32.3783 288.412 33.6058 288.359C37.8057 288.16 41.8994 288.359 45.3031 291.306C43.5449 293.682 41.6605 296.025 43.1932 299.27C43.4652 301.261 43.7306 303.292 44.0027 305.303C43.6987 305.467 43.3607 305.559 43.0152 305.571C42.6698 305.582 42.3264 305.513 42.0122 305.369L41.1828 305.19Z" fill="#FEEDCD"/>
<path d="M145.47 245.924C148.98 243.648 146.041 240.834 146.134 238.272C148.52 237.985 150.932 238.008 153.313 238.338C153.863 240.615 156.02 241.59 157.294 243.263C157.997 244.179 159.284 245.021 158.806 246.236C158.329 247.45 156.889 246.793 155.88 246.807C154.377 246.833 152.874 246.754 151.382 246.568C150.208 246.435 149.252 246.568 148.662 247.716C147.77 246.854 146.67 246.237 145.47 245.924Z" fill="#FBC45F"/>
<path d="M220.737 288.844C220.81 290.368 220.79 291.895 220.677 293.416C220.472 294.935 219.758 296.338 218.651 297.397C217.545 298.456 216.111 299.107 214.586 299.244C210.751 299.423 210.419 299.111 210.18 295.129C212.682 291.352 216.351 289.481 220.737 288.844Z" fill="#FEEDCD"/>
<path d="M194.024 265.111C193.739 267.294 194.35 269.538 193.653 271.701C193.186 268.622 193.186 265.489 193.653 262.41C193.792 263.306 193.912 264.208 194.024 265.111Z" fill="#87A2BD"/>
<path d="M193.666 277.614C194.114 278.945 194.114 280.385 193.666 281.716C193.205 280.388 193.205 278.943 193.666 277.614Z" fill="#87A2BD"/>
<path d="M41.1828 305.19L42.0056 305.376C41.6473 305.674 41.4084 305.462 41.1828 305.19Z" fill="#87A2BD"/>
<path d="M60.5368 314.581C60.8155 314.422 61.1207 314.256 61.2932 314.661C61.3397 314.767 61.134 314.986 61.0411 315.152C60.8752 314.946 60.7093 314.754 60.5368 314.581Z" fill="#DAF7FD"/>
<path d="M194.748 255.614L193.713 255.806C193.945 255.136 194.323 255.242 194.748 255.614Z" fill="#87A2BD"/>
<path d="M193.666 257.133C193.666 257.459 193.666 257.797 193.666 258.102C193.582 258.052 193.513 257.981 193.465 257.896C193.416 257.812 193.391 257.716 193.391 257.618C193.391 257.52 193.416 257.424 193.465 257.339C193.513 257.254 193.582 257.183 193.666 257.133Z" fill="#87A2BD"/>
<path d="M47.1741 185.251C44.9249 182.596 44.5202 179.218 44.56 176.039C44.7657 158.585 43.4188 141.157 43.8235 123.702C43.87 121.711 44.1486 119.912 45.4889 118.24C48.0035 115.081 51.175 113.734 55.1493 113.74C88.9873 113.767 122.825 113.767 156.663 113.74C170.962 113.74 185.266 113.933 199.558 113.641C205.091 113.528 209.902 114.404 213.79 118.545C213.71 119.873 213.564 121.154 213.558 122.454C213.524 138.495 213.558 154.536 213.465 170.571C213.405 180.061 210.758 188.589 203.665 195.352C196.897 201.79 188.829 205.387 179.56 205.433C147.381 205.606 115.202 205.533 83.0225 205.52C68.9831 205.52 58.2345 199.248 50.0471 188.092C49.2641 187.036 48.9788 185.344 47.1741 185.251ZM143.977 149.897C143.947 157.999 147.135 165.782 152.84 171.533C158.546 177.283 166.302 180.531 174.402 180.562C182.502 180.593 190.282 177.404 196.031 171.697C201.78 165.99 205.027 158.232 205.058 150.129C205.058 133.02 191.662 119.508 174.664 119.514C157.546 119.521 143.977 132.967 143.977 149.897ZM85.9485 119.461C68.8504 119.375 55.1559 132.735 55.0431 149.632C54.9237 166.974 68.0343 180.526 84.9865 180.585C101.939 180.645 115.925 166.98 115.991 150.402C116.064 133.173 102.841 119.541 85.9485 119.461Z" fill="#DFDFDF"/>
<path d="M91.628 308.555C92.6014 308.556 93.574 308.613 94.5407 308.727C98.5217 309.424 100.267 307.758 98.6411 304.082C93.5189 292.547 95.1113 280.521 95.4563 268.542C95.6288 262.449 95.6222 256.344 95.4961 250.251C95.4364 247.53 96.425 246.475 99.1055 246.707C103.412 247.079 107.777 246.116 112.057 247.225C110.478 249.594 109.403 252.016 111.009 254.83C112.614 257.644 115.301 258.149 118.307 258.149C126.269 258.056 134.231 257.963 142.193 258.063C145.51 258.102 147.865 256.875 149.411 254.001C149.59 254.266 149.916 254.538 149.916 254.804C149.79 264.679 150.99 274.601 148.96 284.404C146.532 296.104 138.563 303.265 128.77 308.96C126.154 310.532 123.126 311.281 120.078 311.11C112.488 310.732 104.858 311.574 97.2809 310.446C95.2904 310.154 93.1341 310.327 91.628 308.555Z" fill="#FBC45F"/>
<path d="M149.411 254.014C147.865 256.888 145.517 258.116 142.193 258.076C134.231 257.976 126.269 258.076 118.307 258.162C115.308 258.202 112.654 257.744 111.009 254.844C109.363 251.944 110.478 249.607 112.057 247.238C113.657 246.253 115.487 245.706 117.365 245.652C126.747 245.652 136.128 245.32 145.503 245.911C146.704 246.224 147.803 246.841 148.695 247.703C149.524 249.74 150.048 251.804 149.411 254.014Z" fill="#A86A4B"/>
<path d="M143.977 149.897C143.977 132.967 157.566 119.521 174.664 119.514C191.662 119.514 205.078 133.02 205.058 150.129C205.027 158.232 201.78 165.99 196.031 171.697C190.282 177.404 182.502 180.593 174.402 180.562C166.302 180.531 158.546 177.283 152.84 171.532C147.135 165.782 143.947 157.999 143.977 149.897ZM160.319 153.74C161.726 159.162 166.994 164.153 172.335 164.836C178.459 165.62 183.754 163.668 187.058 158.465C190.362 153.262 190.886 147.694 187.303 142.225C183.176 135.389 175.414 132.854 168.235 136C161.228 139.059 158.077 146.141 160.299 153.74H160.319Z" fill="#191919"/>
<path d="M85.9485 119.461C102.828 119.547 116.064 133.179 115.991 150.402C115.925 166.993 101.886 180.645 84.9865 180.585C68.0874 180.526 54.9237 166.967 55.0697 149.625C55.1559 132.735 68.8504 119.368 85.9485 119.461ZM71.2854 154.092C71.2389 155.724 72.1678 157.005 72.9773 158.266C77.2435 164.956 85.9485 166.894 93.1806 162.879C99.57 159.315 102.469 151.205 99.5368 144.959C99.3112 143.347 98.1103 142.358 97.2212 141.137C92.7227 134.965 85.1656 133.013 78.471 136.398C71.7764 139.783 69.003 146.758 71.2854 154.085V154.092Z" fill="#191919"/>
<path d="M187.283 142.225C190.866 147.694 190.296 153.328 187.038 158.465C183.78 163.602 178.413 165.62 172.315 164.836C167.007 164.173 161.699 159.162 160.299 153.74C160.2 152.2 160.604 150.979 162.23 150.421C163.042 150.088 163.712 149.48 164.121 148.703C169.197 140.327 176.986 138.661 185.26 142.424C186.122 142.796 186.699 143.479 187.283 142.225Z" fill="#FBC45F"/>
<path d="M187.283 142.225C186.699 143.479 186.122 142.796 185.293 142.404C177.019 138.641 169.23 140.307 164.154 148.683C163.745 149.46 163.076 150.068 162.263 150.402C160.638 150.979 160.233 152.2 160.332 153.72C158.11 146.121 161.275 139.039 168.248 135.98C175.394 132.854 183.156 135.389 187.283 142.225Z" fill="#FEEDCD"/>
<path d="M99.5235 144.979C102.436 151.198 99.5235 159.308 93.1673 162.899C85.9352 166.94 77.2435 164.976 72.964 158.286C72.1546 157.025 71.2257 155.744 71.2787 154.112C72.8512 148.643 76.8587 145.212 81.4301 142.418C85.8556 139.716 90.5332 140.008 95.2241 142.046C96.8696 142.736 97.6657 144.681 99.5235 144.979Z" fill="#FBC45F"/>
<path d="M99.5235 144.979C97.6525 144.648 96.8696 142.736 95.2241 142.019C90.5332 139.982 85.8556 139.69 81.4301 142.391C76.8587 145.185 72.8512 148.616 71.2787 154.085C69.0096 146.785 71.856 139.756 78.4577 136.418C85.0594 133.08 92.7095 134.984 97.2079 141.157C98.1103 142.378 99.3112 143.353 99.5235 144.979Z" fill="#FEEDCD"/>
</g>
<defs>
<clipPath id="clip0_101_135">
<rect width="259" height="368" fill="white"/>
</clipPath>
</defs>
</svg>
