<svg width="36" height="35" viewBox="0 0 36 35" fill="none" xmlns="http://www.w3.org/2000/svg">
<path fill-rule="evenodd" clip-rule="evenodd" d="M35.2707 18.88C34.9707 15.68 34.7507 12.51 34.5907 9.35999C34.4307 6.20999 34.3707 4.56999 34.2607 1.46999C32.8895 0.853582 31.4632 0.368095 30.0007 0.019989H4.79071C3.52071 0.429989 2.22071 0.889988 0.89071 1.40999C0.77071 3.31666 0.64071 5.23666 0.50071 7.16999C0.36071 9.10999 0.21071 11.07 0.0707101 13.06C0.0707101 13.29 0.0707108 13.53 0.0207108 13.76C-0.0292892 13.99 0.0207101 14 0.0707101 14.12C0.46071 16.61 0.72071 19.12 0.89071 21.63C1.06071 24.14 1.15071 26.69 1.20071 29.24C1.45071 30.12 1.72071 30.99 1.98071 31.86C3.05845 32.7846 4.28607 33.5184 5.61071 34.03C7.70909 33.7217 9.83372 33.6313 11.9507 33.76C13.8457 33.8804 15.7264 34.1682 17.5707 34.62C19.5707 34.47 21.5707 34.21 23.5707 34.02C25.5292 33.7959 27.4994 33.6891 29.4707 33.7C30.5907 33.51 31.7007 33.23 32.8907 33.12C32.9607 32.9 33.0307 32.72 33.0907 32.54C33.1507 32.36 33.1607 32.34 33.2007 32.25C33.4007 31.73 33.5907 31.25 33.9007 30.62L34.7107 27.94C34.7107 27.77 34.7107 27.6 34.7107 27.43C34.7072 24.8385 34.8743 22.2496 35.2107 19.68L35.2707 19.3C35.2907 19.15 35.2807 19.01 35.2707 18.88ZM28.4007 16.68C28.1112 16.6065 27.8272 16.5129 27.5507 16.4L28.4007 16.68Z" fill="#924000"/>
<path fill-rule="evenodd" clip-rule="evenodd" d="M34.4607 22.3C34.5507 24.18 34.6507 26.06 34.7407 27.94L33.9307 30.62C33.5376 31.4282 33.2034 32.2637 32.9307 33.12C31.7407 33.23 30.6307 33.51 29.5107 33.7C27.5394 33.6891 25.5692 33.7959 23.6107 34.02C21.6107 34.21 19.6107 34.47 17.6107 34.62C15.7664 34.1682 13.8857 33.8804 11.9907 33.76C9.87369 33.6313 7.74906 33.7217 5.65068 34.03C4.31334 33.5286 3.07198 32.8014 1.98068 31.88C1.72068 31.01 1.45068 30.14 1.20068 29.26C1.30068 26.95 1.40068 24.64 1.50068 22.35H34.5007L34.4607 22.3Z" fill="url(#paint0_linear_281_1531)"/>
<path fill-rule="evenodd" clip-rule="evenodd" d="M4.79068 0C3.52068 0.41 2.22068 0.869999 0.890678 1.39C0.770678 3.29667 0.640679 5.21666 0.500679 7.14999C0.360679 9.08999 0.210679 11.05 0.0706787 13.04C3.11236 14.3355 6.21997 15.4704 9.38068 16.44C12.555 17.4364 15.7836 18.251 19.0507 18.88C20.0757 19.0932 21.1433 18.9224 22.0507 18.4C23.5807 17.54 26.2107 16.81 26.8607 16.2C29.5107 17.08 33.0707 18.34 35.3007 18.89C35.0007 15.69 34.7807 12.52 34.6207 9.37C34.4607 6.22 34.4007 4.58 34.2907 1.48C32.9195 0.863592 31.4932 0.378105 30.0307 0.0299988H4.79068V0Z" fill="url(#paint1_radial_281_1531)"/>
<path fill-rule="evenodd" clip-rule="evenodd" d="M35.2507 19.68C32.6054 18.3794 29.7864 17.4667 26.8807 16.97C24.7815 17.4523 22.7614 18.2301 20.8807 19.28C23.0407 20.28 25.0207 21.28 26.9307 22.28C29.6912 23.7356 32.3093 25.4464 34.7507 27.39C34.7473 24.7985 34.9143 22.2096 35.2507 19.64V19.68Z" fill="url(#paint2_radial_281_1531)"/>
<path fill-rule="evenodd" clip-rule="evenodd" d="M34.6107 28.25C31.9945 25.9405 29.1304 23.9282 26.0707 22.25L25.5507 21.97C23.6729 20.9388 21.65 20.1971 19.5507 19.77C17.7407 19.4 15.9007 19.21 13.2807 18.6C11.3707 17.9 9.18071 17.16 6.91071 16.39C4.64071 15.62 2.31071 14.83 0.100708 14.05C0.490708 16.54 0.750708 19.05 0.920708 21.56C1.09071 24.07 1.18071 26.62 1.23071 29.17C2.35081 30.225 3.63832 31.0867 5.04071 31.72C7.18071 31.64 9.2907 31.63 11.3907 31.72C13.4907 31.81 15.5507 31.92 17.6107 32.13C19.704 31.9633 21.774 31.85 23.8207 31.79C25.8207 31.73 27.9107 31.72 29.9207 31.79C31.0907 31.59 32.2607 31.3 33.5207 31.18C33.8286 30.1836 34.1925 29.2054 34.6107 28.25Z" fill="url(#paint3_radial_281_1531)"/>
<path fill-rule="evenodd" clip-rule="evenodd" d="M19.0507 18.88C15.7842 18.2609 12.5557 17.4563 9.38071 16.47C6.22 15.5004 3.11239 14.3655 0.0707101 13.07C0.0707101 13.3 0.0707108 13.54 0.0207108 13.77C-0.0292892 14 0.0207101 14.01 0.0707101 14.13C2.28071 14.91 4.62071 15.7 6.88071 16.47C9.14071 17.24 11.3407 17.98 13.2507 18.68C15.8707 19.29 17.7107 19.48 19.5207 19.85C21.6201 20.2771 23.6429 21.0188 25.5207 22.05L26.0407 22.33C29.1004 24.0082 31.9646 26.0205 34.5807 28.33C34.618 28.2242 34.6614 28.1207 34.7107 28.02C34.7107 27.85 34.7107 27.68 34.7107 27.51C32.2692 25.5664 29.6511 23.8556 26.8907 22.4C24.9807 21.4 23.0007 20.4 20.8407 19.4C22.7214 18.3501 24.7415 17.5723 26.8407 17.09C29.7464 17.5867 32.5653 18.4994 35.2107 19.8L35.2707 19.42C35.2707 19.27 35.2707 19.13 35.2707 18.98C33.4907 18.54 30.8607 17.64 28.5207 16.85C27.5207 16.51 27.3507 16.66 26.8707 15.67C26.6207 15.17 26.4207 14.67 26.1807 14.1C25.5407 12.7 24.8907 11.32 24.2607 9.93C24.9207 11.72 25.7807 13.79 26.2607 15.69C26.3597 15.9758 26.4039 16.2778 26.3907 16.58C25.3907 17.12 23.3007 17.76 22.0107 18.49C21.1034 19.0124 20.0357 19.1832 19.0107 18.97L19.0507 18.88ZM19.9107 0.0299988C20.4107 1.03 20.9107 2.09 21.2107 2.68C22.1507 4.81 23.0407 6.98 23.9607 9.14C22.9607 7.14 22.0207 5.23 21.0407 3.3C20.5307 2.3 19.9707 1.14 19.4007 0.0299988H19.9107Z" fill="url(#paint4_linear_281_1531)"/>
<path style="mix-blend-mode:screen" fill-rule="evenodd" clip-rule="evenodd" d="M32.3007 32.48C31.2007 32.73 29.9907 32.76 28.8607 32.91C26.45 33.3911 23.999 33.6422 21.5407 33.66C19.4907 33.57 17.1507 32.96 15.1607 33C12.2707 33.08 9.39073 33.44 6.50073 33.58C6.21689 33.5996 5.93244 33.5516 5.67073 33.44C4.06569 32.4494 2.61656 31.2261 1.37073 29.81C1.57073 30.49 1.77073 31.16 1.98073 31.81C3.05473 32.7523 4.28257 33.5032 5.61073 34.03C7.70911 33.7217 9.83373 33.6312 11.9507 33.76C13.8458 33.8804 15.7264 34.1682 17.5707 34.62C19.5707 34.47 21.5707 34.21 23.5707 34.02C25.5293 33.7959 27.4994 33.689 29.4707 33.7C30.5907 33.51 31.7007 33.23 32.8907 33.12C33.0307 32.71 33.1407 32.4 33.2507 32.12C32.9536 32.3249 32.6097 32.4521 32.2507 32.49L32.3007 32.48Z" fill="url(#paint5_radial_281_1531)"/>
<path style="mix-blend-mode:screen" opacity="0.35" fill-rule="evenodd" clip-rule="evenodd" d="M35.2707 18.88C34.9707 15.68 34.7507 12.51 34.5907 9.35999C34.4307 6.20999 34.3707 4.56999 34.2607 1.46999C32.8895 0.853582 31.4632 0.368095 30.0007 0.019989H4.79071C3.52071 0.429989 2.22071 0.889988 0.89071 1.40999C0.77071 3.31666 0.64071 5.23666 0.50071 7.16999C0.36071 9.10999 0.21071 11.07 0.0707101 13.06C0.0707101 13.29 0.0707108 13.53 0.0207108 13.76C-0.0292892 13.99 0.0207101 14 0.0707101 14.12C0.46071 16.61 0.72071 19.12 0.89071 21.63C1.06071 24.14 1.15071 26.69 1.20071 29.24C1.45071 30.12 1.72071 30.99 1.98071 31.86C3.05845 32.7846 4.28607 33.5184 5.61071 34.03C7.70909 33.7217 9.83372 33.6313 11.9507 33.76C13.8457 33.8804 15.7264 34.1682 17.5707 34.62C19.5707 34.47 21.5707 34.21 23.5707 34.02C25.5292 33.7959 27.4994 33.6891 29.4707 33.7C30.5907 33.51 31.7007 33.23 32.8907 33.12C32.9607 32.9 33.0307 32.72 33.0907 32.54C33.1507 32.36 33.1607 32.34 33.2007 32.25C33.4007 31.73 33.5907 31.25 33.9007 30.62L34.7107 27.94C34.7107 27.77 34.7107 27.6 34.7107 27.43C34.7072 24.8385 34.8743 22.2496 35.2107 19.68L35.2707 19.3C35.2907 19.15 35.2807 19.01 35.2707 18.88ZM28.4007 16.68C28.1112 16.6065 27.8272 16.5129 27.5507 16.4L28.4007 16.68Z" fill="url(#paint6_radial_281_1531)"/>
<g style="mix-blend-mode:multiply" opacity="0.4">
<path fill-rule="evenodd" clip-rule="evenodd" d="M17.5507 19.82C17.6807 19.74 17.6407 19.63 17.5507 19.54C17.5129 19.4909 17.4583 19.4575 17.3973 19.4464C17.3363 19.4354 17.2734 19.4473 17.2207 19.48C17.1007 19.55 17.1207 19.64 17.2207 19.74C17.2556 19.7924 17.3089 19.8298 17.3701 19.8446C17.4312 19.8594 17.4958 19.8507 17.5507 19.82Z" fill="#3A1D0D"/>
</g>
<g style="mix-blend-mode:multiply" opacity="0.4">
<path fill-rule="evenodd" clip-rule="evenodd" d="M19.0107 18.93C19.1707 18.84 19.1307 18.71 19.0107 18.58C18.9635 18.5219 18.8964 18.4835 18.8223 18.4724C18.7483 18.4613 18.6729 18.4783 18.6107 18.52C18.4607 18.61 18.4907 18.71 18.6107 18.84C18.6518 18.9049 18.7171 18.9509 18.7921 18.9678C18.8671 18.9847 18.9457 18.9711 19.0107 18.93Z" fill="#3A1D0D"/>
</g>
<g style="mix-blend-mode:multiply" opacity="0.4">
<path fill-rule="evenodd" clip-rule="evenodd" d="M18.7907 19.55C18.7107 19.7 18.7907 19.89 19.0107 19.97C19.048 19.9909 19.0891 20.0042 19.1316 20.009C19.1741 20.0138 19.2171 20.01 19.2581 19.9979C19.2992 19.9858 19.3373 19.9656 19.3704 19.9385C19.4035 19.9113 19.4308 19.8779 19.4507 19.84C19.4696 19.754 19.4554 19.664 19.4109 19.588C19.3664 19.512 19.2949 19.4556 19.2107 19.43C19.1755 19.4091 19.1365 19.3955 19.0959 19.3903C19.0553 19.385 19.0141 19.3881 18.9748 19.3993C18.9354 19.4105 18.8988 19.4297 18.8672 19.4556C18.8355 19.4815 18.8095 19.5136 18.7907 19.55Z" fill="#3A1D0D"/>
</g>
<g style="mix-blend-mode:multiply" opacity="0.4">
<path fill-rule="evenodd" clip-rule="evenodd" d="M26.3807 5.58998C22.5507 3.37998 18.9207 2.50998 18.2607 3.63998L17.3407 5.22997C17.2992 5.31136 17.2721 5.39934 17.2607 5.48998C17.2558 5.51978 17.2558 5.55017 17.2607 5.57997C17.2557 5.64655 17.2557 5.7134 17.2607 5.77998C17.2566 5.82321 17.2566 5.86674 17.2607 5.90998C17.2607 5.90998 17.2607 5.97998 17.2607 6.01998L16.7607 6.87998C15.9 8.39578 15.6192 10.1726 15.9707 11.88C16.1345 12.7439 16.4314 13.5771 16.8507 14.35C18.8507 18.12 19.3707 17.24 15.1007 17.35C14.221 17.367 13.3499 17.5257 12.5207 17.82C10.8876 18.3692 9.50908 19.4919 8.64069 20.98L7.79069 22.44C7.6573 22.4632 7.53002 22.5133 7.41657 22.5873C7.30312 22.6612 7.20585 22.7574 7.13069 22.87L6.21069 24.47C6.1678 24.5472 6.14061 24.6322 6.13069 24.72C6.12584 24.7498 6.12584 24.7802 6.13069 24.81C6.12571 24.8765 6.12571 24.9434 6.13069 25.01C6.1259 25.0532 6.1259 25.0968 6.13069 25.14C6.14398 25.2117 6.16407 25.282 6.19069 25.35C6.1866 25.3932 6.1866 25.4367 6.19069 25.48C6.2213 25.5594 6.25807 25.6363 6.30069 25.71C6.30445 25.7399 6.30445 25.7701 6.30069 25.8C6.73792 26.5142 7.28457 27.1553 7.92069 27.7L8.03069 27.8L8.34069 28.07L8.57069 28.26L8.93069 28.55L9.16069 28.73L9.59069 29.05L9.79069 29.2L10.4707 29.66C10.9007 29.94 11.3507 30.22 11.8307 30.5C12.8213 31.0737 13.8504 31.5783 14.9107 32.01H15.0007C15.3507 32.15 15.6907 32.27 16.0007 32.38H16.1407C16.4707 32.49 16.7907 32.58 17.1407 32.65C17.5098 32.7337 17.8839 32.7938 18.2607 32.83H18.8807C19.0287 32.8219 19.1759 32.8018 19.3207 32.77H19.3807C19.4796 32.7445 19.574 32.704 19.6607 32.65L19.7307 32.6C19.8205 32.5452 19.8959 32.4698 19.9507 32.38L20.8707 30.78C20.9229 30.6566 20.9499 30.524 20.9499 30.39C20.9499 30.256 20.9229 30.1234 20.8707 30L21.7207 28.54C22.5693 27.0382 22.8497 25.2813 22.5107 23.59C22.3469 22.7261 22.05 21.8928 21.6307 21.12C19.6307 17.35 19.1107 18.23 23.3807 18.12C24.2599 18.098 25.1303 17.9395 25.9607 17.65C27.5948 17.0981 28.9757 15.9764 29.8507 14.49L30.3407 13.63H30.4107C30.5056 13.6022 30.5964 13.5618 30.6807 13.51H30.7607C30.8454 13.4522 30.9169 13.3772 30.9707 13.29L31.8907 11.69C32.7807 10.51 30.2007 7.79998 26.3807 5.58998ZM19.1907 16.84C19.1647 16.7442 19.1313 16.6505 19.0907 16.56C19.1164 16.665 19.1332 16.7721 19.1407 16.88L19.1907 16.84ZM19.0307 16.43C18.9462 16.2715 18.8527 16.1179 18.7507 15.97C18.8356 16.119 18.9124 16.2726 18.9807 16.43H19.0307ZM20.1707 17.52C20.097 17.545 20.0266 17.5786 19.9607 17.62C20.0107 17.5817 20.0643 17.5482 20.1207 17.52H20.1707ZM12.8607 18.5C13.6161 18.2322 14.4094 18.087 15.2107 18.07C15.9867 18.025 16.7647 18.025 17.5407 18.07C18.5907 18.16 19.1707 17.88 19.2407 17.33V17.38C19.2407 17.54 19.2407 17.82 19.3407 17.89C19.4407 17.96 19.6907 17.83 19.8207 17.72C19.3807 18.06 19.4307 18.72 20.0307 19.56C20.1807 19.78 20.3007 20 20.4307 20.22C20.7953 20.9277 21.1029 21.6634 21.3507 22.42C20.5407 21.36 19.0807 20.07 18.1507 20.12C16.4341 20.2329 14.7308 20.4972 13.0607 20.91C11.6916 21.2427 10.3732 21.7573 9.14069 22.44H8.73069L9.33069 21.44C10.0937 20.0687 11.3312 19.0232 12.8107 18.5H12.8607ZM28.8307 15.05C28.8993 14.9609 28.9378 14.8524 28.9407 14.74C28.9349 14.6495 28.9111 14.5611 28.8707 14.48V14.43C28.8149 14.338 28.7513 14.251 28.6807 14.17V14.12L28.3907 13.86C28.2587 13.7631 28.1218 13.673 27.9807 13.59H27.8907C27.735 13.4987 27.5748 13.4152 27.4107 13.34H27.3307C27.1617 13.2597 26.988 13.1896 26.8107 13.13H26.7307L26.1307 12.94H26.0007C25.7907 12.88 25.5807 12.83 25.3607 12.79C24.9152 12.7095 24.4634 12.6693 24.0107 12.67C21.5407 12.67 18.1907 14.01 18.1907 14.9C18.1913 15.0003 18.2227 15.0981 18.2807 15.18C18.0807 14.84 17.9007 14.48 17.7107 14.13C17.3264 13.4236 17.0564 12.6608 16.9107 11.87C16.5998 10.3529 16.8522 8.77447 17.6207 7.42998L17.8707 6.99998C18.2944 7.60563 18.7878 8.15942 19.3407 8.64997L19.4507 8.73998C19.5507 8.83998 19.6607 8.92998 19.7707 9.01998L19.9907 9.20998L20.3507 9.49998L20.5807 9.67998L21.0107 9.99998L21.2107 10.15L21.8907 10.61C22.3207 10.9 22.7707 11.18 23.2507 11.46C24.2413 12.0337 25.2704 12.5382 26.3307 12.97H26.4307C26.7707 13.11 27.1107 13.23 27.4307 13.34H27.5707C27.9007 13.45 28.2207 13.54 28.5707 13.61C28.9398 13.6937 29.3139 13.7539 29.6907 13.79H29.8407L29.5807 14.23C29.3398 14.5213 29.072 14.7891 28.7807 15.03L28.8307 15.05Z" fill="#3A1D0D"/>
</g>
<path fill-rule="evenodd" clip-rule="evenodd" d="M19.8107 28.71L18.8907 30.31C18.2407 31.44 14.6107 30.57 10.7807 28.31C6.9507 26.05 4.3807 23.39 5.0307 22.31L5.9507 20.71L19.8107 28.71Z" fill="url(#paint7_linear_281_1531)"/>
<path style="mix-blend-mode:multiply" opacity="0.5" fill-rule="evenodd" clip-rule="evenodd" d="M5.23075 23.64L6.15075 22.05C6.00758 21.8614 5.91421 21.6398 5.87926 21.4056C5.84431 21.1714 5.86889 20.9322 5.95075 20.71L5.03075 22.31C4.94882 22.5305 4.9242 22.7682 4.95918 23.0008C4.99416 23.2334 5.0876 23.4533 5.23075 23.64Z" fill="url(#paint8_linear_281_1531)"/>
<path style="mix-blend-mode:screen" fill-rule="evenodd" clip-rule="evenodd" d="M7.78072 23.95L6.86072 25.55C7.66254 26.2801 8.5183 26.9486 9.42072 27.55L10.3407 25.95C9.43362 25.3552 8.57735 24.6862 7.78072 23.95Z" fill="url(#paint9_linear_281_1531)"/>
<path style="mix-blend-mode:screen" opacity="0.5" fill-rule="evenodd" clip-rule="evenodd" d="M14.7807 28.28L13.8607 29.88C14.5817 30.1777 15.3238 30.4217 16.0807 30.61L17.0007 29.02C16.2451 28.8271 15.5034 28.5832 14.7807 28.29V28.28Z" fill="url(#paint10_linear_281_1531)"/>
<path style="mix-blend-mode:multiply" opacity="0.5" fill-rule="evenodd" clip-rule="evenodd" d="M18.1207 29.19L17.2007 30.79C18.0507 30.86 18.6607 30.71 18.8907 30.31L19.8107 28.71C19.5807 29.12 18.9707 29.26 18.1207 29.19Z" fill="url(#paint11_linear_281_1531)"/>
<g style="mix-blend-mode:screen">
<path fill-rule="evenodd" clip-rule="evenodd" d="M13.9807 22.73C17.7707 24.91 20.3107 27.61 19.6507 28.73C18.9907 29.85 15.3907 29.02 11.6007 26.83C7.81065 24.64 5.28065 21.95 5.93065 20.83C6.58065 19.71 10.2007 20.54 13.9807 22.73Z" fill="#E26F80"/>
</g>
<path fill-rule="evenodd" clip-rule="evenodd" d="M14.0707 22.66C17.8907 24.87 20.4707 27.58 19.8107 28.71C19.1507 29.84 15.5307 28.97 11.7007 26.71C7.87074 24.45 5.30074 21.79 5.95074 20.71C6.60074 19.63 10.2407 20.45 14.0707 22.66Z" fill="url(#paint12_radial_281_1531)"/>
<path fill-rule="evenodd" clip-rule="evenodd" d="M7.04072 21.16C7.00517 21.3322 7.00547 21.5098 7.0416 21.6819C7.07773 21.8539 7.14892 22.0167 7.25072 22.16C7.48684 22.483 7.74762 22.7873 8.03072 23.07C10.4962 25.3833 13.4637 27.0946 16.7007 28.07C17.0875 28.1749 17.4821 28.2485 17.8807 28.29C18.1338 28.3163 18.389 28.2678 18.6147 28.1505C18.8405 28.0332 19.0268 27.8522 19.1507 27.63L20.0607 26.06C20.8197 24.7122 21.0716 23.1373 20.7707 21.62C20.7707 21.46 20.7007 21.31 20.6707 21.16V21.03L7.07072 21.12L7.04072 21.16Z" fill="url(#paint13_radial_281_1531)"/>
<path style="mix-blend-mode:screen" fill-rule="evenodd" clip-rule="evenodd" d="M8.5507 22.54L19.0407 22.38C18.9322 23.8701 18.4395 25.3068 17.6107 26.55C17.3965 26.8052 17.107 26.9862 16.7837 27.067C16.4604 27.1478 16.1198 27.1244 15.8107 27C13.2688 26.432 10.8975 25.2703 8.8907 23.61C8.71897 23.4987 8.59439 23.328 8.54087 23.1305C8.48734 22.933 8.50865 22.7227 8.6007 22.54H8.5507Z" fill="url(#paint14_radial_281_1531)"/>
<path style="mix-blend-mode:screen" opacity="0.6" fill-rule="evenodd" clip-rule="evenodd" d="M9.45074 22.88L17.1407 22.46C17.0539 23.3523 16.6535 24.185 16.0107 24.81C15.2828 25.1526 14.4564 25.2236 13.6807 25.01C12.9681 24.8985 12.2633 24.7415 11.5707 24.54C10.5707 24.22 9.23074 23.54 9.45074 22.88Z" fill="url(#paint15_radial_281_1531)"/>
<path fill-rule="evenodd" clip-rule="evenodd" d="M20.6106 21C20.6379 21.0649 20.6519 21.1346 20.6519 21.205C20.6519 21.2754 20.6379 21.3451 20.6106 21.41C20.3406 22.62 18.6106 22.83 17.2906 22.71C15.2306 22.51 13.7006 23.62 11.6406 23.71C9.89062 23.77 7.02063 22.97 7.02063 21.27C7.03336 21.142 7.07398 21.0184 7.13963 20.9078C7.20529 20.7972 7.29437 20.7024 7.40063 20.63C8.74366 19.7307 10.2426 19.0897 11.8206 18.74C13.4907 18.3272 15.194 18.0629 16.9106 17.95C18.0906 17.89 20.1306 19.95 20.6006 21.01L20.6106 21Z" fill="url(#paint16_radial_281_1531)"/>
<path fill-rule="evenodd" clip-rule="evenodd" d="M17.4806 13.88C17.8174 14.2666 17.9928 14.7677 17.9706 15.28C17.9706 15.45 17.9706 15.72 18.0706 15.79C18.1706 15.86 18.4306 15.73 18.5506 15.62C18.9833 15.3425 19.5061 15.2423 20.0106 15.34C20.7867 15.385 21.5646 15.385 22.3406 15.34C23.1419 15.323 23.9353 15.1778 24.6906 14.91C25.7597 14.545 26.717 13.9114 27.4706 13.07L16.9106 12.88C17.0906 13.19 17.2806 13.5 17.4806 13.8V13.88Z" fill="url(#paint17_radial_281_1531)"/>
<path style="mix-blend-mode:screen" opacity="0.6" fill-rule="evenodd" clip-rule="evenodd" d="M14.5207 18.33C12.4338 18.6122 10.4071 19.2338 8.5207 20.17C6.8007 21.09 9.40069 21.6 10.0707 21.66C12.3307 21.86 11.8807 21.51 13.4407 20.17C13.6736 19.9399 13.9359 19.7415 14.2207 19.58C15.188 19.2681 16.21 19.1625 17.2207 19.27C17.4807 19.27 18.6307 19.32 18.1507 18.68C17.5107 17.82 15.3107 18.19 14.4907 18.33H14.5207Z" fill="url(#paint18_radial_281_1531)"/>
<path style="mix-blend-mode:screen" opacity="0.6" fill-rule="evenodd" clip-rule="evenodd" d="M14.0107 18.55C12.3968 18.7241 10.8298 19.199 9.39068 19.95C8.29068 20.7 9.70068 21.03 10.3907 21.04C11.7607 21.04 11.8207 20.65 12.7507 19.95C13.3894 19.5346 14.0579 19.167 14.7507 18.85C15.1107 18.64 14.7507 18.55 14.5507 18.54C14.3813 18.52 14.2101 18.52 14.0407 18.54L14.0107 18.55Z" fill="url(#paint19_radial_281_1531)"/>
<path style="mix-blend-mode:screen" opacity="0.5" fill-rule="evenodd" clip-rule="evenodd" d="M13.4708 23.31C13.8308 23.22 14.1808 23.08 14.5408 22.97C15.2334 22.7008 15.9678 22.5552 16.7107 22.54C17.1207 22.54 17.7708 22.69 17.8308 22.39C17.8908 22.09 17.1507 21.39 16.4307 20.97C16.0615 20.68 15.5971 20.5387 15.1289 20.5739C14.6607 20.609 14.2226 20.8181 13.9008 21.16C13.5231 21.4872 13.208 21.8802 12.9708 22.32C12.4808 23.2 12.3208 23.59 13.4708 23.32V23.31Z" fill="url(#paint20_radial_281_1531)"/>
<path style="mix-blend-mode:screen" opacity="0.3" fill-rule="evenodd" clip-rule="evenodd" d="M14.5107 20.88C14.0769 21.1198 13.7093 21.4634 13.4407 21.88C12.6007 23.1 13.9107 22.88 14.7207 22.63C14.9352 22.5841 15.1332 22.4808 15.2934 22.331C15.4537 22.1813 15.5703 21.9908 15.6307 21.78C15.7507 21.02 15.2107 20.52 14.5107 20.91V20.88Z" fill="url(#paint21_radial_281_1531)"/>
<path style="mix-blend-mode:multiply" opacity="0.5" fill-rule="evenodd" clip-rule="evenodd" d="M18.0707 19.94C17.7839 19.9865 17.5222 20.1315 17.3307 20.35C16.7607 21.35 19.5807 22.85 20.2507 21.58C20.3043 21.4686 20.327 21.3449 20.3165 21.2218C20.3059 21.0986 20.2625 20.9806 20.1907 20.88C20.0391 20.615 19.839 20.3809 19.6007 20.19C19.3973 20.0045 19.1445 19.8822 18.8728 19.8378C18.6012 19.7934 18.3225 19.8289 18.0707 19.94Z" fill="url(#paint22_radial_281_1531)"/>
<path style="mix-blend-mode:screen" fill-rule="evenodd" clip-rule="evenodd" d="M17.3507 13.19L24.7007 13.5C24.1235 14.0213 23.4467 14.4203 22.7111 14.6729C21.9755 14.9256 21.1964 15.0266 20.4207 14.97C19.8975 14.9909 19.375 14.9129 18.8807 14.74C18.1905 14.4391 17.6426 13.884 17.3507 13.19Z" fill="url(#paint23_radial_281_1531)"/>
<path fill-rule="evenodd" clip-rule="evenodd" d="M22.6107 10.35C25.0807 10.35 27.6107 11.69 27.6107 12.58C27.6107 13.47 25.1807 14.19 22.1707 14.19C19.1607 14.19 16.7407 13.47 16.7407 12.58C16.7407 11.69 20.0907 10.35 22.5707 10.35H22.6107Z" fill="url(#paint24_radial_281_1531)"/>
<path style="mix-blend-mode:screen" fill-rule="evenodd" clip-rule="evenodd" d="M22.8007 10.47C21.4249 10.4821 20.0652 10.7677 18.8007 11.31C16.9207 12.17 17.8007 12.76 19.4307 12.94C20.6307 13.07 24.5507 13.53 24.9407 11.81C25.0807 11.15 23.5407 10.53 22.7707 10.47H22.8007Z" fill="url(#paint25_radial_281_1531)"/>
<path style="mix-blend-mode:screen" fill-rule="evenodd" clip-rule="evenodd" d="M18.9206 11.39C18.0706 11.85 18.7006 12.07 19.4906 12.18C20.6506 12.33 22.0806 12.48 22.7406 11.29C22.8606 11.06 22.8506 10.9 22.7406 10.79C22.6306 10.68 22.1606 10.57 21.8906 10.59C20.8548 10.697 19.8423 10.967 18.8906 11.39H18.9206Z" fill="url(#paint26_radial_281_1531)"/>
<path style="mix-blend-mode:multiply" opacity="0.5" fill-rule="evenodd" clip-rule="evenodd" d="M26.3207 11.56C27.3207 12.5 26.4707 13.19 25.4807 13.56C23.973 13.9776 22.4151 14.1862 20.8507 14.18C21.2907 14.18 21.7607 14.23 22.2307 14.23C25.2307 14.23 27.6707 13.51 27.6707 12.62C27.6707 11.89 25.9407 10.86 23.9607 10.51C24.8214 10.6849 25.6295 11.0582 26.3207 11.6V11.56Z" fill="url(#paint27_radial_281_1531)"/>
<path fill-rule="evenodd" clip-rule="evenodd" d="M19.7806 15.27C22.5606 15.89 25.3506 15.39 27.0606 13.44C24.3106 15.59 19.7806 15.27 19.7806 15.27Z" fill="white"/>
<path fill-rule="evenodd" clip-rule="evenodd" d="M19.0807 17.81C19.9981 18.723 20.631 19.8826 20.9026 21.1482C21.1741 22.4137 21.0727 23.7309 20.6107 24.94C21.2607 21.6 19.0807 17.81 19.0807 17.81Z" fill="white"/>
<path opacity="0.75" fill-rule="evenodd" clip-rule="evenodd" d="M14.6107 26.13C14.7507 26.2 14.8507 26.34 14.8007 26.46C14.7861 26.4925 14.7647 26.5215 14.738 26.5451C14.7113 26.5687 14.6798 26.5863 14.6457 26.5967C14.6116 26.6071 14.5757 26.6101 14.5403 26.6055C14.505 26.6009 14.471 26.5888 14.4407 26.57C14.3007 26.51 14.2007 26.35 14.2707 26.23C14.2853 26.2 14.306 26.1734 14.3315 26.1519C14.357 26.1304 14.3867 26.1144 14.4187 26.105C14.4507 26.0956 14.4843 26.093 14.5173 26.0973C14.5504 26.1016 14.5822 26.1127 14.6107 26.13Z" fill="#F9B233"/>
<path opacity="0.75" fill-rule="evenodd" clip-rule="evenodd" d="M16.2407 19.88C16.2407 19.96 16.2407 20.02 16.3707 20.06C16.5007 20.1 16.5407 20.06 16.5507 19.99C16.5607 19.92 16.5507 19.84 16.4007 19.81C16.2507 19.78 16.2507 19.81 16.2407 19.88Z" fill="#F9B233"/>
<path opacity="0.75" fill-rule="evenodd" clip-rule="evenodd" d="M16.2507 21.28C16.2953 21.2378 16.3543 21.2143 16.4157 21.2143C16.4771 21.2143 16.5361 21.2378 16.5807 21.28C16.6707 21.38 16.7107 21.48 16.5807 21.56C16.526 21.5946 16.46 21.6067 16.3966 21.5936C16.3332 21.5805 16.2773 21.5434 16.2407 21.49C16.1507 21.38 16.1307 21.3 16.2407 21.23L16.2507 21.28Z" fill="#F9B233"/>
<path fill-rule="evenodd" clip-rule="evenodd" d="M16.0007 17.34C16.0534 17.3073 16.1163 17.2953 16.1773 17.3064C16.2383 17.3175 16.2929 17.3509 16.3307 17.4C16.4207 17.49 16.4607 17.6 16.3307 17.68C16.2748 17.7137 16.208 17.7242 16.1444 17.7092C16.0809 17.6943 16.0257 17.6551 15.9907 17.6C15.9007 17.5 15.8807 17.41 15.9907 17.34H16.0007Z" fill="#F9B233"/>
<path fill-rule="evenodd" clip-rule="evenodd" d="M17.3907 16.38C17.4533 16.337 17.5302 16.3202 17.605 16.3333C17.6798 16.3464 17.7465 16.3883 17.7907 16.45C17.9107 16.57 17.9507 16.7 17.7907 16.79C17.7226 16.8321 17.6409 16.8463 17.5626 16.8295C17.4843 16.8127 17.4155 16.7663 17.3707 16.7C17.2607 16.57 17.2307 16.47 17.3707 16.38H17.3907Z" fill="#C94300"/>
<path opacity="0.75" fill-rule="evenodd" clip-rule="evenodd" d="M12.2807 22.88C12.2655 22.8659 12.2535 22.8489 12.2452 22.83C12.2369 22.8111 12.2327 22.7906 12.2327 22.77C12.2327 22.7493 12.2369 22.7289 12.2452 22.71C12.2535 22.691 12.2655 22.674 12.2807 22.66C12.2807 22.59 12.4607 22.66 12.5207 22.66C12.5502 22.693 12.5665 22.7357 12.5665 22.78C12.5665 22.8243 12.5502 22.867 12.5207 22.9C12.4607 22.9 12.3907 22.9 12.3107 22.85L12.2807 22.88Z" fill="#F9B233"/>
<path opacity="0.4" fill-rule="evenodd" clip-rule="evenodd" d="M10.9006 24.47C10.923 24.4418 10.9506 24.4182 10.9821 24.4007C11.0135 24.3831 11.0481 24.3719 11.0838 24.3678C11.1196 24.3636 11.1558 24.3665 11.1904 24.3763C11.2251 24.3861 11.2574 24.4027 11.2857 24.425C11.3139 24.4473 11.3374 24.475 11.355 24.5064C11.3725 24.5378 11.3837 24.5724 11.3879 24.6082C11.3921 24.6439 11.3892 24.6801 11.3793 24.7148C11.3695 24.7494 11.353 24.7818 11.3306 24.81C11.2648 24.8565 11.1862 24.8814 11.1056 24.8814C11.0251 24.8814 10.9465 24.8565 10.8806 24.81C10.7306 24.74 10.8006 24.54 10.8806 24.42L10.9006 24.47Z" fill="#F9B233"/>
<path opacity="0.75" fill-rule="evenodd" clip-rule="evenodd" d="M18.0307 26.88C18.2107 26.88 18.2907 26.79 18.2907 26.65C18.2957 26.6147 18.2924 26.5787 18.2811 26.5449C18.2698 26.5111 18.2508 26.4803 18.2256 26.4551C18.2004 26.4299 18.1697 26.4109 18.1358 26.3996C18.102 26.3883 18.066 26.385 18.0307 26.39C17.8307 26.39 17.7607 26.5 17.7707 26.64C17.7807 26.78 17.8407 26.88 18.0307 26.88Z" fill="#F9B233"/>
<path opacity="0.4" fill-rule="evenodd" clip-rule="evenodd" d="M15.9307 27.01C15.9602 27.0145 15.9904 27.0124 16.019 27.0037C16.0476 26.9951 16.0739 26.9801 16.0959 26.96C16.118 26.9398 16.1352 26.915 16.1465 26.8873C16.1577 26.8596 16.1625 26.8298 16.1607 26.8C16.162 26.7698 16.1574 26.7396 16.1471 26.7112C16.1367 26.6827 16.1209 26.6566 16.1005 26.6344C16.08 26.6121 16.0554 26.594 16.028 26.5813C16.0006 26.5685 15.9709 26.5613 15.9407 26.56C15.9109 26.5599 15.8815 26.5659 15.8541 26.5776C15.8268 26.5893 15.802 26.6064 15.7815 26.6279C15.7609 26.6494 15.7449 26.6749 15.7345 26.7027C15.724 26.7306 15.7193 26.7603 15.7207 26.79C15.7206 26.8466 15.7424 26.9011 15.7815 26.9421C15.8207 26.9831 15.8741 27.0074 15.9307 27.01Z" fill="#F9B233"/>
<path opacity="0.75" fill-rule="evenodd" clip-rule="evenodd" d="M18.1507 25.64C18.1897 25.6773 18.2417 25.6981 18.2957 25.6981C18.3497 25.6981 18.4016 25.6773 18.4407 25.64C18.4548 25.6158 18.464 25.589 18.4676 25.5612C18.4713 25.5334 18.4693 25.5052 18.4619 25.4781C18.4544 25.4511 18.4416 25.4258 18.4242 25.4038C18.4068 25.3818 18.3852 25.3635 18.3607 25.35C18.3383 25.3341 18.3128 25.3233 18.2859 25.3182C18.2589 25.3131 18.2312 25.3139 18.2046 25.3206C18.178 25.3272 18.1531 25.3396 18.1317 25.3567C18.1104 25.3739 18.0929 25.3955 18.0807 25.42C18.0549 25.4653 18.0478 25.5188 18.0608 25.5692C18.0739 25.6196 18.1061 25.663 18.1507 25.69V25.64Z" fill="#F9B233"/>
<path opacity="0.4" fill-rule="evenodd" clip-rule="evenodd" d="M13.2806 25.32C13.3076 25.3401 13.3385 25.3544 13.3714 25.3618C13.4042 25.3692 13.4382 25.3696 13.4712 25.363C13.5042 25.3564 13.5355 25.3429 13.563 25.3234C13.5904 25.304 13.6135 25.2789 13.6306 25.25C13.6491 25.2211 13.6617 25.1889 13.6677 25.1552C13.6737 25.1214 13.6729 25.0868 13.6655 25.0533C13.6581 25.0199 13.6441 24.9882 13.6244 24.9602C13.6047 24.9322 13.5796 24.9083 13.5506 24.89C13.5221 24.8727 13.4903 24.8616 13.4572 24.8573C13.4242 24.853 13.3906 24.8556 13.3586 24.865C13.3266 24.8744 13.2969 24.8904 13.2714 24.9119C13.246 24.9334 13.2253 24.96 13.2106 24.99C13.179 25.0438 13.1686 25.1075 13.1816 25.1686C13.1945 25.2296 13.2299 25.2837 13.2806 25.32Z" fill="#F9B233"/>
<path opacity="0.75" fill-rule="evenodd" clip-rule="evenodd" d="M15.3407 20.81C15.4707 20.81 15.6207 20.74 15.6007 20.61C15.59 20.5496 15.5597 20.4943 15.5146 20.4528C15.4694 20.4112 15.4118 20.3856 15.3507 20.38C15.3192 20.3787 15.2877 20.3836 15.2581 20.3944C15.2284 20.4052 15.2012 20.4218 15.178 20.4432C15.1548 20.4645 15.136 20.4903 15.1227 20.5189C15.1095 20.5475 15.102 20.5785 15.1007 20.61C15.1032 20.6389 15.1114 20.6671 15.1249 20.6928C15.1383 20.7186 15.1567 20.7414 15.179 20.76C15.2014 20.7786 15.2271 20.7926 15.2549 20.8012C15.2826 20.8097 15.3118 20.8127 15.3407 20.81Z" fill="#F9B233"/>
<path opacity="0.75" fill-rule="evenodd" clip-rule="evenodd" d="M16.8807 27.99C16.909 27.9927 16.9377 27.9897 16.9649 27.981C16.992 27.9723 17.0171 27.9581 17.0387 27.9394C17.0602 27.9207 17.0777 27.8978 17.09 27.8721C17.1024 27.8464 17.1094 27.8185 17.1107 27.79C17.1107 27.7602 17.1047 27.7308 17.093 27.7034C17.0813 27.6761 17.0642 27.6513 17.0427 27.6308C17.0212 27.6102 16.9958 27.5942 16.9679 27.5838C16.9401 27.5733 16.9104 27.5686 16.8807 27.57C16.8531 27.57 16.8258 27.5754 16.8003 27.586C16.7748 27.5965 16.7517 27.612 16.7322 27.6315C16.7127 27.651 16.6972 27.6742 16.6866 27.6996C16.6761 27.7251 16.6707 27.7524 16.6707 27.78C16.6707 27.8076 16.6761 27.8349 16.6866 27.8604C16.6972 27.8858 16.7127 27.909 16.7322 27.9285C16.7517 27.948 16.7748 27.9634 16.8003 27.974C16.8258 27.9846 16.8531 27.99 16.8807 27.99Z" fill="#F9B233"/>
<path opacity="0.75" fill-rule="evenodd" clip-rule="evenodd" d="M14.8307 24.69C14.8419 24.6772 14.8558 24.667 14.8713 24.66C14.8868 24.653 14.9037 24.6494 14.9207 24.6494C14.9377 24.6494 14.9545 24.653 14.9701 24.66C14.9856 24.667 14.9994 24.6772 15.0107 24.69C15.0346 24.7159 15.0478 24.7498 15.0478 24.785C15.0478 24.8202 15.0346 24.8541 15.0107 24.88C14.9848 24.9039 14.9509 24.9172 14.9157 24.9172C14.8805 24.9172 14.8465 24.9039 14.8207 24.88C14.8207 24.83 14.8207 24.78 14.8207 24.72L14.8307 24.69Z" fill="#F9B233"/>
<path opacity="0.75" fill-rule="evenodd" clip-rule="evenodd" d="M15.7207 25.35C15.7112 25.3749 15.7067 25.4015 15.7076 25.4282C15.7085 25.4548 15.7147 25.4811 15.7259 25.5053C15.7371 25.5295 15.753 25.5513 15.7727 25.5692C15.7925 25.5872 15.8156 25.6011 15.8407 25.61C15.8964 25.6221 15.9545 25.6123 16.003 25.5824C16.0515 25.5526 16.0865 25.5051 16.1007 25.45C16.1098 25.4237 16.1131 25.3958 16.1102 25.3681C16.1074 25.3405 16.0985 25.3138 16.0842 25.2899C16.0699 25.2661 16.0505 25.2457 16.0274 25.2301C16.0044 25.2146 15.9782 25.2043 15.9507 25.2C15.9257 25.1942 15.8998 25.1934 15.8746 25.1979C15.8493 25.2023 15.8252 25.2118 15.8037 25.2259C15.7822 25.2399 15.7638 25.2581 15.7495 25.2794C15.7352 25.3008 15.7255 25.3248 15.7207 25.35Z" fill="#F9B233"/>
<path opacity="0.4" fill-rule="evenodd" clip-rule="evenodd" d="M16.6107 25.07C16.5982 25.1007 16.5926 25.1337 16.5941 25.1668C16.5956 25.1999 16.6043 25.2323 16.6195 25.2617C16.6347 25.2912 16.6561 25.317 16.6822 25.3374C16.7082 25.3578 16.7384 25.3723 16.7707 25.38C16.837 25.3984 16.9079 25.3899 16.9679 25.3561C17.0278 25.3224 17.072 25.2662 17.0907 25.2C17.1005 25.139 17.0874 25.0765 17.0539 25.0245C17.0204 24.9726 16.9689 24.9349 16.9092 24.9188C16.8496 24.9026 16.786 24.9091 16.7309 24.937C16.6758 24.965 16.6329 25.0123 16.6107 25.07Z" fill="#F9B233"/>
<path opacity="0.75" fill-rule="evenodd" clip-rule="evenodd" d="M11.7307 25.69C11.7457 25.7087 11.7647 25.7239 11.7864 25.7343C11.808 25.7447 11.8317 25.7501 11.8557 25.7501C11.8797 25.7501 11.9034 25.7447 11.9251 25.7343C11.9467 25.7239 11.9657 25.7087 11.9807 25.69C11.9971 25.6715 12.009 25.6495 12.0154 25.6256C12.0218 25.6018 12.0226 25.5768 12.0178 25.5526C12.013 25.5284 12.0026 25.5056 11.9875 25.4861C11.9724 25.4665 11.9529 25.4508 11.9307 25.44C11.8207 25.35 11.7307 25.38 11.6807 25.44C11.6307 25.5 11.6207 25.61 11.7307 25.68V25.69Z" fill="#F9B233"/>
<path opacity="0.75" fill-rule="evenodd" clip-rule="evenodd" d="M17.6607 24.22C17.6242 24.2163 17.5888 24.2053 17.5567 24.1875C17.5246 24.1698 17.4964 24.1456 17.474 24.1166C17.4515 24.0876 17.4352 24.0543 17.426 24.0188C17.4169 23.9833 17.415 23.9463 17.4207 23.91C17.4375 23.8336 17.4835 23.7668 17.5489 23.7238C17.6143 23.6809 17.6939 23.6651 17.7707 23.68C17.8087 23.6859 17.8452 23.6996 17.8777 23.7202C17.9103 23.7408 17.9382 23.7679 17.9598 23.7998C17.9814 23.8317 17.9962 23.8678 18.0032 23.9056C18.0102 23.9435 18.0094 23.9825 18.0007 24.02C17.9818 24.0914 17.9356 24.1526 17.8719 24.19C17.8082 24.2275 17.7323 24.2383 17.6607 24.22Z" fill="#F9B233"/>
<path opacity="0.75" fill-rule="evenodd" clip-rule="evenodd" d="M9.39073 24.12C9.50073 24.19 9.58073 24.18 9.64073 24.12C9.65966 24.104 9.67489 24.0841 9.68533 24.0617C9.69577 24.0392 9.70118 24.0147 9.70118 23.99C9.70118 23.9652 9.69577 23.9407 9.68533 23.9183C9.67489 23.8958 9.65966 23.8759 9.64073 23.86C9.62338 23.839 9.6015 23.8222 9.57673 23.8109C9.55196 23.7996 9.52496 23.7941 9.49774 23.7948C9.47053 23.7954 9.44382 23.8022 9.41962 23.8147C9.39542 23.8271 9.37436 23.8449 9.35803 23.8667C9.34169 23.8885 9.33051 23.9137 9.32532 23.9404C9.32013 23.9671 9.32107 23.9947 9.32807 24.021C9.33507 24.0473 9.34794 24.0717 9.36572 24.0923C9.38351 24.1129 9.40573 24.1292 9.43073 24.14L9.39073 24.12Z" fill="#F9B233"/>
<path opacity="0.4" fill-rule="evenodd" clip-rule="evenodd" d="M14.3907 19.43C14.5407 19.5 14.6307 19.63 14.5807 19.76C14.565 19.7915 14.543 19.8194 14.5161 19.8421C14.4892 19.8648 14.458 19.8818 14.4243 19.8921C14.3906 19.9024 14.3552 19.9057 14.3203 19.9019C14.2853 19.8981 14.2514 19.8873 14.2207 19.87C14.0807 19.81 13.9807 19.65 14.0507 19.53C14.0654 19.5 14.0861 19.4735 14.1116 19.4519C14.137 19.4304 14.1667 19.4145 14.1987 19.405C14.2307 19.3956 14.2643 19.393 14.2973 19.3973C14.3304 19.4016 14.3622 19.4127 14.3907 19.43Z" fill="#F9B233"/>
<path opacity="0.75" fill-rule="evenodd" clip-rule="evenodd" d="M19.3407 23C19.3631 22.9724 19.3906 22.9495 19.4218 22.9326C19.453 22.9156 19.4872 22.905 19.5225 22.9013C19.5577 22.8976 19.5934 22.9009 19.6274 22.9109C19.6615 22.921 19.6932 22.9377 19.7207 22.96C19.7483 22.9823 19.7712 23.0099 19.7882 23.041C19.8051 23.0722 19.8157 23.1064 19.8194 23.1417C19.8232 23.177 19.8199 23.2127 19.8098 23.2467C19.7997 23.2807 19.7831 23.3124 19.7607 23.34C19.7038 23.3963 19.6301 23.4325 19.5507 23.4433C19.4714 23.4542 19.3907 23.439 19.3207 23.4C19.1607 23.33 19.2307 23.13 19.3207 23H19.3407Z" fill="#F9B233"/>
<path opacity="0.75" fill-rule="evenodd" clip-rule="evenodd" d="M13.5306 20.95C13.6806 21.02 13.7806 21.15 13.7306 21.28C13.6968 21.3416 13.6402 21.3875 13.573 21.4081C13.5058 21.4286 13.4332 21.4221 13.3706 21.39C13.3364 21.3797 13.3044 21.3627 13.2768 21.34C13.2491 21.3173 13.2262 21.2893 13.2095 21.2577C13.1927 21.226 13.1824 21.1914 13.1792 21.1557C13.176 21.1201 13.1799 21.0841 13.1906 21.05C13.2053 21.02 13.226 20.9934 13.2515 20.9719C13.2769 20.9504 13.3066 20.9344 13.3386 20.925C13.3706 20.9156 13.4042 20.913 13.4373 20.9173C13.4703 20.9216 13.5021 20.9327 13.5306 20.95Z" fill="#F9B233"/>
<path fill-rule="evenodd" clip-rule="evenodd" d="M18.0007 17.29C18.0844 17.3156 18.1551 17.3725 18.1979 17.4488C18.2408 17.5252 18.2525 17.6152 18.2307 17.7C18.2108 17.7379 18.1835 17.7713 18.1504 17.7984C18.1173 17.8256 18.0791 17.8458 18.0381 17.8579C17.9971 17.87 17.9541 17.8738 17.9116 17.869C17.8691 17.8642 17.828 17.8509 17.7907 17.83C17.6107 17.75 17.4907 17.56 17.5707 17.41C17.5905 17.3733 17.6174 17.341 17.65 17.315C17.6826 17.289 17.72 17.2698 17.7602 17.2586C17.8003 17.2474 17.8423 17.2444 17.8836 17.2498C17.9249 17.2552 17.9647 17.2689 18.0007 17.29Z" fill="#F99900"/>
<path opacity="0.75" fill-rule="evenodd" clip-rule="evenodd" d="M19.6107 24.68C19.6219 24.6672 19.6358 24.657 19.6513 24.65C19.6668 24.643 19.6836 24.6394 19.7007 24.6394C19.7177 24.6394 19.7345 24.643 19.75 24.65C19.7655 24.657 19.7794 24.6672 19.7907 24.68C19.7907 24.68 19.7907 24.83 19.7907 24.87C19.7665 24.8932 19.7342 24.9062 19.7007 24.9062C19.6671 24.9062 19.6349 24.8932 19.6107 24.87C19.5928 24.8472 19.5831 24.819 19.5831 24.79C19.5831 24.761 19.5928 24.7329 19.6107 24.71V24.68Z" fill="#F9B233"/>
<path opacity="0.75" fill-rule="evenodd" clip-rule="evenodd" d="M15.7607 18.79C15.7607 18.87 15.7607 18.93 15.9007 18.97C16.0407 19.01 16.0707 18.97 16.0807 18.9C16.0907 18.83 16.0207 18.75 15.9307 18.72C15.8407 18.69 15.7707 18.72 15.7607 18.79Z" fill="#F9B233"/>
<path opacity="0.4" fill-rule="evenodd" clip-rule="evenodd" d="M17.3207 19.54C17.3168 19.5819 17.3276 19.6238 17.3514 19.6585C17.3751 19.6932 17.4103 19.7185 17.4507 19.73C17.5407 19.73 17.6207 19.73 17.6407 19.66C17.6607 19.59 17.5807 19.51 17.4807 19.48C17.3807 19.45 17.3307 19.48 17.3207 19.54Z" fill="#F9B233"/>
<path fill-rule="evenodd" clip-rule="evenodd" d="M21.6106 12.09C21.6674 12.0928 21.723 12.0735 21.7659 12.0363C21.8087 11.999 21.8355 11.9466 21.8406 11.89C21.8381 11.8307 21.8127 11.7748 21.7698 11.7338C21.727 11.6928 21.6699 11.6699 21.6106 11.67C21.5814 11.6686 21.5521 11.6733 21.5248 11.6838C21.4974 11.6944 21.4726 11.7105 21.4519 11.7312C21.4312 11.752 21.415 11.7768 21.4045 11.8041C21.3939 11.8315 21.3892 11.8607 21.3906 11.89C21.3956 11.9448 21.421 11.9957 21.4617 12.0328C21.5025 12.0698 21.5556 12.0902 21.6106 12.09Z" fill="#FFC82C"/>
<path fill-rule="evenodd" clip-rule="evenodd" d="M22.0007 13.37C22.0148 13.3549 22.0318 13.3428 22.0507 13.3345C22.0696 13.3263 22.0901 13.322 22.1107 13.322C22.1314 13.322 22.1518 13.3263 22.1707 13.3345C22.1897 13.3428 22.2067 13.3549 22.2207 13.37C22.2807 13.43 22.2207 13.56 22.2207 13.61C22.1884 13.6368 22.1477 13.6515 22.1057 13.6515C22.0637 13.6515 22.023 13.6368 21.9907 13.61C21.9907 13.54 21.9907 13.47 21.9907 13.4L22.0007 13.37Z" fill="#FFC82C"/>
<path fill-rule="evenodd" clip-rule="evenodd" d="M25.9007 11.88C26.0107 11.88 26.0707 11.82 26.0707 11.73C26.0741 11.7069 26.072 11.6833 26.0646 11.6612C26.0573 11.639 26.0449 11.6189 26.0284 11.6024C26.0118 11.5859 25.9917 11.5734 25.9696 11.5661C25.9474 11.5587 25.9238 11.5566 25.9007 11.56C25.7707 11.56 25.7207 11.63 25.7307 11.72C25.7407 11.81 25.7307 11.88 25.9007 11.88Z" fill="#FFC82C"/>
<path opacity="0.5" fill-rule="evenodd" clip-rule="evenodd" d="M19.7107 11.41C19.691 11.3868 19.6665 11.3682 19.6389 11.3554C19.6112 11.3426 19.5812 11.336 19.5507 11.336C19.5203 11.336 19.4902 11.3426 19.4626 11.3554C19.4349 11.3682 19.4104 11.3868 19.3907 11.41C19.364 11.428 19.3412 11.4512 19.3236 11.4782C19.3061 11.5052 19.2942 11.5355 19.2886 11.5673C19.283 11.599 19.2838 11.6315 19.2911 11.6629C19.2983 11.6943 19.3118 11.7239 19.3307 11.75C19.3769 11.7929 19.4377 11.8167 19.5007 11.8167C19.5638 11.8167 19.6245 11.7929 19.6707 11.75C19.7094 11.7076 19.7308 11.6523 19.7308 11.595C19.7308 11.5376 19.7094 11.4823 19.6707 11.44L19.7107 11.41Z" fill="#FFC82C"/>
<path opacity="0.5" fill-rule="evenodd" clip-rule="evenodd" d="M17.1607 12.64C17.1535 12.6755 17.1535 12.7121 17.1607 12.7476C17.1679 12.7831 17.1822 12.8168 17.2028 12.8466C17.2233 12.8765 17.2496 12.9019 17.2802 12.9214C17.3108 12.9409 17.3449 12.954 17.3807 12.96C17.4571 12.9657 17.5329 12.942 17.5924 12.8937C17.6519 12.8453 17.6907 12.776 17.7007 12.7C17.7048 12.6632 17.7016 12.6259 17.6913 12.5903C17.6809 12.5548 17.6636 12.5216 17.6404 12.4928C17.6171 12.4639 17.5884 12.44 17.5558 12.4224C17.5233 12.4047 17.4875 12.3937 17.4507 12.39C17.4149 12.3858 17.3787 12.3891 17.3443 12.3996C17.3099 12.4102 17.278 12.4278 17.2508 12.4513C17.2235 12.4748 17.2014 12.5037 17.1859 12.5362C17.1704 12.5686 17.1618 12.604 17.1607 12.64Z" fill="#FFC82C"/>
<path opacity="0.5" fill-rule="evenodd" clip-rule="evenodd" d="M18.6107 13.34C18.6107 13.47 18.6707 13.5 18.7707 13.51C18.8707 13.52 18.9307 13.51 18.9807 13.38C18.9903 13.3528 18.9933 13.3237 18.9893 13.2952C18.9853 13.2666 18.9746 13.2395 18.9579 13.2159C18.9412 13.1924 18.9192 13.1733 18.8936 13.16C18.868 13.1468 18.8395 13.1399 18.8107 13.14C18.7585 13.1424 18.709 13.1643 18.672 13.2013C18.635 13.2383 18.6132 13.2877 18.6107 13.34Z" fill="#FFC82C"/>
<path opacity="0.5" fill-rule="evenodd" clip-rule="evenodd" d="M19.6107 14.22C19.6453 14.194 19.6874 14.18 19.7307 14.18C19.774 14.18 19.8161 14.194 19.8507 14.22C19.9207 14.29 19.9207 14.38 19.8507 14.42C19.8101 14.4403 19.7636 14.4454 19.7196 14.4344C19.6756 14.4234 19.637 14.397 19.6107 14.36C19.5407 14.29 19.5507 14.22 19.6107 14.18V14.22Z" fill="#FFC82C"/>
<path opacity="0.5" fill-rule="evenodd" clip-rule="evenodd" d="M19.8006 12.81C19.8483 12.8391 19.8831 12.8853 19.898 12.9392C19.9128 12.993 19.9066 13.0505 19.8806 13.1C19.8464 13.1477 19.7952 13.1804 19.7376 13.1916C19.6799 13.2028 19.6202 13.1914 19.5706 13.16C19.546 13.1439 19.5248 13.123 19.5084 13.0985C19.492 13.0741 19.4807 13.0466 19.4751 13.0177C19.4695 12.9888 19.4697 12.959 19.4759 12.9302C19.482 12.9014 19.4938 12.8741 19.5106 12.85C19.5497 12.8127 19.6016 12.7919 19.6556 12.7919C19.7096 12.7919 19.7616 12.8127 19.8006 12.85V12.81Z" fill="#FFC82C"/>
<path opacity="0.5" fill-rule="evenodd" clip-rule="evenodd" d="M21.4907 11.24C21.486 11.2676 21.4753 11.2937 21.4594 11.3167C21.4434 11.3396 21.4226 11.3588 21.3984 11.3727C21.3742 11.3867 21.3472 11.3951 21.3193 11.3975C21.2915 11.3998 21.2634 11.396 21.2372 11.3863C21.2111 11.3765 21.1873 11.3611 21.1678 11.3412C21.1482 11.3212 21.1333 11.2972 21.124 11.2708C21.1148 11.2444 21.1115 11.2164 21.1144 11.1886C21.1173 11.1608 21.1263 11.1339 21.1407 11.11C21.147 11.0855 21.1587 11.0627 21.1749 11.0433C21.1912 11.0239 21.2115 11.0084 21.2345 10.9978C21.2575 10.9873 21.2826 10.982 21.3079 10.9824C21.3332 10.9828 21.358 10.9888 21.3807 11C21.4043 11.0078 21.4259 11.0203 21.4444 11.0368C21.4629 11.0533 21.4778 11.0735 21.4881 11.096C21.4984 11.1185 21.504 11.1429 21.5044 11.1677C21.5049 11.1925 21.5002 11.2171 21.4907 11.24Z" fill="#FFC82C"/>
<path opacity="0.5" fill-rule="evenodd" clip-rule="evenodd" d="M20.6107 12.24C20.6107 12.33 20.6107 12.42 20.4907 12.4C20.4508 12.3953 20.4139 12.3767 20.3864 12.3474C20.359 12.3181 20.3428 12.2801 20.3407 12.24C20.3431 12.201 20.3596 12.1642 20.3873 12.1366C20.4149 12.1089 20.4517 12.0924 20.4907 12.09C20.5087 12.0912 20.5263 12.0961 20.5424 12.1044C20.5584 12.1128 20.5725 12.1244 20.5838 12.1385C20.5951 12.1526 20.6033 12.1689 20.6079 12.1864C20.6126 12.2039 20.6135 12.2221 20.6107 12.24Z" fill="#FFC82C"/>
<path opacity="0.5" fill-rule="evenodd" clip-rule="evenodd" d="M21.1807 13.15C21.1778 13.1334 21.1785 13.1165 21.1826 13.1002C21.1867 13.084 21.1942 13.0687 21.2046 13.0556C21.215 13.0424 21.228 13.0315 21.2428 13.0236C21.2576 13.0158 21.2739 13.0111 21.2907 13.01C21.3507 13.01 21.4207 13.08 21.4207 13.14C21.4207 13.2 21.3507 13.28 21.2907 13.27C21.2307 13.26 21.2007 13.27 21.1807 13.15Z" fill="#FFC82C"/>
<path opacity="0.5" fill-rule="evenodd" clip-rule="evenodd" d="M24.7707 11.88C24.7976 11.8595 24.8194 11.833 24.8345 11.8026C24.8495 11.7723 24.8573 11.7389 24.8573 11.705C24.8573 11.6711 24.8495 11.6377 24.8345 11.6073C24.8194 11.577 24.7976 11.5505 24.7707 11.53C24.745 11.5078 24.7147 11.4916 24.682 11.4825C24.6493 11.4734 24.615 11.4717 24.5815 11.4774C24.548 11.4831 24.5163 11.4962 24.4885 11.5157C24.4606 11.5351 24.4375 11.5605 24.4207 11.59C24.3918 11.6103 24.3682 11.6372 24.3519 11.6686C24.3356 11.6999 24.3271 11.7347 24.3271 11.77C24.3271 11.8053 24.3356 11.8401 24.3519 11.8714C24.3682 11.9027 24.3918 11.9297 24.4207 11.95C24.4452 11.9717 24.4745 11.9874 24.5063 11.9957C24.538 12.004 24.5712 12.0048 24.6033 11.998C24.6353 11.9912 24.6654 11.977 24.691 11.9565C24.7166 11.936 24.737 11.9098 24.7507 11.88H24.7707Z" fill="#FFC82C"/>
<path opacity="0.8" fill-rule="evenodd" clip-rule="evenodd" d="M22.5006 11.98C22.5213 12.0051 22.5472 12.0254 22.5766 12.0393C22.606 12.0531 22.6381 12.0604 22.6706 12.0604C22.7031 12.0604 22.7353 12.0531 22.7646 12.0393C22.794 12.0254 22.82 12.0051 22.8406 11.98C22.8871 11.9316 22.913 11.8671 22.913 11.8C22.913 11.7329 22.8871 11.6684 22.8406 11.62C22.8173 11.5958 22.7894 11.5766 22.7584 11.5634C22.7275 11.5503 22.6942 11.5435 22.6606 11.5435C22.627 11.5435 22.5938 11.5503 22.5628 11.5634C22.5319 11.5766 22.504 11.5958 22.4806 11.62C22.4384 11.6646 22.4149 11.7236 22.4149 11.785C22.4149 11.8464 22.4384 11.9054 22.4806 11.95L22.5006 11.98Z" fill="#FFC82C"/>
<path opacity="0.5" fill-rule="evenodd" clip-rule="evenodd" d="M22.2207 12.82C22.2581 12.8566 22.3084 12.8772 22.3607 12.8772C22.4131 12.8772 22.4633 12.8566 22.5007 12.82C22.538 12.7809 22.5588 12.729 22.5588 12.675C22.5588 12.621 22.538 12.5691 22.5007 12.53C22.482 12.5103 22.4595 12.4947 22.4346 12.484C22.4097 12.4733 22.3828 12.4677 22.3557 12.4677C22.3286 12.4677 22.3017 12.4733 22.2768 12.484C22.2519 12.4947 22.2294 12.5103 22.2107 12.53C22.1929 12.5477 22.1787 12.5687 22.1691 12.5919C22.1594 12.615 22.1544 12.6399 22.1544 12.665C22.1544 12.6901 22.1594 12.7149 22.1691 12.7381C22.1787 12.7613 22.1929 12.7823 22.2107 12.8L22.2207 12.82Z" fill="#FFC82C"/>
<path opacity="0.5" fill-rule="evenodd" clip-rule="evenodd" d="M23.6107 14.71C23.6517 14.7433 23.7029 14.7614 23.7557 14.7614C23.8085 14.7614 23.8597 14.7433 23.9007 14.71C24.0007 14.64 24.0607 14.56 23.9707 14.48C23.8807 14.4 23.7707 14.42 23.6707 14.48C23.5707 14.54 23.5307 14.62 23.6107 14.7V14.71Z" fill="#FFC82C"/>
<path opacity="0.5" fill-rule="evenodd" clip-rule="evenodd" d="M24.6107 13.45C24.6318 13.4321 24.6487 13.4099 24.6603 13.3849C24.6719 13.3598 24.678 13.3326 24.678 13.305C24.678 13.2774 24.6719 13.2501 24.6603 13.2251C24.6487 13.2 24.6318 13.1778 24.6107 13.16C24.5695 13.1191 24.5138 13.0961 24.4557 13.0961C24.3977 13.0961 24.3419 13.1191 24.3007 13.16C24.2792 13.1796 24.262 13.2036 24.2503 13.2303C24.2385 13.257 24.2324 13.2858 24.2324 13.315C24.2324 13.3441 24.2385 13.373 24.2503 13.3997C24.262 13.4264 24.2792 13.4503 24.3007 13.47C24.323 13.4847 24.3479 13.4949 24.3741 13.4999C24.4003 13.5049 24.4273 13.5046 24.4534 13.499C24.4795 13.4934 24.5042 13.4826 24.5261 13.4674C24.5479 13.4521 24.5665 13.4326 24.5807 13.41L24.6107 13.45Z" fill="#FFC82C"/>
<path opacity="0.8" fill-rule="evenodd" clip-rule="evenodd" d="M26.0307 12.88C26.1107 12.78 26.1307 12.61 26.0307 12.56C25.9764 12.5305 25.9133 12.5214 25.8528 12.5342C25.7924 12.547 25.7384 12.581 25.7007 12.63C25.6585 12.6746 25.635 12.7336 25.635 12.795C25.635 12.8564 25.6585 12.9154 25.7007 12.96C25.7527 12.9895 25.8141 12.9977 25.8719 12.9828C25.9298 12.9678 25.9796 12.931 26.0107 12.88H26.0307Z" fill="#FFC82C"/>
<path opacity="0.5" fill-rule="evenodd" clip-rule="evenodd" d="M26.8907 13.23C26.904 13.217 26.9145 13.2014 26.9218 13.1842C26.929 13.167 26.9327 13.1486 26.9327 13.13C26.9327 13.1114 26.929 13.0929 26.9218 13.0758C26.9145 13.0586 26.904 13.043 26.8907 13.03C26.8776 13.0167 26.8621 13.0061 26.8449 12.9989C26.8277 12.9917 26.8093 12.988 26.7907 12.988C26.772 12.988 26.7536 12.9917 26.7364 12.9989C26.7193 13.0061 26.7037 13.0167 26.6907 13.03C26.6777 13.0421 26.6673 13.0569 26.6602 13.0732C26.6531 13.0895 26.6494 13.1072 26.6494 13.125C26.6494 13.1428 26.6531 13.1604 26.6602 13.1768C26.6673 13.1931 26.6777 13.2078 26.6907 13.22C26.7165 13.2439 26.7505 13.2572 26.7857 13.2572C26.8209 13.2572 26.8548 13.2439 26.8807 13.22L26.8907 13.23Z" fill="#FFC82C"/>
<path opacity="0.1" fill-rule="evenodd" clip-rule="evenodd" d="M16.8606 3.72L29.0706 10.72L28.3106 12.04C27.5089 13.4052 26.2412 14.4351 24.7406 14.94C23.9718 15.2103 23.1654 15.3588 22.3506 15.38C21.5681 15.43 20.7832 15.43 20.0006 15.38C19.5706 15.38 18.7806 15.38 18.5306 15.78C18.2806 16.18 18.6806 16.9 18.9206 17.25C19.3537 17.8905 19.7445 18.5586 20.0907 19.25C20.4814 19.9696 20.758 20.7455 20.9107 21.55C21.2242 23.1007 20.9686 24.7124 20.1906 26.09L19.2806 27.66C19.1415 27.9058 18.9346 28.1062 18.6845 28.2375C18.4345 28.3687 18.1519 28.4251 17.8706 28.4C17.4622 28.3533 17.0578 28.2764 16.6607 28.17C15.8223 27.9411 15.0031 27.6468 14.2106 27.29C13.4606 26.95 12.7206 26.57 12.0006 26.16C11.2806 25.75 10.6106 25.38 9.92064 24.88C9.20914 24.3757 8.54023 23.8138 7.92064 23.2C7.62728 22.914 7.35959 22.6028 7.12065 22.27C6.95874 22.0392 6.86613 21.7669 6.85373 21.4852C6.84133 21.2035 6.90965 20.9242 7.05065 20.68L7.96065 19.11C8.76236 17.7448 10.0301 16.715 11.5306 16.21C12.3027 15.9388 13.1126 15.7904 13.9306 15.77C14.7098 15.72 15.4915 15.72 16.2707 15.77C16.7007 15.77 17.5006 15.77 17.7506 15.37C18.0006 14.97 17.6006 14.25 17.3506 13.9C16.9248 13.255 16.5342 12.5873 16.1806 11.9C15.7899 11.1804 15.5133 10.4045 15.3606 9.60001C15.051 8.04811 15.3101 6.4366 16.0907 5.06001L16.8506 3.74001L16.8606 3.72Z" fill="white"/>
<path fill-rule="evenodd" clip-rule="evenodd" d="M16.6107 2.87997L29.8507 10.53L28.8507 12.36C27.9757 13.8464 26.5948 14.9681 24.9607 15.52C24.1315 15.8142 23.2604 15.9729 22.3807 15.99C18.1107 16.13 18.6207 15.25 20.6407 18.99C21.0525 19.7652 21.3458 20.5978 21.5107 21.46C21.8622 23.1673 21.5814 24.9442 20.7207 26.46L19.6107 28.3C18.9907 29.38 15.5207 28.55 11.8607 26.43C8.2007 24.31 5.7507 21.74 6.3707 20.65L7.4307 18.82C8.29909 17.3319 9.67763 16.2092 11.3107 15.66C12.1411 15.3705 13.0115 15.2119 13.8907 15.19C18.1607 15.05 17.6607 15.93 15.6407 12.19C15.2258 11.4151 14.9292 10.5826 14.7607 9.71997C14.4076 8.01154 14.6922 6.23294 15.5607 4.71997L16.6107 2.87997ZM16.8807 3.87997L16.2007 5.06998C15.4322 6.41447 15.1798 7.99287 15.4907 9.50997C15.641 10.2996 15.9108 11.0617 16.2907 11.77C16.6428 12.4561 17.0299 13.1237 17.4507 13.77C18.4507 15.17 17.9507 16.01 16.2407 15.86C15.4647 15.815 14.6867 15.815 13.9107 15.86C13.1095 15.8778 12.3163 16.023 11.5607 16.29C10.0953 16.7837 8.85655 17.7882 8.0707 19.12L7.1607 20.69C7.03214 20.9089 6.96942 21.1602 6.98006 21.4138C6.9907 21.6674 7.07425 21.9126 7.2207 22.12C7.45682 22.443 7.7176 22.7472 8.0007 23.03C10.4662 25.3432 13.4336 27.0545 16.6707 28.03C17.0575 28.1349 17.4521 28.2085 17.8507 28.25C18.1037 28.2763 18.359 28.2278 18.5847 28.1105C18.8105 27.9932 18.9968 27.8122 19.1207 27.59L20.0307 26.02C20.7897 24.6722 21.0416 23.0973 20.7407 21.58C20.5868 20.7899 20.3137 20.0279 19.9307 19.32C19.5824 18.6318 19.1951 17.964 18.7707 17.32C17.7707 15.92 18.2707 15.08 19.9807 15.23C20.7567 15.275 21.5347 15.275 22.3107 15.23C23.112 15.213 23.9053 15.0678 24.6607 14.8C26.1276 14.3044 27.369 13.3006 28.1607 11.97L28.8407 10.78L16.9107 3.87997H16.8807Z" fill="url(#paint28_radial_281_1531)"/>
<path style="mix-blend-mode:screen" opacity="0.35" fill-rule="evenodd" clip-rule="evenodd" d="M25.0407 10.2C24.2608 11.5908 23.2458 12.8359 22.0407 13.88C21.5526 14.2758 21.0188 14.6115 20.4507 14.88C17.9807 16.05 18.4507 15.18 18.7007 17.88C18.7611 18.5477 18.7308 19.2204 18.6107 19.88C18.3168 21.4443 17.748 22.9442 16.9307 24.31L14.8407 27.88C15.5283 28.1674 16.2371 28.4015 16.9607 28.58C17.5707 27.51 18.1907 26.44 18.8107 25.37C19.642 23.9486 20.0675 22.3264 20.0407 20.68C20.0234 19.9385 19.8953 19.2037 19.6607 18.5C18.5407 15.25 18.0307 16.13 21.4107 15.5C22.1388 15.3545 22.8403 15.0982 23.4907 14.74C24.9311 13.9405 26.1245 12.761 26.9407 11.33L27.9407 9.5L26.0507 8.39999L24.9907 10.23L25.0407 10.2Z" fill="url(#paint29_radial_281_1531)"/>
<path style="mix-blend-mode:screen" fill-rule="evenodd" clip-rule="evenodd" d="M12.2707 21.6C13.0492 20.2333 13.9747 18.9557 15.0307 17.79C15.4363 17.3537 15.8778 16.9523 16.3507 16.59C18.3507 15.13 17.8307 16.01 18.1007 13.59C18.1784 13.0004 18.3055 12.4183 18.4807 11.85C18.9584 10.3496 19.6024 8.90726 20.4007 7.54998L21.4607 5.71998L17.8507 3.63998L16.7907 5.46998C15.9464 6.91382 15.5692 8.5834 15.7107 10.25C15.7771 11.0389 15.9696 11.812 16.2807 12.54C17.7207 15.98 18.2807 15.1 14.5307 15.54C13.7488 15.6412 12.9868 15.8603 12.2707 16.19C10.755 16.9045 9.49504 18.0668 8.66069 19.52L6.95068 22.52C7.86337 23.6225 8.93512 24.5831 10.1307 25.37L12.2707 21.65V21.6Z" fill="url(#paint30_radial_281_1531)"/>
<path style="mix-blend-mode:screen" fill-rule="evenodd" clip-rule="evenodd" d="M13.8507 15.97C12.3319 16.2297 10.9482 17.0028 9.93073 18.16C9.31588 18.8189 8.8518 19.6037 8.57073 20.46C8.50073 21.34 10.4007 22.46 10.6407 22.03C11.5417 20.3418 12.6503 18.7729 13.9407 17.36C14.2007 17.09 14.5107 16.89 14.8007 16.63C15.0907 16.37 14.2607 15.93 13.8007 15.97H13.8507Z" fill="url(#paint31_radial_281_1531)"/>
<g style="mix-blend-mode:screen">
<path fill-rule="evenodd" clip-rule="evenodd" d="M18.7507 6.88C18.3591 6.57382 17.9369 6.30907 17.4907 6.09C17.3807 6.09 17.2807 6.08999 17.1507 6.25999C16.7726 6.75237 16.5003 7.3175 16.3507 7.92C16.1427 8.58515 16.0824 9.28766 16.1739 9.97852C16.2655 10.6694 16.5067 11.332 16.8807 11.92C16.9707 12.03 17.1507 12.23 17.3007 12.23C17.4507 12.23 17.4007 12.15 17.3807 11.99C17.3007 11.5167 17.3007 11.0333 17.3807 10.56C17.5841 9.45938 17.9947 8.40741 18.5907 7.46C18.8107 7.09 18.8207 6.93 18.7507 6.88Z" fill="url(#paint32_radial_281_1531)"/>
</g>
<path fill-rule="evenodd" clip-rule="evenodd" d="M30.9007 9.5L29.9807 11.1C29.3307 12.23 25.7007 11.36 21.8707 9.1C18.0407 6.84 15.4707 4.18 16.1307 3.1L17.0507 1.5L30.9007 9.5Z" fill="url(#paint33_linear_281_1531)"/>
<path style="mix-blend-mode:multiply" opacity="0.5" fill-rule="evenodd" clip-rule="evenodd" d="M16.3307 4.43L17.2507 2.84C17.105 2.65269 17.01 2.43096 16.9749 2.19623C16.9399 1.9615 16.966 1.7217 17.0507 1.5L16.1307 3.1C16.0459 3.32 16.0197 3.55828 16.0548 3.79145C16.0899 4.02462 16.1849 4.24467 16.3307 4.43Z" fill="url(#paint34_linear_281_1531)"/>
<path style="mix-blend-mode:screen" fill-rule="evenodd" clip-rule="evenodd" d="M18.8707 4.73999L17.9507 6.33999C18.7525 7.07009 19.6083 7.73865 20.5107 8.33999L21.4307 6.73999C20.5236 6.14516 19.6673 5.47621 18.8707 4.73999Z" fill="url(#paint35_linear_281_1531)"/>
<path style="mix-blend-mode:screen" opacity="0.5" fill-rule="evenodd" clip-rule="evenodd" d="M25.8707 9.06998L24.9507 10.66C25.6745 10.9592 26.42 11.2033 27.1807 11.39L28.1007 9.78998C27.3401 9.60704 26.5946 9.36634 25.8707 9.06998Z" fill="url(#paint36_linear_281_1531)"/>
<path style="mix-blend-mode:multiply" opacity="0.5" fill-rule="evenodd" clip-rule="evenodd" d="M29.2106 9.97997L28.2906 11.57C29.1406 11.65 29.7507 11.5 29.9807 11.1L30.9007 9.49997C30.6707 9.89997 30.0706 10.05 29.2106 9.97997Z" fill="url(#paint37_linear_281_1531)"/>
<g style="mix-blend-mode:screen">
<path fill-rule="evenodd" clip-rule="evenodd" d="M25.0807 3.51999C28.8607 5.69999 31.4007 8.39999 30.7407 9.51999C30.0807 10.64 26.4807 9.80999 22.7407 7.61999C19.0007 5.42999 16.4207 2.73999 17.0807 1.61999C17.7407 0.499992 21.3407 1.32999 25.0807 3.51999Z" fill="#E26F80"/>
</g>
<path fill-rule="evenodd" clip-rule="evenodd" d="M25.1607 3.44998C28.9907 5.65998 31.5607 8.36999 30.9007 9.49999C30.2407 10.63 26.6207 9.75999 22.7907 7.49999C18.9607 5.23999 16.3907 2.57999 17.0507 1.49999C17.7107 0.419986 21.3307 1.23998 25.1607 3.44998Z" fill="url(#paint38_radial_281_1531)"/>
<defs>
<linearGradient id="paint0_linear_281_1531" x1="17.9707" y1="34.62" x2="17.9707" y2="22.3" gradientUnits="userSpaceOnUse">
<stop offset="0.43" stop-color="#884329"/>
<stop offset="1" stop-color="#57280C"/>
</linearGradient>
<radialGradient id="paint1_radial_281_1531" cx="0" cy="0" r="1" gradientUnits="userSpaceOnUse" gradientTransform="translate(-2.94932 6.93) scale(41.68 41.68)">
<stop stop-color="#C28653"/>
<stop offset="1" stop-color="#734324"/>
</radialGradient>
<radialGradient id="paint2_radial_281_1531" cx="0" cy="0" r="1" gradientUnits="userSpaceOnUse" gradientTransform="translate(-2.75927 18.63) scale(38.9 38.9)">
<stop stop-color="#C28653"/>
<stop offset="1" stop-color="#734324"/>
</radialGradient>
<radialGradient id="paint3_radial_281_1531" cx="0" cy="0" r="1" gradientUnits="userSpaceOnUse" gradientTransform="translate(-12.4493 7.67999) scale(58.66 58.66)">
<stop stop-color="#C28653"/>
<stop offset="1" stop-color="#734324"/>
</radialGradient>
<linearGradient id="paint4_linear_281_1531" x1="32.9007" y1="29.95" x2="8.02072" y2="5.07999" gradientUnits="userSpaceOnUse">
<stop stop-color="#85451A"/>
<stop offset="1" stop-color="#D49765"/>
</linearGradient>
<radialGradient id="paint5_radial_281_1531" cx="0" cy="0" r="1" gradientUnits="userSpaceOnUse" gradientTransform="translate(12.6307 14.2599) scale(36.37 36.3701)">
<stop stop-color="#160E0C"/>
<stop offset="0.15" stop-color="#1A100C"/>
<stop offset="0.31" stop-color="#26170E"/>
<stop offset="0.46" stop-color="#3A2210"/>
<stop offset="0.61" stop-color="#563212"/>
<stop offset="0.77" stop-color="#7A4616"/>
<stop offset="0.92" stop-color="#A65E1A"/>
<stop offset="1" stop-color="#C06D1D"/>
</radialGradient>
<radialGradient id="paint6_radial_281_1531" cx="0" cy="0" r="1" gradientUnits="userSpaceOnUse" gradientTransform="translate(-0.90929 -6.00001) scale(43.53 43.53)">
<stop stop-color="#F39200"/>
<stop offset="0.45" stop-color="#B63000"/>
<stop offset="0.52" stop-color="#9D2900"/>
<stop offset="0.85" stop-color="#2F0C00"/>
<stop offset="1" stop-color="#030000"/>
</radialGradient>
<linearGradient id="paint7_linear_281_1531" x1="4.90921" y1="22.5421" x2="18.7656" y2="30.5421" gradientUnits="userSpaceOnUse">
<stop offset="0.01" stop-color="#781916"/>
<stop offset="0.31" stop-color="#963333"/>
<stop offset="1" stop-color="#450E0E"/>
</linearGradient>
<linearGradient id="paint8_linear_281_1531" x1="5.23426" y1="21.9792" x2="5.96173" y2="22.3992" gradientUnits="userSpaceOnUse">
<stop stop-color="#616DBE"/>
<stop offset="0.6" stop-color="#C3C7E6"/>
<stop offset="1" stop-color="white"/>
</linearGradient>
<linearGradient id="paint9_linear_281_1531" x1="7.22051" y1="24.9388" x2="9.99179" y2="26.5388" gradientUnits="userSpaceOnUse">
<stop stop-color="#AB665D"/>
<stop offset="1" stop-color="#2B2321"/>
</linearGradient>
<linearGradient id="paint10_linear_281_1531" x1="14.4529" y1="28.872" x2="16.4274" y2="30.012" gradientUnits="userSpaceOnUse">
<stop stop-color="#AB665D"/>
<stop offset="1" stop-color="#2B2321"/>
</linearGradient>
<linearGradient id="paint11_linear_281_1531" x1="17.9754" y1="29.4508" x2="19.0406" y2="30.0658" gradientUnits="userSpaceOnUse">
<stop stop-color="white"/>
<stop offset="0.4" stop-color="#C3C7E6"/>
<stop offset="1" stop-color="#616DBE"/>
</linearGradient>
<radialGradient id="paint12_radial_281_1531" cx="0" cy="0" r="1" gradientUnits="userSpaceOnUse" gradientTransform="translate(7.39249 28.941) rotate(30) scale(10.94 10.94)">
<stop stop-color="#BF4444"/>
<stop offset="1" stop-color="#57172E"/>
</radialGradient>
<radialGradient id="paint13_radial_281_1531" cx="0" cy="0" r="1" gradientUnits="userSpaceOnUse" gradientTransform="translate(13.7904 22.2194) rotate(30) scale(9.36 9.36001)">
<stop stop-color="#FFA536"/>
<stop offset="1" stop-color="#A11300"/>
</radialGradient>
<radialGradient id="paint14_radial_281_1531" cx="0" cy="0" r="1" gradientUnits="userSpaceOnUse" gradientTransform="translate(15.1732 19.4844) rotate(30) scale(8.55)">
<stop stop-color="#E94E1B"/>
<stop offset="0.12" stop-color="#E44C1A"/>
<stop offset="0.25" stop-color="#D74819"/>
<stop offset="0.38" stop-color="#C04016"/>
<stop offset="0.53" stop-color="#A13613"/>
<stop offset="0.67" stop-color="#78280E"/>
<stop offset="0.82" stop-color="#471808"/>
<stop offset="0.97" stop-color="#0D0402"/>
<stop offset="1"/>
</radialGradient>
<radialGradient id="paint15_radial_281_1531" cx="0" cy="0" r="1" gradientUnits="userSpaceOnUse" gradientTransform="translate(13.7302 17.9238) rotate(30) scale(7.89 7.89)">
<stop stop-color="#F39200"/>
<stop offset="0.11" stop-color="#EE8F00"/>
<stop offset="0.24" stop-color="#E18700"/>
<stop offset="0.37" stop-color="#CA7A00"/>
<stop offset="0.51" stop-color="#AB6700"/>
<stop offset="0.66" stop-color="#824E00"/>
<stop offset="0.8" stop-color="#503000"/>
<stop offset="0.95" stop-color="#170E00"/>
<stop offset="1"/>
</radialGradient>
<radialGradient id="paint16_radial_281_1531" cx="0" cy="0" r="1" gradientUnits="userSpaceOnUse" gradientTransform="translate(13.4468 18.3145) rotate(30) scale(9.84 9.83999)">
<stop stop-color="#FFA536"/>
<stop offset="1" stop-color="#D14A00"/>
</radialGradient>
<radialGradient id="paint17_radial_281_1531" cx="0" cy="0" r="1" gradientUnits="userSpaceOnUse" gradientTransform="translate(21.124 9.53714) rotate(30) scale(7.25 7.25001)">
<stop stop-color="#FFA536"/>
<stop offset="1" stop-color="#A11300"/>
</radialGradient>
<radialGradient id="paint18_radial_281_1531" cx="0" cy="0" r="1" gradientUnits="userSpaceOnUse" gradientTransform="translate(13.1017 16.1523) rotate(30) scale(8.32 8.32)">
<stop stop-color="#E94E1B"/>
<stop offset="0.12" stop-color="#E44C1A"/>
<stop offset="0.25" stop-color="#D74819"/>
<stop offset="0.38" stop-color="#C04016"/>
<stop offset="0.53" stop-color="#A13613"/>
<stop offset="0.67" stop-color="#78280E"/>
<stop offset="0.82" stop-color="#471808"/>
<stop offset="0.97" stop-color="#0D0402"/>
<stop offset="1"/>
</radialGradient>
<radialGradient id="paint19_radial_281_1531" cx="0" cy="0" r="1" gradientUnits="userSpaceOnUse" gradientTransform="translate(12.3638 18.0703) rotate(30) scale(5.11)">
<stop stop-color="#F39200"/>
<stop offset="0.11" stop-color="#EE8F00"/>
<stop offset="0.24" stop-color="#E18700"/>
<stop offset="0.37" stop-color="#CA7A00"/>
<stop offset="0.51" stop-color="#AB6700"/>
<stop offset="0.66" stop-color="#824E00"/>
<stop offset="0.8" stop-color="#503000"/>
<stop offset="0.95" stop-color="#170E00"/>
<stop offset="1"/>
</radialGradient>
<radialGradient id="paint20_radial_281_1531" cx="0" cy="0" r="1" gradientUnits="userSpaceOnUse" gradientTransform="translate(15.197 19.9831) rotate(30) scale(4.22 4.22001)">
<stop stop-color="#E94E1B"/>
<stop offset="0.12" stop-color="#E44C1A"/>
<stop offset="0.25" stop-color="#D74819"/>
<stop offset="0.38" stop-color="#C04016"/>
<stop offset="0.53" stop-color="#A13613"/>
<stop offset="0.67" stop-color="#78280E"/>
<stop offset="0.82" stop-color="#471808"/>
<stop offset="0.97" stop-color="#0D0402"/>
<stop offset="1"/>
</radialGradient>
<radialGradient id="paint21_radial_281_1531" cx="0" cy="0" r="1" gradientUnits="userSpaceOnUse" gradientTransform="translate(14.5378 20.6649) rotate(30.0001) scale(2.56 2.56)">
<stop stop-color="#F39200"/>
<stop offset="0.11" stop-color="#EE8F00"/>
<stop offset="0.24" stop-color="#E18700"/>
<stop offset="0.37" stop-color="#CA7A00"/>
<stop offset="0.51" stop-color="#AB6700"/>
<stop offset="0.66" stop-color="#824E00"/>
<stop offset="0.8" stop-color="#503000"/>
<stop offset="0.95" stop-color="#170E00"/>
<stop offset="1"/>
</radialGradient>
<radialGradient id="paint22_radial_281_1531" cx="0" cy="0" r="1" gradientUnits="userSpaceOnUse" gradientTransform="translate(17.4105 22.8892) rotate(30) scale(3.76)">
<stop stop-color="#CC3300"/>
<stop offset="1" stop-color="white"/>
</radialGradient>
<radialGradient id="paint23_radial_281_1531" cx="0" cy="0" r="1" gradientUnits="userSpaceOnUse" gradientTransform="translate(20.8702 10.5568) rotate(30) scale(5.37)">
<stop stop-color="#E94E1B"/>
<stop offset="0.12" stop-color="#E44C1A"/>
<stop offset="0.25" stop-color="#D74819"/>
<stop offset="0.38" stop-color="#C04016"/>
<stop offset="0.53" stop-color="#A13613"/>
<stop offset="0.67" stop-color="#78280E"/>
<stop offset="0.82" stop-color="#471808"/>
<stop offset="0.97" stop-color="#0D0402"/>
<stop offset="1"/>
</radialGradient>
<radialGradient id="paint24_radial_281_1531" cx="0" cy="0" r="1" gradientUnits="userSpaceOnUse" gradientTransform="translate(21.851 10.6381) rotate(30) scale(7.81 7.80999)">
<stop stop-color="#FFA536"/>
<stop offset="1" stop-color="#D14A00"/>
</radialGradient>
<radialGradient id="paint25_radial_281_1531" cx="0" cy="0" r="1" gradientUnits="userSpaceOnUse" gradientTransform="translate(21.4883 8.24634) rotate(30) scale(5.81 5.81)">
<stop stop-color="#E94E1B"/>
<stop offset="0.12" stop-color="#E44C1A"/>
<stop offset="0.25" stop-color="#D74819"/>
<stop offset="0.38" stop-color="#C04016"/>
<stop offset="0.53" stop-color="#A13613"/>
<stop offset="0.67" stop-color="#78280E"/>
<stop offset="0.82" stop-color="#471808"/>
<stop offset="0.97" stop-color="#0D0402"/>
<stop offset="1"/>
</radialGradient>
<radialGradient id="paint26_radial_281_1531" cx="0" cy="0" r="1" gradientUnits="userSpaceOnUse" gradientTransform="translate(20.5623 8.36995) rotate(30.0001) scale(4.38 4.38001)">
<stop stop-color="#F39200"/>
<stop offset="0.11" stop-color="#EE8F00"/>
<stop offset="0.24" stop-color="#E18700"/>
<stop offset="0.37" stop-color="#CA7A00"/>
<stop offset="0.51" stop-color="#AB6700"/>
<stop offset="0.66" stop-color="#824E00"/>
<stop offset="0.8" stop-color="#503000"/>
<stop offset="0.95" stop-color="#170E00"/>
<stop offset="1"/>
</radialGradient>
<radialGradient id="paint27_radial_281_1531" cx="0" cy="0" r="1" gradientUnits="userSpaceOnUse" gradientTransform="translate(23.8042 10.715) rotate(30.0001) scale(7.52 7.52001)">
<stop stop-color="#CC3300"/>
<stop offset="1" stop-color="white"/>
</radialGradient>
<radialGradient id="paint28_radial_281_1531" cx="0" cy="0" r="1" gradientUnits="userSpaceOnUse" gradientTransform="translate(13.715 4.89002) rotate(30) scale(30.16)">
<stop stop-color="#CCF0EF"/>
<stop offset="1" stop-color="#5E73E6"/>
</radialGradient>
<radialGradient id="paint29_radial_281_1531" cx="0" cy="0" r="1" gradientUnits="userSpaceOnUse" gradientTransform="translate(28.4753 24.1044) rotate(30) scale(17.82)">
<stop offset="0.37"/>
<stop offset="1" stop-color="white"/>
</radialGradient>
<radialGradient id="paint30_radial_281_1531" cx="0" cy="0" r="1" gradientUnits="userSpaceOnUse" gradientTransform="translate(18.5265 14.5962) rotate(30) scale(20.82)">
<stop/>
<stop offset="1" stop-color="white"/>
</radialGradient>
<radialGradient id="paint31_radial_281_1531" cx="0" cy="0" r="1" gradientUnits="userSpaceOnUse" gradientTransform="translate(14.3882 20.844) rotate(30) scale(23.81 23.81)">
<stop/>
<stop offset="0.57" stop-color="white"/>
</radialGradient>
<radialGradient id="paint32_radial_281_1531" cx="0" cy="0" r="1" gradientUnits="userSpaceOnUse" gradientTransform="translate(19.4456 10.7137) rotate(-21.1613) scale(8.36689 8.36689)">
<stop/>
<stop offset="1" stop-color="white"/>
</radialGradient>
<linearGradient id="paint33_linear_281_1531" x1="15.9992" y1="3.33364" x2="29.8556" y2="11.3336" gradientUnits="userSpaceOnUse">
<stop offset="0.01" stop-color="#781916"/>
<stop offset="0.31" stop-color="#963333"/>
<stop offset="1" stop-color="#450E0E"/>
</linearGradient>
<linearGradient id="paint34_linear_281_1531" x1="16.3292" y1="2.76206" x2="17.0567" y2="3.18206" gradientUnits="userSpaceOnUse">
<stop stop-color="#616DBE"/>
<stop offset="0.6" stop-color="#C3C7E6"/>
<stop offset="1" stop-color="white"/>
</linearGradient>
<linearGradient id="paint35_linear_281_1531" x1="18.3105" y1="5.73037" x2="21.0818" y2="7.33037" gradientUnits="userSpaceOnUse">
<stop stop-color="#AB665D"/>
<stop offset="1" stop-color="#2B2321"/>
</linearGradient>
<linearGradient id="paint36_linear_281_1531" x1="25.5429" y1="9.66349" x2="27.5174" y2="10.8035" gradientUnits="userSpaceOnUse">
<stop stop-color="#AB665D"/>
<stop offset="1" stop-color="#2B2321"/>
</linearGradient>
<linearGradient id="paint37_linear_281_1531" x1="29.0704" y1="10.2336" x2="30.1356" y2="10.8486" gradientUnits="userSpaceOnUse">
<stop stop-color="white"/>
<stop offset="0.4" stop-color="#C3C7E6"/>
<stop offset="1" stop-color="#616DBE"/>
</linearGradient>
<radialGradient id="paint38_radial_281_1531" cx="0" cy="0" r="1" gradientUnits="userSpaceOnUse" gradientTransform="translate(15.8676 6.7217) rotate(30) scale(19.27 19.27)">
<stop stop-color="#BF4444"/>
<stop offset="1" stop-color="#57172E"/>
</radialGradient>
</defs>
</svg>
