<svg width="34" height="34" viewBox="0 0 34 34" fill="none" xmlns="http://www.w3.org/2000/svg">
<path fill-rule="evenodd" clip-rule="evenodd" d="M33.59 1.82205C33.51 1.31205 33.43 0.822048 33.34 0.292048C30.46 0.102048 26.34 0.0120482 22.89 0.0120482C19.44 0.0120482 15.89 -0.0479516 12.45 0.292048H11.9301C10.0801 0.292048 7.83005 0.0720484 6.46005 0.0420484C4.55725 0.153747 2.67424 0.489397 0.850037 1.04205C0.52372 3.36111 0.359997 5.70014 0.360046 8.04205C0.360046 8.24205 0.310039 8.43205 0.290039 8.62205V8.87205C0.290039 11.222 0.43004 13.872 0.51004 16.462V17.242C0.653932 19.9733 0.583726 22.7117 0.300049 25.432C0.300049 25.432 0.300049 25.492 0.300049 25.522V25.592C0.504399 27.5963 1.32148 29.4888 2.64005 31.012C3.05122 31.3382 3.48204 31.6387 3.93005 31.912L4.06003 31.992L4.76004 32.412L4.97003 32.532L5.88004 33.022L6.12003 33.142L6.80005 33.482L7.05005 33.592C7.33005 33.722 7.60004 33.842 7.82004 33.922C11.22 33.632 15.14 33.472 18.94 33.422C22.74 33.372 26.45 33.422 29.4 33.512C30.3976 32.7472 31.2567 31.8171 31.94 30.762C32.3 29.852 32.65 28.942 33 28.042V27.952C33.25 23.672 33.3901 19.412 33.4901 15.192C33.59 10.972 33.6301 6.96205 33.6801 2.90205C33.6801 2.75205 33.6801 2.60205 33.6801 2.44205C33.6801 2.28205 33.63 2.05205 33.59 1.82205ZM18.1801 8.66205H18.11C18.76 8.77205 19.42 8.85205 20.11 8.94205L18.1801 8.66205ZM15.9 8.27205C16.48 8.38205 17.05 8.48205 17.63 8.57205C17.08 8.48205 16.5401 8.39205 15.9301 8.27205H15.9ZM10.13 20.442H10.04L8.96005 20.072L10.13 20.442ZM5.17004 18.642C4.76004 18.482 4.36004 18.302 3.95004 18.122C4.34004 18.302 4.74002 18.482 5.15002 18.642H5.17004Z" fill="#924000"/>
<path fill-rule="evenodd" clip-rule="evenodd" d="M1.29004 23.002L0.290039 25.682C0.49439 27.6863 1.31147 29.5788 2.63004 31.102C4.22311 32.279 5.95643 33.2531 7.79004 34.002C11.19 33.712 15.11 33.552 18.91 33.502C22.71 33.452 26.42 33.502 29.37 33.592C30.3676 32.8272 31.2267 31.8971 31.91 30.842C32.27 29.932 32.62 29.022 32.97 28.122C32.86 26.402 32.75 24.702 32.64 23.002H1.29004Z" fill="url(#paint0_linear_281_2594)"/>
<path fill-rule="evenodd" clip-rule="evenodd" d="M0.849976 1.09205C0.523659 3.41111 0.359936 5.75015 0.359985 8.09205C1.99587 6.77609 3.84167 5.74501 5.81998 5.04205C7.48715 3.99638 9.06577 2.81575 10.54 1.51205L11.98 0.292053C10.13 0.292053 7.87998 0.0720532 6.50998 0.0420532C4.60718 0.153752 2.72416 0.489402 0.899963 1.04205L0.849976 1.09205Z" fill="url(#paint1_radial_281_2594)"/>
<path fill-rule="evenodd" clip-rule="evenodd" d="M12.45 0.292039L10.77 1.70204L7.21005 4.70204C7.08005 4.81204 6.79003 5.03204 6.82003 5.19204C6.90003 5.59204 13.04 7.25204 13.75 7.41204C15.12 7.71204 16.55 7.92204 18.03 8.10204C19.51 8.28204 21.03 8.40204 22.58 8.54204C23.19 8.60204 25.03 7.88204 27.18 6.67204C29.5381 5.3669 31.6968 3.73023 33.59 1.81204C33.51 1.30204 33.43 0.812038 33.34 0.282038C30.46 0.0920383 26.34 0.00203854 22.89 0.00203854C19.44 0.00203854 15.89 -0.0579617 12.45 0.282038V0.292039Z" fill="url(#paint2_radial_281_2594)"/>
<path fill-rule="evenodd" clip-rule="evenodd" d="M22.67 9.19205C21.16 9.06205 19.6701 8.88205 18.1801 8.66205C16.6901 8.44205 15.18 8.15205 13.76 7.82205C11.04 7.22205 8.47004 6.48205 5.98004 5.68205C5.28004 5.68205 2.15004 7.26205 0.290039 8.96205C0.290039 11.312 0.43004 13.962 0.51004 16.552C3.64523 18.1153 6.89863 19.4294 10.2401 20.482C13.6234 21.5712 17.0614 22.4824 20.54 23.212C21.8117 24.6497 23.1925 25.987 24.67 27.212C26.4399 28.6155 28.4212 29.7293 30.54 30.512C31.4649 29.7827 32.3007 28.9469 33.03 28.022C33.28 23.742 33.4201 19.482 33.5201 15.262C33.62 11.042 33.6601 7.03205 33.7101 2.97205C32.1808 4.41455 30.4776 5.66083 28.64 6.68205C26.7499 7.7243 24.7556 8.56556 22.69 9.19205H22.67Z" fill="url(#paint3_radial_281_2594)"/>
<path fill-rule="evenodd" clip-rule="evenodd" d="M20.3501 23.512C17.0501 22.802 13.5601 22.002 10.1501 21.012C6.84147 20.0802 3.62482 18.8484 0.54007 17.332C0.683961 20.0633 0.613755 22.8017 0.330078 25.522C0.818891 26.8832 1.52467 28.1563 2.42007 29.292C4.06174 30.5849 5.88457 31.6294 7.83008 32.392C11.3401 31.952 14.9101 31.562 18.4901 31.292C22.0701 31.022 25.6601 30.852 29.2501 30.832C27.1701 29.662 24.3901 28.092 24.0601 27.832C23.2301 26.832 21.5601 24.832 20.3501 23.522V23.512Z" fill="url(#paint4_radial_281_2594)"/>
<path fill-rule="evenodd" clip-rule="evenodd" d="M5.82004 5.08203C3.84173 5.78499 1.99593 6.81607 0.360046 8.13203C0.360046 8.33203 0.310039 8.52203 0.290039 8.71203V8.96203C2.15004 7.26203 5.29004 5.64203 5.98004 5.68203C8.47004 6.48203 11.04 7.22203 13.76 7.82203C15.2 8.14203 16.65 8.42203 18.1 8.64203C19.55 8.86203 21.02 9.05203 22.51 9.18203C21.5026 11.2664 20.7537 13.466 20.28 15.732C19.9184 18.1793 19.8713 20.6628 20.14 23.122C16.7232 22.3816 13.3457 21.4704 10.0201 20.392C6.76682 19.3555 3.59758 18.0717 0.540039 16.552V17.332C3.62478 18.8484 6.84144 20.0802 10.15 21.012C13.56 22.012 17.05 22.802 20.35 23.512C21.56 24.782 23.23 26.852 24.06 27.822C24.39 28.102 27.17 29.672 29.25 30.822H29.98C30.1703 30.7297 30.3511 30.6192 30.5201 30.492C28.4194 29.7076 26.4553 28.5974 24.7 27.202C23.2364 25.9753 21.8691 24.638 20.61 23.202C20.61 23.032 20.53 22.862 20.48 22.692C20.0493 20.1473 20.0798 17.5459 20.57 15.012C21.0621 12.8748 21.9325 10.8428 23.14 9.01203C25.1174 8.38433 27.0242 7.55321 28.83 6.53203C30.5885 5.53518 32.2203 4.32981 33.69 2.94203C33.69 2.79203 33.69 2.64203 33.69 2.48203C33.69 2.32203 33.62 2.02203 33.58 1.79203C31.6868 3.71023 29.5281 5.3469 27.17 6.65203C25.02 7.86203 23.17 8.58203 22.57 8.52203C21.03 8.38203 19.5 8.25203 18.0201 8.08203C16.5401 7.91203 15.1101 7.69203 13.7401 7.39203C13.0301 7.23203 6.89003 5.57203 6.81003 5.17203C6.81003 5.01203 7.07004 4.79203 7.20004 4.68203L10.76 1.68203L12.44 0.272034H11.92L10.54 1.51203C9.08329 2.82735 7.52141 4.02133 5.87003 5.08203H5.82004Z" fill="url(#paint5_linear_281_2594)"/>
<path fill-rule="evenodd" clip-rule="evenodd" d="M20.5401 15.072C20.0498 17.6059 20.0193 20.2074 20.4501 22.752C20.5001 22.922 20.5401 23.092 20.5801 23.262C21.8391 24.698 23.2065 26.0353 24.6701 27.262C26.4433 28.6478 28.4244 29.7447 30.5401 30.512C31.465 29.7827 32.3007 28.9469 33.0301 28.022C33.2801 23.742 33.4201 19.482 33.5201 15.262C33.6201 11.042 33.6601 7.03205 33.7101 2.97205C32.2404 4.35982 30.6086 5.5652 28.8501 6.56205C27.0442 7.58323 25.1374 8.41434 23.1601 9.04205C21.9525 10.8728 21.0821 12.9048 20.5901 15.042L20.5401 15.072Z" fill="url(#paint6_radial_281_2594)"/>
<path style="mix-blend-mode:screen" fill-rule="evenodd" clip-rule="evenodd" d="M27.54 32.292C26.18 31.902 22.28 32.152 18.23 32.502C14.18 32.852 9.94997 33.352 7.96997 33.432C6.5744 33.1466 5.22723 32.6617 3.96997 31.992C5.20363 32.7747 6.50563 33.4441 7.85999 33.992C11.26 33.702 15.18 33.542 18.98 33.492C22.78 33.442 26.49 33.492 29.44 33.582C30.4375 32.8172 31.2967 31.8871 31.98 30.832C32.05 30.662 32.11 30.482 32.18 30.312C31.1122 31.1344 30.1366 32.0698 29.27 33.102C28.7147 32.7886 28.1363 32.5178 27.54 32.292Z" fill="url(#paint7_radial_281_2594)"/>
<path style="mix-blend-mode:screen" opacity="0.35" fill-rule="evenodd" clip-rule="evenodd" d="M33.59 1.82205C33.51 1.31205 33.43 0.822048 33.34 0.292048C30.46 0.102048 26.34 0.0120482 22.89 0.0120482C19.44 0.0120482 15.89 -0.0479516 12.45 0.292048H11.9301C10.0801 0.292048 7.83005 0.0720484 6.46005 0.0420484C4.55725 0.153747 2.67424 0.489397 0.850037 1.04205C0.52372 3.36111 0.359997 5.70014 0.360046 8.04205C0.360046 8.24205 0.310039 8.43205 0.290039 8.62205V8.87205C0.290039 11.222 0.43004 13.872 0.51004 16.462V17.242C0.653932 19.9733 0.583726 22.7117 0.300049 25.432C0.300049 25.432 0.300049 25.492 0.300049 25.522V25.592C0.504399 27.5963 1.32148 29.4888 2.64005 31.012C3.05122 31.3382 3.48204 31.6387 3.93005 31.912L4.06003 31.992L4.76004 32.412L4.97003 32.532L5.88004 33.022L6.12003 33.142L6.80005 33.482L7.05005 33.592C7.33005 33.722 7.60004 33.842 7.82004 33.922C11.22 33.632 15.14 33.472 18.94 33.422C22.74 33.372 26.45 33.422 29.4 33.512C30.3976 32.7472 31.2567 31.8171 31.94 30.762C32.3 29.852 32.65 28.942 33 28.042V27.952C33.25 23.672 33.3901 19.412 33.4901 15.192C33.59 10.972 33.6301 6.96205 33.6801 2.90205C33.6801 2.75205 33.6801 2.60205 33.6801 2.44205C33.6801 2.28205 33.63 2.05205 33.59 1.82205ZM18.1801 8.66205H18.11C18.76 8.77205 19.42 8.85205 20.11 8.94205L18.1801 8.66205ZM15.9 8.27205C16.48 8.38205 17.05 8.48205 17.63 8.57205C17.08 8.48205 16.5401 8.39205 15.9301 8.27205H15.9ZM10.13 20.442H10.04L8.96005 20.072L10.13 20.442ZM5.17004 18.642C4.76004 18.482 4.36004 18.302 3.95004 18.122C4.34004 18.302 4.74002 18.482 5.15002 18.642H5.17004Z" fill="url(#paint8_radial_281_2594)"/>
<g style="mix-blend-mode:multiply" opacity="0.4">
<path fill-rule="evenodd" clip-rule="evenodd" d="M27.98 4.60203C26.68 3.51203 25.43 2.97203 25.06 3.29203C24.68 3.96203 24.06 5.22203 23.68 6.10203C22.86 5.92203 22.26 5.97203 22.07 6.31203C21.5059 6.92408 21.0555 7.63183 20.74 8.40203C20.7195 8.50435 20.7195 8.60971 20.74 8.71203C20.7354 8.7519 20.7354 8.79216 20.74 8.83203C20.7576 8.91477 20.7844 8.99528 20.82 9.07203L20.9 9.23203L21.04 9.47203L21.18 9.65203L21.31 9.83203L20.74 10.782C20.3792 11.5467 19.8303 12.2074 19.1448 12.7023C18.4592 13.1973 17.6594 13.5102 16.82 13.612C13.49 14.212 10.56 15.522 8.81997 18.492C8.04064 19.8892 7.65509 21.4717 7.7044 23.0707C7.75371 24.6698 8.23603 26.2255 9.09997 27.572C8.93997 28.832 10.22 30.572 12.28 31.772C14.34 32.972 16.5 33.192 17.52 32.432C19.1181 32.5083 20.7068 32.1484 22.116 31.3909C23.5252 30.6335 24.7019 29.507 25.52 28.132C27.24 25.132 26.92 21.972 25.77 18.782C25.4368 18.0051 25.3061 17.1563 25.3901 16.3152C25.474 15.474 25.7699 14.6678 26.25 13.972L26.8 12.972C27.51 13.102 28.07 13.042 28.32 12.762C28.8343 12.1087 29.2242 11.3664 29.47 10.572C29.66 10.232 29.41 9.68203 28.84 9.07203C29.26 8.52203 29.66 7.96203 30.08 7.38203C30.28 7.06203 29.37 5.75203 27.98 4.60203ZM25.43 13.662C24.8861 14.4657 24.5518 15.3926 24.4574 16.3584C24.3631 17.3243 24.5118 18.2983 24.89 19.192L25.09 19.812C24.02 18.252 20.85 17.122 17.09 17.122C13.33 17.122 10.38 18.182 9.21996 19.662C9.30996 19.452 9.40998 19.242 9.51998 19.042C11.12 16.282 13.89 15.142 16.9 14.582C17.0691 14.5376 17.2459 14.5298 17.4183 14.5591C17.5907 14.5885 17.7549 14.6542 17.9 14.752C18.6911 15.6057 19.5963 16.346 20.59 16.952C19.85 16.382 18.73 15.082 18.72 14.332C18.7143 14.2556 18.7278 14.179 18.7592 14.1092C18.7906 14.0393 18.839 13.9784 18.9 13.932C19.9664 13.3449 20.8413 12.4631 21.42 11.392L21.87 10.642L21.96 10.712C22.05 10.802 22.15 10.882 22.26 10.972L22.52 11.172C22.63 11.262 22.75 11.342 22.87 11.422L23.16 11.622L23.31 11.722L23.24 11.672L23.75 11.992C24.4179 12.382 25.1252 12.7004 25.86 12.942L25.43 13.662Z" fill="#3A1D0D"/>
</g>
<path fill-rule="evenodd" clip-rule="evenodd" d="M13.64 25.202C16.02 26.582 17.37 28.712 16.64 29.962C15.91 31.212 13.39 31.122 11.01 29.742C8.63003 28.362 7.27003 26.232 8.01003 24.982C8.75003 23.732 11.25 23.822 13.64 25.202Z" fill="url(#paint9_radial_281_2594)"/>
<g style="mix-blend-mode:multiply">
<path fill-rule="evenodd" clip-rule="evenodd" d="M16.77 29.8021C16.12 30.9321 13.64 30.7221 11.25 29.3421C8.86 27.9621 7.44 25.9221 8.09 24.7921C9.18 26.8621 13.16 29.6721 16.77 29.7921V29.8021Z" fill="#5ACCC9"/>
</g>
<path opacity="0.15" fill-rule="evenodd" clip-rule="evenodd" d="M20.74 8.10204L20.11 9.10204C19.23 10.562 19.62 10.162 18.24 11.232C17.4989 11.8419 16.6081 12.2424 15.66 12.392C12.66 12.932 9.82997 14.112 8.21997 16.902C7.57226 18.0318 7.22777 19.3098 7.21997 20.612C7.25279 22.1989 7.69426 23.7505 8.50174 25.1169C9.30922 26.4834 10.4554 27.6185 11.8297 28.4127C13.2039 29.2069 14.7597 29.6332 16.3468 29.6506C17.9339 29.668 19.4987 29.2759 20.89 28.512C21.9944 27.8203 22.9059 26.8605 23.54 25.722C25.15 22.932 24.77 19.932 23.73 17.022C23.3604 16.1521 23.2292 15.1995 23.35 14.262C23.3423 13.2886 23.6629 12.3409 24.26 11.572L24.86 10.502C24.0803 10.2648 23.3343 9.92873 22.64 9.50204C21.9357 9.10503 21.2839 8.62126 20.7 8.06204L20.74 8.10204Z" fill="white"/>
<path fill-rule="evenodd" clip-rule="evenodd" d="M15.88 14.9821C20.5 14.9821 24.26 16.7021 24.26 18.8221C24.26 20.9421 20.5 22.6721 15.88 22.6721C11.26 22.6721 7.54004 20.9521 7.54004 18.8221C7.54004 16.6921 11.29 14.9821 15.92 14.9821H15.88Z" fill="url(#paint10_radial_281_2594)"/>
<path fill-rule="evenodd" clip-rule="evenodd" d="M15.8799 22.672C11.2499 22.672 7.49994 20.952 7.49994 18.822C7.49714 18.6356 7.52416 18.4499 7.57996 18.272C7.33889 19.0119 7.21078 19.7839 7.19995 20.562C7.23277 22.1489 7.67424 23.7005 8.48172 25.0669C9.2892 26.4334 10.4354 27.5685 11.8096 28.3627C13.1839 29.1568 14.7396 29.5832 16.3268 29.6006C17.9139 29.618 19.4786 29.2259 20.8699 28.462C21.9755 27.7868 22.8936 26.8447 23.5399 25.722C24.1405 24.61 24.5063 23.3866 24.6147 22.1274C24.723 20.8683 24.5717 19.6003 24.17 18.402C24.2014 18.5399 24.2182 18.6807 24.2199 18.822C24.2199 20.952 20.4599 22.672 15.8399 22.672H15.8799Z" fill="url(#paint11_radial_281_2594)"/>
<path style="mix-blend-mode:screen" fill-rule="evenodd" clip-rule="evenodd" d="M22.8501 20.482C22.8501 18.482 19.3301 16.882 14.9901 16.882C11.5501 16.882 8.62006 17.882 7.56006 19.302C8.07006 21.202 11.5601 22.6721 15.8801 22.6721C18.281 22.7604 20.6604 22.1898 22.7601 21.022C22.819 20.8481 22.8494 20.6657 22.8501 20.482Z" fill="url(#paint12_radial_281_2594)"/>
<path style="mix-blend-mode:screen" fill-rule="evenodd" clip-rule="evenodd" d="M20.68 20.882C20.68 19.182 17.68 17.812 13.97 17.812C11.14 17.812 8.71999 18.612 7.73999 19.742C8.63999 21.422 11.94 22.672 15.88 22.672C17.2998 22.6799 18.7147 22.5051 20.09 22.152C20.4472 21.8237 20.6595 21.3669 20.68 20.882Z" fill="url(#paint13_radial_281_2594)"/>
<path style="mix-blend-mode:screen" fill-rule="evenodd" clip-rule="evenodd" d="M15.8799 22.672C11.9399 22.672 8.63996 21.422 7.73996 19.742C7.66475 19.6138 7.60753 19.4759 7.56995 19.332C7.49982 19.715 7.4597 20.1028 7.44995 20.492C7.4789 21.8849 7.86661 23.2467 8.57562 24.446C9.28463 25.6452 10.291 26.6413 11.4974 27.338C12.7038 28.0348 14.0696 28.4085 15.4627 28.4232C16.8558 28.438 18.2291 28.0931 19.45 27.422C20.4331 26.839 21.2493 26.0124 21.8199 25.022C22.5361 23.8147 22.8837 22.4243 22.8199 21.022C21.9934 21.5338 21.0928 21.9149 20.1499 22.152C18.7747 22.5051 17.3598 22.6799 15.9399 22.672H15.8799Z" fill="url(#paint14_radial_281_2594)"/>
<path style="mix-blend-mode:screen" fill-rule="evenodd" clip-rule="evenodd" d="M15.88 22.6721C11.94 22.6721 8.63999 21.4221 7.73999 19.7421L7.79999 19.6821C7.79733 19.6454 7.79733 19.6087 7.79999 19.5721V19.7321C7.7618 19.9905 7.73842 20.2509 7.72998 20.5121C7.75281 21.6476 8.06827 22.758 8.64587 23.7359C9.22348 24.7138 10.0437 25.5261 11.0271 26.0943C12.0105 26.6624 13.124 26.9672 14.2596 26.979C15.3953 26.9909 16.5149 26.7095 17.51 26.1621C18.3189 25.6778 18.9848 24.9877 19.44 24.1621C19.8041 23.5468 20.0484 22.8682 20.16 22.1621C18.7847 22.5152 17.3698 22.6899 15.95 22.6821L15.88 22.6721Z" fill="url(#paint15_radial_281_2594)"/>
<path fill-rule="evenodd" clip-rule="evenodd" d="M24.9801 11.942L25.69 10.662L25.25 10.592L24.8001 10.472L24.2101 11.522C23.6662 12.3257 23.3318 13.2526 23.2375 14.2184C23.1432 15.1843 23.2919 16.1583 23.6701 17.052C24.6701 19.932 25.0801 22.902 23.4901 25.672C22.846 26.7859 21.9266 27.7156 20.82 28.372C19.4438 29.124 17.8972 29.5092 16.329 29.4905C14.7608 29.4719 13.2238 29.0501 11.8658 28.2656C10.5078 27.4811 9.37445 26.3604 8.57484 25.0113C7.77523 23.6621 7.33624 22.1299 7.30006 20.562C7.31374 19.2764 7.65813 18.016 8.30006 16.902C9.89006 14.142 12.6601 13.002 15.6701 12.442C15.8392 12.3976 16.016 12.3898 16.1884 12.4192C16.3608 12.4485 16.525 12.5142 16.6701 12.612C17.4655 13.4611 18.3701 14.2008 19.3601 14.812C18.6201 14.242 17.5 12.942 17.5 12.192C17.4903 12.1163 17.5009 12.0393 17.5308 11.969C17.5607 11.8987 17.6087 11.8376 17.6701 11.792C18.742 11.1927 19.6146 10.2922 20.1801 9.20203L20.79 8.20203L20.4601 7.87203C20.3607 7.76036 20.2672 7.64353 20.1801 7.52203L19.4301 8.78203C19.068 9.53718 18.5221 10.1893 17.8424 10.6785C17.1627 11.1677 16.3711 11.4784 15.54 11.582C12.21 12.182 9.28005 13.492 7.54005 16.462C5.07005 20.742 6.81005 26.372 11.4201 29.032C16.0301 31.692 21.7701 30.382 24.2401 26.102C25.9501 23.102 25.6301 19.942 24.4801 16.752C24.1498 15.9734 24.0224 15.1238 24.1099 14.2826C24.1973 13.4413 24.4967 12.6361 24.9801 11.942Z" fill="url(#paint16_radial_281_2594)"/>
<path style="mix-blend-mode:screen" fill-rule="evenodd" clip-rule="evenodd" d="M23.8199 12.392C23.5148 13.4608 23.4398 14.5821 23.5999 15.682C23.7673 16.8987 24.0078 18.1042 24.3199 19.292C23.7447 18.0979 23.2826 16.8524 22.9399 15.572C22.9828 14.4581 23.2841 13.3695 23.8199 12.392Z" fill="url(#paint17_linear_281_2594)"/>
<path style="mix-blend-mode:screen" opacity="0.5" fill-rule="evenodd" clip-rule="evenodd" d="M22.9699 9.03205L24.9699 10.1821C23.3899 12.9221 21.2199 14.6221 20.1199 13.9921C19.0199 13.3621 19.4099 10.622 20.9899 7.88205L22.9899 9.03205H22.9699Z" fill="url(#paint18_radial_281_2594)"/>
<path style="mix-blend-mode:screen" opacity="0.5" fill-rule="evenodd" clip-rule="evenodd" d="M22.2701 8.55206L23.1801 9.15206C22.1001 10.8921 20.8101 12.0421 20.3001 11.7121C19.7901 11.3821 20.3001 9.71206 21.3501 7.95206L22.2701 8.55206Z" fill="url(#paint19_radial_281_2594)"/>
<path style="mix-blend-mode:screen" fill-rule="evenodd" clip-rule="evenodd" d="M12.71 15.4621C12.52 15.2821 12.28 15.0421 12.0099 15.0621C11.0099 15.0621 9.87994 16.3121 9.37994 17.0621C8.76601 17.8774 8.36649 18.8339 8.21799 19.8437C8.06949 20.8535 8.17674 21.8844 8.52994 22.8421C8.76994 23.3621 10.3199 24.3121 10.3499 23.9621C10.35 23.0652 10.5625 22.181 10.9699 21.3821C11.5851 20.3272 12.4085 19.4086 13.39 18.6821C14.34 17.9521 14.39 17.6821 14.05 17.1921C13.6378 16.5926 13.1904 16.0183 12.71 15.4721V15.4621ZM16.9099 14.1421C17.9099 15.2421 17.8499 15.8821 17.3999 16.4021C16.5499 17.4021 15.1999 16.9121 14.3199 15.8321C13.4399 14.7521 13.3199 14.1821 13.7499 13.6921C14.2289 13.3335 14.8306 13.1795 15.423 13.2638C16.0153 13.3482 16.5501 13.664 16.9099 14.1421Z" fill="url(#paint20_radial_281_2594)"/>
<g style="mix-blend-mode:screen">
<path fill-rule="evenodd" clip-rule="evenodd" d="M16.2899 14.2321C16.0626 13.9317 15.7299 13.7286 15.3588 13.6637C14.9877 13.5987 14.6058 13.6768 14.2899 13.8821C14.0099 14.1521 14.13 14.5021 14.7099 15.1721C15.2899 15.8421 16.1499 16.1721 16.6599 15.5921C16.9299 15.3021 16.9399 14.9121 16.2899 14.2321ZM11.8699 15.7121C11.7599 15.6421 11.6299 15.6421 11.4199 15.7121C10.7892 16.1009 10.2446 16.6148 9.81994 17.2221C9.29802 17.8647 8.92508 18.615 8.72796 19.4191C8.53083 20.2231 8.51444 21.0609 8.67995 21.8721C8.72995 22.0321 8.83993 22.3421 8.99993 22.3921C9.15993 22.4421 9.14994 22.3921 9.19994 22.1621C9.33207 21.6076 9.55147 21.0777 9.84993 20.5921C10.5618 19.4748 11.4738 18.4984 12.5399 17.7121C12.8999 17.4421 12.97 17.2821 12.93 17.1321C12.6293 16.6216 12.2738 16.1455 11.8699 15.7121Z" fill="url(#paint21_radial_281_2594)"/>
</g>
<path style="mix-blend-mode:screen" opacity="0.5" fill-rule="evenodd" clip-rule="evenodd" d="M22.08 8.55206L22.55 8.87206C21.81 10.1221 21.0099 10.9921 20.7499 10.8121C20.4899 10.6321 20.87 9.48206 21.61 8.23206L22.08 8.55206Z" fill="url(#paint22_radial_281_2594)"/>
<g style="mix-blend-mode:multiply" opacity="0.5">
<path fill-rule="evenodd" clip-rule="evenodd" d="M24.9601 11.9621C24.7001 12.4221 23.41 11.8021 22.09 10.5721C20.77 9.34205 19.92 7.97205 20.19 7.51205C20.8791 8.33334 21.7214 9.01264 22.67 9.51206C23.5897 10.0747 24.6077 10.4581 25.67 10.6421L24.92 11.9321L24.9601 11.9621Z" fill="#7F8E99"/>
</g>
<path fill-rule="evenodd" clip-rule="evenodd" d="M27.0501 10.762C26.5101 11.372 24.5401 10.962 22.5301 9.76204C20.5201 8.56204 19.1801 7.10203 19.4301 6.33203C19.7501 5.56413 20.2 4.85712 20.7601 4.24203L24.4801 6.39203L28.1901 8.54203C27.9479 9.33591 27.5615 10.0783 27.0501 10.732V10.762ZM27.0501 8.45203L24.2801 6.84203L21.5001 5.24203C21.3573 5.42435 21.2302 5.61837 21.1201 5.82203C20.0701 7.64204 25.6901 10.882 26.7401 9.07203C26.8593 8.87368 26.9629 8.6664 27.0501 8.45203Z" fill="url(#paint23_radial_281_2594)"/>
<path opacity="0.15" fill-rule="evenodd" clip-rule="evenodd" d="M26.79 9.13205C26.9331 8.89924 27.0568 8.65509 27.16 8.40205L24.3 6.74205L21.43 5.10205C21.2574 5.30935 21.1066 5.53387 20.98 5.77205C19.86 7.72205 25.67 11.0721 26.79 9.13205Z" fill="white"/>
<path fill-rule="evenodd" clip-rule="evenodd" d="M25.99 9.16205C25.69 9.51205 24.5 9.24205 23.26 8.53205C22.02 7.82205 21.26 6.98205 21.34 6.53205C21.4827 6.10655 21.6566 5.6921 21.86 5.29205L26.76 8.12205C26.48 8.53205 26.21 8.90205 25.99 9.12205V9.16205Z" fill="#8E633F"/>
<path style="mix-blend-mode:screen" fill-rule="evenodd" clip-rule="evenodd" d="M16 29.892C13.27 30.132 9.43001 28.132 8.39001 25.502C10.2806 27.8747 12.9996 29.4433 16 29.892Z" fill="url(#paint24_linear_281_2594)"/>
<path fill-rule="evenodd" clip-rule="evenodd" d="M18.87 29.2121C20.29 28.6511 21.55 27.7492 22.5389 26.5859C23.5278 25.4227 24.215 24.0338 24.54 22.5421C24.44 26.0921 22.25 28.7521 18.89 29.2121H18.87Z" fill="white"/>
<path style="mix-blend-mode:screen" fill-rule="evenodd" clip-rule="evenodd" d="M20.05 7.17204C19.92 6.50204 20.91 5.17204 21.33 4.61204L20.76 4.28204C20.198 4.90314 19.748 5.61707 19.43 6.39204C19.2 7.10204 20.33 8.39204 22.09 9.55204C21.27 8.96204 20.21 8.04204 20.09 7.19204L20.05 7.17204Z" fill="url(#paint25_radial_281_2594)"/>
<path fill-rule="evenodd" clip-rule="evenodd" d="M25.17 5.23204C27.22 6.41204 28.57 7.91204 28.17 8.57204C27.77 9.23204 25.82 8.80204 23.77 7.62204C21.72 6.44204 20.36 4.94204 20.77 4.28204C21.18 3.62204 23.13 4.04204 25.18 5.23204H25.17Z" fill="url(#paint26_radial_281_2594)"/>
<path fill-rule="evenodd" clip-rule="evenodd" d="M27.21 8.87204C25.9339 8.79133 24.7004 8.38134 23.6299 7.68204C23.1702 7.42832 22.7321 7.13734 22.3199 6.81204C22.2673 6.87753 22.2014 6.93121 22.1267 6.96963C22.052 7.00805 21.97 7.03033 21.8861 7.03505C21.8022 7.03976 21.7182 7.0268 21.6396 6.99699C21.5611 6.96719 21.4896 6.92121 21.43 6.86204C21.2875 6.7217 21.1904 6.54188 21.1512 6.3458C21.112 6.14971 21.1324 5.94638 21.21 5.76204C20.73 5.19204 20.5399 4.67204 20.7299 4.34204C20.7271 4.32215 20.7271 4.30194 20.7299 4.28204C20.4799 4.93204 21.88 6.38204 23.93 7.57204C24.9339 8.17509 26.0276 8.61395 27.17 8.87204H27.21Z" fill="white"/>
<path fill-rule="evenodd" clip-rule="evenodd" d="M27.0201 7.77205C26.7001 8.15205 25.42 7.86205 24.09 7.09205C22.76 6.32205 21.94 5.43205 22.03 4.95205C22.5336 3.63546 23.1353 2.35854 23.8301 1.13205L28.8301 5.38205C28.2301 6.20205 27.6901 7.02205 27.0501 7.77205H27.0201Z" fill="#8E633F"/>
<path style="mix-blend-mode:screen" fill-rule="evenodd" clip-rule="evenodd" d="M27.05 7.28204C26.76 7.62205 25.58 7.34204 24.36 6.63204C23.14 5.92204 22.36 5.11204 22.44 4.63204C22.8763 3.46532 23.4046 2.33509 24.02 1.25204L28.54 5.17204C28 5.90204 27.61 6.62205 27.04 7.28204H27.05Z" fill="url(#paint27_radial_281_2594)"/>
<path style="mix-blend-mode:screen" fill-rule="evenodd" clip-rule="evenodd" d="M26.19 3.39203C25.19 5.14203 24.19 6.02203 23.44 5.39203C22.69 4.76203 23.13 3.14203 24.14 1.39203L26.14 3.39203H26.19Z" fill="url(#paint28_radial_281_2594)"/>
<path fill-rule="evenodd" clip-rule="evenodd" d="M24.13 4.79203C24.2909 4.80715 24.4401 4.88256 24.5476 5.00312C24.6552 5.12369 24.7132 5.28048 24.71 5.44203C24.7196 5.60824 24.6802 5.7736 24.5966 5.9176C24.513 6.06159 24.3891 6.17788 24.24 6.25203C23.97 6.34203 23.66 5.88203 23.6 5.45203C23.54 5.02203 23.79 4.73203 24.13 4.79203Z" fill="url(#paint29_linear_281_2594)"/>
<path fill-rule="evenodd" clip-rule="evenodd" d="M27.33 5.90206C27.404 6.07573 27.4166 6.26945 27.3657 6.45125C27.3148 6.63305 27.2034 6.79207 27.05 6.90206C26.8997 6.98038 26.7274 7.0062 26.5607 6.9754C26.394 6.94459 26.2424 6.85894 26.13 6.73206C25.96 6.53206 26.13 6.13206 26.43 5.91206C26.73 5.69206 27.17 5.66206 27.33 5.91206V5.90206Z" fill="url(#paint30_linear_281_2594)"/>
<g style="mix-blend-mode:screen" opacity="0.25">
<path fill-rule="evenodd" clip-rule="evenodd" d="M26.7099 2.55203C25.2899 1.45203 24.0399 0.742032 23.7699 1.21203C23.6299 1.45203 23.7699 1.95203 24.1499 2.54203C24.0248 2.69416 23.9564 2.88504 23.9564 3.08203C23.9564 3.27902 24.0248 3.4699 24.1499 3.62203C24.2661 3.76814 24.4303 3.86839 24.6133 3.905C24.7964 3.94161 24.9865 3.91222 25.1499 3.82203C25.3099 3.97203 25.4799 4.13203 25.6699 4.28203C27.1199 5.47203 28.4299 5.90203 28.7499 5.38203C29.0699 4.86203 28.1299 3.65203 26.7099 2.55203Z" fill="#EDCAA6"/>
</g>
<path fill-rule="evenodd" clip-rule="evenodd" d="M26.77 2.46204C28.16 3.61204 29.07 4.92204 28.77 5.38204C28.47 5.84204 27.16 5.28204 25.77 4.13204C24.38 2.98204 23.47 1.67204 23.77 1.21204C24.07 0.752039 25.38 1.30204 26.77 2.46204Z" fill="#936E4E"/>
<path style="mix-blend-mode:screen" fill-rule="evenodd" clip-rule="evenodd" d="M26.32 2.22204C27.46 3.16204 28.21 4.22204 27.99 4.62204C27.77 5.02204 26.67 4.54204 25.52 3.62204C24.37 2.70204 23.63 1.62204 23.85 1.22204C24.07 0.822044 25.18 1.30204 26.32 2.22204Z" fill="url(#paint31_radial_281_2594)"/>
<path fill-rule="evenodd" clip-rule="evenodd" d="M25.54 1.85205C25.97 2.17205 26.26 2.54205 26.18 2.68205C26.1 2.82205 25.6799 2.68205 25.2499 2.35205C24.8199 2.02205 24.53 1.65205 24.61 1.52205C24.69 1.39205 25.11 1.52205 25.54 1.85205Z" fill="url(#paint32_linear_281_2594)"/>
<path fill-rule="evenodd" clip-rule="evenodd" d="M26.5399 3.52205C26.8499 3.75205 27.0399 4.04206 26.9699 4.16206C26.8999 4.28206 26.5899 4.16205 26.2799 3.97205C25.9699 3.78205 25.7799 3.45205 25.8499 3.33205C25.9199 3.21205 26.2299 3.33205 26.5399 3.52205Z" fill="url(#paint33_linear_281_2594)"/>
<path fill-rule="evenodd" clip-rule="evenodd" d="M28.07 4.10205C28.41 4.38205 28.62 4.72205 28.54 4.86205C28.46 5.00205 28.12 4.86205 27.77 4.61205C27.42 4.36205 27.21 3.99205 27.3 3.85205C27.39 3.71205 27.72 3.85205 28.07 4.10205Z" fill="url(#paint34_linear_281_2594)"/>
<path fill-rule="evenodd" clip-rule="evenodd" d="M25.09 3.66205C25.0227 3.70325 24.9478 3.73053 24.8697 3.74227C24.7917 3.75401 24.7121 3.74997 24.6356 3.73039C24.5591 3.7108 24.4874 3.67608 24.4246 3.62827C24.3618 3.58046 24.3092 3.52054 24.27 3.45205C24.01 3.12205 24.01 2.73205 24.22 2.57205C24.43 2.41205 24.83 2.57205 25.1 2.89205C25.37 3.21205 25.32 3.51205 25.1 3.66205H25.09Z" fill="url(#paint35_linear_281_2594)"/>
<path style="mix-blend-mode:screen" fill-rule="evenodd" clip-rule="evenodd" d="M23.46 24.032C23.0665 25.0417 22.4679 25.9588 21.7021 26.7254C20.9362 27.4921 20.0198 28.0916 19.0107 28.4863C18.0015 28.881 16.9214 29.0621 15.8387 29.0184C14.7559 28.9746 13.694 28.7069 12.72 28.232C16.6965 28.21 20.5234 26.7134 23.46 24.032Z" fill="url(#paint36_radial_281_2594)"/>
<defs>
<linearGradient id="paint0_linear_281_2594" x1="16.67" y1="34.002" x2="16.67" y2="23.002" gradientUnits="userSpaceOnUse">
<stop offset="0.43" stop-color="#884329"/>
<stop offset="1" stop-color="#57280C"/>
</linearGradient>
<radialGradient id="paint1_radial_281_2594" cx="0" cy="0" r="1" gradientUnits="userSpaceOnUse" gradientTransform="translate(5.51998 7.49205) scale(25.69 25.69)">
<stop stop-color="#CD9463"/>
<stop offset="1" stop-color="#734324"/>
</radialGradient>
<radialGradient id="paint2_radial_281_2594" cx="0" cy="0" r="1" gradientUnits="userSpaceOnUse" gradientTransform="translate(8.38003 -5.38796) scale(46.68 46.68)">
<stop stop-color="#B6753E"/>
<stop offset="1" stop-color="#64381C"/>
</radialGradient>
<radialGradient id="paint3_radial_281_2594" cx="0" cy="0" r="1" gradientUnits="userSpaceOnUse" gradientTransform="translate(6.03004 -10.338) scale(59.7 59.7)">
<stop stop-color="#B6753E"/>
<stop offset="1" stop-color="#64381C"/>
</radialGradient>
<radialGradient id="paint4_radial_281_2594" cx="0" cy="0" r="1" gradientUnits="userSpaceOnUse" gradientTransform="translate(15.0001 -6.07797) scale(45.76 45.76)">
<stop stop-color="#B6753E"/>
<stop offset="1" stop-color="#64381C"/>
</radialGradient>
<linearGradient id="paint5_linear_281_2594" x1="34.26" y1="26.772" x2="7.99003" y2="0.502039" gradientUnits="userSpaceOnUse">
<stop stop-color="#85451A"/>
<stop offset="1" stop-color="#B1703A"/>
</linearGradient>
<radialGradient id="paint6_radial_281_2594" cx="0" cy="0" r="1" gradientUnits="userSpaceOnUse" gradientTransform="translate(16.1901 14.372) scale(39.3 39.3)">
<stop stop-color="#B6753E"/>
<stop offset="1" stop-color="#64381C"/>
</radialGradient>
<radialGradient id="paint7_radial_281_2594" cx="0" cy="0" r="1" gradientUnits="userSpaceOnUse" gradientTransform="translate(17.77 19.592) scale(28.34 28.34)">
<stop stop-color="#160E0C"/>
<stop offset="0.15" stop-color="#1A100C"/>
<stop offset="0.31" stop-color="#26170E"/>
<stop offset="0.46" stop-color="#3A2210"/>
<stop offset="0.61" stop-color="#563212"/>
<stop offset="0.77" stop-color="#7A4616"/>
<stop offset="0.92" stop-color="#A65E1A"/>
<stop offset="1" stop-color="#C06D1D"/>
</radialGradient>
<radialGradient id="paint8_radial_281_2594" cx="0" cy="0" r="1" gradientUnits="userSpaceOnUse" gradientTransform="translate(1.95004 -1.37795) scale(33.13 33.13)">
<stop stop-color="#F39200"/>
<stop offset="0.45" stop-color="#B63000"/>
<stop offset="0.52" stop-color="#9D2900"/>
<stop offset="0.85" stop-color="#2F0C00"/>
<stop offset="1" stop-color="#030000"/>
</radialGradient>
<radialGradient id="paint9_radial_281_2594" cx="0" cy="0" r="1" gradientUnits="userSpaceOnUse" gradientTransform="translate(5.19002 20.552) scale(15.02 15.02)">
<stop stop-color="white"/>
<stop offset="1" stop-color="#5E689E"/>
</radialGradient>
<radialGradient id="paint10_radial_281_2594" cx="0" cy="0" r="1" gradientUnits="userSpaceOnUse" gradientTransform="translate(12.85 23.3121) scale(12.24)">
<stop stop-color="#95C11F"/>
<stop offset="1" stop-color="#3D8C00"/>
</radialGradient>
<radialGradient id="paint11_radial_281_2594" cx="0" cy="0" r="1" gradientUnits="userSpaceOnUse" gradientTransform="translate(12.9699 21.182) scale(15.66 15.66)">
<stop stop-color="#79A600"/>
<stop offset="0.61" stop-color="#007011"/>
<stop offset="0.89" stop-color="#95C11F"/>
</radialGradient>
<radialGradient id="paint12_radial_281_2594" cx="0" cy="0" r="1" gradientUnits="userSpaceOnUse" gradientTransform="translate(13.6901 24.8821) scale(14.7 14.7)">
<stop stop-color="#468A00"/>
<stop offset="1"/>
</radialGradient>
<radialGradient id="paint13_radial_281_2594" cx="0" cy="0" r="1" gradientUnits="userSpaceOnUse" gradientTransform="translate(10.61 25.412) scale(12.77)">
<stop stop-color="#64AA19"/>
<stop offset="1"/>
</radialGradient>
<radialGradient id="paint14_radial_281_2594" cx="0" cy="0" r="1" gradientUnits="userSpaceOnUse" gradientTransform="translate(14.6099 19.032) scale(10.44 10.44)">
<stop stop-color="#95C11F"/>
<stop offset="1"/>
</radialGradient>
<radialGradient id="paint15_radial_281_2594" cx="0" cy="0" r="1" gradientUnits="userSpaceOnUse" gradientTransform="translate(12.11 19.9421) scale(9.58999 9.59)">
<stop stop-color="#95C11F"/>
<stop offset="1"/>
</radialGradient>
<radialGradient id="paint16_radial_281_2594" cx="0" cy="0" r="1" gradientUnits="userSpaceOnUse" gradientTransform="translate(14.83 11.852) scale(33.97 33.97)">
<stop stop-color="#CCF0EF"/>
<stop offset="1" stop-color="#5E73E6"/>
</radialGradient>
<linearGradient id="paint17_linear_281_2594" x1="23.1399" y1="12.392" x2="24.9699" y2="24.702" gradientUnits="userSpaceOnUse">
<stop stop-color="white"/>
<stop offset="1"/>
</linearGradient>
<radialGradient id="paint18_radial_281_2594" cx="0" cy="0" r="1" gradientUnits="userSpaceOnUse" gradientTransform="translate(16.5199 6.98205) scale(10.08 10.08)">
<stop stop-color="white"/>
<stop offset="1"/>
</radialGradient>
<radialGradient id="paint19_radial_281_2594" cx="0" cy="0" r="1" gradientUnits="userSpaceOnUse" gradientTransform="translate(19.7301 8.32206) scale(5.42001 5.42)">
<stop stop-color="white"/>
<stop offset="1"/>
</radialGradient>
<radialGradient id="paint20_radial_281_2594" cx="0" cy="0" r="1" gradientUnits="userSpaceOnUse" gradientTransform="translate(16.9699 22.8921) scale(14.57 14.57)">
<stop offset="0.37"/>
<stop offset="1" stop-color="white"/>
</radialGradient>
<radialGradient id="paint21_radial_281_2594" cx="0" cy="0" r="1" gradientUnits="userSpaceOnUse" gradientTransform="translate(15.7599 21.2821) scale(14.91 14.91)">
<stop/>
<stop offset="1" stop-color="white"/>
</radialGradient>
<radialGradient id="paint22_radial_281_2594" cx="0" cy="0" r="1" gradientUnits="userSpaceOnUse" gradientTransform="translate(20.6399 8.77206) scale(3.90003 3.9)">
<stop stop-color="white"/>
<stop offset="1"/>
</radialGradient>
<radialGradient id="paint23_radial_281_2594" cx="0" cy="0" r="1" gradientUnits="userSpaceOnUse" gradientTransform="translate(21.2101 4.26203) scale(11.97 11.97)">
<stop stop-color="#CCF0EF"/>
<stop offset="1" stop-color="#364E82"/>
</radialGradient>
<linearGradient id="paint24_linear_281_2594" x1="8.01002" y1="25.882" x2="15.75" y2="30.512" gradientUnits="userSpaceOnUse">
<stop stop-color="white"/>
<stop offset="1"/>
</linearGradient>
<radialGradient id="paint25_radial_281_2594" cx="0" cy="0" r="1" gradientUnits="userSpaceOnUse" gradientTransform="translate(23.06 7.60204) scale(4.66995 4.67)">
<stop/>
<stop offset="1" stop-color="white"/>
</radialGradient>
<radialGradient id="paint26_radial_281_2594" cx="0" cy="0" r="1" gradientUnits="userSpaceOnUse" gradientTransform="translate(20.8 4.12204) scale(13.95 13.95)">
<stop stop-color="#F2FFFF"/>
<stop offset="1" stop-color="#6A79C2"/>
</radialGradient>
<radialGradient id="paint27_radial_281_2594" cx="0" cy="0" r="1" gradientUnits="userSpaceOnUse" gradientTransform="translate(24 2.38204) scale(5.87001 5.87)">
<stop stop-color="#CA9E67"/>
<stop offset="1"/>
</radialGradient>
<radialGradient id="paint28_radial_281_2594" cx="0" cy="0" r="1" gradientUnits="userSpaceOnUse" gradientTransform="translate(24.14 1.61203) scale(4.29 4.29)">
<stop stop-color="#CA9E67"/>
<stop offset="1"/>
</radialGradient>
<linearGradient id="paint29_linear_281_2594" x1="24.62" y1="5.95203" x2="23.66" y2="4.99202" gradientUnits="userSpaceOnUse">
<stop stop-color="#B07A38"/>
<stop offset="1" stop-color="#704824"/>
</linearGradient>
<linearGradient id="paint30_linear_281_2594" x1="27.19" y1="6.77206" x2="26.37" y2="5.95205" gradientUnits="userSpaceOnUse">
<stop stop-color="#B07A38"/>
<stop offset="1" stop-color="#704824"/>
</linearGradient>
<radialGradient id="paint31_radial_281_2594" cx="0" cy="0" r="1" gradientUnits="userSpaceOnUse" gradientTransform="translate(24.56 -0.427956) scale(6.31002 6.31)">
<stop stop-color="#CA9E67"/>
<stop offset="1"/>
</radialGradient>
<linearGradient id="paint32_linear_281_2594" x1="24.64" y1="2.10205" x2="26.23" y2="2.10205" gradientUnits="userSpaceOnUse">
<stop stop-color="#6B4E35"/>
<stop offset="1" stop-color="#87643A"/>
</linearGradient>
<linearGradient id="paint33_linear_281_2594" x1="25.8099" y1="3.74205" x2="26.9599" y2="3.74205" gradientUnits="userSpaceOnUse">
<stop stop-color="#6B4E35"/>
<stop offset="1" stop-color="#87643A"/>
</linearGradient>
<linearGradient id="paint34_linear_281_2594" x1="27.28" y1="4.35205" x2="28.56" y2="4.35205" gradientUnits="userSpaceOnUse">
<stop stop-color="#6B4E35"/>
<stop offset="1" stop-color="#87643A"/>
</linearGradient>
<linearGradient id="paint35_linear_281_2594" x1="25.14" y1="3.62205" x2="24.15" y2="2.64205" gradientUnits="userSpaceOnUse">
<stop stop-color="#B07A38"/>
<stop offset="1" stop-color="#704824"/>
</linearGradient>
<radialGradient id="paint36_radial_281_2594" cx="0" cy="0" r="1" gradientUnits="userSpaceOnUse" gradientTransform="translate(17.02 22.232) scale(10.32 10.32)">
<stop stop-color="#95C11F"/>
<stop offset="1"/>
</radialGradient>
</defs>
</svg>
