<svg width="36" height="37" viewBox="0 0 36 37" fill="none" xmlns="http://www.w3.org/2000/svg">
<path fill-rule="evenodd" clip-rule="evenodd" d="M35.0334 23.36C35.0334 20.72 34.9233 18.1 34.8533 15.54C34.7233 11.4 34.8533 6.87999 34.5833 2.80999C32.9008 1.86435 31.0361 1.28821 29.1133 1.11999H28.6933C26.9233 0.989991 24.5833 0.759994 23.3333 0.579994C21.5233 0.479994 19.0833 0.399994 17.2633 0.399994H16.6833C13.9033 0.399994 11.5133 0.579992 8.68335 0.639992C6.43335 0.939992 3.57333 1.25999 1.73333 1.63999C1.2773 1.81941 0.872162 2.10782 0.553342 2.47999C0.493342 3.06999 0.183348 5.47999 0.153348 6.41999C0.083348 8.16999 0.0433333 9.93999 0.0133333 11.72C-0.0166667 13.5 0.0133333 15.35 0.0133333 17.19C0.0133333 19.03 0.0133504 20.93 0.0933504 22.83V23.06C0.14335 25.52 0.23335 28.01 0.34335 30.54C0.34335 30.64 0.34335 30.75 0.34335 30.85C0.47335 31.46 0.623343 32.07 0.773343 32.62C0.873343 33 0.983341 33.35 1.08334 33.62C1.332 34.1381 1.68937 34.5965 2.13113 34.9641C2.57289 35.3316 3.08867 35.5997 3.64334 35.75C5.82334 35.68 7.90333 35.69 9.94333 35.75C11.9833 35.81 13.9433 35.88 15.9933 35.99C18.0433 36.1 19.9933 36.22 21.9933 36.33C23.9933 36.44 26.1333 36.54 28.3233 36.6C30.2172 36.3406 32.0693 35.8364 33.8333 35.1L35.0034 31.55V31.48C35.0634 28.74 35.0634 26 35.0334 23.36ZM17.3734 20.82C17.1434 21.37 16.9233 21.92 16.6933 22.48C16.8833 21.92 17.1033 21.36 17.3333 20.82H17.3734ZM22.7733 8.38999C22.9733 7.96999 23.1733 7.56999 23.3533 7.20999C23.1333 7.56999 22.9333 7.99999 22.7333 8.38999H22.7733ZM22.1833 9.64999L22.5533 8.83999C22.3933 9.09999 22.2633 9.36999 22.1433 9.64999H22.1833Z" fill="#924000"/>
<path fill-rule="evenodd" clip-rule="evenodd" d="M34.2534 22.77C34.5034 25.65 34.7434 28.57 35.0034 31.55L33.8334 35.1C32.0799 35.7957 30.2453 36.2661 28.3734 36.5C24.0134 36.38 20.0034 36.1 16.0034 35.88C12.0034 35.66 8.00339 35.52 3.66339 35.66C3.10986 35.5045 2.59512 35.2345 2.15244 34.8676C1.70975 34.5007 1.34897 34.045 1.09341 33.53C0.801954 32.6343 0.561566 31.7229 0.373413 30.8C0.548529 28.131 0.458066 25.4511 0.103394 22.8H34.2534V22.77Z" fill="url(#paint0_linear_282_3026)"/>
<path fill-rule="evenodd" clip-rule="evenodd" d="M17.2633 0.399994C18.8616 1.94504 20.5585 3.38473 22.3433 4.70999C22.6058 4.95752 22.9347 5.12335 23.2898 5.18727C23.6449 5.25119 24.0109 5.21044 24.3433 5.06999C25.8527 3.82766 27.2979 2.50928 28.6733 1.11999C26.9033 0.989991 24.5633 0.759994 23.3133 0.579994C21.5033 0.479994 19.0633 0.399994 17.2433 0.399994H17.2633Z" fill="url(#paint1_radial_282_3026)"/>
<path fill-rule="evenodd" clip-rule="evenodd" d="M23.3133 7.20995C22.5033 8.81995 21.4633 11.0599 20.3133 13.6999C19.7233 15.0399 19.1133 16.4799 18.4833 17.9899C17.8533 19.4999 17.1833 21.1199 16.4833 22.7799C15.7833 24.4399 15.1833 26.0499 14.5333 27.7199C13.8833 29.3899 13.2433 31.1199 12.6333 32.8099C15.3733 32.8099 18.0933 32.8099 20.8433 32.8099C23.5933 32.8099 26.3733 32.9 29.2633 32.9799C31.2098 32.7415 33.1183 32.2577 34.9433 31.5399C35.0133 28.7699 35.0133 26.0399 34.9433 23.3399C34.8733 20.6399 34.8333 18.0799 34.7633 15.5199C34.6333 11.3799 34.7633 6.85995 34.4933 2.78995C32.8108 1.8443 30.946 1.26817 29.0233 1.09995C27.7933 2.33995 26.5333 3.53994 25.2333 4.76994C24.3789 5.40107 23.6922 6.23198 23.2333 7.18995L23.3133 7.20995Z" fill="url(#paint2_radial_282_3026)"/>
<path fill-rule="evenodd" clip-rule="evenodd" d="M15.8333 22.78C16.9867 19.8267 18.18 16.9667 19.4133 14.2C20.6467 11.4333 21.9167 8.79666 23.2234 6.28999C23.2234 5.71999 23.0933 5.65999 22.2933 5.12999C20.3095 3.69351 18.4344 2.11255 16.6833 0.399994C13.8933 0.399994 11.5033 0.579992 8.68335 0.639992C6.43335 0.939992 3.57333 1.25999 1.73333 1.63999C1.2773 1.81941 0.872162 2.10782 0.553342 2.47999C0.493342 3.06999 0.183348 5.47999 0.153348 6.41999C0.083348 8.16999 0.0433333 9.93999 0.0133333 11.72C-0.0166667 13.5 0.0133333 15.35 0.0133333 17.19C0.0133333 19.03 0.0133504 20.93 0.0933504 22.83C0.15335 25.47 0.243339 28.14 0.363339 30.83C0.631777 31.3616 1.00773 31.8316 1.46734 32.2104C1.92696 32.5891 2.46022 32.8682 3.03335 33.03C6.16335 32.93 9.18333 32.86 12.1633 32.84C12.7533 31.1 13.3433 29.39 13.9533 27.71C14.5633 26.03 15.1834 24.41 15.8134 22.8L15.8333 22.78Z" fill="url(#paint3_radial_282_3026)"/>
<path fill-rule="evenodd" clip-rule="evenodd" d="M12.6833 32.81C13.6233 30.23 14.6234 27.6 15.6234 25.05C16.6234 22.5 17.6234 20.05 18.5634 17.83C19.5034 15.61 20.3833 13.54 21.1933 11.73C22.0033 9.92 22.7134 8.39999 23.3134 7.20999C23.7723 6.25202 24.459 5.42112 25.3134 4.78999C26.6134 3.55999 27.8733 2.35999 29.1033 1.11999H28.6833C27.308 2.50928 25.8628 3.82766 24.3533 5.06999C24.021 5.21044 23.6549 5.25119 23.2998 5.18727C22.9447 5.12335 22.6159 4.95752 22.3533 4.70999C20.5685 3.38473 18.8717 1.94504 17.2733 0.399994H16.6933C18.4444 2.11255 20.3195 3.69351 22.3033 5.12999C23.1033 5.64999 23.3033 5.71999 23.2333 6.28999C22.2333 8.28999 21.2334 10.29 20.2834 12.29C19.3334 14.29 18.3834 16.51 17.4734 18.7C16.5634 20.89 15.6433 23.19 14.7733 25.52C13.9033 27.85 13.0233 30.31 12.1833 32.8L12.6833 32.81Z" fill="url(#paint4_linear_282_3026)"/>
<path style="mix-blend-mode:screen" opacity="0.35" fill-rule="evenodd" clip-rule="evenodd" d="M35.0334 23.36C35.0334 20.72 34.9233 18.1 34.8533 15.54C34.7233 11.4 34.8533 6.87999 34.5833 2.80999C32.9008 1.86435 31.0361 1.28821 29.1133 1.11999H28.6933C26.9233 0.989991 24.5833 0.759994 23.3333 0.579994C21.5233 0.479994 19.0833 0.399994 17.2633 0.399994H16.6833C13.9033 0.399994 11.5133 0.579992 8.68335 0.639992C6.43335 0.939992 3.57333 1.25999 1.73333 1.63999C1.2773 1.81941 0.872162 2.10782 0.553342 2.47999C0.493342 3.06999 0.183348 5.47999 0.153348 6.41999C0.083348 8.16999 0.0433333 9.93999 0.0133333 11.72C-0.0166667 13.5 0.0133333 15.35 0.0133333 17.19C0.0133333 19.03 0.0133504 20.93 0.0933504 22.83V23.06C0.14335 25.52 0.23335 28.01 0.34335 30.54C0.34335 30.64 0.34335 30.75 0.34335 30.85C0.47335 31.46 0.623343 32.07 0.773343 32.62C0.873343 33 0.983341 33.35 1.08334 33.62C1.332 34.1381 1.68937 34.5965 2.13113 34.9641C2.57289 35.3316 3.08867 35.5997 3.64334 35.75C5.82334 35.68 7.90333 35.69 9.94333 35.75C11.9833 35.81 13.9433 35.88 15.9933 35.99C18.0433 36.1 19.9933 36.22 21.9933 36.33C23.9933 36.44 26.1333 36.54 28.3233 36.6C30.2172 36.3406 32.0693 35.8364 33.8333 35.1L35.0034 31.55V31.48C35.0634 28.74 35.0634 26 35.0334 23.36ZM17.3734 20.82C17.1434 21.37 16.9233 21.92 16.6933 22.48C16.8833 21.92 17.1033 21.36 17.3333 20.82H17.3734ZM22.7733 8.38999C22.9733 7.96999 23.1733 7.56999 23.3533 7.20999C23.1333 7.56999 22.9333 7.99999 22.7333 8.38999H22.7733ZM22.1833 9.64999L22.5533 8.83999C22.3933 9.09999 22.2633 9.36999 22.1433 9.64999H22.1833Z" fill="url(#paint5_radial_282_3026)"/>
<g clip-path="url(#clip0_282_3026)">
<path d="M13.7396 26.0614C13.2162 26.4596 12.6501 26.5844 12.0312 26.3194C11.3127 26.012 10.8713 25.1633 11.0283 24.3425C11.2639 23.1089 12.012 22.2647 13.0776 21.6786C13.4396 21.4791 13.8306 21.3493 14.2692 21.2336C14.1269 21.1755 14.0163 21.1274 13.904 21.0851C12.5104 20.5583 11.5365 19.6333 11.1578 18.1363C11.1332 18.038 11.1004 17.9791 10.9725 17.9882C10.7934 18.0006 10.6036 17.9969 10.4397 17.9135C10.1569 17.7692 10.0138 17.529 10.0122 17.2055C10.0097 16.687 10.0171 16.1672 9.99987 15.65C9.98265 15.1157 10.3032 14.8756 10.784 14.8694C10.9926 14.8669 11.0434 14.8117 11.0299 14.6097C10.9938 14.029 11.0176 13.4508 11.3746 12.9642C11.5636 12.7194 11.6545 12.4115 11.6291 12.1018C11.6095 11.7517 11.7435 11.4332 11.9743 11.1661C12.0083 11.1297 12.0345 11.0865 12.0512 11.0393C12.0678 10.9921 12.0746 10.9419 12.071 10.8919C12.0296 9.67238 12.6374 8.78679 13.7855 8.39107C13.823 8.38245 13.8572 8.36281 13.8837 8.33463C13.9103 8.30644 13.928 8.27096 13.9347 8.23262C14.4069 6.45149 16.644 5.80648 17.9335 7.02972C18.0154 7.10604 18.0536 7.08613 18.1257 7.02391C19.5238 5.821 21.5949 6.44319 22.095 8.21686C22.1032 8.25907 22.1234 8.29795 22.153 8.32886C22.1826 8.35976 22.2204 8.38136 22.2618 8.39107C23.416 8.77725 24.0468 9.70598 23.9833 10.9234C23.979 10.9601 23.9825 10.9973 23.9936 11.0325C24.0047 11.0677 24.0231 11.1001 24.0476 11.1275C24.3718 11.4946 24.4575 11.9301 24.41 12.4051C24.4013 12.4917 24.3833 12.5776 24.4477 12.6585C24.8985 13.2263 25.0498 13.8834 24.9907 14.596C24.9739 14.7993 25.0174 14.8731 25.2404 14.8718C25.7388 14.8694 25.9863 15.1298 25.9949 15.6288C26.0031 16.1204 26.0011 16.6119 26.0015 17.1034C26.0019 17.595 25.781 17.8654 25.3088 17.9604C25.237 17.9794 25.1629 17.9884 25.0887 17.987C24.9469 17.9758 24.9034 18.0384 24.8682 18.1744C24.4968 19.6142 23.584 20.5487 22.2183 21.0556C22.0818 21.1066 21.9359 21.1386 21.8007 21.239C22.1327 21.3543 22.4606 21.4343 22.7663 21.5783C23.8222 22.076 24.594 22.8426 24.9534 23.9791C25.1875 24.7195 25.085 25.4085 24.5231 25.9855C24.2773 26.2348 23.9577 26.396 23.6131 26.4445C23.2684 26.4929 22.9175 26.426 22.6139 26.2538C22.5036 26.1904 22.3987 26.1174 22.2892 26.0464C22.2273 26.095 22.2577 26.1609 22.2577 26.2161C22.2552 26.6873 22.2577 27.1581 22.2577 27.6293C22.2556 28.5381 21.5543 29.3018 20.6391 29.393C19.8419 29.4726 18.9762 28.8169 18.8241 27.9873C18.7831 27.7649 18.7094 27.7073 18.4962 27.7185C18.1396 27.7376 17.7814 27.7272 17.424 27.7185C17.301 27.716 17.2568 27.7417 17.2375 27.8794C17.1804 28.2822 16.9879 28.6528 16.6924 28.9289C16.3969 29.2049 16.0165 29.3696 15.6152 29.3951C14.8582 29.4482 14.0986 28.9106 13.8626 28.1507C13.8171 28.0011 13.7939 27.8455 13.7937 27.689C13.7876 27.1573 13.7777 26.6259 13.7691 26.0941C13.7748 26.0838 13.7876 26.0701 13.7847 26.0634C13.7757 26.0402 13.7568 26.0506 13.7396 26.0614ZM13.0838 24.9381C13.0621 24.8653 13.0252 24.7981 12.9757 24.7408C12.9263 24.6836 12.8653 24.6377 12.7969 24.6063C12.5866 24.4217 12.3337 24.4097 12.0743 24.4221C11.9984 24.4254 11.9767 24.4719 11.9652 24.5416C11.8976 24.9564 12.1341 25.3421 12.5423 25.474C12.5563 25.491 12.571 25.5043 12.5932 25.4856C12.6126 25.4946 12.6338 25.4989 12.6551 25.4982C12.6765 25.4975 12.6974 25.4918 12.7161 25.4815C13.0518 25.428 13.1781 25.2405 13.0834 24.9373L13.0838 24.9381ZM10.6417 16.0913C10.6382 16.3618 10.6345 16.6324 10.6307 16.9031C10.6307 17.0226 10.6897 17.069 10.8065 17.069C10.9233 17.069 10.9705 17.0184 10.9684 16.8973C10.9647 16.5584 10.9705 16.2195 10.9705 15.8806C10.9705 15.8391 10.9877 15.7831 10.9295 15.7562C10.618 15.7678 10.6118 15.7744 10.6417 16.0913ZM25.0531 16.0913C25.0531 16.3709 25.0498 16.6505 25.0498 16.9301C25.0498 16.996 25.0342 17.0752 25.1391 17.0781C25.2379 17.081 25.3555 17.0732 25.3584 16.9537C25.3662 16.5804 25.408 16.2096 25.3437 15.8391C25.2855 15.7383 25.185 15.7301 25.0977 15.7562C25.0104 15.7823 25.0617 15.8835 25.0506 15.9503C25.047 15.9972 25.0478 16.0442 25.0531 16.0909V16.0913ZM22.984 24.8456C22.8557 25.0708 22.9373 25.3176 23.1762 25.4292C23.5451 25.6014 23.9743 25.3529 24.0743 24.9107C24.1636 24.5138 24.0915 24.4246 23.6955 24.4437C23.6754 24.4437 23.6545 24.4499 23.6361 24.4528C23.3652 24.4926 23.1385 24.6096 22.984 24.8456ZM21.965 24.0073C21.965 24.1297 21.965 24.252 21.9699 24.3744C21.9689 24.3949 21.9752 24.4152 21.9877 24.4314C22.0002 24.4477 22.018 24.4588 22.038 24.4627C22.079 24.469 22.0909 24.4291 22.1068 24.3993C22.3265 23.9949 22.6635 23.7265 23.077 23.5485C23.1877 23.5207 23.2967 23.478 23.409 23.4681C23.5927 23.4511 23.5525 23.3851 23.4627 23.2914C23.0639 22.8755 22.573 22.5617 22.0306 22.3759C22.0044 22.3527 21.981 22.346 21.9667 22.3879L21.9638 22.4709C21.9586 22.474 21.9543 22.4785 21.9514 22.4838C21.9484 22.4891 21.9468 22.4951 21.9468 22.5012C21.9468 22.5073 21.9484 22.5133 21.9514 22.5186C21.9543 22.5239 21.9586 22.5283 21.9638 22.5315C21.9638 22.6211 21.9638 22.7106 21.9638 22.8002C21.9349 22.9927 21.9349 23.1885 21.9638 23.381V23.7505C21.9356 23.8338 21.9361 23.9243 21.965 24.0073ZM13.1117 23.5925C13.4572 23.7879 13.7568 24.0309 13.9417 24.3964C13.9585 24.43 13.9777 24.4793 14.0302 24.4586C14.0896 24.4374 14.1032 24.386 14.1036 24.3271C14.1079 23.7082 14.1129 23.0895 14.1183 22.4709C14.1183 22.3801 14.0966 22.3328 14.0027 22.3979C13.4232 22.5385 12.9678 22.8732 12.5887 23.3262C12.5358 23.3897 12.5112 23.4365 12.6255 23.4618C12.787 23.4988 12.9485 23.549 13.1104 23.5933L13.1117 23.5925ZM20.5964 28.3627C21.0092 28.3013 21.2305 28.0524 21.2375 27.6376C21.2441 27.2966 21.2416 26.9553 21.2375 26.6143C21.2375 26.562 21.2645 26.4981 21.2022 26.4426C21.0186 26.7062 20.8005 26.9434 20.5538 27.1477C20.3333 27.2883 20.1193 27.4431 19.8652 27.5185C19.8538 27.5203 19.8429 27.5244 19.8331 27.5307C19.8233 27.5369 19.8149 27.5451 19.8084 27.5547C19.8018 27.5643 19.7973 27.5752 19.7951 27.5867C19.7929 27.5982 19.7931 27.61 19.7955 27.6214C19.8271 28.1146 20.2612 28.4763 20.5952 28.3656L20.5964 28.3627ZM15.6267 27.2269C15.323 27.0105 15.0508 26.7521 14.818 26.4592C14.811 26.4889 14.806 26.5191 14.8028 26.5496C14.8028 26.9113 14.8004 27.273 14.8057 27.6351C14.8131 28.1142 15.136 28.4041 15.6189 28.3726C15.7849 28.3409 15.9367 28.2566 16.0523 28.132C16.168 28.0073 16.2415 27.8487 16.2624 27.6791C16.2735 27.6027 16.2624 27.5546 16.1833 27.5169C15.9947 27.4252 15.8119 27.3236 15.6267 27.2269ZM21.1133 8.53542C21.1133 8.30936 20.9793 8.1592 20.853 7.98831C20.5067 7.51959 20.0398 7.36611 19.5058 7.46774C18.9397 7.57393 18.4434 7.94973 18.5446 8.87348L18.5405 9.98513L18.5565 11.2254C18.5221 11.3851 18.5528 11.5477 18.5401 11.7078C18.5294 11.8405 18.5938 11.8559 18.6971 11.8252C20.1226 11.8282 21.548 11.8306 22.9733 11.8322C23.0758 11.8322 23.2299 11.8878 23.2697 11.7961C23.318 11.6854 23.2074 11.5647 23.1225 11.4817C22.9926 11.3552 22.9688 11.2125 22.9774 11.0395C22.9869 10.8521 23.0184 10.6608 22.9569 10.4746C22.9513 10.4211 22.9422 10.368 22.9299 10.3157C22.7274 9.62551 22.0023 9.1991 21.2109 9.30362C21.1416 9.23643 21.1793 9.15057 21.1719 9.07258C21.1559 8.89339 21.2055 8.70632 21.1133 8.53542ZM19.0258 21.2912C17.7785 21.2842 16.5313 21.2792 15.284 21.268C15.15 21.268 15.15 21.3352 15.1504 21.4339C15.1549 22.4916 15.1553 23.5494 15.1602 24.6075C15.1602 24.9858 15.2615 25.3346 15.4972 25.6362C15.6308 25.8974 15.8208 26.1247 16.0531 26.3014C16.2854 26.4782 16.5541 26.5997 16.8391 26.657C17.517 26.8051 18.2073 26.7479 18.8922 26.7043C19.9423 26.6379 20.8416 25.7503 20.8789 24.6888C20.917 23.6054 20.8911 22.5198 20.8961 21.4356C20.8961 21.3368 20.8727 21.2842 20.762 21.2858C20.3313 21.2925 19.9013 21.2937 19.4693 21.2966C19.3223 21.2755 19.1732 21.2737 19.0258 21.2912ZM15.6914 11.8256C15.8726 11.8277 16.0538 11.8351 16.2349 11.8297C16.5895 11.8189 16.9453 11.8642 17.2986 11.8036C17.4506 11.8774 17.5035 11.8223 17.4892 11.6613C17.4769 11.5128 17.4777 11.3635 17.4728 11.2146C17.476 10.8026 17.4792 10.3908 17.4822 9.97933C17.4838 9.52996 17.4855 9.08074 17.4871 8.63166C17.4892 7.96798 17.1936 7.59467 16.5538 7.45612C15.8337 7.29933 15.0414 7.79584 14.9315 8.47403C14.8378 8.73279 14.8105 9.01136 14.852 9.28371C14.7237 9.28371 14.5958 9.29035 14.4675 9.28994C13.758 9.28745 13.1125 9.90135 13.074 10.6194C13.0643 10.7761 13.0643 10.9334 13.074 11.0901C13.0854 11.2561 13.0612 11.3905 12.933 11.5116C12.8465 11.5972 12.7869 11.7067 12.7616 11.8264L15.6914 11.8256ZM23.6992 13.3425C23.4451 13.0019 23.1012 12.8518 22.6852 12.8514C19.5849 12.8497 16.4844 12.8481 13.3838 12.8464C12.5854 12.8464 12.0546 13.379 12.0505 14.1874C12.0452 15.163 12.0554 16.137 12.048 17.1138C12.0374 18.6071 13.0235 19.7569 14.4663 20.1418C14.4792 20.1459 14.4932 20.1446 14.5053 20.1383C14.5173 20.1321 14.5264 20.1212 14.5307 20.1082C14.6344 20.1912 14.7553 20.1862 14.877 20.1862C16.8991 20.1862 18.9211 20.1862 20.9432 20.1862C21.1317 20.1876 21.3201 20.1748 21.5068 20.148C22.825 19.9481 23.9357 18.7792 23.9788 17.4008C24.0128 16.3104 23.9865 15.2178 23.9788 14.1265C23.9844 13.8394 23.8848 13.5604 23.6992 13.3433V13.3425Z" fill="#191919"/>
<path d="M23.6994 13.3433C23.8859 13.5598 23.9866 13.8387 23.9818 14.126C23.9896 15.2173 24.0158 16.3099 23.9818 17.4004C23.9387 18.7792 22.828 19.9476 21.5098 20.1476C21.3231 20.1744 21.1348 20.1871 20.9462 20.1857C18.9242 20.1857 16.9021 20.1857 14.88 20.1857C14.7571 20.1857 14.6374 20.189 14.5337 20.1077C14.373 19.9883 14.1931 19.9004 14.0439 19.7589C13.634 19.3723 13.3565 18.8949 13.095 18.405C13.0229 18.2698 12.9311 18.1404 12.9159 17.9786C13.0274 17.9844 13.045 18.0902 13.0934 18.157C13.5992 18.8542 14.2632 19.2462 15.1305 19.2462C17.1184 19.2462 19.1063 19.2516 21.0942 19.2408C21.668 19.2379 22.1652 19.0131 22.5833 18.6108C23.0214 18.1881 23.185 17.6567 23.1887 17.0619C23.1948 16.0598 23.1924 15.0572 23.1944 14.0546C23.1944 13.9717 23.2038 13.892 23.2088 13.8103C23.3719 13.6552 23.5088 13.4702 23.6994 13.3433Z" fill="#B7B7B7"/>
<path d="M17.4729 11.2154C17.4778 11.3643 17.477 11.5136 17.4893 11.6621C17.5024 11.823 17.4508 11.8782 17.2987 11.8044C16.9343 11.4057 16.4753 11.1316 16.0281 10.8449C15.724 10.6496 15.3788 10.8665 15.3612 11.2328C15.3481 11.5024 15.4936 11.6779 15.6891 11.8264H12.7642C12.7895 11.7066 12.8491 11.5971 12.9356 11.5115C13.0638 11.3904 13.088 11.2543 13.0765 11.0901C13.0669 10.9333 13.0669 10.7761 13.0765 10.6193C13.1134 9.90128 13.759 9.28739 14.4701 9.29195C14.5984 9.29195 14.7263 9.2878 14.8546 9.28573C14.9501 9.38113 15.0436 9.47902 15.1415 9.57069C15.3374 9.75196 15.5723 9.79178 15.7936 9.68559C16.015 9.5794 16.1178 9.38237 16.067 9.17581C16.0125 8.95679 15.7043 8.71206 15.4805 8.76391C15.1964 8.82945 15.0493 8.70004 14.9329 8.47605C15.0436 7.79786 15.8346 7.30135 16.5552 7.45897C17.195 7.59875 17.4905 7.97083 17.4885 8.6345C17.4885 9.08386 17.4868 9.53308 17.4836 9.98217C17.386 9.91248 17.2946 9.82911 17.1889 9.77477C16.8265 9.59351 16.4486 9.77477 16.4101 10.1514C16.3839 10.4032 16.5396 10.5728 16.7232 10.7068C16.9679 10.8839 17.2221 11.0457 17.4729 11.2154Z" fill="#FEEDCD"/>
<path d="M12.9142 17.9782C12.9281 18.14 13.0212 18.2685 13.0933 18.4046C13.3548 18.8945 13.6335 19.3719 14.0422 19.7585C14.1914 19.8991 14.3701 19.9879 14.532 20.1073C14.5278 20.1204 14.5186 20.1312 14.5066 20.1375C14.4946 20.1437 14.4806 20.145 14.4676 20.1409C13.0236 19.7577 12.0375 18.6062 12.0494 17.1129C12.0567 16.1373 12.0465 15.1634 12.0518 14.1865C12.0559 13.3781 12.5847 12.8455 13.3852 12.8455C16.486 12.8455 19.5865 12.8472 22.6865 12.8505C23.1025 12.8505 23.4464 13.0011 23.7006 13.3416C23.51 13.4685 23.3727 13.6535 23.2087 13.8082C22.9685 13.5494 22.6714 13.4947 22.3295 13.5017C21.4466 13.52 20.5629 13.5079 19.6797 13.5079C17.5893 13.5079 15.4989 13.5079 13.4085 13.5079C13.1626 13.5079 12.9671 13.5909 12.8117 13.7892C12.7298 13.8937 12.7117 14.004 12.7089 14.1305C12.6839 15.2215 12.7671 16.3107 12.7544 17.4016C12.7503 17.5995 12.7753 17.811 12.9142 17.9782Z" fill="#FEEDCD"/>
<path d="M19.4682 21.2961C19.899 21.2932 20.3289 21.292 20.7609 21.2854C20.8716 21.2854 20.8954 21.3364 20.895 21.4351C20.89 22.5194 20.9159 23.6049 20.8777 24.6883C20.8405 25.7494 19.9412 26.6379 18.8911 26.7038C18.2062 26.7474 17.5159 26.8046 16.838 26.6565C16.553 26.5993 16.2844 26.4778 16.0521 26.301C15.8199 26.1243 15.63 25.8969 15.4965 25.6357L15.6604 25.6847C15.7535 25.7954 15.8867 25.7846 16.0096 25.8033C16.4777 25.8738 16.9491 25.8211 17.418 25.8448C17.6062 25.8555 17.7933 25.8087 17.9549 25.7104C18.5599 25.3549 19.0522 24.9074 19.2022 24.1757C19.3276 23.563 19.2534 22.9429 19.2612 22.3257C19.2612 22.3091 19.2411 22.2921 19.23 22.2755C19.271 22.1373 19.237 22.0083 19.1837 21.8818C19.2202 21.8101 19.2792 21.8018 19.3518 21.8101C19.4439 21.8217 19.5368 21.8267 19.6297 21.825C19.692 21.825 19.7809 21.8628 19.8104 21.7893C19.8399 21.7159 19.7604 21.6607 19.717 21.6035C19.6366 21.4986 19.5034 21.4384 19.4682 21.2961Z" fill="#FAB135"/>
<path d="M18.6972 11.8251C18.5939 11.8558 18.5296 11.8404 18.5402 11.7077C18.5529 11.5476 18.5222 11.385 18.5566 11.2249C18.8943 11.0312 19.2329 10.8375 19.5055 10.5513C19.5771 10.4698 19.6231 10.3687 19.6377 10.2607C19.6523 10.1527 19.6348 10.0427 19.5874 9.94483C19.4936 9.77269 19.2403 9.67853 19.0267 9.71047C18.8263 9.74075 18.7029 9.8934 18.5423 9.98506C18.5423 9.61451 18.5436 9.24396 18.5464 8.87341C18.6693 8.82944 18.7234 8.71496 18.7898 8.61707C18.8697 8.49691 18.9724 8.39413 19.0921 8.31478C19.2118 8.23542 19.3459 8.18109 19.4866 8.15499C19.9154 8.07203 20.3125 8.22177 20.6929 8.40386C20.8113 8.46069 20.9142 8.54946 21.0528 8.55651C21.0368 8.58632 21.0177 8.61427 20.9958 8.63988C20.8675 8.76432 20.7089 8.7581 20.5449 8.75934C20.4019 8.75635 20.263 8.80753 20.1553 8.90283C20.0476 8.99813 19.979 9.13069 19.9629 9.27452C19.9445 9.45662 20.1113 9.66982 20.3338 9.72665C20.6273 9.80173 20.8433 9.65157 21.0245 9.44583C21.0759 9.38553 21.1395 9.33702 21.211 9.30356C22.0025 9.19903 22.7275 9.62544 22.93 10.3157C22.9424 10.368 22.9514 10.421 22.9571 10.4745V11.2452C22.8366 10.7943 22.5628 10.465 22.2242 10.1746C21.9242 9.91994 21.5766 9.88427 21.2225 9.98797C20.8946 10.0859 20.6486 10.3302 20.4105 10.5687C20.3437 10.6346 20.292 10.7238 20.199 10.7537C19.9563 10.8366 19.7317 10.966 19.5374 11.1349C19.2591 11.3676 18.9243 11.5293 18.6972 11.8251Z" fill="#FBC45F"/>
<path d="M18.6972 11.8251C18.9243 11.5294 19.2591 11.3688 19.5375 11.1361C19.7318 10.9674 19.9564 10.8381 20.199 10.7553C20.292 10.7255 20.3437 10.6363 20.4105 10.5703C20.6503 10.3318 20.8942 10.0875 21.2225 9.98963C21.5766 9.88386 21.9242 9.92161 22.2242 10.1763C22.5628 10.4642 22.8366 10.7948 22.9571 11.2456V10.4745C23.0177 10.6608 22.987 10.852 22.9776 11.0395C22.969 11.2125 22.9927 11.3551 23.1227 11.4817C23.2075 11.5646 23.3182 11.6853 23.2698 11.7961C23.2288 11.8877 23.0759 11.8322 22.9735 11.8322C21.5479 11.8319 20.1225 11.8295 18.6972 11.8251Z" fill="#A86A4B"/>
<path d="M15.6604 25.6847L15.4965 25.6357C15.2604 25.3342 15.1612 24.9853 15.1591 24.607C15.1542 23.5493 15.1538 22.4916 15.1493 21.4334C15.1493 21.336 15.1493 21.2675 15.2829 21.2675C16.5302 21.2787 17.7774 21.2837 19.0247 21.2907C19.0206 21.4509 19.2022 21.6267 18.9837 21.769C18.4045 21.7321 17.825 21.7545 17.2454 21.7528C17.1302 21.7565 17.018 21.7907 16.92 21.852C16.6552 21.7827 16.3871 21.8428 16.1195 21.8196C15.9555 21.8051 15.8928 21.871 15.8965 22.0411C15.9043 22.4219 15.9047 22.8035 15.894 23.1843C15.8727 23.933 15.7744 24.6846 16.0908 25.4055C16.1912 25.6337 16.0826 25.7374 15.8375 25.6959C15.7787 25.6887 15.7196 25.685 15.6604 25.6847Z" fill="#F5F5F5"/>
<path d="M21.0516 8.55693C20.913 8.54988 20.8101 8.46111 20.6917 8.40429C20.3113 8.22095 19.9129 8.07245 19.4854 8.15541C19.3447 8.18151 19.2106 8.23584 19.0909 8.3152C18.9712 8.39455 18.8685 8.49733 18.7886 8.61749C18.7222 8.71538 18.6689 8.82987 18.5452 8.87383C18.4435 7.94967 18.9399 7.57386 19.5059 7.46768C20.0388 7.36771 20.5068 7.51953 20.8532 7.98825C20.9794 8.15914 21.1151 8.3093 21.1135 8.53536L21.0516 8.55693Z" fill="#FEEDCD"/>
<path d="M15.6916 11.8263C15.4952 11.6779 15.3497 11.5024 15.3637 11.2328C15.3813 10.8665 15.7264 10.6496 16.0305 10.8449C16.4761 11.1316 16.9351 11.4057 17.3011 11.8044C16.9478 11.8649 16.5921 11.8197 16.2375 11.8305C16.0539 11.8359 15.8727 11.8284 15.6916 11.8263Z" fill="#A86A4B"/>
<path d="M18.5406 9.98508C18.7013 9.89341 18.8247 9.74076 19.0251 9.71048C19.2387 9.67854 19.492 9.7727 19.5858 9.94484C19.6332 10.0427 19.6507 10.1527 19.6361 10.2607C19.6215 10.3687 19.5755 10.4698 19.5039 10.5513C19.2313 10.8375 18.8927 11.0312 18.555 11.2249L18.5406 9.98508Z" fill="#FEEDCD"/>
<path d="M15.619 28.3725C15.1362 28.4041 14.8132 28.1141 14.8058 27.635C14.8005 27.2729 14.8029 26.9112 14.8029 26.5495C14.8061 26.5191 14.8111 26.4889 14.8181 26.4591C15.0509 26.752 15.3231 27.0104 15.6268 27.2269C15.6243 27.609 15.6217 27.9909 15.619 28.3725Z" fill="#ECECEC"/>
<path d="M17.4729 11.2154C17.222 11.0457 16.9679 10.8839 16.722 10.706C16.5384 10.572 16.3826 10.4024 16.4088 10.1506C16.4498 9.77394 16.8257 9.59267 17.1876 9.77394C17.2934 9.82703 17.3848 9.9104 17.4823 9.98133C17.4796 10.3923 17.4764 10.8036 17.4729 11.2154Z" fill="#A86A4B"/>
<path d="M14.9317 8.47397C15.0481 8.69796 15.1952 8.82737 15.4793 8.76184C15.7031 8.70999 16.0121 8.95472 16.0658 9.17373C16.1166 9.38113 16.0096 9.5794 15.7924 9.68351C15.5752 9.78763 15.3362 9.74988 15.1403 9.56861C15.0411 9.47694 14.9477 9.37905 14.8534 9.28365C14.8115 9.0114 14.8384 8.73283 14.9317 8.47397Z" fill="#A86A4B"/>
<path d="M21.0516 8.55693L21.1135 8.53453C21.2057 8.70543 21.1544 8.8925 21.1721 9.07376C21.1795 9.15175 21.1417 9.23761 21.211 9.30481C21.1401 9.33806 21.077 9.38612 21.0257 9.44584C20.8446 9.65323 20.6286 9.80173 20.3351 9.72665C20.1125 9.66983 19.9457 9.45662 19.9642 9.27453C19.9799 9.13068 20.0481 8.99796 20.1554 8.90235C20.2628 8.80675 20.4016 8.75516 20.5445 8.75769C20.7085 8.75769 20.8688 8.76391 20.9954 8.63823C21.0169 8.61323 21.0358 8.58598 21.0516 8.55693Z" fill="#FEEDCD"/>
<path d="M22.0307 22.3758C22.5731 22.5616 23.064 22.8754 23.4628 23.2913C23.5526 23.385 23.5928 23.451 23.4091 23.468C23.2968 23.478 23.1878 23.5207 23.0771 23.5485C22.9615 23.5564 22.8473 23.519 22.7582 23.4439C22.5142 23.2645 22.2559 23.1058 21.986 22.9694C21.9791 22.913 21.9717 22.8566 21.9647 22.8002C21.9647 22.7106 21.9647 22.621 21.9647 22.5314C21.9647 22.5111 21.9647 22.4899 21.9647 22.4708C21.9647 22.443 21.9668 22.4157 21.9676 22.3879L22.0307 22.3758Z" fill="#FEEDCD"/>
<path d="M13.1106 23.5933C12.9466 23.5489 12.7884 23.4987 12.6245 23.4626C12.5101 23.4373 12.5347 23.3904 12.5876 23.327C12.9667 22.874 13.4221 22.5389 14.0016 22.3987C14.073 22.4688 14.1217 22.9109 14.0611 22.9773C14.0351 22.9962 14.0048 23.0082 13.973 23.0121C13.6188 23.1051 13.3573 23.3378 13.1106 23.5933Z" fill="#FEEDCD"/>
<path d="M20.5556 27.146C20.629 27.2261 20.5966 27.3256 20.5966 27.416C20.5999 27.7325 20.5966 28.049 20.5941 28.3655C20.2601 28.4762 19.826 28.1166 19.7961 27.6189C19.7936 27.6074 19.7935 27.5956 19.7957 27.5842C19.7979 27.5727 19.8024 27.5618 19.8089 27.5521C19.8155 27.5425 19.8239 27.5343 19.8337 27.5281C19.8434 27.5219 19.8544 27.5178 19.8658 27.516C20.1211 27.4413 20.3351 27.2866 20.5556 27.146Z" fill="#ECECEC"/>
<path d="M12.5441 25.4744C12.1343 25.3425 11.8994 24.9575 11.967 24.5419C11.9785 24.4722 12.0002 24.4258 12.0761 24.4224C12.3355 24.41 12.5884 24.4224 12.7987 24.6066C12.6901 24.7551 12.5736 24.9015 12.6683 25.1044C12.6851 25.2288 12.7015 25.3557 12.7183 25.4814C12.6996 25.4917 12.6787 25.4974 12.6573 25.4982C12.636 25.4989 12.6148 25.4946 12.5954 25.4856L12.5441 25.4744Z" fill="#FEEDCD"/>
<path d="M18.9866 21.7702C19.2034 21.628 19.0218 21.4521 19.0276 21.292C19.175 21.2741 19.324 21.2755 19.471 21.2961C19.5051 21.4384 19.6383 21.4994 19.717 21.6039C19.7604 21.6611 19.8399 21.7138 19.8104 21.7897C19.7809 21.8656 19.692 21.8246 19.6297 21.8254C19.5368 21.8271 19.4439 21.8221 19.3518 21.8105C19.2792 21.8022 19.2202 21.8105 19.1837 21.8822C19.1286 21.8284 19.0607 21.7898 18.9866 21.7702Z" fill="#FBC45F"/>
<path d="M23.6362 24.4527C23.6408 24.548 23.6395 24.6434 23.6326 24.7385C23.6199 24.8334 23.5758 24.9211 23.5074 24.9873C23.4391 25.0535 23.3505 25.0942 23.2563 25.1027C23.0194 25.1139 22.9989 25.0944 22.9841 24.8455C23.1387 24.6095 23.3653 24.4925 23.6362 24.4527Z" fill="#FEEDCD"/>
<path d="M21.9861 22.9694C21.9684 23.1059 22.0061 23.2461 21.9631 23.3813C21.9343 23.1888 21.9343 22.9931 21.9631 22.8006C21.9717 22.8566 21.9791 22.913 21.9861 22.9694Z" fill="#87A2BD"/>
<path d="M21.9639 23.7509C21.9916 23.834 21.9916 23.9241 21.9639 24.0072C21.9354 23.9242 21.9354 23.8339 21.9639 23.7509Z" fill="#87A2BD"/>
<path d="M12.5441 25.4744L12.595 25.486C12.5728 25.5046 12.5581 25.4914 12.5441 25.4744Z" fill="#87A2BD"/>
<path d="M13.7397 26.0613C13.757 26.0513 13.7758 26.041 13.7865 26.0663C13.7893 26.0729 13.7766 26.0866 13.7709 26.097C13.7606 26.0841 13.7504 26.0721 13.7397 26.0613Z" fill="#DAF7FD"/>
<path d="M22.0307 22.3758L21.9668 22.3879C21.9811 22.346 22.0045 22.3526 22.0307 22.3758Z" fill="#87A2BD"/>
<path d="M21.964 22.4708C21.964 22.4912 21.964 22.5123 21.964 22.5314C21.9588 22.5283 21.9545 22.5238 21.9515 22.5185C21.9485 22.5132 21.947 22.5072 21.947 22.5011C21.947 22.495 21.9485 22.489 21.9515 22.4837C21.9545 22.4784 21.9588 22.474 21.964 22.4708Z" fill="#87A2BD"/>
<path d="M12.9142 17.9782C12.7753 17.8123 12.7503 17.6011 12.7527 17.4024C12.7654 16.3115 12.6822 15.2223 12.7072 14.1314C12.7101 14.0069 12.7273 13.8945 12.8101 13.79C12.9655 13.5925 13.1614 13.5083 13.4069 13.5088C15.4973 13.5104 17.5876 13.5104 19.678 13.5088C20.5613 13.5088 21.445 13.5208 22.3279 13.5025C22.6697 13.4955 22.9669 13.5502 23.2071 13.8091C23.2022 13.892 23.1931 13.9721 23.1927 14.0534C23.1907 15.0559 23.1927 16.0585 23.187 17.0606C23.1833 17.6538 23.0198 18.1868 22.5816 18.6095C22.1635 19.0118 21.6651 19.2367 21.0925 19.2396C19.1046 19.2504 17.1167 19.2458 15.1288 19.245C14.2615 19.245 13.5975 18.853 13.0917 18.1557C13.0433 18.0898 13.0257 17.984 12.9142 17.9782ZM18.8943 15.7686C18.8924 16.2749 19.0894 16.7613 19.4419 17.1208C19.7943 17.4802 20.2735 17.6832 20.7738 17.6851C21.2742 17.687 21.7548 17.4877 22.11 17.131C22.4652 16.7743 22.6658 16.2895 22.6677 15.7831C22.6677 14.7137 21.8401 13.8692 20.79 13.8696C19.7325 13.87 18.8943 14.7104 18.8943 15.7686ZM15.3095 13.8663C14.2533 13.8609 13.4073 14.6959 13.4003 15.752C13.393 16.8358 14.2029 17.6828 15.2501 17.6866C16.2974 17.6903 17.1614 16.8362 17.1655 15.8001C17.17 14.7233 16.3531 13.8713 15.3095 13.8663Z" fill="#DFDFDF"/>
<path d="M15.6604 25.6847C15.7205 25.6847 15.7806 25.6883 15.8403 25.6955C16.0863 25.739 16.1941 25.6349 16.0936 25.4051C15.7772 24.6842 15.8756 23.9326 15.8969 23.1839C15.9076 22.8031 15.9071 22.4215 15.8994 22.0407C15.8957 21.8706 15.9567 21.8047 16.1223 21.8192C16.3883 21.8424 16.658 21.7823 16.9224 21.8515C16.8249 21.9996 16.7585 22.151 16.8577 22.3269C16.9568 22.5028 17.1228 22.5343 17.3085 22.5343C17.8004 22.5285 18.2922 22.5227 18.7841 22.5289C18.989 22.5314 19.1345 22.4547 19.23 22.2751C19.2411 22.2916 19.2612 22.3087 19.2612 22.3252C19.2534 22.9425 19.3276 23.5626 19.2022 24.1752C19.0521 24.9065 18.5599 25.3541 17.9549 25.71C17.7933 25.8083 17.6062 25.8551 17.418 25.8444C16.9491 25.8207 16.4777 25.8734 16.0096 25.8029C15.8867 25.7846 15.7534 25.7954 15.6604 25.6847Z" fill="#FBC45F"/>
<path d="M19.23 22.2759C19.1345 22.4555 18.9894 22.5322 18.7841 22.5297C18.2922 22.5235 17.8004 22.5297 17.3085 22.5351C17.1232 22.5376 16.9593 22.509 16.8576 22.3277C16.756 22.1465 16.8249 22.0005 16.9224 21.8524C17.0212 21.7908 17.1343 21.7566 17.2503 21.7532C17.8299 21.7532 18.4094 21.7325 18.9886 21.7694C19.0627 21.789 19.1306 21.8275 19.1858 21.8814C19.237 22.0088 19.2694 22.1378 19.23 22.2759Z" fill="#A86A4B"/>
<path d="M18.8944 15.7686C18.8944 14.7104 19.7338 13.87 20.79 13.8696C21.8402 13.8696 22.6689 14.7137 22.6677 15.7831C22.6658 16.2895 22.4652 16.7743 22.11 17.131C21.7549 17.4877 21.2742 17.6871 20.7739 17.6851C20.2735 17.6832 19.7944 17.4802 19.4419 17.1208C19.0894 16.7613 18.8925 16.2749 18.8944 15.7686ZM19.9039 16.0087C19.9908 16.3476 20.3162 16.6595 20.6462 16.7023C21.0245 16.7512 21.3516 16.6293 21.5557 16.3041C21.7598 15.9789 21.7922 15.6309 21.5709 15.2891C21.3159 14.8618 20.8364 14.7034 20.3929 14.9C19.96 15.0912 19.7654 15.5338 19.9027 16.0087H19.9039Z" fill="#191919"/>
<path d="M15.3096 13.8663C16.3523 13.8717 17.17 14.7237 17.1655 15.8001C17.1614 16.8371 16.2941 17.6903 15.2501 17.6866C14.2062 17.6829 13.393 16.8354 13.402 15.7516C13.4073 14.6959 14.2533 13.8605 15.3096 13.8663ZM14.4037 16.0307C14.4009 16.1328 14.4582 16.2128 14.5083 16.2916C14.7718 16.7097 15.3096 16.8309 15.7563 16.5799C16.151 16.3572 16.3302 15.8503 16.149 15.46C16.1351 15.3592 16.0609 15.2974 16.0059 15.221C15.728 14.8353 15.2612 14.7133 14.8476 14.9249C14.4341 15.1364 14.2627 15.5724 14.4037 16.0303V16.0307Z" fill="#191919"/>
<path d="M21.5696 15.2891C21.791 15.6309 21.7557 15.983 21.5545 16.3041C21.3532 16.6251 21.0216 16.7512 20.645 16.7023C20.3171 16.6608 19.9892 16.3476 19.9027 16.0087C19.8965 15.9125 19.9215 15.8362 20.0219 15.8013C20.0721 15.7805 20.1135 15.7425 20.1388 15.6939C20.4523 15.1704 20.9335 15.0663 21.4446 15.3015C21.4979 15.3247 21.5336 15.3675 21.5696 15.2891Z" fill="#FBC45F"/>
<path d="M21.5696 15.2891C21.5336 15.3675 21.4979 15.3247 21.4467 15.3003C20.9356 15.0651 20.4544 15.1692 20.1408 15.6927C20.1155 15.7412 20.0742 15.7793 20.024 15.8001C19.9236 15.8362 19.8986 15.9125 19.9047 16.0075C19.7674 15.5325 19.9629 15.09 20.3937 14.8987C20.8351 14.7034 21.3147 14.8618 21.5696 15.2891Z" fill="#FEEDCD"/>
<path d="M16.1482 15.4612C16.3281 15.8499 16.1482 16.3567 15.7555 16.5811C15.3088 16.8338 14.7718 16.711 14.5074 16.2929C14.4574 16.2141 14.4001 16.134 14.4033 16.032C14.5005 15.6902 14.748 15.4757 15.0304 15.3011C15.3038 15.1323 15.5928 15.1505 15.8826 15.2779C15.9842 15.321 16.0334 15.4425 16.1482 15.4612Z" fill="#FBC45F"/>
<path d="M16.1482 15.4612C16.0326 15.4405 15.9842 15.321 15.8826 15.2762C15.5928 15.1489 15.3038 15.1306 15.0304 15.2994C14.748 15.4741 14.5004 15.6885 14.4033 16.0303C14.2631 15.574 14.439 15.1348 14.8468 14.9261C15.2546 14.7175 15.7272 14.8365 16.0051 15.2223C16.0609 15.2986 16.135 15.3596 16.1482 15.4612Z" fill="#FEEDCD"/>
</g>
<defs>
<linearGradient id="paint0_linear_282_3026" x1="17.5534" y1="36.5" x2="17.5534" y2="22.77" gradientUnits="userSpaceOnUse">
<stop stop-color="#57280C"/>
<stop offset="0.57" stop-color="#884329"/>
</linearGradient>
<radialGradient id="paint1_radial_282_3026" cx="0" cy="0" r="1" gradientUnits="userSpaceOnUse" gradientTransform="translate(19.0733 -1.22001) scale(30.54 30.54)">
<stop stop-color="#CD9463"/>
<stop offset="1" stop-color="#734324"/>
</radialGradient>
<radialGradient id="paint2_radial_282_3026" cx="0" cy="0" r="1" gradientUnits="userSpaceOnUse" gradientTransform="translate(10.2133 5.59995) scale(41.56 41.56)">
<stop stop-color="#B6753E"/>
<stop offset="1" stop-color="#64381C"/>
</radialGradient>
<radialGradient id="paint3_radial_282_3026" cx="0" cy="0" r="1" gradientUnits="userSpaceOnUse" gradientTransform="translate(0.413334 0.479994) scale(33.48 33.48)">
<stop stop-color="#C28653"/>
<stop offset="1" stop-color="#734324"/>
</radialGradient>
<linearGradient id="paint4_linear_282_3026" x1="24.5833" y1="20.91" x2="10.3833" y2="6.71001" gradientUnits="userSpaceOnUse">
<stop stop-color="#8F5630"/>
<stop offset="1" stop-color="#AE8361"/>
</linearGradient>
<radialGradient id="paint5_radial_282_3026" cx="0" cy="0" r="1" gradientUnits="userSpaceOnUse" gradientTransform="translate(0.193333 -2.59) scale(36.24 36.24)">
<stop stop-color="#F39200"/>
<stop offset="0.45" stop-color="#B63000"/>
<stop offset="0.52" stop-color="#9D2900"/>
<stop offset="0.85" stop-color="#2F0C00"/>
<stop offset="1" stop-color="#030000"/>
</radialGradient>
<clipPath id="clip0_282_3026">
<rect width="16" height="23" fill="white" transform="translate(10 6.39999)"/>
</clipPath>
</defs>
</svg>
