<svg width="34" height="39" viewBox="0 0 34 39" fill="none" xmlns="http://www.w3.org/2000/svg">
<path fill-rule="evenodd" clip-rule="evenodd" d="M31.07 3.83999C30.7533 3.66069 30.418 3.5165 30.07 3.40999C27.61 3.50999 25.18 3.50999 22.76 3.40999H22.06C16.7036 3.02465 11.3264 3.02465 5.96999 3.40999C4.47999 3.62999 2.96999 3.93998 1.51999 4.30998C1.35114 4.36275 1.1993 4.45938 1.07999 4.58999C0.823634 4.96433 0.618483 5.37127 0.469986 5.79999C0.910538 11.9493 0.773282 18.1263 0.0599976 24.25C0.0599976 24.48 0.06 24.65 0 24.77L0.0899963 25.21C0.219996 25.93 0.379988 26.79 0.549988 27.61C0.749988 29.08 1.68999 32.76 2.17999 33.35C2.3647 33.6023 2.56511 33.8428 2.78 34.07C2.96667 34.2833 3.17666 34.5033 3.40999 34.73L3.59 34.91C4.05 35.39 4.58999 35.91 5.03999 36.34L5.2 36.49L5.86 37.11C7.04 37.21 10.86 37.17 18.28 37.25C22.21 37.25 26.56 37.41 28.59 37.25C29.01 36.95 31.08 35.71 31.9 34.99L32.08 34.41L32.7 32.41C32.78 32.18 32.78 21.72 32.92 13.07C32.92 12.19 32.92 11.33 32.92 10.5C32.92 8.79998 33 7.22999 33.05 5.89999C32.4469 5.16079 31.7847 4.47186 31.07 3.83999ZM12.47 11.02L13.64 10.21L12.48 11.03L12.47 11.02ZM17.25 7.50999C17.8 7.06999 18.34 6.61999 18.89 6.15999C18.34 6.61999 17.8 7.06999 17.29 7.50999H17.25ZM5.37 18.62C5.19 18.83 4.99999 19.02 4.81999 19.23L5.37 18.62Z" fill="#924000"/>
<path fill-rule="evenodd" clip-rule="evenodd" d="M0.950058 25.96L0.550049 27.61C0.750049 29.08 1.69005 32.76 2.18005 33.35C3.31774 34.6874 4.5474 35.9438 5.86006 37.11C7.04006 37.21 10.8601 37.17 18.2801 37.25C22.2101 37.25 26.5601 37.41 28.5901 37.25C29.0101 36.95 31.0801 35.71 31.9001 34.99L32.7001 32.42L32.0001 26L0.950058 25.96Z" fill="url(#paint0_linear_281_2646)"/>
<path fill-rule="evenodd" clip-rule="evenodd" d="M11.8401 11.46C15.4464 9.05869 18.8631 6.38417 22.0601 3.45998C16.7036 3.07464 11.3265 3.07464 5.97005 3.45998C4.48005 3.67998 2.97005 3.98998 1.52005 4.35998C1.3512 4.41275 1.19937 4.50937 1.08005 4.63998C0.823695 5.01432 0.618544 5.42126 0.470047 5.84997C0.910599 11.9993 0.773343 18.1763 0.0600586 24.3C3.06006 21.3 10.0601 13.61 11.8401 11.51V11.46Z" fill="url(#paint1_radial_281_2646)"/>
<path fill-rule="evenodd" clip-rule="evenodd" d="M22.76 3.40999C19.4641 6.53526 15.9337 9.40363 12.2 11.99C10.05 13.4 2.92997 22.29 0.0899658 25.21C0.219966 25.93 0.379957 26.79 0.549957 27.61C0.704015 28.6703 0.996522 29.7058 1.41997 30.69C2.61581 32.0957 3.909 33.4156 5.28996 34.64C6.43996 35.02 14.97 35.64 18.29 35.84C20.9313 33.3512 23.8234 31.1427 26.92 29.25C27.37 28.12 27.83 27.03 28.28 25.96C29.28 23.54 30.28 21.2 30.99 18.78C31.8164 16.0509 32.4842 13.2763 32.99 10.47C32.99 8.76999 33.07 7.19999 33.12 5.86999C32.508 5.15074 31.8392 4.48192 31.12 3.86999C30.8033 3.69069 30.468 3.5465 30.12 3.43999C27.66 3.53999 25.23 3.53999 22.81 3.43999L22.76 3.40999Z" fill="url(#paint2_radial_281_2646)"/>
<path fill-rule="evenodd" clip-rule="evenodd" d="M31.2901 18.94C30.5601 21.3 29.7601 23.59 28.8601 25.94C28.4501 27.04 28.01 28.15 27.55 29.29C27.73 29.75 30.62 31.23 32.66 32.38C32.74 32.15 32.7401 21.69 32.8801 13.04C32.3801 15.1 31.8801 17.04 31.2701 18.94H31.2901Z" fill="url(#paint3_radial_281_2646)"/>
<path fill-rule="evenodd" clip-rule="evenodd" d="M32.34 32.67C30.7144 31.6526 28.9492 30.8778 27.0999 30.37C24.0999 30.72 21.37 33.54 19.2 35.88C20.84 35.82 27.72 35.12 29.2 34.75C29.6 34.48 31.3399 33.43 32.3299 32.67H32.34Z" fill="url(#paint4_radial_281_2646)"/>
<path fill-rule="evenodd" clip-rule="evenodd" d="M28.29 25.96C27.84 27.03 27.38 28.12 26.93 29.25C23.8335 31.1427 20.9414 33.3512 18.3 35.84H18.97H19.24C21.41 33.5 24.18 30.68 27.14 30.33C28.9893 30.8378 30.7545 31.6126 32.38 32.63C32.51 32.54 32.62 32.44 32.72 32.36C30.72 31.21 27.79 29.73 27.61 29.27C28.07 28.13 28.51 27.02 28.92 25.92C29.82 23.55 30.62 21.26 31.35 18.92C31.93 17.02 32.46 15.08 32.96 13.02C32.96 12.14 32.96 11.28 32.96 10.45C32.4543 13.2563 31.7865 16.0309 30.96 18.76C30.22 21.18 29.26 23.52 28.25 25.94L28.29 25.96ZM12.52 11.03C11.5412 10.1847 10.6832 9.20887 9.97003 8.12998C8.80336 6.64998 7.62337 5.16999 6.43004 3.68999C6.38224 3.61767 6.32047 3.55564 6.24834 3.50755C6.17621 3.45947 6.09518 3.42629 6.01004 3.40999C7.46004 5.40999 8.89003 7.40998 10.27 9.49998C10.7702 10.243 11.1893 11.0376 11.52 11.87C9.30003 14.43 2.90004 21.42 0.100037 24.25C0.100037 24.48 0.100039 24.65 0.0400391 24.77L0.130035 25.21C2.97004 22.29 10.13 13.4 12.24 11.99C15.9738 9.40363 19.5041 6.53526 22.8 3.40999H22.1C19.0906 6.17293 15.8892 8.7193 12.52 11.03Z" fill="url(#paint5_linear_281_2646)"/>
<path style="mix-blend-mode:screen" fill-rule="evenodd" clip-rule="evenodd" d="M29.2899 35.21C28.9699 35.55 28.7599 36.03 28.2899 36.21C25.9899 37.32 17.8899 37 14.9899 36.73C13.9524 36.6273 12.9275 36.423 11.9299 36.12C10.3524 36.3394 8.76259 36.4596 7.16995 36.48C6.30995 36.48 4.11995 35.15 2.69995 34.05C3.52995 34.95 4.88995 36.27 5.77995 37.05C6.95995 37.15 10.78 37.11 18.2 37.19C22.13 37.19 26.4799 37.35 28.5099 37.19C28.9299 36.89 30.9999 35.65 31.8199 34.93L32 34.35C31 35.24 30 35.63 29.25 35.19L29.2899 35.21Z" fill="url(#paint6_radial_281_2646)"/>
<path style="mix-blend-mode:screen" opacity="0.35" fill-rule="evenodd" clip-rule="evenodd" d="M31.07 3.83999C30.7533 3.66069 30.418 3.5165 30.07 3.40999C27.61 3.50999 25.18 3.50999 22.76 3.40999H22.06C16.7036 3.02465 11.3264 3.02465 5.96999 3.40999C4.47999 3.62999 2.96999 3.93998 1.51999 4.30998C1.35114 4.36275 1.1993 4.45938 1.07999 4.58999C0.823634 4.96433 0.618483 5.37127 0.469986 5.79999C0.910538 11.9493 0.773282 18.1263 0.0599976 24.25C0.0599976 24.48 0.06 24.65 0 24.77L0.0899963 25.21C0.219996 25.93 0.379988 26.79 0.549988 27.61C0.749988 29.08 1.68999 32.76 2.17999 33.35C2.3647 33.6023 2.56511 33.8428 2.78 34.07C2.96667 34.2833 3.17666 34.5033 3.40999 34.73L3.59 34.91C4.05 35.39 4.58999 35.91 5.03999 36.34L5.2 36.49L5.86 37.11C7.04 37.21 10.86 37.17 18.28 37.25C22.21 37.25 26.56 37.41 28.59 37.25C29.01 36.95 31.08 35.71 31.9 34.99L32.08 34.41L32.7 32.41C32.78 32.18 32.78 21.72 32.92 13.07C32.92 12.19 32.92 11.33 32.92 10.5C32.92 8.79998 33 7.22999 33.05 5.89999C32.4469 5.16079 31.7847 4.47186 31.07 3.83999ZM12.47 11.02L13.64 10.21L12.48 11.03L12.47 11.02ZM17.25 7.50999C17.8 7.06999 18.34 6.61999 18.89 6.15999C18.34 6.61999 17.8 7.06999 17.29 7.50999H17.25ZM5.37 18.62C5.19 18.83 4.99999 19.02 4.81999 19.23L5.37 18.62Z" fill="url(#paint7_radial_281_2646)"/>
<mask id="mask0_281_2646" style="mask-type:luminance" maskUnits="userSpaceOnUse" x="0" y="3" width="34" height="35">
<path d="M31.07 3.83999C30.7533 3.66069 30.418 3.5165 30.07 3.40999C27.61 3.50999 25.18 3.50999 22.76 3.40999H22.06C16.7036 3.02465 11.3264 3.02465 5.96999 3.40999C4.47999 3.62999 2.96999 3.93998 1.51999 4.30998C1.35114 4.36275 1.1993 4.45938 1.07999 4.58999C0.823634 4.96433 0.618483 5.37127 0.469986 5.79999C0.910538 11.9493 0.773282 18.1263 0.0599976 24.25C0.0599976 24.48 0.06 24.65 0 24.77L0.0899963 25.21C0.219996 25.93 0.379988 26.79 0.549988 27.61C0.749988 29.08 1.68999 32.76 2.17999 33.35C2.3647 33.6023 2.56511 33.8428 2.78 34.07C2.96667 34.2833 3.17666 34.5033 3.40999 34.73L3.59 34.91C4.05 35.39 4.58999 35.91 5.03999 36.34L5.2 36.49L5.86 37.11C7.04 37.21 10.86 37.17 18.28 37.25C22.21 37.25 26.56 37.41 28.59 37.25C29.01 36.95 31.08 35.71 31.9 34.99L32.08 34.41L32.7 32.41C32.78 32.18 32.78 21.72 32.92 13.07C32.92 12.19 32.92 11.33 32.92 10.5C32.92 8.79998 33 7.22999 33.05 5.89999C32.4469 5.16079 31.7847 4.47186 31.07 3.83999ZM12.47 11.02L13.64 10.21L12.48 11.03L12.47 11.02ZM17.25 7.50999C17.8 7.06999 18.34 6.61999 18.89 6.15999C18.34 6.61999 17.8 7.06999 17.29 7.50999H17.25ZM5.37 18.62C5.19 18.83 4.99999 19.02 4.81999 19.23L5.37 18.62Z" fill="white"/>
</mask>
<g mask="url(#mask0_281_2646)">
<g style="mix-blend-mode:multiply" opacity="0.4">
<path fill-rule="evenodd" clip-rule="evenodd" d="M28.91 2.78999C26.83 3.31999 24.91 5.36998 22.14 10.07L22.03 10.26L22.24 10.89L22.36 11.23L21.72 10.79L15.72 20.99L15.8 21.56H15.41L11.81 27.68C11.4618 27.2338 11.1634 26.7509 10.92 26.24C10.6455 26.1907 10.3644 26.1907 10.09 26.24C9.94061 26.3274 9.79698 26.4243 9.65996 26.53L9.50996 26.65L9.20996 26.91L9.12996 26.97C8.93996 27.15 8.75997 27.33 8.63997 27.47C8.99927 28.3161 9.62871 29.0194 10.43 29.47C10.82 29.71 11.12 29.91 11.43 30.11C11.2773 30.4203 11.1001 30.7179 10.9 31C10.9 31.06 10.8 31.09 10.82 31.2C10.8343 31.2757 10.865 31.3474 10.91 31.41C10.8643 31.3466 10.8304 31.2754 10.81 31.2C10.6238 31.6425 10.3926 32.0648 10.12 32.46C10.12 32.46 10.02 32.55 10.04 32.65C10.0562 32.7251 10.0868 32.7964 10.13 32.86C10.0814 32.8033 10.0502 32.7339 10.04 32.66C9.8609 33.0875 9.63981 33.4962 9.37996 33.88C9.37996 33.88 9.27996 33.96 9.29996 34.07C9.13113 34.4878 8.91291 34.884 8.64996 35.25C8.64996 35.31 8.55996 35.34 8.57996 35.44C8.57996 35.55 8.48996 35.66 8.43996 35.77C8.29893 36.054 8.13856 36.328 7.95996 36.59V36.65C7.88581 36.6642 7.81547 36.6938 7.75346 36.7368C7.69145 36.7799 7.63916 36.8355 7.59996 36.9C7.55344 36.9806 7.52896 37.072 7.52896 37.165C7.52896 37.258 7.55344 37.3494 7.59996 37.43C7.35642 37.5296 7.13933 37.6845 6.9658 37.8823C6.79228 38.0801 6.66704 38.3155 6.59996 38.57C6.54349 38.7821 6.52936 39.0032 6.55835 39.2208C6.58734 39.4383 6.6589 39.648 6.76894 39.8379C6.87897 40.0278 7.02533 40.1942 7.19966 40.3275C7.37399 40.4608 7.57287 40.5585 7.78496 40.615C7.99704 40.6715 8.21818 40.6856 8.43573 40.6566C8.65328 40.6276 8.86299 40.5561 9.05289 40.446C9.24278 40.336 9.40915 40.1896 9.54248 40.0153C9.67581 39.841 9.77349 39.6421 9.82996 39.43C9.87986 39.1926 9.87986 38.9474 9.82996 38.71C9.9144 38.713 9.99833 38.6954 10.0744 38.6587C10.1506 38.6221 10.2166 38.5674 10.2668 38.4994C10.3171 38.4315 10.35 38.3523 10.3627 38.2687C10.3754 38.1852 10.3676 38.0998 10.34 38.02C10.34 38.02 10.34 37.97 10.34 37.95C10.5221 37.5566 10.7467 37.1844 11.01 36.84C11.1 36.84 11.1 36.74 11.13 36.68C11.3247 36.2745 11.5592 35.8893 11.83 35.53C11.92 35.53 11.92 35.43 11.95 35.37C12.1499 34.9504 12.3911 34.5518 12.67 34.18C12.6105 34.1916 12.5494 34.1916 12.49 34.18C12.5461 34.191 12.6038 34.191 12.66 34.18C12.77 34.18 12.76 34.08 12.79 34.01C12.9964 33.5803 13.2443 33.1717 13.53 32.79C13.4446 32.8116 13.3553 32.8116 13.27 32.79H13.14H13.07C13.2173 32.8299 13.3726 32.8299 13.52 32.79C13.62 32.79 13.62 32.68 13.65 32.62C13.7963 32.3072 13.9668 32.0063 14.16 31.72C14.47 31.86 14.8 32.02 15.16 32.23C15.413 32.3687 15.6772 32.4858 15.95 32.58H16.06C16.6228 32.784 17.2257 32.8525 17.82 32.78C18.021 32.1831 18.1322 31.5596 18.15 30.93C18.0534 30.668 17.9074 30.4269 17.72 30.22C17.1599 30.268 16.5962 30.2513 16.04 30.17L22.04 19.51L21.87 18.99L22.24 19.17L26.05 12.44C28.67 7.56999 29.48 4.88999 28.91 2.78999Z" fill="#3A1D0D"/>
</g>
</g>
<path fill-rule="evenodd" clip-rule="evenodd" d="M6.45002 38.33C6.77072 38.4184 7.1105 38.409 7.42583 38.303C7.74116 38.197 8.01766 37.9993 8.21987 37.7352C8.42208 37.471 8.54079 37.1525 8.5608 36.8204C8.5808 36.4884 8.50118 36.1579 8.33214 35.8714C8.1631 35.5849 7.91235 35.3554 7.61202 35.2124C7.3117 35.0693 6.9755 35.0192 6.64651 35.0685C6.31751 35.1177 6.01072 35.2641 5.76548 35.4889C5.52024 35.7136 5.34771 36.0065 5.27001 36.33C5.16616 36.7514 5.23154 37.1968 5.45211 37.5706C5.67268 37.9445 6.0309 38.2171 6.45002 38.33Z" fill="url(#paint8_radial_281_2646)"/>
<path style="mix-blend-mode:screen" fill-rule="evenodd" clip-rule="evenodd" d="M6.28995 38.07C6.53245 38.1343 6.78856 38.1254 7.02599 38.0443C7.26342 37.9633 7.47153 37.8137 7.62405 37.6145C7.77656 37.4153 7.86666 37.1754 7.88297 36.925C7.89929 36.6747 7.84109 36.4251 7.71572 36.2078C7.59035 35.9905 7.40342 35.8152 7.17852 35.704C6.95362 35.5928 6.70083 35.5507 6.45203 35.583C6.20324 35.6153 5.96959 35.7206 5.78057 35.8856C5.59155 36.0506 5.45564 36.2678 5.38996 36.51C5.30423 36.8361 5.35067 37.1829 5.51919 37.475C5.68771 37.7671 5.96469 37.9809 6.28995 38.07Z" fill="url(#paint9_radial_281_2646)"/>
<path style="mix-blend-mode:screen" fill-rule="evenodd" clip-rule="evenodd" d="M5.69999 37.44C5.72933 37.5539 5.78475 37.6595 5.86185 37.7484C5.93896 37.8373 6.03565 37.9071 6.14432 37.9522C6.25299 37.9974 6.37066 38.0167 6.48806 38.0086C6.60546 38.0006 6.71938 37.9654 6.82085 37.9058C6.92232 37.8462 7.00856 37.7638 7.07279 37.6652C7.13702 37.5666 7.17746 37.4544 7.19095 37.3375C7.20444 37.2206 7.1906 37.1022 7.15052 36.9916C7.11044 36.8809 7.04521 36.7811 6.95998 36.7C6.93063 36.586 6.87522 36.4804 6.79812 36.3915C6.72101 36.3026 6.62431 36.2328 6.51564 36.1877C6.40698 36.1425 6.28931 36.1232 6.17191 36.1313C6.05451 36.1394 5.94059 36.1746 5.83912 36.2342C5.73764 36.2938 5.6514 36.3761 5.58718 36.4747C5.52295 36.5733 5.48249 36.6855 5.469 36.8024C5.45551 36.9193 5.46935 37.0377 5.50943 37.1484C5.54952 37.259 5.61475 37.3588 5.69999 37.44Z" fill="url(#paint10_radial_281_2646)"/>
<path style="mix-blend-mode:screen" opacity="0.5" fill-rule="evenodd" clip-rule="evenodd" d="M7.29007 38.22C7.63546 38.1437 7.94375 37.9501 8.16249 37.6722C8.38123 37.3942 8.4969 37.049 8.48982 36.6954C8.48275 36.3418 8.35337 36.0015 8.12369 35.7325C7.89401 35.4635 7.57823 35.2824 7.23007 35.22C7.01288 35.1703 6.78726 35.1703 6.57007 35.22C6.69495 35.2219 6.81916 35.2387 6.94006 35.27C7.14165 35.3245 7.33054 35.4181 7.49593 35.5456C7.66131 35.6731 7.79996 35.8319 7.90396 36.013C8.00796 36.1941 8.07528 36.3939 8.10207 36.601C8.12885 36.8081 8.11459 37.0184 8.06007 37.22C8.00847 37.4311 7.91331 37.6291 7.78072 37.8013C7.64812 37.9735 7.481 38.1161 7.29007 38.22Z" fill="url(#paint11_radial_281_2646)"/>
<path d="M7.98007 34.79C8.25226 34.9418 8.5071 35.1229 8.74006 35.33C8.87654 35.4133 8.97749 35.5441 9.02361 35.6972C9.06974 35.8503 9.05779 36.0151 8.99006 36.16C8.83006 36.44 8.52007 36.5 8.14007 36.37C7.84685 36.2706 7.5652 36.1398 7.30006 35.98C7.03055 35.8277 6.77609 35.6503 6.54006 35.45C6.24006 35.18 6.14006 34.88 6.30006 34.61C6.46006 34.34 6.77007 34.28 7.14007 34.4C7.43063 34.5059 7.71164 34.6364 7.98007 34.79Z" fill="url(#paint12_linear_281_2646)"/>
<path style="mix-blend-mode:multiply" fill-rule="evenodd" clip-rule="evenodd" d="M8.73999 35.34C8.50703 35.1329 8.25219 34.9518 7.98 34.8C7.71157 34.6464 7.43056 34.5159 7.14 34.41C7.01214 34.363 6.87602 34.3425 6.73999 34.35C6.7047 34.3566 6.67126 34.3708 6.64192 34.3915C6.61259 34.4122 6.58805 34.439 6.56999 34.47C6.55539 34.5031 6.54785 34.5388 6.54785 34.575C6.54785 34.6112 6.55539 34.6469 6.56999 34.68C6.63788 34.8006 6.72579 34.9089 6.82999 35C7.06601 35.2003 7.32049 35.3777 7.59 35.53C7.85632 35.6876 8.13771 35.8183 8.42999 35.92C8.55785 35.967 8.69396 35.9875 8.82999 35.98C8.86528 35.9734 8.89874 35.9592 8.92807 35.9385C8.95741 35.9178 8.98194 35.891 9 35.86C9.01667 35.8275 9.02536 35.7915 9.02536 35.755C9.02536 35.7185 9.01667 35.6825 9 35.65C8.93166 35.5326 8.84372 35.4277 8.73999 35.34Z" fill="url(#paint13_linear_281_2646)"/>
<path style="mix-blend-mode:screen" fill-rule="evenodd" clip-rule="evenodd" d="M6.46997 34.79C6.44663 34.7937 6.42452 34.8029 6.4054 34.8168C6.38628 34.8307 6.37072 34.8489 6.35999 34.87C6.15999 35.41 7.80998 36.3 8.28998 36.02C7.65843 35.8024 7.08889 35.4353 6.62998 34.95C6.57998 34.88 6.50997 34.79 6.46997 34.79Z" fill="url(#paint14_radial_281_2646)"/>
<path fill-rule="evenodd" clip-rule="evenodd" d="M9.58997 29C9.58997 29.27 10.08 29.71 10.72 30.07C11.1498 30.3866 11.6771 30.5423 12.21 30.51C12.31 30.51 12.31 30.4 12.34 30.34C12.553 29.8948 12.811 29.4726 13.11 29.08C12.5569 29.1126 12.0096 28.9537 11.56 28.63C11.0568 28.4013 10.6448 28.0105 10.39 27.52C10.2009 27.9745 9.96283 28.4071 9.67996 28.81C9.67996 28.87 9.57996 28.9 9.59996 29.01L9.58997 29Z" fill="url(#paint15_linear_281_2646)"/>
<path fill-rule="evenodd" clip-rule="evenodd" d="M8.81006 30.43C8.81006 30.69 9.29005 31.12 9.91005 31.48C10.3299 31.7843 10.8426 31.9328 11.3601 31.9C11.4601 31.9 11.4601 31.8 11.4801 31.73C11.6905 31.3003 11.9417 30.8918 12.2301 30.51C11.6941 30.5421 11.1637 30.3865 10.7301 30.07C10.0901 29.7 9.63006 29.26 9.59006 28.99C9.40762 29.4343 9.17618 29.8569 8.90005 30.25C8.90005 30.3 8.80005 30.34 8.82005 30.44L8.81006 30.43Z" fill="url(#paint16_linear_281_2646)"/>
<path fill-rule="evenodd" clip-rule="evenodd" d="M8.06006 31.79C8.06006 32.04 8.52006 32.45 9.12006 32.79C9.53064 33.0812 10.0273 33.2256 10.5301 33.2C10.6201 33.2 10.6201 33.1 10.6501 33.04C10.85 32.6204 11.0911 32.2218 11.3701 31.85C10.8527 31.882 10.3402 31.7335 9.92006 31.43C9.30006 31.07 8.86005 30.64 8.82005 30.38C8.63421 30.8061 8.40995 31.2145 8.15005 31.6C8.15005 31.65 8.05005 31.68 8.07005 31.79H8.06006Z" fill="url(#paint17_linear_281_2646)"/>
<path fill-rule="evenodd" clip-rule="evenodd" d="M7.28998 33.18C7.28998 33.42 7.73998 33.82 8.28998 34.18C8.68471 34.4639 9.16437 34.605 9.64998 34.58C9.74998 34.58 9.74998 34.48 9.76998 34.42C9.96475 34.0145 10.1992 33.6292 10.47 33.27C9.9667 33.3005 9.46843 33.1556 9.05999 32.86C8.45999 32.51 8.05998 32.09 7.98998 31.86C7.82005 32.2753 7.60546 32.671 7.34998 33.04C7.34998 33.1 7.24998 33.13 7.26998 33.23L7.28998 33.18Z" fill="url(#paint18_linear_281_2646)"/>
<path fill-rule="evenodd" clip-rule="evenodd" d="M6.62 34.49C6.62 34.72 7.06 35.11 7.62 35.43C7.99999 35.712 8.4677 35.8502 8.93999 35.82C9.02999 35.82 9.03 35.73 9.06 35.67C9.24209 35.2766 9.46676 34.9044 9.73 34.56C9.2412 34.5857 8.75815 34.4447 8.36 34.16C7.78 33.82 7.36 33.42 7.36 33.16C7.18328 33.5574 6.97249 33.9388 6.73 34.3C6.73 34.3 6.63999 34.38 6.64999 34.48L6.62 34.49Z" fill="url(#paint19_linear_281_2646)"/>
<path style="mix-blend-mode:multiply" opacity="0.25" fill-rule="evenodd" clip-rule="evenodd" d="M9.11002 30.36C9.34707 30.0183 9.55449 29.657 9.73002 29.28C9.66256 29.1934 9.6117 29.0951 9.58001 28.99C9.39757 29.4343 9.16615 29.8569 8.89002 30.25C8.89002 30.3 8.79002 30.34 8.81002 30.44C8.81002 30.7 9.29001 31.13 9.91001 31.49C9.38001 31.17 9.00002 30.78 8.98002 30.54C8.96002 30.3 8.98002 30.4 9.06002 30.34L9.11002 30.36Z" fill="url(#paint20_linear_281_2646)"/>
<path style="mix-blend-mode:multiply" opacity="0.25" fill-rule="evenodd" clip-rule="evenodd" d="M8.20005 32.1C8.1331 32.0168 8.08222 31.9218 8.05004 31.82C7.88011 32.2354 7.66552 32.631 7.41004 33C7.41004 33.06 7.31004 33.09 7.33004 33.19C7.35004 33.29 7.78004 33.83 8.33004 34.19H8.39005C7.88005 33.89 7.53005 33.53 7.51005 33.3C7.49005 33.07 7.51005 33.17 7.59005 33.11C7.80962 32.7926 8.00357 32.4582 8.17005 32.11L8.20005 32.1Z" fill="url(#paint21_linear_281_2646)"/>
<path style="mix-blend-mode:multiply" opacity="0.25" fill-rule="evenodd" clip-rule="evenodd" d="M10.38 27.51C10.191 27.9645 9.95291 28.3971 9.67005 28.8C9.67005 28.86 9.57005 28.89 9.59005 29C9.59005 29.27 10.08 29.71 10.72 30.07C10.17 29.74 9.79004 29.34 9.72004 29.07C9.65004 28.8 9.72004 28.92 9.80004 28.87C10.0399 28.5124 10.2538 28.1381 10.44 27.75C10.3726 27.6634 10.3217 27.5651 10.29 27.46L10.38 27.51Z" fill="url(#paint22_linear_281_2646)"/>
<path style="mix-blend-mode:multiply" opacity="0.25" fill-rule="evenodd" clip-rule="evenodd" d="M8.95002 30.71C8.88157 30.6292 8.83355 30.5332 8.81002 30.43C8.62417 30.8561 8.39991 31.2645 8.14002 31.65C8.14002 31.7 8.04002 31.73 8.06002 31.84C8.08002 31.95 8.52002 32.5 9.12002 32.84H9.18001C8.66001 32.53 8.30001 32.16 8.27001 31.92C8.26764 31.8843 8.27364 31.8485 8.28753 31.8155C8.30141 31.7825 8.32281 31.7532 8.35001 31.73C8.5781 31.3968 8.77876 31.0456 8.95002 30.68V30.71Z" fill="url(#paint23_linear_281_2646)"/>
<path style="mix-blend-mode:multiply" opacity="0.25" fill-rule="evenodd" clip-rule="evenodd" d="M7.47003 33.44C7.40018 33.364 7.35185 33.2708 7.33003 33.17C7.15331 33.5674 6.94253 33.9489 6.70004 34.31C6.70004 34.31 6.61004 34.39 6.62004 34.49C6.63004 34.59 7.06004 35.11 7.62004 35.43H7.68004C7.19004 35.14 6.85003 34.79 6.83003 34.56C6.81003 34.33 6.83003 34.44 6.91003 34.39C7.11901 34.0696 7.3061 33.7355 7.47003 33.39V33.44Z" fill="url(#paint24_linear_281_2646)"/>
<path style="mix-blend-mode:multiply" opacity="0.35" fill-rule="evenodd" clip-rule="evenodd" d="M11.73 30.24C11.3287 30.3111 10.9155 30.2213 10.58 29.99L10.72 30.07C11.1498 30.3866 11.6771 30.5423 12.21 30.51C12.31 30.51 12.31 30.4 12.34 30.34C12.553 29.8948 12.811 29.4726 13.11 29.08C12.8976 29.1408 12.6724 29.1408 12.46 29.08C12.2402 29.3992 12.0431 29.7333 11.87 30.08C11.87 30.14 11.87 30.21 11.74 30.26L11.73 30.24Z" fill="url(#paint25_linear_281_2646)"/>
<path style="mix-blend-mode:multiply" opacity="0.35" fill-rule="evenodd" clip-rule="evenodd" d="M11.58 30.46C11.3693 30.7811 11.1789 31.115 11.01 31.46C11.01 31.52 11.01 31.59 10.88 31.63C10.4942 31.6993 10.0965 31.6169 9.77002 31.4L9.91002 31.48C10.3298 31.7843 10.8426 31.9328 11.36 31.9C11.46 31.9 11.46 31.8 11.48 31.73C11.6905 31.3003 11.9416 30.8918 12.23 30.51C12.0167 30.5599 11.7931 30.5424 11.59 30.46H11.58Z" fill="url(#paint26_linear_281_2646)"/>
<path style="mix-blend-mode:multiply" opacity="0.35" fill-rule="evenodd" clip-rule="evenodd" d="M10.65 33.09C10.8499 32.6704 11.0911 32.2717 11.37 31.9C11.1629 31.9445 10.9473 31.9271 10.75 31.85C10.5437 32.1719 10.3567 32.5058 10.19 32.85C10.19 32.91 10.19 32.97 10.07 33.01C9.69828 33.0789 9.31435 33 9 32.79L9.12999 32.87C9.54057 33.1612 10.0373 33.3056 10.54 33.28C10.63 33.28 10.63 33.18 10.66 33.12L10.65 33.09Z" fill="url(#paint27_linear_281_2646)"/>
<path style="mix-blend-mode:multiply" opacity="0.35" fill-rule="evenodd" clip-rule="evenodd" d="M9.92001 33.2C9.7179 33.4966 9.53743 33.8074 9.38 34.13C9.38 34.19 9.38001 34.25 9.26001 34.3C8.91086 34.3556 8.55361 34.277 8.26001 34.08L8.39001 34.16C8.78474 34.444 9.2644 34.585 9.75002 34.56C9.85002 34.56 9.85001 34.46 9.87001 34.4C10.0648 33.9945 10.2993 33.6093 10.57 33.25C10.3664 33.2975 10.1531 33.28 9.96001 33.2H9.92001Z" fill="url(#paint28_linear_281_2646)"/>
<path style="mix-blend-mode:multiply" opacity="0.35" fill-rule="evenodd" clip-rule="evenodd" d="M9.06 35.67C9.24209 35.2766 9.46676 34.9044 9.73 34.56C9.52516 34.5999 9.31313 34.579 9.12 34.5C8.93143 34.7944 8.75787 35.0981 8.59999 35.41C8.59372 35.4415 8.58063 35.4713 8.56163 35.4972C8.54263 35.5231 8.51817 35.5445 8.48999 35.56C8.14203 35.6226 7.78336 35.5473 7.48999 35.35L7.62 35.43C7.99999 35.7121 8.4677 35.8502 8.93999 35.82C9.02999 35.82 9.03 35.73 9.06 35.67Z" fill="url(#paint29_linear_281_2646)"/>
<path fill-rule="evenodd" clip-rule="evenodd" d="M12.05 27.79C12.82 28.24 13.33 28.79 13.2 29.03C13.07 29.27 12.32 29.1 11.55 28.66C10.78 28.22 10.27 27.66 10.4 27.42C10.53 27.18 11.28 27.35 12.05 27.79Z" fill="#808080"/>
<path style="mix-blend-mode:screen" opacity="0.5" fill-rule="evenodd" clip-rule="evenodd" d="M10.77 29.79C10.8983 29.402 11.13 29.0563 11.44 28.79C11.51 28.7594 11.5841 28.7392 11.66 28.73L11.55 28.67C11.2081 28.4783 10.895 28.2393 10.62 27.96C10.6536 28.0254 10.6739 28.0967 10.68 28.17C10.5924 28.637 10.3699 29.0681 10.04 29.41C10.0088 29.425 9.97459 29.4329 9.93996 29.4329C9.90533 29.4329 9.87115 29.425 9.83997 29.41C10.101 29.67 10.3972 29.8922 10.72 30.07L10.79 30.12C10.7487 30.007 10.7487 29.883 10.79 29.77L10.77 29.79Z" fill="url(#paint30_linear_281_2646)"/>
<path style="mix-blend-mode:screen" opacity="0.5" fill-rule="evenodd" clip-rule="evenodd" d="M10.7201 30.07C10.3863 29.8877 10.0827 29.655 9.82007 29.38C9.82854 29.4464 9.82854 29.5136 9.82007 29.58C9.76495 30.0263 9.58075 30.4468 9.29007 30.79C9.25663 30.8093 9.21869 30.8195 9.18007 30.8195C9.14145 30.8195 9.10351 30.8093 9.07007 30.79C9.32563 31.0617 9.62265 31.2912 9.95007 31.47H10.0301C9.98337 31.3545 9.98337 31.2255 10.0301 31.11C10.1466 30.7213 10.3722 30.3743 10.6801 30.11C10.7463 30.0997 10.8138 30.0997 10.8801 30.11L10.8101 30.06L10.7201 30.07Z" fill="url(#paint31_linear_281_2646)"/>
<path style="mix-blend-mode:screen" opacity="0.5" fill-rule="evenodd" clip-rule="evenodd" d="M9.91002 31.48C9.57222 31.2912 9.26534 31.0517 9.00003 30.77C9.03699 30.8454 9.06066 30.9265 9.07002 31.01C8.98968 31.4477 8.7808 31.8515 8.47002 32.17C8.44001 32.1829 8.4077 32.1896 8.37503 32.1896C8.34236 32.1896 8.31003 32.1829 8.28003 32.17C8.5317 32.4181 8.81397 32.6332 9.12003 32.81H9.18002C9.14345 32.703 9.14345 32.5869 9.18002 32.48C9.29342 32.1089 9.51232 31.7788 9.81003 31.53C9.87885 31.4961 9.95353 31.4757 10.03 31.47H9.95003L9.91002 31.48Z" fill="url(#paint32_linear_281_2646)"/>
<path style="mix-blend-mode:screen" opacity="0.5" fill-rule="evenodd" clip-rule="evenodd" d="M9.12 32.84C8.8 32.6586 8.50713 32.433 8.25 32.17C8.26333 32.2292 8.26333 32.2907 8.25 32.35C8.16723 32.7839 7.95855 33.1838 7.64999 33.5C7.62689 33.5122 7.60115 33.5186 7.575 33.5186C7.54885 33.5186 7.5231 33.5122 7.5 33.5C7.74083 33.7422 8.01329 33.9507 8.31 34.12C8.27485 34.0231 8.27485 33.9169 8.31 33.82C8.41446 33.4308 8.63404 33.0822 8.93999 32.82C8.99246 32.7896 9.05011 32.7693 9.11 32.76H9.04999L9.12 32.84Z" fill="url(#paint33_linear_281_2646)"/>
<path style="mix-blend-mode:screen" opacity="0.5" fill-rule="evenodd" clip-rule="evenodd" d="M8.36005 34.16C8.06161 33.9934 7.78878 33.7845 7.55003 33.54C7.55946 33.5862 7.55946 33.6338 7.55003 33.68C7.47172 34.0995 7.26973 34.4861 6.97003 34.79C6.94349 34.808 6.91214 34.8177 6.88004 34.8177C6.84793 34.8177 6.81658 34.808 6.79004 34.79C7.02299 35.0341 7.29297 35.2399 7.59004 35.4H7.66003C7.63676 35.3498 7.62471 35.2952 7.62471 35.24C7.62471 35.1847 7.63676 35.1301 7.66003 35.08C7.76999 34.7207 7.9819 34.4011 8.27003 34.16H8.41003H8.36005Z" fill="url(#paint34_linear_281_2646)"/>
<path fill-rule="evenodd" clip-rule="evenodd" d="M11.48 28.79C11.8974 29.1266 12.414 29.3164 12.95 29.33L13.11 29.12C12.5533 29.1575 12.0012 28.9982 11.55 28.67C10.89 28.28 10.41 27.82 10.38 27.55V27.6C10.6151 28.1071 11.008 28.5246 11.5 28.79H11.48Z" fill="#666666"/>
<g style="mix-blend-mode:multiply" opacity="0.35">
<path fill-rule="evenodd" clip-rule="evenodd" d="M12.22 30.51C11.684 30.5421 11.1536 30.3865 10.72 30.07C10.08 29.7 9.61996 29.26 9.57996 28.99V29.04C9.57996 29.32 10.06 29.79 10.67 30.19C11.0722 30.518 11.5712 30.7042 12.09 30.72L12.25 30.51H12.22Z" fill="#4A2121"/>
</g>
<g style="mix-blend-mode:multiply" opacity="0.35">
<path fill-rule="evenodd" clip-rule="evenodd" d="M11.3601 31.9C10.8427 31.932 10.3302 31.7835 9.91005 31.48C9.29005 31.12 8.85006 30.69 8.81006 30.43V30.48C8.81006 30.74 9.27006 31.2 9.87006 31.58C10.2631 31.8997 10.7534 32.0761 11.2601 32.08L11.3901 31.9H11.3601Z" fill="#4A2121"/>
</g>
<g style="mix-blend-mode:multiply" opacity="0.35">
<path fill-rule="evenodd" clip-rule="evenodd" d="M10.5301 33.25C10.0268 33.2805 9.5285 33.1356 9.12006 32.84C8.52006 32.49 8.12005 32.07 8.05005 31.84C8.25913 32.2978 8.60967 32.6764 9.05005 32.92C9.43244 33.2231 9.90234 33.3949 10.3901 33.41L10.5301 33.22V33.25Z" fill="#4A2121"/>
</g>
<g style="mix-blend-mode:multiply" opacity="0.35">
<path fill-rule="evenodd" clip-rule="evenodd" d="M8.35999 34.16C7.77999 33.82 7.35999 33.42 7.35999 33.16V33.21C7.5789 33.6409 7.92909 33.991 8.35999 34.21C8.73078 34.5063 9.1858 34.6779 9.65997 34.7C9.6983 34.6278 9.74531 34.5607 9.79997 34.5C9.31118 34.5257 8.82813 34.3847 8.42998 34.1L8.35999 34.16Z" fill="#4A2121"/>
</g>
<path fill-rule="evenodd" clip-rule="evenodd" d="M11.6 28.54C11.1393 27.8845 10.5247 27.3522 9.81003 26.99C9.10418 26.6046 8.55834 25.9808 8.27002 25.23L8.87003 24.07C9.1445 24.0208 9.42555 24.0208 9.70003 24.07C10.2693 25.3399 11.2109 26.407 12.4 27.13C13.6183 27.805 15.0151 28.0879 16.4 27.94C16.589 28.1459 16.7351 28.3872 16.83 28.65L16.13 29.75C15.3376 29.8706 14.5279 29.7115 13.84 29.3C13.1696 28.8582 12.3998 28.5902 11.6 28.52V28.54Z" fill="url(#paint35_linear_281_2646)"/>
<path fill-rule="evenodd" clip-rule="evenodd" d="M11.29 29.02C10.7435 28.2817 10.031 27.6822 9.21004 27.27C8.4036 26.8229 7.76995 26.1189 7.41003 25.27C7.82738 24.7985 8.30873 24.3878 8.84004 24.05C9.18401 24.7243 9.62541 25.3443 10.15 25.89C11.4117 27.0579 12.9184 27.9291 14.56 28.44C15.2933 28.614 16.0472 28.6847 16.8 28.65C16.7831 29.2797 16.6719 29.9033 16.47 30.5C15.5578 30.6021 14.6374 30.4018 13.85 29.93C13.0793 29.4278 12.2034 29.1096 11.29 29V29.02Z" fill="url(#paint36_linear_281_2646)"/>
<path fill-rule="evenodd" clip-rule="evenodd" d="M11.29 29.02C12.2034 29.1296 13.0793 29.4478 13.85 29.95C14.6374 30.4218 15.5578 30.6221 16.47 30.52C16.6719 29.9233 16.7831 29.2997 16.8 28.67C16.0472 28.7047 15.2933 28.634 14.56 28.46C13.7447 28.2076 12.9572 27.8725 12.21 27.46L11.29 29.05V29.02Z" fill="url(#paint37_linear_281_2646)"/>
<path style="mix-blend-mode:screen" fill-rule="evenodd" clip-rule="evenodd" d="M7.92 24.79C8.00911 24.7164 8.11211 24.6616 8.22289 24.6287C8.33366 24.5959 8.44992 24.5857 8.56473 24.5987C8.67953 24.6118 8.79053 24.6479 8.89108 24.7048C8.99164 24.7617 9.0797 24.8383 9.14999 24.93C9.59378 25.6108 10.1065 26.2442 10.68 26.82C10.93 27.01 11.23 27.15 11.48 27.33C11.5632 27.3782 11.6357 27.4429 11.6932 27.52C11.7507 27.5971 11.7919 27.685 11.8143 27.7785C11.8368 27.8721 11.84 27.9692 11.8238 28.0639C11.8075 28.1587 11.7722 28.2492 11.72 28.33L12.24 27.43C11.503 26.9954 10.8126 26.486 10.18 25.91C9.65537 25.3643 9.21397 24.7443 8.87 24.07C8.51084 24.2758 8.17548 24.5206 7.87 24.8L7.92 24.79Z" fill="url(#paint38_radial_281_2646)"/>
<path style="mix-blend-mode:multiply" opacity="0.3" fill-rule="evenodd" clip-rule="evenodd" d="M12.55 28.95C12.38 28.89 12.22 28.81 12.2 28.66C12.1952 28.6436 12.1952 28.6263 12.2 28.61C12.2 27.93 13.2 28.07 13.57 28.16L14.09 28.29C13.4556 28.0507 12.8404 27.7632 12.25 27.43L11.73 28.33L11.61 28.54L11.33 29.02C12.2433 29.1296 13.1192 29.4478 13.89 29.95C14.1791 30.1136 14.4839 30.2476 14.8 30.35C13.91 29.9 13.31 29.26 12.56 28.95H12.55Z" fill="url(#paint39_linear_281_2646)"/>
<path style="mix-blend-mode:multiply" opacity="0.5" fill-rule="evenodd" clip-rule="evenodd" d="M9.36 24.51C9.36 24.3 9.70999 24.38 9.81999 24.51C9.87756 24.5557 9.9281 24.6096 9.96999 24.67C9.87999 24.49 9.78 24.31 9.7 24.13C9.42552 24.0808 9.14447 24.0808 8.87 24.13C9.21397 24.8043 9.65537 25.4243 10.18 25.97C10.4097 26.1953 10.6535 26.4057 10.91 26.6C10.34 26.11 9.34 25.09 9.36 24.6V24.51Z" fill="url(#paint40_linear_281_2646)"/>
<path style="mix-blend-mode:screen" fill-rule="evenodd" clip-rule="evenodd" d="M16.2101 28.47C16.3901 28.36 16.1501 28.1 16.0201 28.05C15.9481 28.0253 15.8746 28.0053 15.8 27.99C16 27.99 16.2001 27.99 16.4001 27.99C16.589 28.1958 16.7351 28.4372 16.83 28.7C16.0772 28.7347 15.3233 28.664 14.5901 28.49C14.2785 28.4041 13.9742 28.2938 13.6801 28.16C14.3901 28.42 15.7701 28.78 16.2101 28.5V28.47Z" fill="url(#paint41_radial_281_2646)"/>
<path fill-rule="evenodd" clip-rule="evenodd" d="M10.4301 25.79L14.19 19.41H14.58L14.5001 18.84L20.5001 8.63997L21.1401 9.07997L20.8101 8.07997L20.9201 7.88997C23.6901 3.18997 25.61 1.13997 27.69 0.60997C28.26 2.67997 27.4501 5.35997 24.7601 10.11L20.9501 16.84L20.58 16.67L20.7601 17.18L14.5701 28.11C13.8081 27.8435 13.0718 27.5088 12.3701 27.11C11.6814 26.6969 11.032 26.2216 10.4301 25.69V25.79Z" fill="url(#paint42_linear_281_2646)"/>
<path fill-rule="evenodd" clip-rule="evenodd" d="M27.69 0.679977L26.14 3.35998V3.83998H25.87L12.36 27.25C13.0617 27.6488 13.798 27.9835 14.56 28.25L20.75 17.32L20.57 16.81L20.94 16.98L24.75 10.25C27.44 5.49998 28.25 2.81998 27.68 0.749977L27.69 0.679977Z" fill="url(#paint43_linear_281_2646)"/>
<path style="mix-blend-mode:screen" opacity="0.5" fill-rule="evenodd" clip-rule="evenodd" d="M10.8201 26.13L15.9501 17.4L20.9501 8.95999L20.5301 8.67999L14.5301 18.88L14.6101 19.45H14.22L10.4301 25.79L10.8201 26.13ZM21.0301 8.78999L21.3601 8.21999C21.9601 7.21999 22.59 6.21999 23.2701 5.21999C23.7693 4.47887 24.3242 3.77684 24.9301 3.12C25.5857 2.36444 26.3978 1.76049 27.3101 1.34999L27.69 0.699997C25.61 1.23 23.6901 3.28 20.9201 7.98L20.8101 8.16999L21.0301 8.8V8.78999Z" fill="url(#paint44_radial_281_2646)"/>
<path style="mix-blend-mode:screen" opacity="0.3" fill-rule="evenodd" clip-rule="evenodd" d="M14.08 28.01L19.08 19.2L24.34 9.92998C24.92 8.92998 25.49 7.84998 25.99 6.76998C26.3816 5.96459 26.7157 5.13251 26.99 4.27998C27.3164 3.33304 27.4324 2.32634 27.33 1.32998L27.71 0.679977C28.28 2.74998 27.47 5.42998 24.78 10.18L20.97 16.91L20.6 16.74L20.78 17.25L14.59 28.18C14.44 28.18 14.27 28.08 14.1 28.01H14.08Z" fill="url(#paint45_linear_281_2646)"/>
<path fill-rule="evenodd" clip-rule="evenodd" d="M25.44 5.50999C25.5018 5.40247 25.5187 5.27485 25.4868 5.15496C25.455 5.03508 25.377 4.93265 25.27 4.86999C25.1609 4.80764 25.0318 4.79052 24.9103 4.82231C24.7888 4.85409 24.6845 4.93224 24.62 5.03999L20.69 11.85L20.6 12.51L20.25 12.62L11.97 26.96L12.37 27.21L12.79 27.43L25.44 5.50999Z" fill="url(#paint46_linear_281_2646)"/>
<path style="mix-blend-mode:screen" opacity="0.5" fill-rule="evenodd" clip-rule="evenodd" d="M25.11 5.13998L12.37 27.21L12.79 27.43L17.69 18.94H18.07L18.12 18.21L25.44 5.53998C25.5018 5.43246 25.5187 5.30485 25.4868 5.18496C25.455 5.06507 25.377 4.96263 25.27 4.89998H25.17C25.184 5.00708 25.163 5.11584 25.11 5.20998V5.13998Z" fill="url(#paint47_linear_281_2646)"/>
<defs>
<linearGradient id="paint0_linear_281_2646" x1="16.6201" y1="37.32" x2="16.6201" y2="25.96" gradientUnits="userSpaceOnUse">
<stop offset="0.43" stop-color="#884329"/>
<stop offset="1" stop-color="#57280C"/>
</linearGradient>
<radialGradient id="paint1_radial_281_2646" cx="0" cy="0" r="1" gradientUnits="userSpaceOnUse" gradientTransform="translate(-0.829942 -1.42003) scale(34.74 34.74)">
<stop stop-color="#C28958"/>
<stop offset="1" stop-color="#734324"/>
</radialGradient>
<radialGradient id="paint2_radial_281_2646" cx="0" cy="0" r="1" gradientUnits="userSpaceOnUse" gradientTransform="translate(10.95 -9.59001) scale(50.17)">
<stop stop-color="#B6753E"/>
<stop offset="1" stop-color="#64381C"/>
</radialGradient>
<radialGradient id="paint3_radial_281_2646" cx="0" cy="0" r="1" gradientUnits="userSpaceOnUse" gradientTransform="translate(-3.79996 19.09) scale(38.69 38.69)">
<stop stop-color="#C28653"/>
<stop offset="1" stop-color="#734324"/>
</radialGradient>
<radialGradient id="paint4_radial_281_2646" cx="0" cy="0" r="1" gradientUnits="userSpaceOnUse" gradientTransform="translate(50.1499 69.5899) scale(49.85 49.8499)">
<stop stop-color="#C28653"/>
<stop offset="1" stop-color="#734324"/>
</radialGradient>
<linearGradient id="paint5_linear_281_2646" x1="31.88" y1="33.2" x2="4.03004" y2="5.34999" gradientUnits="userSpaceOnUse">
<stop stop-color="#85451A"/>
<stop offset="1" stop-color="#D49765"/>
</linearGradient>
<radialGradient id="paint6_radial_281_2646" cx="0" cy="0" r="1" gradientUnits="userSpaceOnUse" gradientTransform="translate(13.01 19.4) scale(32.47 32.47)">
<stop stop-color="#160E0C"/>
<stop offset="0.15" stop-color="#1A100C"/>
<stop offset="0.31" stop-color="#26170E"/>
<stop offset="0.46" stop-color="#3A2210"/>
<stop offset="0.61" stop-color="#563212"/>
<stop offset="0.77" stop-color="#7A4616"/>
<stop offset="0.92" stop-color="#A65E1A"/>
<stop offset="1" stop-color="#C06D1D"/>
</radialGradient>
<radialGradient id="paint7_radial_281_2646" cx="0" cy="0" r="1" gradientUnits="userSpaceOnUse" gradientTransform="translate(0.46 3.08999) scale(41.69 41.69)">
<stop stop-color="#F39200"/>
<stop offset="0.45" stop-color="#B63000"/>
<stop offset="0.52" stop-color="#9D2900"/>
<stop offset="0.85" stop-color="#2F0C00"/>
<stop offset="1" stop-color="#030000"/>
</radialGradient>
<radialGradient id="paint8_radial_281_2646" cx="0" cy="0" r="1" gradientUnits="userSpaceOnUse" gradientTransform="translate(7.04171 37.0371) rotate(15.0049) scale(2.28967 2.28966)">
<stop stop-color="#A15F00"/>
<stop offset="0.33" stop-color="#8F4A04"/>
<stop offset="0.58" stop-color="#853F06"/>
<stop offset="0.69" stop-color="#7F3C05"/>
<stop offset="0.84" stop-color="#6E3403"/>
<stop offset="1" stop-color="#522800"/>
</radialGradient>
<radialGradient id="paint9_radial_281_2646" cx="0" cy="0" r="1" gradientUnits="userSpaceOnUse" gradientTransform="translate(6.35006 37.6003) rotate(15.005) scale(2.78174 2.78175)">
<stop stop-color="#B18654"/>
<stop offset="1" stop-color="#000505"/>
</radialGradient>
<radialGradient id="paint10_radial_281_2646" cx="0" cy="0" r="1" gradientUnits="userSpaceOnUse" gradientTransform="translate(5.63928 38.0024) rotate(15.0049) scale(2.75162 2.75162)">
<stop stop-color="#B18654"/>
<stop offset="1" stop-color="#000505"/>
</radialGradient>
<radialGradient id="paint11_radial_281_2646" cx="0" cy="0" r="1" gradientUnits="userSpaceOnUse" gradientTransform="translate(7.69707 37.036) rotate(15.0049) scale(2.64115)">
<stop stop-color="#B18654"/>
<stop offset="1" stop-color="#000505"/>
</radialGradient>
<linearGradient id="paint12_linear_281_2646" x1="6.30006" y1="34.62" x2="8.99006" y2="36.17" gradientUnits="userSpaceOnUse">
<stop stop-color="#855226"/>
<stop offset="0.31" stop-color="#BA7A1E"/>
<stop offset="1" stop-color="#3B2008"/>
</linearGradient>
<linearGradient id="paint13_linear_281_2646" x1="5.02" y1="33.57" x2="9.64" y2="36.24" gradientUnits="userSpaceOnUse">
<stop stop-color="white"/>
<stop offset="0.4" stop-color="#C3C7E6"/>
<stop offset="1" stop-color="#616DBE"/>
</linearGradient>
<radialGradient id="paint14_radial_281_2646" cx="0" cy="0" r="1" gradientUnits="userSpaceOnUse" gradientTransform="translate(6.46999 34.57) scale(3.39999 3.39999)">
<stop stop-color="#B18654"/>
<stop offset="1" stop-color="#000505"/>
</radialGradient>
<linearGradient id="paint15_linear_281_2646" x1="9.86997" y1="28.4" x2="12.59" y2="29.97" gradientUnits="userSpaceOnUse">
<stop stop-color="#611412"/>
<stop offset="0.31" stop-color="#8A4835"/>
<stop offset="1" stop-color="#450E0E"/>
</linearGradient>
<linearGradient id="paint16_linear_281_2646" x1="9.08006" y1="29.85" x2="11.7301" y2="31.37" gradientUnits="userSpaceOnUse">
<stop stop-color="#611412"/>
<stop offset="0.31" stop-color="#8A4835"/>
<stop offset="1" stop-color="#450E0E"/>
</linearGradient>
<linearGradient id="paint17_linear_281_2646" x1="8.32006" y1="31.26" x2="10.8901" y2="32.74" gradientUnits="userSpaceOnUse">
<stop stop-color="#611412"/>
<stop offset="0.31" stop-color="#8A4835"/>
<stop offset="1" stop-color="#450E0E"/>
</linearGradient>
<linearGradient id="paint18_linear_281_2646" x1="7.57998" y1="32.63" x2="10.07" y2="34.06" gradientUnits="userSpaceOnUse">
<stop stop-color="#611412"/>
<stop offset="0.31" stop-color="#8A4835"/>
<stop offset="1" stop-color="#450E0E"/>
</linearGradient>
<linearGradient id="paint19_linear_281_2646" x1="6.87" y1="33.95" x2="9.28" y2="35.34" gradientUnits="userSpaceOnUse">
<stop stop-color="#611412"/>
<stop offset="0.31" stop-color="#8A4835"/>
<stop offset="1" stop-color="#450E0E"/>
</linearGradient>
<linearGradient id="paint20_linear_281_2646" x1="9.08002" y1="29.85" x2="10.46" y2="30.64" gradientUnits="userSpaceOnUse">
<stop stop-color="#616DBE"/>
<stop offset="0.6" stop-color="#C3C7E6"/>
<stop offset="1" stop-color="white"/>
</linearGradient>
<linearGradient id="paint21_linear_281_2646" x1="7.58004" y1="32.63" x2="8.89005" y2="33.38" gradientUnits="userSpaceOnUse">
<stop stop-color="#616DBE"/>
<stop offset="0.6" stop-color="#C3C7E6"/>
<stop offset="1" stop-color="white"/>
</linearGradient>
<linearGradient id="paint22_linear_281_2646" x1="9.87004" y1="28.4" x2="11.29" y2="29.22" gradientUnits="userSpaceOnUse">
<stop stop-color="#616DBE"/>
<stop offset="0.6" stop-color="#C3C7E6"/>
<stop offset="1" stop-color="white"/>
</linearGradient>
<linearGradient id="paint23_linear_281_2646" x1="8.32002" y1="31.26" x2="9.66001" y2="32.03" gradientUnits="userSpaceOnUse">
<stop stop-color="#616DBE"/>
<stop offset="0.6" stop-color="#C3C7E6"/>
<stop offset="1" stop-color="white"/>
</linearGradient>
<linearGradient id="paint24_linear_281_2646" x1="6.87004" y1="33.95" x2="8.13003" y2="34.68" gradientUnits="userSpaceOnUse">
<stop stop-color="#616DBE"/>
<stop offset="0.6" stop-color="#C3C7E6"/>
<stop offset="1" stop-color="white"/>
</linearGradient>
<linearGradient id="paint25_linear_281_2646" x1="11.1" y1="29.1" x2="12.59" y2="29.97" gradientUnits="userSpaceOnUse">
<stop stop-color="white"/>
<stop offset="0.4" stop-color="#C3C7E6"/>
<stop offset="1" stop-color="#616DBE"/>
</linearGradient>
<linearGradient id="paint26_linear_281_2646" x1="10.27" y1="30.53" x2="11.73" y2="31.37" gradientUnits="userSpaceOnUse">
<stop stop-color="white"/>
<stop offset="0.4" stop-color="#C3C7E6"/>
<stop offset="1" stop-color="#616DBE"/>
</linearGradient>
<linearGradient id="paint27_linear_281_2646" x1="9.47" y1="31.92" x2="10.89" y2="32.74" gradientUnits="userSpaceOnUse">
<stop stop-color="white"/>
<stop offset="0.4" stop-color="#C3C7E6"/>
<stop offset="1" stop-color="#616DBE"/>
</linearGradient>
<linearGradient id="paint28_linear_281_2646" x1="8.69001" y1="33.27" x2="10.07" y2="34.06" gradientUnits="userSpaceOnUse">
<stop stop-color="white"/>
<stop offset="0.4" stop-color="#C3C7E6"/>
<stop offset="1" stop-color="#616DBE"/>
</linearGradient>
<linearGradient id="paint29_linear_281_2646" x1="7.93999" y1="34.57" x2="9.27999" y2="35.34" gradientUnits="userSpaceOnUse">
<stop stop-color="white"/>
<stop offset="0.4" stop-color="#C3C7E6"/>
<stop offset="1" stop-color="#616DBE"/>
</linearGradient>
<linearGradient id="paint30_linear_281_2646" x1="10.17" y1="28.71" x2="11.28" y2="29.35" gradientUnits="userSpaceOnUse">
<stop stop-color="#AB665D"/>
<stop offset="1" stop-color="#2B2321"/>
</linearGradient>
<linearGradient id="paint31_linear_281_2646" x1="9.37007" y1="30.15" x2="10.4301" y2="30.76" gradientUnits="userSpaceOnUse">
<stop stop-color="#AB665D"/>
<stop offset="1" stop-color="#2B2321"/>
</linearGradient>
<linearGradient id="paint32_linear_281_2646" x1="8.57003" y1="31.52" x2="9.65003" y2="32.14" gradientUnits="userSpaceOnUse">
<stop stop-color="#AB665D"/>
<stop offset="1" stop-color="#2B2321"/>
</linearGradient>
<linearGradient id="paint33_linear_281_2646" x1="7.84" y1="32.89" x2="8.84" y2="33.47" gradientUnits="userSpaceOnUse">
<stop stop-color="#AB665D"/>
<stop offset="1" stop-color="#2B2321"/>
</linearGradient>
<linearGradient id="paint34_linear_281_2646" x1="7.15004" y1="34.24" x2="8.09004" y2="34.78" gradientUnits="userSpaceOnUse">
<stop stop-color="#AB665D"/>
<stop offset="1" stop-color="#2B2321"/>
</linearGradient>
<linearGradient id="paint35_linear_281_2646" x1="8.35002" y1="24.98" x2="16.31" y2="29.58" gradientUnits="userSpaceOnUse">
<stop stop-color="#6E3B0F"/>
<stop offset="1" stop-color="#BA7A1E"/>
</linearGradient>
<linearGradient id="paint36_linear_281_2646" x1="7.56003" y1="25.08" x2="12.31" y2="27.82" gradientUnits="userSpaceOnUse">
<stop stop-color="#A14D03"/>
<stop offset="1" stop-color="#E8A849"/>
</linearGradient>
<linearGradient id="paint37_linear_281_2646" x1="12.09" y1="27.7" x2="16.62" y2="30.31" gradientUnits="userSpaceOnUse">
<stop stop-color="#6E3B0F"/>
<stop offset="1" stop-color="#BA7A1E"/>
</linearGradient>
<radialGradient id="paint38_radial_281_2646" cx="0" cy="0" r="1" gradientUnits="userSpaceOnUse" gradientTransform="translate(12.21 28.03) scale(5.57999)">
<stop stop-color="#B18654"/>
<stop offset="1" stop-color="#000505"/>
</radialGradient>
<linearGradient id="paint39_linear_281_2646" x1="11.83" y1="28.15" x2="15" y2="29.98" gradientUnits="userSpaceOnUse">
<stop stop-color="#616DBE"/>
<stop offset="0.6" stop-color="#C3C7E6"/>
<stop offset="1" stop-color="white"/>
</linearGradient>
<linearGradient id="paint40_linear_281_2646" x1="8.69" y1="24.38" x2="11.29" y2="25.88" gradientUnits="userSpaceOnUse">
<stop stop-color="#616DBE"/>
<stop offset="0.6" stop-color="#C3C7E6"/>
<stop offset="1" stop-color="white"/>
</linearGradient>
<radialGradient id="paint41_radial_281_2646" cx="0" cy="0" r="1" gradientUnits="userSpaceOnUse" gradientTransform="translate(17.15 29.32) scale(4.04999 4.05003)">
<stop stop-color="#B18654"/>
<stop offset="1" stop-color="#000505"/>
</radialGradient>
<linearGradient id="paint42_linear_281_2646" x1="17.9601" y1="12.75" x2="20.1001" y2="13.98" gradientUnits="userSpaceOnUse">
<stop stop-color="#7388AB"/>
<stop offset="1" stop-color="#DCFBFF"/>
</linearGradient>
<linearGradient id="paint43_linear_281_2646" x1="20.03" y1="13.94" x2="22.09" y2="15.14" gradientUnits="userSpaceOnUse">
<stop stop-color="#89A5C4"/>
<stop offset="1" stop-color="#575E91"/>
</linearGradient>
<radialGradient id="paint44_radial_281_2646" cx="0" cy="0" r="1" gradientUnits="userSpaceOnUse" gradientTransform="translate(9.08006 4.7) scale(27.83)">
<stop stop-color="#F0FFFF"/>
<stop offset="0.11" stop-color="#ECFAFB"/>
<stop offset="0.24" stop-color="#DFEDEF"/>
<stop offset="0.37" stop-color="#C9D6DB"/>
<stop offset="0.51" stop-color="#ABB7BE"/>
<stop offset="0.65" stop-color="#848E9A"/>
<stop offset="0.79" stop-color="#545C6D"/>
<stop offset="0.93" stop-color="#1D233A"/>
<stop offset="1" stop-color="#00051F"/>
</radialGradient>
<linearGradient id="paint45_linear_281_2646" x1="20.07" y1="13.87" x2="22.14" y2="15.07" gradientUnits="userSpaceOnUse">
<stop offset="0.45" stop-color="#F0FFFF"/>
<stop offset="0.51" stop-color="#ECFAFB"/>
<stop offset="0.58" stop-color="#DFEDEF"/>
<stop offset="0.66" stop-color="#C9D6DB"/>
<stop offset="0.73" stop-color="#ABB7BE"/>
<stop offset="0.81" stop-color="#848E9A"/>
<stop offset="0.88" stop-color="#545C6D"/>
<stop offset="0.96" stop-color="#1D233A"/>
<stop offset="1" stop-color="#00051F"/>
</linearGradient>
<linearGradient id="paint46_linear_281_2646" x1="18.41" y1="15.8" x2="19.23" y2="16.27" gradientUnits="userSpaceOnUse">
<stop stop-color="#545F85"/>
<stop offset="1" stop-color="#ADCAEB"/>
</linearGradient>
<linearGradient id="paint47_linear_281_2646" x1="18.73" y1="15.99" x2="19.5" y2="16.43" gradientUnits="userSpaceOnUse">
<stop/>
<stop offset="1" stop-color="#F0FFFF"/>
</linearGradient>
</defs>
</svg>
