<svg width="34" height="37" viewBox="0 0 34 37" fill="none" xmlns="http://www.w3.org/2000/svg">
<path fill-rule="evenodd" clip-rule="evenodd" d="M31.95 3.24435C31.6365 3.05855 31.3004 2.91402 30.95 2.81435C28.49 2.90435 26.06 2.91435 23.64 2.81435H22.94C17.5837 2.42403 12.2062 2.42403 6.84997 2.81435C5.35107 3.03148 3.86544 3.33195 2.39997 3.71435C2.22752 3.76551 2.07206 3.86224 1.94997 3.99435C1.70078 4.3678 1.49921 4.77092 1.34997 5.19435C1.78005 11.3472 1.6428 17.5266 0.939963 23.6544C0.939963 23.8744 0.939965 24.0543 0.879965 24.1643C0.819965 24.2743 0.879967 24.4544 0.959967 24.6144C1.09997 25.3344 1.25997 26.1844 1.41997 27.0044C1.62997 28.4844 2.56997 32.1644 3.05997 32.7544C3.24723 33.0047 3.4475 33.245 3.65996 33.4744C3.84996 33.6744 4.05997 33.9043 4.28997 34.1343C4.34997 34.1943 4.39998 34.2544 4.46998 34.3144C4.92998 34.7844 5.46997 35.3143 5.91997 35.7343L6.07998 35.8944L6.73997 36.5044C7.91997 36.6044 11.74 36.5744 19.16 36.6544C23.09 36.6544 27.44 36.8144 29.46 36.6544C29.89 36.3544 31.96 35.1144 32.78 34.3944L32.96 33.8144L33.58 31.8144C33.66 31.5944 33.66 21.1243 33.8 12.4843C33.8 11.6043 33.8 10.7443 33.8 9.91435C33.8 8.20435 33.88 6.63435 33.93 5.31435C33.3246 4.57405 32.6626 3.88197 31.95 3.24435ZM13.35 10.4143L14.52 9.61435C14.13 9.88435 13.75 10.1644 13.36 10.4244L13.35 10.4143ZM15.61 8.83435C16.12 8.46435 16.61 8.07435 17.13 7.68435C16.62 8.07435 16.12 8.46435 15.61 8.83435Z" fill="#924000"/>
<path fill-rule="evenodd" clip-rule="evenodd" d="M1.82993 25.3643L1.41992 27.0043C1.62992 28.4843 2.56992 32.1643 3.05992 32.7543C4.1981 34.0882 5.42773 35.3412 6.73991 36.5043C7.91991 36.6043 11.7399 36.5743 19.1599 36.6543C23.0899 36.6543 27.4399 36.8143 29.4599 36.6543C29.8899 36.3543 31.9599 35.1143 32.7799 34.3943L33.5799 31.8143L32.8799 25.4043L1.82993 25.3643Z" fill="url(#paint0_linear_2012_59)"/>
<path fill-rule="evenodd" clip-rule="evenodd" d="M12.7099 10.8543C16.3215 8.45591 19.7417 5.78124 22.9399 2.85433C17.5837 2.464 12.2062 2.464 6.84995 2.85433C5.35105 3.07146 3.86542 3.37193 2.39995 3.75433C2.22749 3.80549 2.07204 3.90222 1.94995 4.03433C1.70075 4.40778 1.49919 4.8109 1.34995 5.23433C1.78003 11.3872 1.64278 17.5666 0.939941 23.6943C3.93994 20.6943 10.9399 13.0043 12.7099 10.8943V10.8543Z" fill="url(#paint1_radial_2012_59)"/>
<path fill-rule="evenodd" clip-rule="evenodd" d="M23.64 2.81433C20.3415 5.93669 16.8114 8.80489 13.08 11.3943C10.93 12.8043 3.80996 21.6943 0.959961 24.6143C1.09996 25.3343 1.25997 26.1843 1.41997 27.0043C1.58131 28.0674 1.877 29.1057 2.29996 30.0943C3.49664 31.5149 4.7897 32.8514 6.16997 34.0943C7.31997 34.4743 15.85 35.0943 19.17 35.2943C21.8111 32.8023 24.7032 30.5905 27.8 28.6943C28.25 27.5743 28.71 26.4843 29.15 25.4143C30.15 22.9843 31.15 20.6543 31.87 18.2343C32.6941 15.5046 33.3618 12.7301 33.87 9.92433C33.87 8.21433 33.95 6.64433 34 5.32433C33.3855 4.60745 32.7169 3.93881 32 3.32433C31.6865 3.13853 31.3504 2.994 31 2.89433C28.54 2.98433 26.11 2.99433 23.69 2.89433L23.64 2.81433Z" fill="url(#paint2_radial_2012_59)"/>
<path fill-rule="evenodd" clip-rule="evenodd" d="M32.1899 18.3343C31.4599 20.7043 30.6599 22.9943 29.7599 25.3343C29.3499 26.4243 28.91 27.5443 28.45 28.6843C28.63 29.1343 31.52 30.6243 33.56 31.7743C33.64 31.5543 33.64 21.0843 33.78 12.4443C33.28 14.5043 32.78 16.4443 32.17 18.3343H32.1899Z" fill="url(#paint3_radial_2012_59)"/>
<path fill-rule="evenodd" clip-rule="evenodd" d="M33.22 32.0743C31.6028 31.0613 29.8481 30.2867 28.01 29.7743C25.01 30.1243 22.28 32.9443 20.11 35.2743C21.75 35.2743 28.63 34.5143 30.11 34.1543C30.51 33.8743 32.24 32.8343 33.24 32.0743H33.22Z" fill="url(#paint4_radial_2012_59)"/>
<path fill-rule="evenodd" clip-rule="evenodd" d="M29.12 25.3643C28.68 26.4343 28.22 27.5243 27.77 28.6443C24.6732 30.5406 21.7812 32.7523 19.14 35.2443H19.8H20.08C22.25 32.9143 25.02 30.0943 27.98 29.7443C29.8286 30.254 31.5935 31.0287 33.22 32.0443L33.56 31.7743C31.56 30.6243 28.63 29.1343 28.45 28.6843C28.91 27.5443 29.35 26.4243 29.76 25.3343C30.66 22.9643 31.46 20.6743 32.19 18.3343C32.77 16.4443 33.3 14.5043 33.8 12.4443C33.8 11.5643 33.8 10.7043 33.8 9.87433C33.2918 12.6801 32.6241 15.4546 31.8 18.1843C31.05 20.6043 30.1 22.9343 29.08 25.3643H29.12ZM13.36 10.4243C12.3838 9.58022 11.526 8.6081 10.81 7.53433C9.64001 6.04433 8.45 4.53433 7.27 3.09433C7.22308 3.02122 7.16156 2.95861 7.08928 2.91043C7.017 2.86224 6.93553 2.82952 6.85001 2.81433C8.30001 4.81433 9.72001 6.81433 11.1 8.89433C11.6033 9.64069 12.0257 10.4385 12.36 11.2743C10.14 13.8243 3.74 20.8143 0.940002 23.6543C0.940002 23.8743 0.940005 24.0543 0.880005 24.1643L0.960007 24.6143C3.81001 21.6943 10.96 12.8043 13.08 11.3943C16.8115 8.80489 20.3416 5.93669 23.64 2.81433H22.94C19.9304 5.57406 16.7291 8.1171 13.36 10.4243Z" fill="url(#paint5_linear_2012_59)"/>
<path style="mix-blend-mode:screen" opacity="0.35" fill-rule="evenodd" clip-rule="evenodd" d="M31.95 3.24435C31.6365 3.05855 31.3004 2.91402 30.95 2.81435C28.49 2.90435 26.06 2.91435 23.64 2.81435H22.94C17.5837 2.42403 12.2062 2.42403 6.84997 2.81435C5.35107 3.03148 3.86544 3.33195 2.39997 3.71435C2.22752 3.76551 2.07206 3.86224 1.94997 3.99435C1.70078 4.3678 1.49921 4.77092 1.34997 5.19435C1.78005 11.3472 1.6428 17.5266 0.939963 23.6544C0.939963 23.8744 0.939965 24.0543 0.879965 24.1643C0.819965 24.2743 0.879967 24.4544 0.959967 24.6144C1.09997 25.3344 1.25997 26.1844 1.41997 27.0044C1.62997 28.4844 2.56997 32.1644 3.05997 32.7544C3.24723 33.0047 3.4475 33.245 3.65996 33.4744C3.84996 33.6744 4.05997 33.9043 4.28997 34.1343C4.34997 34.1943 4.39998 34.2544 4.46998 34.3144C4.92998 34.7844 5.46997 35.3143 5.91997 35.7343L6.07998 35.8944L6.73997 36.5044C7.91997 36.6044 11.74 36.5744 19.16 36.6544C23.09 36.6544 27.44 36.8144 29.46 36.6544C29.89 36.3544 31.96 35.1144 32.78 34.3944L32.96 33.8144L33.58 31.8144C33.66 31.5944 33.66 21.1243 33.8 12.4843C33.8 11.6043 33.8 10.7443 33.8 9.91435C33.8 8.20435 33.88 6.63435 33.93 5.31435C33.3246 4.57405 32.6626 3.88197 31.95 3.24435ZM13.35 10.4143L14.52 9.61435C14.13 9.88435 13.75 10.1644 13.36 10.4244L13.35 10.4143ZM15.61 8.83435C16.12 8.46435 16.61 8.07435 17.13 7.68435C16.62 8.07435 16.12 8.46435 15.61 8.83435Z" fill="url(#paint6_radial_2012_59)"/>
<g style="mix-blend-mode:multiply" opacity="0.4">
<path fill-rule="evenodd" clip-rule="evenodd" d="M27.01 14.6043L28.93 11.8343C29.18 11.4043 28.36 10.4543 27.05 9.58435C27.318 9.27123 27.5127 8.90227 27.62 8.50435C27.9784 7.97076 28.1952 7.35478 28.25 6.71434C28.4597 6.10401 28.5147 5.45116 28.41 4.81434C28.4924 4.12558 28.3633 3.42806 28.04 2.81434C28.0219 2.71162 27.9846 2.61324 27.93 2.52434L27.87 2.45434C27.8274 2.40311 27.7768 2.3592 27.72 2.32435C27.6873 2.31542 27.6528 2.31542 27.62 2.32435C27.5675 2.294 27.5099 2.27366 27.45 2.26434H27.24C27.1704 2.2545 27.0997 2.2545 27.03 2.26434C26.8967 2.32644 26.7787 2.41718 26.6844 2.53011C26.5902 2.64303 26.522 2.77536 26.4847 2.91766C26.4475 3.05996 26.4421 3.20872 26.4689 3.35335C26.4958 3.49797 26.5542 3.63489 26.64 3.75435C26.58 4.36894 26.6656 4.98903 26.89 5.56434C26.687 6.08567 26.6116 6.64796 26.67 7.20434C26.3337 7.71317 26.0836 8.27405 25.93 8.86435L25.86 8.93435C24.4 8.18435 23.1 7.93435 22.86 8.36435L21.41 11.4643C19.8641 11.1004 18.2588 11.0673 16.6992 11.3671C15.1397 11.667 13.6611 12.2931 12.3604 13.2044C11.0597 14.1157 9.96635 15.2916 9.15194 16.655C8.33752 18.0185 7.82046 19.5386 7.63465 21.1159C7.44884 22.6931 7.59849 24.2918 8.07377 25.8071C8.54904 27.3225 9.33922 28.7203 10.3925 29.9089C11.4458 31.0975 12.7384 32.0501 14.1856 32.7042C15.6328 33.3583 17.2019 33.6991 18.79 33.7043C20.9868 33.6957 23.1334 33.0458 24.966 31.8344C26.7986 30.6229 28.2376 28.9027 29.1063 26.8849C29.9751 24.8672 30.2357 22.6396 29.8561 20.4758C29.4766 18.312 28.4736 16.3061 26.97 14.7043L27.01 14.6043Z" fill="#3A1D0D"/>
</g>
<path fill-rule="evenodd" clip-rule="evenodd" d="M17.58 8.93435C19.8127 8.93436 21.9951 9.59694 23.851 10.8382C25.7068 12.0794 27.1526 13.8435 28.0051 15.907C28.8577 17.9704 29.0787 20.2405 28.6403 22.4297C28.2018 24.6189 27.1235 26.6287 25.5419 28.2047C23.9604 29.7806 21.9467 30.8517 19.756 31.2825C17.5653 31.7132 15.296 31.4841 13.2355 30.6242C11.1751 29.7643 9.4162 28.3123 8.18156 26.452C6.94692 24.5918 6.29208 22.407 6.3 20.1743C6.3 17.1827 7.48844 14.3136 9.60385 12.1982C11.7193 10.0828 14.5884 8.89435 17.58 8.89435V8.93435Z" fill="url(#paint7_radial_2012_59)"/>
<path style="mix-blend-mode:multiply" fill-rule="evenodd" clip-rule="evenodd" d="M17.58 8.93435C19.8127 8.93436 21.9951 9.59694 23.851 10.8382C25.7068 12.0794 27.1526 13.8435 28.0051 15.907C28.8577 17.9704 29.0787 20.2405 28.6403 22.4297C28.2018 24.6189 27.1235 26.6287 25.5419 28.2047C23.9604 29.7806 21.9467 30.8517 19.756 31.2825C17.5653 31.7132 15.296 31.4841 13.2355 30.6242C11.1751 29.7643 9.4162 28.3123 8.18156 26.452C6.94692 24.5918 6.29208 22.407 6.3 20.1743C6.3 17.1827 7.48844 14.3136 9.60385 12.1982C11.7193 10.0828 14.5884 8.89435 17.58 8.89435V8.93435Z" fill="url(#paint8_radial_2012_59)"/>
<path style="mix-blend-mode:screen" opacity="0.4" fill-rule="evenodd" clip-rule="evenodd" d="M21.06 11.7443C23.6 14.2843 23.06 18.9343 19.87 22.1343C16.68 25.3343 12.03 25.8543 9.49002 23.3143C6.95002 20.7743 7.49003 16.1243 10.67 12.9343C13.85 9.74432 18.52 9.20432 21.06 11.7443Z" fill="url(#paint9_radial_2012_59)"/>
<path style="mix-blend-mode:screen" opacity="0.75" fill-rule="evenodd" clip-rule="evenodd" d="M11.12 13.4643C13.64 10.9443 17.26 10.4643 19.19 12.3943C21.12 14.3243 20.64 17.9343 18.12 20.4643C15.6 22.9943 11.97 23.4643 10.04 21.5443C8.10998 19.6243 8.58999 15.9943 11.12 13.4643Z" fill="url(#paint10_radial_2012_59)"/>
<path style="mix-blend-mode:screen" fill-rule="evenodd" clip-rule="evenodd" d="M25.95 14.3743C27.1327 16.2719 27.6716 18.5004 27.4868 20.7287C27.302 22.957 26.4032 25.0662 24.9241 26.743C23.4449 28.4198 21.4643 29.5747 19.2765 30.0362C17.0887 30.4976 14.8104 30.2409 12.78 29.3043C14.8022 29.7889 16.9215 29.6755 18.8804 28.9779C20.8393 28.2803 22.5533 27.0286 23.8139 25.3749C25.0746 23.7212 25.8275 21.7369 25.9813 19.6632C26.1351 17.5895 25.683 15.5158 24.68 13.6943C24.34 13.0743 25.54 13.6943 25.95 14.3743Z" fill="url(#paint11_radial_2012_59)"/>
<path style="mix-blend-mode:screen" fill-rule="evenodd" clip-rule="evenodd" d="M17.58 8.93435C19.8127 8.93436 21.9951 9.59694 23.851 10.8382C25.7068 12.0794 27.1526 13.8435 28.0051 15.907C28.8577 17.9704 29.0787 20.2405 28.6403 22.4297C28.2018 24.6189 27.1235 26.6287 25.5419 28.2047C23.9604 29.7806 21.9467 30.8517 19.756 31.2825C17.5653 31.7132 15.296 31.4841 13.2355 30.6242C11.1751 29.7643 9.4162 28.3123 8.18156 26.452C6.94692 24.5918 6.29208 22.407 6.3 20.1743C6.3 17.1827 7.48844 14.3136 9.60385 12.1982C11.7193 10.0828 14.5884 8.89435 17.58 8.89435V8.93435Z" fill="url(#paint12_radial_2012_59)"/>
<path fill-rule="evenodd" clip-rule="evenodd" d="M21.6499 6.17432L27.7099 9.67432L25.5799 12.7343C25.3199 13.1843 23.8799 12.8443 22.3499 11.9643C20.8199 11.0843 19.8099 9.96431 20.0699 9.55431L21.6499 6.17432Z" fill="url(#paint13_radial_2012_59)"/>
<path fill-rule="evenodd" clip-rule="evenodd" d="M25.2 7.01432C26.87 8.01432 28 9.16432 27.71 9.65432C27.42 10.1443 25.84 9.76432 24.16 8.80432C22.48 7.84432 21.37 6.65432 21.65 6.15432C21.93 5.65432 23.53 6.04432 25.2 7.01432Z" fill="url(#paint14_radial_2012_59)"/>
<g style="mix-blend-mode:multiply" opacity="0.5">
<path fill-rule="evenodd" clip-rule="evenodd" d="M20.3199 10.3243L21.9399 7.02435C21.6699 6.69435 21.5599 6.40435 21.6299 6.20435L20.0699 9.53435C19.9999 9.71435 20.0699 9.98435 20.3399 10.2843L20.3199 10.3243Z" fill="#1181C7"/>
</g>
<path style="mix-blend-mode:screen" fill-rule="evenodd" clip-rule="evenodd" d="M22.4799 7.60437C21.9299 8.68437 21.3799 9.76437 20.8199 10.8444C21.1342 11.1249 21.4684 11.3823 21.8199 11.6144C22.4099 10.5544 23 9.50437 23.58 8.44437C23.1935 8.19131 22.8258 7.91058 22.4799 7.60437Z" fill="url(#paint15_radial_2012_59)"/>
<path style="mix-blend-mode:screen" opacity="0.6" fill-rule="evenodd" clip-rule="evenodd" d="M26.01 9.66431L24.01 12.7243C24.79 12.9743 25.38 12.9843 25.53 12.7243L27.63 9.72431C27.42 9.98431 26.8 9.94431 26 9.72431L26.01 9.66431Z" fill="url(#paint16_linear_2012_59)"/>
<path d="M25.14 8.17431C24.97 8.34431 24.3299 8.17431 24.1899 7.75431C24.0499 7.33431 24.51 6.83431 24.74 6.65431C24.8936 6.06401 25.1436 5.50313 25.48 4.99431C25.4215 4.43792 25.497 3.87563 25.7 3.35431C25.4756 2.77899 25.3899 2.1589 25.45 1.54431C25.3641 1.42485 25.3057 1.28793 25.2789 1.14331C25.252 0.998683 25.2574 0.849922 25.2947 0.707625C25.3319 0.565327 25.4001 0.432998 25.4944 0.320071C25.5886 0.207143 25.7066 0.116401 25.84 0.0543082C25.9433 0.0120462 26.055 -0.00594332 26.1664 0.00172258C26.2778 0.00938849 26.3859 0.042503 26.4825 0.0985243C26.5791 0.154546 26.6616 0.23198 26.7235 0.324866C26.7855 0.417751 26.8253 0.523611 26.84 0.634306C27.1633 1.24802 27.2923 1.94554 27.21 2.63431C27.3146 3.27112 27.2597 3.92397 27.05 4.53431C27.003 5.17486 26.7893 5.79197 26.43 6.32431C26.1701 7.04366 25.7251 7.68177 25.14 8.17431Z" fill="url(#paint17_radial_2012_59)"/>
<g style="mix-blend-mode:multiply">
<path fill-rule="evenodd" clip-rule="evenodd" d="M26.64 2.75435C27.38 2.85435 26.95 4.34434 26.12 4.66434C27.33 4.66434 26.42 6.11434 25.66 6.31434C26.39 6.78434 25.25 8.23435 24.25 7.86435C24.46 8.18435 24.99 8.32435 25.14 8.17435C25.7178 7.67936 26.1557 7.04147 26.41 6.32435C26.7693 5.79201 26.9831 5.17489 27.03 4.53435C27.2397 3.92401 27.2947 3.27116 27.19 2.63434C27.2723 1.94558 27.1433 1.24806 26.82 0.634344C26.795 0.446529 26.6971 0.276119 26.5473 0.160059C26.3976 0.0439983 26.2081 -0.00835657 26.02 0.0143449C26.1076 0.0225356 26.1912 0.0546356 26.2618 0.107137C26.3324 0.159639 26.3872 0.230524 26.4202 0.312052C26.4532 0.393579 26.4632 0.482615 26.4491 0.569433C26.4349 0.656251 26.3972 0.737514 26.34 0.804346C27.06 0.804346 27.13 2.22435 26.64 2.75435Z" fill="#CBBBA0"/>
</g>
<path style="mix-blend-mode:screen" fill-rule="evenodd" clip-rule="evenodd" d="M25.5699 0.344341C25.3599 0.584341 25.2599 1.13434 25.4299 1.29434C25.4549 1.31154 25.4846 1.32075 25.5149 1.32075C25.5453 1.32075 25.5749 1.31154 25.5999 1.29434C25.873 1.06822 26.0831 0.77545 26.2099 0.444343C26.3099 -0.0356569 25.8099 0.044342 25.5699 0.314342V0.344341ZM26.1899 1.13434C25.9899 1.30434 25.7099 1.56434 25.6799 1.60434C25.6081 1.68672 25.5598 1.78688 25.5399 1.89434C25.5169 2.19235 25.5371 2.49212 25.5999 2.78434C25.5999 3.06434 25.7999 3.22434 25.9999 3.08434C26.3728 2.85444 26.6526 2.5003 26.7899 2.08434C26.824 1.8422 26.824 1.59648 26.7899 1.35434C26.7299 0.944343 26.4599 0.854341 26.1499 1.11434L26.1899 1.13434ZM26.4099 3.04434C26.2236 3.1364 26.049 3.25055 25.8899 3.38434C25.6699 3.59434 25.4499 4.45435 25.5999 4.61435C25.6284 4.63207 25.6614 4.64145 25.6949 4.64145C25.7285 4.64145 25.7614 4.63207 25.7899 4.61435C26.0411 4.53654 26.2667 4.39232 26.4427 4.19694C26.6187 4.00156 26.7387 3.76227 26.7899 3.50434C26.8999 3.11434 26.8599 2.76434 26.3799 3.01434L26.4099 3.04434ZM26.2999 4.76434C26.1221 4.78793 25.9508 4.847 25.7962 4.93805C25.6416 5.02909 25.5068 5.15025 25.3999 5.29435C25.2205 5.57166 25.0697 5.86651 24.9499 6.17434C24.9128 6.25318 24.8891 6.33768 24.8799 6.42434C24.8799 6.50434 24.9899 6.48434 25.1199 6.42434C25.422 6.31077 25.7131 6.1702 25.9899 6.00434C26.2899 5.78434 26.6999 5.26434 26.5299 4.88434C26.5072 4.84292 26.474 4.80819 26.4336 4.78363C26.3933 4.75906 26.3472 4.74551 26.2999 4.74434V4.76434ZM25.4299 6.53434C25.1803 6.55857 24.9423 6.65186 24.7427 6.80376C24.5431 6.95566 24.3898 7.16017 24.2999 7.39434C24.2999 7.45434 24.2999 7.54435 24.2999 7.58435C24.5899 7.78435 25.4699 7.23434 25.6599 6.87434C25.7699 6.67434 25.6599 6.51434 25.4199 6.53434H25.4299Z" fill="url(#paint18_radial_2012_59)"/>
<path style="mix-blend-mode:screen" opacity="0.35" fill-rule="evenodd" clip-rule="evenodd" d="M12.63 12.8044C14.58 11.5444 16.93 11.7344 17.9 13.2244C18.87 14.7144 18.06 16.9344 16.12 18.2244C14.18 19.5144 11.82 19.2944 10.86 17.8044C9.89998 16.3144 10.69 14.0944 12.63 12.8044Z" fill="url(#paint19_radial_2012_59)"/>
<defs>
<linearGradient id="paint0_linear_2012_59" x1="17.4999" y1="36.7243" x2="17.4999" y2="25.3643" gradientUnits="userSpaceOnUse">
<stop offset="0.43" stop-color="#884329"/>
<stop offset="1" stop-color="#57280C"/>
</linearGradient>
<radialGradient id="paint1_radial_2012_59" cx="0" cy="0" r="1" gradientUnits="userSpaceOnUse" gradientTransform="translate(0.0499404 -2.02567) scale(34.74 34.74)">
<stop stop-color="#C28958"/>
<stop offset="1" stop-color="#734324"/>
</radialGradient>
<radialGradient id="paint2_radial_2012_59" cx="0" cy="0" r="1" gradientUnits="userSpaceOnUse" gradientTransform="translate(11.83 -10.1857) scale(50.17 50.17)">
<stop stop-color="#B6753E"/>
<stop offset="1" stop-color="#64381C"/>
</radialGradient>
<radialGradient id="paint3_radial_2012_59" cx="0" cy="0" r="1" gradientUnits="userSpaceOnUse" gradientTransform="translate(-2.92006 18.4943) scale(38.69 38.69)">
<stop stop-color="#C28653"/>
<stop offset="1" stop-color="#734324"/>
</radialGradient>
<radialGradient id="paint4_radial_2012_59" cx="0" cy="0" r="1" gradientUnits="userSpaceOnUse" gradientTransform="translate(51.03 68.9943) scale(49.85 49.85)">
<stop stop-color="#C28653"/>
<stop offset="1" stop-color="#734324"/>
</radialGradient>
<linearGradient id="paint5_linear_2012_59" x1="32.76" y1="32.5943" x2="4.91" y2="4.74433" gradientUnits="userSpaceOnUse">
<stop stop-color="#85451A"/>
<stop offset="1" stop-color="#D49765"/>
</linearGradient>
<radialGradient id="paint6_radial_2012_59" cx="0" cy="0" r="1" gradientUnits="userSpaceOnUse" gradientTransform="translate(1.33997 2.49435) scale(41.69 41.69)">
<stop stop-color="#F39200"/>
<stop offset="0.45" stop-color="#B63000"/>
<stop offset="0.52" stop-color="#9D2900"/>
<stop offset="0.85" stop-color="#2F0C00"/>
<stop offset="1" stop-color="#030000"/>
</radialGradient>
<radialGradient id="paint7_radial_2012_59" cx="0" cy="0" r="1" gradientUnits="userSpaceOnUse" gradientTransform="translate(15.1 13.7043) scale(17.77 17.77)">
<stop stop-color="#4D6187"/>
<stop offset="0.88" stop-color="#0F2036"/>
</radialGradient>
<radialGradient id="paint8_radial_2012_59" cx="0" cy="0" r="1" gradientUnits="userSpaceOnUse" gradientTransform="translate(17.73 24.4743) scale(20.56 20.56)">
<stop offset="0.54" stop-color="white"/>
<stop offset="0.58" stop-color="#EDEDED"/>
<stop offset="0.68" stop-color="#BFBFBF"/>
<stop offset="0.81" stop-color="#757575"/>
<stop offset="0.98" stop-color="#101010"/>
<stop offset="1"/>
</radialGradient>
<radialGradient id="paint9_radial_2012_59" cx="0" cy="0" r="1" gradientUnits="userSpaceOnUse" gradientTransform="translate(12.05 10.6943) scale(15.24 15.24)">
<stop stop-color="#312169"/>
<stop offset="1"/>
</radialGradient>
<radialGradient id="paint10_radial_2012_59" cx="0" cy="0" r="1" gradientUnits="userSpaceOnUse" gradientTransform="translate(9.28998 9.67433) scale(19.02 19.02)">
<stop stop-color="#232C69"/>
<stop offset="1"/>
</radialGradient>
<radialGradient id="paint11_radial_2012_59" cx="0" cy="0" r="1" gradientUnits="userSpaceOnUse" gradientTransform="translate(16.9 12.9143) scale(17.49 17.49)">
<stop stop-color="#232C69"/>
<stop offset="1"/>
</radialGradient>
<radialGradient id="paint12_radial_2012_59" cx="0" cy="0" r="1" gradientUnits="userSpaceOnUse" gradientTransform="translate(16.67 19.2043) scale(13.16 13.16)">
<stop offset="0.83"/>
<stop offset="0.85" stop-color="#000812"/>
<stop offset="0.9" stop-color="#001C40"/>
<stop offset="0.96" stop-color="#003B89"/>
<stop offset="1" stop-color="#0052BD"/>
</radialGradient>
<radialGradient id="paint13_radial_2012_59" cx="0" cy="0" r="1" gradientUnits="userSpaceOnUse" gradientTransform="translate(23.5199 7.03432) scale(8.69 8.69)">
<stop stop-color="#4D6187"/>
<stop offset="0.86" stop-color="#0F2036"/>
</radialGradient>
<radialGradient id="paint14_radial_2012_59" cx="0" cy="0" r="1" gradientUnits="userSpaceOnUse" gradientTransform="translate(21.52 8.47432) scale(9.5 9.5)">
<stop stop-color="#374969"/>
<stop offset="0.86" stop-color="#141B24"/>
</radialGradient>
<radialGradient id="paint15_radial_2012_59" cx="0" cy="0" r="1" gradientUnits="userSpaceOnUse" gradientTransform="translate(20.8099 6.40437) scale(7.16003 7.16)">
<stop stop-color="#232C69"/>
<stop offset="1"/>
</radialGradient>
<linearGradient id="paint16_linear_2012_59" x1="24.55" y1="10.2743" x2="26.37" y2="11.5543" gradientUnits="userSpaceOnUse">
<stop offset="0.17"/>
<stop offset="0.28" stop-color="#000812"/>
<stop offset="0.5" stop-color="#001C40"/>
<stop offset="0.8" stop-color="#003B89"/>
<stop offset="1" stop-color="#0052BD"/>
</linearGradient>
<radialGradient id="paint17_radial_2012_59" cx="0" cy="0" r="1" gradientUnits="userSpaceOnUse" gradientTransform="translate(24.56 0.414308) scale(8.70001 8.7)">
<stop stop-color="#AD8550"/>
<stop offset="0.37" stop-color="#96723E"/>
<stop offset="1" stop-color="#664918"/>
</radialGradient>
<radialGradient id="paint18_radial_2012_59" cx="0" cy="0" r="1" gradientUnits="userSpaceOnUse" gradientTransform="translate(23.9499 3.72434) scale(4.28001 4.28)">
<stop offset="0.35" stop-color="#B17F4A"/>
<stop offset="1"/>
</radialGradient>
<radialGradient id="paint19_radial_2012_59" cx="0" cy="0" r="1" gradientUnits="userSpaceOnUse" gradientTransform="translate(9.66652 7.17689) rotate(12.08) scale(13.37 13.37)">
<stop stop-color="#636BA3"/>
<stop offset="1"/>
</radialGradient>
</defs>
</svg>
